<svg width="50" height="53" viewBox="0 0 50 53" fill="none" xmlns="http://www.w3.org/2000/svg">
<g clip-path="url(#clip0)">
<path d="M40.127 31.4246C45.5797 31.4246 50 27.0043 50 21.5515C50 16.0988 45.5797 11.6785 40.127 11.6785C34.6742 11.6785 30.2539 16.0988 30.2539 21.5515C30.2539 27.0043 34.6742 31.4246 40.127 31.4246Z" fill="#59DBF0"/>
<path d="M18.2302 52.9055C22.904 52.9055 26.6928 49.1166 26.6928 44.4428C26.6928 39.7691 22.904 35.9802 18.2302 35.9802C13.5564 35.9802 9.76758 39.7691 9.76758 44.4428C9.76758 49.1166 13.5564 52.9055 18.2302 52.9055Z" fill="#59DBF0"/>
<path d="M14.1044 28.2087C21.894 28.2087 28.2087 21.894 28.2087 14.1044C28.2087 6.31474 21.894 0 14.1044 0C6.31474 0 0 6.31474 0 14.1044C0 21.894 6.31474 28.2087 14.1044 28.2087Z" fill="#59DBF0"/>
<path d="M5.88867 11.6786C5.88867 11.6786 10.395 11.8126 12.4119 15.12L17.0664 10.931C17.0734 10.931 11.7984 4.00579 5.88867 11.6786Z" fill="white"/>
<path d="M12.4121 15.1129L17.0665 10.9239C17.0665 10.9239 16.4459 10.1059 15.3881 9.34424C13.5122 9.60517 11.4601 10.5361 9.32324 12.5107C10.4586 13.0184 11.6293 13.8224 12.4121 15.1129Z" fill="#BDC3D8"/>
<path d="M12.4115 15.6417C12.3833 15.6417 12.3621 15.6417 12.3339 15.6347C12.1788 15.6135 12.0377 15.5218 11.9601 15.3878C10.1195 12.3625 5.91642 12.2073 5.8741 12.2003C5.67664 12.1932 5.50034 12.0804 5.40866 11.897C5.32403 11.7137 5.34519 11.5021 5.46508 11.3469C7.41853 8.80816 9.53419 7.52466 11.7486 7.52466C11.7556 7.52466 11.7556 7.52466 11.7627 7.52466C15.1125 7.53171 17.3903 10.4795 17.482 10.5994C17.6513 10.818 17.623 11.1283 17.4185 11.3117L12.7641 15.5007C12.6724 15.5994 12.5455 15.6417 12.4115 15.6417ZM6.91783 11.2553C8.33532 11.4809 10.9023 12.1791 12.5102 14.3159L16.3325 10.8815C15.6484 10.1481 13.9348 8.58954 11.7627 8.58954C11.7627 8.58954 11.7627 8.58954 11.7556 8.58954C10.0984 8.58954 8.47636 9.48517 6.91783 11.2553Z" fill="#21365F"/>
<path d="M41.869 25.0848C41.0792 16.7561 34.3585 10.0424 26.0228 9.25965C24.154 9.08334 22.3345 9.20323 20.6138 9.57699C20.5573 7.89857 18.4205 3.58264 14.3796 3.54032C12.4473 3.51917 8.99881 4.67573 7.29218 7.22862C7.29218 7.22862 13.1243 8.86472 14.7604 12.0029C10.776 14.584 7.89867 18.7166 6.99599 23.5544C6.8761 24.2173 6.29077 24.6969 5.61376 24.6969H1.04395L1.74916 33.1595H2.59543C5.52914 33.1595 8.23717 34.6264 9.93675 37.01C9.97906 37.0664 10.0214 37.1228 10.0566 37.1792C12.3063 40.247 14.027 43.6673 15.4445 47.2004L16.0369 48.6673H19.9156L21.6575 44.2314C22.5249 44.3654 23.4064 44.4359 24.3091 44.4359C26.453 44.4359 28.5052 44.0481 30.4022 43.3499L31.8973 48.6673H35.8958L37.4544 42.7716C38.2583 39.7251 39.2174 36.7209 40.4727 33.8365C41.6434 31.1919 42.1652 28.2159 41.869 25.0848Z" fill="white"/>
<path d="M41.8694 25.0847C41.1077 17.1016 34.9018 10.6207 27.0527 9.40063C33.0189 12.9549 37.0104 19.4571 37.0104 26.9042C37.0104 34.182 33.1881 40.5642 27.4477 44.1609C28.4702 43.9775 29.4575 43.7095 30.4096 43.3569L31.9046 48.6743H35.9032L37.4618 42.7786C38.2657 39.7321 39.2248 36.7279 40.4801 33.8435C41.6437 31.1919 42.1656 28.2159 41.8694 25.0847Z" fill="#BDC3D8"/>
<path d="M35.91 49.2031H31.9114C31.6716 49.2031 31.4671 49.0479 31.4036 48.8152L30.0567 44.0409C28.2019 44.6615 26.2767 44.9718 24.3162 44.9718C23.5687 44.9718 22.7929 44.9224 22.0031 44.8166L20.4163 48.8646C20.3388 49.0691 20.1413 49.196 19.9227 49.196H16.044C15.8254 49.196 15.6349 49.062 15.5503 48.8646L14.9579 47.3977C13.3853 43.4767 11.6434 40.2397 9.63353 37.4964L9.50659 37.3201C7.88459 35.0493 5.30349 33.6883 2.59545 33.6883H1.74919C1.47415 33.6883 1.24848 33.4767 1.22027 33.2017L0.515056 24.739C0.500951 24.5909 0.550317 24.4429 0.6561 24.3371C0.75483 24.2313 0.895874 24.1678 1.04397 24.1678H5.61379C6.03692 24.1678 6.39658 23.8716 6.47415 23.4626C7.34862 18.7658 10.099 14.5627 14.0412 11.8476C12.2499 9.20308 7.19348 7.75738 7.14411 7.74327C6.98191 7.70096 6.84792 7.57402 6.7915 7.41887C6.73508 7.26373 6.75624 7.08037 6.84792 6.93933C8.66738 4.22423 12.2993 3.01831 14.3303 3.01831C14.3444 3.01831 14.3656 3.01831 14.3797 3.01831C18.2866 3.06062 20.6067 6.81239 21.0581 8.95625C22.7083 8.66006 24.3867 8.58248 26.0722 8.74468C34.7111 9.55569 41.5729 16.4104 42.3909 25.0493C42.6871 28.1382 42.1935 31.2553 40.9734 34.062C39.8592 36.622 38.8789 39.5204 37.9763 42.9196L36.4177 48.8152C36.3543 49.0409 36.1498 49.2031 35.91 49.2031ZM32.3134 48.1452H35.501L36.9537 42.6445C37.8705 39.189 38.8648 36.2412 40.0002 33.6319C41.1498 30.9943 41.6152 28.0536 41.3331 25.141C40.5644 17.0098 34.0976 10.55 25.9664 9.78841C24.2034 9.61916 22.4333 9.72494 20.7125 10.0917C20.5574 10.1199 20.4022 10.0917 20.2753 9.99292C20.1554 9.89419 20.0778 9.75315 20.0708 9.598C20.0285 8.32155 18.1596 4.1114 14.3585 4.06909C14.3444 4.06909 14.3303 4.06909 14.3162 4.06909C12.7224 4.06909 9.8451 4.97882 8.15257 6.95343C9.82394 7.5176 13.8366 9.11845 15.2118 11.763C15.3388 12.0028 15.2612 12.306 15.0285 12.4541C11.1004 15 8.35709 19.0832 7.49672 23.6601C7.32747 24.5698 6.52352 25.2327 5.59968 25.2327H1.62225L2.24284 32.6375H2.6025C5.64905 32.6375 8.55455 34.1608 10.374 36.7137L10.4939 36.8759C12.5602 39.6967 14.3444 43.0113 15.9452 47.0169L16.4036 48.1523H19.563L21.1709 44.0479C21.2626 43.8152 21.4953 43.6812 21.7421 43.7165C22.6237 43.8505 23.4911 43.921 24.3162 43.921C26.3402 43.921 28.3289 43.5684 30.2259 42.8632C30.367 42.8138 30.5151 42.8209 30.649 42.8914C30.783 42.9548 30.8747 43.0747 30.917 43.2158L32.3134 48.1452Z" fill="#21365F"/>
<path d="M7.58064 21.0226C9.13857 21.0226 10.4015 19.7597 10.4015 18.2017C10.4015 16.6438 9.13857 15.3809 7.58064 15.3809C6.02271 15.3809 4.75977 16.6438 4.75977 18.2017C4.75977 19.7597 6.02271 21.0226 7.58064 21.0226Z" fill="white"/>
<path d="M8.7382 15.6348C8.9004 15.9874 8.99208 16.3752 8.99208 16.7913C8.99208 18.3499 7.72974 19.6122 6.17121 19.6122C5.75513 19.6122 5.36726 19.5205 5.01465 19.3583C5.45894 20.3386 6.43919 21.0226 7.58164 21.0226C9.14018 21.0226 10.4025 19.7603 10.4025 18.2018C10.4025 17.0593 9.71846 16.072 8.7382 15.6348Z" fill="#BDC3D8"/>
<path d="M11.2838 22.433C12.8417 22.433 14.1046 21.1701 14.1046 19.6121C14.1046 18.0542 12.8417 16.7913 11.2838 16.7913C9.72584 16.7913 8.46289 18.0542 8.46289 19.6121C8.46289 21.1701 9.72584 22.433 11.2838 22.433Z" fill="white"/>
<path d="M31.0156 7.89856C30.9591 7.89856 30.9098 7.89151 30.8534 7.87035C30.0776 7.62352 29.2807 7.41901 28.4838 7.27091C28.1947 7.2145 28.0043 6.93946 28.0607 6.65032C28.1171 6.36118 28.3921 6.17077 28.6813 6.22719C29.5205 6.38234 30.3668 6.5939 31.1848 6.85483C31.4598 6.94651 31.615 7.2427 31.5304 7.51774C31.4457 7.75751 31.2412 7.89856 31.0156 7.89856Z" fill="#21365F"/>
<path d="M42.6447 17.3623C42.4614 17.3623 42.2851 17.2636 42.1864 17.0944C40.1694 13.5542 37.0453 10.6346 33.3782 8.87856C33.1172 8.75162 33.0044 8.43427 33.1313 8.17334C33.2583 7.91241 33.5756 7.79957 33.8366 7.92651C37.6941 9.77419 40.9875 12.8489 43.1031 16.5725C43.2442 16.8264 43.1596 17.1508 42.9057 17.2918C42.8211 17.3341 42.7294 17.3623 42.6447 17.3623Z" fill="#21365F"/>
<path d="M7.58123 21.5514C5.73356 21.5514 4.23145 20.0493 4.23145 18.2016C4.23145 16.3539 5.73356 14.8518 7.58123 14.8518C9.42891 14.8518 10.931 16.3539 10.931 18.2016C10.931 20.0493 9.42891 21.5514 7.58123 21.5514ZM7.58123 15.9096C6.31889 15.9096 5.28927 16.9393 5.28927 18.2016C5.28927 19.4639 6.31889 20.4936 7.58123 20.4936C8.84357 20.4936 9.87319 19.4639 9.87319 18.2016C9.87319 16.9393 8.84357 15.9096 7.58123 15.9096Z" fill="#21365F"/>
<path d="M41.9459 27.2921C41.6568 27.2921 41.417 27.0523 41.417 26.7632C41.417 26.474 41.6568 26.2342 41.9459 26.2342C43.984 26.2342 45.6483 24.5699 45.6483 22.5318C45.6483 22.2427 45.8881 22.0029 46.1772 22.0029C46.4664 22.0029 46.7061 22.2427 46.7061 22.5318C46.7061 25.1553 44.5693 27.2921 41.9459 27.2921Z" fill="#21365F"/>
<path d="M11.2838 22.433C12.8417 22.433 14.1046 21.1701 14.1046 19.6121C14.1046 18.0542 12.8417 16.7913 11.2838 16.7913C9.72584 16.7913 8.46289 18.0542 8.46289 19.6121C8.46289 21.1701 9.72584 22.433 11.2838 22.433Z" fill="white"/>
<path d="M12.4404 17.0452C12.6026 17.3978 12.6942 17.7856 12.6942 18.2017C12.6942 19.7603 11.4319 21.0226 9.87336 21.0226C9.45728 21.0226 9.06941 20.9309 8.7168 20.7687C9.16108 21.749 10.1413 22.433 11.2838 22.433C12.8423 22.433 14.1047 21.1707 14.1047 19.6122C14.1047 18.4697 13.4206 17.4824 12.4404 17.0452Z" fill="#BDC3D8"/>
<path d="M11.2834 22.9618C9.43571 22.9618 7.93359 21.4597 7.93359 19.612C7.93359 17.7643 9.43571 16.2622 11.2834 16.2622C13.1311 16.2622 14.6332 17.7643 14.6332 19.612C14.6332 21.4597 13.1311 22.9618 11.2834 22.9618ZM11.2834 17.32C10.021 17.32 8.99142 18.3497 8.99142 19.612C8.99142 20.8743 10.021 21.904 11.2834 21.904C12.5457 21.904 13.5753 20.8743 13.5753 19.612C13.5753 18.3497 12.5457 17.32 11.2834 17.32Z" fill="#21365F"/>
<path d="M6.87559 18.7307C7.1677 18.7307 7.40451 18.4939 7.40451 18.2018C7.40451 17.9097 7.1677 17.6729 6.87559 17.6729C6.58348 17.6729 6.34668 17.9097 6.34668 18.2018C6.34668 18.4939 6.58348 18.7307 6.87559 18.7307Z" fill="#21365F"/>
<path d="M10.5787 20.1411C10.8708 20.1411 11.1076 19.9043 11.1076 19.6122C11.1076 19.3201 10.8708 19.0833 10.5787 19.0833C10.2866 19.0833 10.0498 19.3201 10.0498 19.6122C10.0498 19.9043 10.2866 20.1411 10.5787 20.1411Z" fill="#21365F"/>
<path d="M25.7264 37.3906C30.7897 37.3906 34.8943 33.286 34.8943 28.2228C34.8943 23.1595 30.7897 19.0549 25.7264 19.0549C20.6632 19.0549 16.5586 23.1595 16.5586 28.2228C16.5586 33.286 20.6632 37.3906 25.7264 37.3906Z" fill="white"/>
<path d="M34.8943 28.2228C34.8943 26.9745 34.6404 25.7827 34.1891 24.6967C33.103 24.2453 31.9112 23.9915 30.663 23.9915C25.5995 23.9915 21.4951 28.0958 21.4951 33.1593C21.4951 34.4075 21.749 35.5994 22.2003 36.6854C23.2864 37.1367 24.4782 37.3906 25.7264 37.3906C30.7899 37.3906 34.8943 33.2862 34.8943 28.2228Z" fill="#BDC3D8"/>
<path d="M25.7261 37.9196C20.3805 37.9196 16.0293 33.5684 16.0293 28.2229C16.0293 22.8773 20.3805 18.5261 25.7261 18.5261C31.0716 18.5261 35.4228 22.8773 35.4228 28.2229C35.4228 33.5684 31.0787 37.9196 25.7261 37.9196ZM25.7261 19.584C20.9658 19.584 17.0871 23.4556 17.0871 28.2229C17.0871 32.9831 20.9658 36.8618 25.7261 36.8618C30.4863 36.8618 34.365 32.9831 34.365 28.2229C34.365 23.4556 30.4933 19.584 25.7261 19.584Z" fill="#21365F"/>
<path d="M25.7341 32.8562C24.5775 32.8562 23.5549 32.2074 23.1389 31.213C23.026 30.945 23.153 30.6347 23.421 30.5219C23.6889 30.4091 23.9992 30.536 24.1121 30.804C24.3659 31.3964 25.0148 31.7983 25.7341 31.7983C26.6861 31.7983 27.4619 31.1143 27.4619 30.2751C27.4619 29.5769 27.1586 28.7518 25.727 28.7518C23.6678 28.7518 22.9414 27.4189 22.9414 26.1707C22.9414 24.7462 24.1896 23.5896 25.727 23.5896C26.8836 23.5896 27.9061 24.2313 28.3222 25.2328C28.4351 25.5007 28.3081 25.811 28.0401 25.9239C27.7722 26.0367 27.4619 25.9098 27.349 25.6418C27.0951 25.0423 26.4463 24.6474 25.727 24.6474C24.775 24.6474 23.9992 25.3315 23.9992 26.1707C23.9992 26.8618 24.3025 27.694 25.727 27.694C27.7863 27.694 28.5197 29.0268 28.5197 30.2751C28.5197 31.6996 27.2715 32.8562 25.7341 32.8562Z" fill="#21365F"/>
<path d="M25.7262 24.6474C25.437 24.6474 25.1973 24.4076 25.1973 24.1184V22.9901C25.1973 22.701 25.437 22.4612 25.7262 22.4612C26.0153 22.4612 26.2551 22.701 26.2551 22.9901V24.1184C26.2551 24.4076 26.0153 24.6474 25.7262 24.6474Z" fill="#21365F"/>
<path d="M25.7262 33.9845C25.437 33.9845 25.1973 33.7447 25.1973 33.4556V32.3273C25.1973 32.0381 25.437 31.7983 25.7262 31.7983C26.0153 31.7983 26.2551 32.0381 26.2551 32.3273V33.4556C26.2551 33.7447 26.0153 33.9845 25.7262 33.9845Z" fill="#21365F"/>
<path d="M31.6638 28.2228C31.6638 28.5824 31.3747 28.8716 31.015 28.8716C30.6553 28.8716 30.3662 28.5824 30.3662 28.2228C30.3662 27.8631 30.6553 27.574 31.015 27.574C31.3747 27.574 31.6638 27.8631 31.6638 28.2228Z" fill="#21365F"/>
<path d="M21.0789 28.2228C21.0789 28.5824 20.7897 28.8716 20.4301 28.8716C20.0704 28.8716 19.7812 28.5824 19.7812 28.2228C19.7812 27.8631 20.0704 27.574 20.4301 27.574C20.7897 27.574 21.0789 27.8631 21.0789 28.2228Z" fill="#21365F"/>
<path d="M17.0949 41.5161H16.1217C15.8325 41.5161 15.5928 41.2763 15.5928 40.9872C15.5928 40.698 15.8325 40.4583 16.1217 40.4583H17.0949C17.384 40.4583 17.6238 40.698 17.6238 40.9872C17.6238 41.2834 17.384 41.5161 17.0949 41.5161Z" fill="#21365F"/>
<path d="M20.3449 41.5161H19.3717C19.0825 41.5161 18.8428 41.2763 18.8428 40.9872C18.8428 40.698 19.0825 40.4583 19.3717 40.4583H20.3449C20.634 40.4583 20.8738 40.698 20.8738 40.9872C20.8738 41.2834 20.6411 41.5161 20.3449 41.5161Z" fill="#21365F"/>
<path d="M18.2301 43.6319C17.9409 43.6319 17.7012 43.3921 17.7012 43.1029V42.1297C17.7012 41.8406 17.9409 41.6008 18.2301 41.6008C18.5192 41.6008 18.759 41.8406 18.759 42.1297V43.1029C18.759 43.3991 18.5263 43.6319 18.2301 43.6319Z" fill="#21365F"/>
<path d="M18.2301 40.3809C17.9409 40.3809 17.7012 40.1411 17.7012 39.852V38.8788C17.7012 38.5896 17.9409 38.3499 18.2301 38.3499C18.5192 38.3499 18.759 38.5896 18.759 38.8788V39.852C18.759 40.1411 18.5263 40.3809 18.2301 40.3809Z" fill="#21365F"/>
<path d="M32.6379 39.4006H31.6647C31.3755 39.4006 31.1357 39.1608 31.1357 38.8717C31.1357 38.5825 31.3755 38.3428 31.6647 38.3428H32.6379C32.927 38.3428 33.1668 38.5825 33.1668 38.8717C33.1668 39.1679 32.927 39.4006 32.6379 39.4006Z" fill="#21365F"/>
<path d="M35.8957 39.4006H34.9225C34.6333 39.4006 34.3936 39.1608 34.3936 38.8717C34.3936 38.5825 34.6333 38.3428 34.9225 38.3428H35.8957C36.1848 38.3428 36.4246 38.5825 36.4246 38.8717C36.4246 39.1679 36.1848 39.4006 35.8957 39.4006Z" fill="#21365F"/>
<path d="M33.7799 41.5161C33.4908 41.5161 33.251 41.2764 33.251 40.9872V40.014C33.251 39.7249 33.4908 39.4851 33.7799 39.4851C34.069 39.4851 34.3088 39.7249 34.3088 40.014V40.9872C34.3088 41.2834 34.069 41.5161 33.7799 41.5161Z" fill="#21365F"/>
<path d="M33.7799 38.2652C33.4908 38.2652 33.251 38.0254 33.251 37.7362V36.763C33.251 36.4739 33.4908 36.2341 33.7799 36.2341C34.069 36.2341 34.3088 36.4739 34.3088 36.763V37.7362C34.3088 38.0254 34.069 38.2652 33.7799 38.2652Z" fill="#21365F"/>
<path d="M27.9689 15.7334H26.9957C26.7066 15.7334 26.4668 15.4936 26.4668 15.2045C26.4668 14.9153 26.7066 14.6755 26.9957 14.6755H27.9689C28.2581 14.6755 28.4978 14.9153 28.4978 15.2045C28.4978 15.4936 28.2651 15.7334 27.9689 15.7334Z" fill="#21365F"/>
<path d="M31.2267 15.7334H30.2535C29.9644 15.7334 29.7246 15.4936 29.7246 15.2045C29.7246 14.9153 29.9644 14.6755 30.2535 14.6755H31.2267C31.5159 14.6755 31.7556 14.9153 31.7556 15.2045C31.7556 15.4936 31.5159 15.7334 31.2267 15.7334Z" fill="#21365F"/>
<path d="M29.1119 17.8491C28.8228 17.8491 28.583 17.6094 28.583 17.3202V16.347C28.583 16.0579 28.8228 15.8181 29.1119 15.8181C29.4011 15.8181 29.6408 16.0579 29.6408 16.347V17.3202C29.6408 17.6094 29.4011 17.8491 29.1119 17.8491Z" fill="#21365F"/>
<path d="M29.1119 14.5908C28.8228 14.5908 28.583 14.3511 28.583 14.0619V13.0887C28.583 12.7996 28.8228 12.5598 29.1119 12.5598C29.4011 12.5598 29.6408 12.7996 29.6408 13.0887V14.0619C29.6408 14.3581 29.4011 14.5908 29.1119 14.5908Z" fill="#21365F"/>
<path d="M17.5597 14.1045H16.5865C16.2974 14.1045 16.0576 13.8647 16.0576 13.5755C16.0576 13.2864 16.2974 13.0466 16.5865 13.0466H17.5597C17.8489 13.0466 18.0886 13.2864 18.0886 13.5755C18.0886 13.8647 17.8489 14.1045 17.5597 14.1045Z" fill="#21365F"/>
<path d="M20.8107 14.1045H19.8375C19.5484 14.1045 19.3086 13.8647 19.3086 13.5755C19.3086 13.2864 19.5484 13.0466 19.8375 13.0466H20.8107C21.0999 13.0466 21.3396 13.2864 21.3396 13.5755C21.3396 13.8647 21.1069 14.1045 20.8107 14.1045Z" fill="#21365F"/>
<path d="M18.6949 16.22C18.4058 16.22 18.166 15.9802 18.166 15.6911V14.7179C18.166 14.4287 18.4058 14.189 18.6949 14.189C18.9841 14.189 19.2238 14.4287 19.2238 14.7179V15.6911C19.2238 15.9802 18.9911 16.22 18.6949 16.22Z" fill="#21365F"/>
<path d="M18.6949 12.9619C18.4058 12.9619 18.166 12.7222 18.166 12.433V11.4598C18.166 11.1707 18.4058 10.9309 18.6949 10.9309C18.9841 10.9309 19.2238 11.1707 19.2238 11.4598V12.433C19.2238 12.7292 18.9911 12.9619 18.6949 12.9619Z" fill="#21365F"/>
<path d="M9.96501 31.5092H8.9918C8.70266 31.5092 8.46289 31.2695 8.46289 30.9803C8.46289 30.6912 8.70266 30.4514 8.9918 30.4514H9.96501C10.2541 30.4514 10.4939 30.6912 10.4939 30.9803C10.4939 31.2765 10.2612 31.5092 9.96501 31.5092Z" fill="#21365F"/>
<path d="M13.2228 31.5092H12.2496C11.9605 31.5092 11.7207 31.2695 11.7207 30.9803C11.7207 30.6912 11.9605 30.4514 12.2496 30.4514H13.2228C13.512 30.4514 13.7517 30.6912 13.7517 30.9803C13.7517 31.2765 13.512 31.5092 13.2228 31.5092Z" fill="#21365F"/>
<path d="M11.107 33.6248C10.8179 33.6248 10.5781 33.385 10.5781 33.0959V32.1227C10.5781 31.8335 10.8179 31.5938 11.107 31.5938C11.3962 31.5938 11.636 31.8335 11.636 32.1227V33.0959C11.636 33.3921 11.3962 33.6248 11.107 33.6248Z" fill="#21365F"/>
<path d="M11.107 30.3738C10.8179 30.3738 10.5781 30.134 10.5781 29.8449V28.8717C10.5781 28.5825 10.8179 28.3428 11.107 28.3428C11.3962 28.3428 11.636 28.5825 11.636 28.8717V29.8449C11.636 30.134 11.3962 30.3738 11.107 30.3738Z" fill="#21365F"/>
</g>
<defs>
<clipPath id="clip0">
<rect width="50" height="52.9055" fill="white"/>
</clipPath>
</defs>
</svg>
