<svg width="50" height="52" viewBox="0 0 50 52" fill="none" xmlns="http://www.w3.org/2000/svg">
<g clip-path="url(#clip0)">
<path d="M40.5896 31.9599C45.7865 31.9599 49.9994 27.7469 49.9994 22.55C49.9994 17.3531 45.7865 13.1401 40.5896 13.1401C35.3926 13.1401 31.1797 17.3531 31.1797 22.55C31.1797 27.7469 35.3926 31.9599 40.5896 31.9599Z" fill="#59DBF0"/>
<path d="M21.589 16.1312C26.0435 16.1312 29.6546 12.5201 29.6546 8.0656C29.6546 3.61109 26.0435 0 21.589 0C17.1345 0 13.5234 3.61109 13.5234 8.0656C13.5234 12.5201 17.1345 16.1312 21.589 16.1312Z" fill="#59DBF0"/>
<path d="M13.4427 51.5863C20.8668 51.5863 26.8853 45.5678 26.8853 38.1436C26.8853 30.7194 20.8668 24.7009 13.4427 24.7009C6.01849 24.7009 0 30.7194 0 38.1436C0 45.5678 6.01849 51.5863 13.4427 51.5863Z" fill="#59DBF0"/>
<path d="M20.8899 4.53701H9.66523C9.38966 4.53701 9.16113 4.30848 9.16113 4.03291C9.16113 3.75733 9.38966 3.52881 9.66523 3.52881H20.8899C21.1654 3.52881 21.394 3.75733 21.394 4.03291C21.394 4.3152 21.1722 4.53701 20.8899 4.53701Z" fill="#21365F"/>
<path d="M25.1242 4.53701H23.5783C23.3027 4.53701 23.0742 4.30848 23.0742 4.03291C23.0742 3.75733 23.3027 3.52881 23.5783 3.52881H25.1242C25.3998 3.52881 25.6283 3.75733 25.6283 4.03291C25.6283 4.3152 25.4065 4.53701 25.1242 4.53701Z" fill="#21365F"/>
<path d="M47.3118 26.6837H44.6232C44.3477 26.6837 44.1191 26.4552 44.1191 26.1796C44.1191 25.9041 44.3477 25.6755 44.6232 25.6755H47.3118C47.5873 25.6755 47.8159 25.9041 47.8159 26.1796C47.8159 26.4552 47.5873 26.6837 47.3118 26.6837Z" fill="#21365F"/>
<path d="M45.967 28.028C45.6914 28.028 45.4629 27.7995 45.4629 27.5239V24.8354C45.4629 24.5598 45.6914 24.3313 45.967 24.3313C46.2426 24.3313 46.4711 24.5598 46.4711 24.8354V27.5239C46.4711 27.7995 46.2426 28.028 45.967 28.028Z" fill="#21365F"/>
<path d="M45.967 22.651C46.2454 22.651 46.4711 22.4253 46.4711 22.1469C46.4711 21.8685 46.2454 21.6428 45.967 21.6428C45.6886 21.6428 45.4629 21.8685 45.4629 22.1469C45.4629 22.4253 45.6886 22.651 45.967 22.651Z" fill="#21365F"/>
<path d="M45.967 20.6347C46.2454 20.6347 46.4711 20.409 46.4711 20.1306C46.4711 19.8522 46.2454 19.6265 45.967 19.6265C45.6886 19.6265 45.4629 19.8522 45.4629 20.1306C45.4629 20.409 45.6886 20.6347 45.967 20.6347Z" fill="#21365F"/>
<path d="M45.967 17.2741C46.2454 17.2741 46.4711 17.0484 46.4711 16.77C46.4711 16.4916 46.2454 16.2659 45.967 16.2659C45.6886 16.2659 45.4629 16.4916 45.4629 16.77C45.4629 17.0484 45.6886 17.2741 45.967 17.2741Z" fill="#21365F"/>
<path d="M45.967 13.2411C46.2454 13.2411 46.4711 13.0154 46.4711 12.737C46.4711 12.4586 46.2454 12.2329 45.967 12.2329C45.6886 12.2329 45.4629 12.4586 45.4629 12.737C45.4629 13.0154 45.6886 13.2411 45.967 13.2411Z" fill="#21365F"/>
<path d="M29.8294 43.0234H16.3867V47.0562H29.8294V43.0234Z" fill="#BDC3D8"/>
<path d="M27.813 43.0234H16.3867V45.0398H27.1409C27.5105 45.0398 27.813 44.7374 27.813 44.3677V43.0234Z" fill="white"/>
<path d="M29.8296 47.5603H16.3869C16.1113 47.5603 15.8828 47.3318 15.8828 47.0562V43.0234C15.8828 42.7478 16.1113 42.5193 16.3869 42.5193H29.8296C30.1052 42.5193 30.3337 42.7478 30.3337 43.0234V47.0562C30.3337 47.3318 30.1119 47.5603 29.8296 47.5603ZM16.891 46.5521H29.3255V43.5275H16.891V46.5521Z" fill="#21365F"/>
<path d="M39.9112 43.0233H6.30449C5.18874 43.0233 4.28809 42.1226 4.28809 41.0069V38.9905H41.9276V41.0069C41.9276 42.1159 41.0269 43.0233 39.9112 43.0233Z" fill="#BDC3D8"/>
<path d="M31.1734 41.0069H4.28809V38.9905H31.8456V40.3347C31.8456 40.7044 31.5431 41.0069 31.1734 41.0069Z" fill="white"/>
<path d="M39.9114 43.5276H6.30468C4.91336 43.5276 3.78418 42.3984 3.78418 41.0071V38.9907C3.78418 38.7151 4.01271 38.4866 4.28828 38.4866H41.9277C42.2033 38.4866 42.4319 38.7151 42.4319 38.9907V41.0071C42.4319 42.3917 41.3027 43.5276 39.9114 43.5276ZM4.79238 39.4948V41.0071C4.79238 41.8405 5.47123 42.5194 6.30468 42.5194H39.9114C40.7448 42.5194 41.4236 41.8405 41.4236 41.0071V39.4948H4.79238Z" fill="#21365F"/>
<path d="M36.5506 47.5602H9.66523C9.38966 47.5602 9.16113 47.3317 9.16113 47.0561C9.16113 46.7805 9.38966 46.552 9.66523 46.552H36.5506C36.8261 46.552 37.0547 46.7805 37.0547 47.0561C37.0547 47.3317 36.8329 47.5602 36.5506 47.5602Z" fill="#21365F"/>
<path d="M41.9276 38.9906H4.28809V8.73784C4.28809 7.62209 5.18874 6.72144 6.30449 6.72144H39.9112C41.0269 6.72144 41.9276 7.62209 41.9276 8.73784V38.9906Z" fill="#BDC3D8"/>
<path d="M38.5669 36.9742H4.28809V8.73784C4.28809 7.62209 5.18874 6.72144 6.30449 6.72144H39.9112V35.6232C39.9112 36.3692 39.313 36.9742 38.5669 36.9742Z" fill="white"/>
<path d="M41.9277 39.4947H4.28828C4.01271 39.4947 3.78418 39.2662 3.78418 38.9906V8.74462C3.78418 7.35331 4.91336 6.22412 6.30468 6.22412H39.9114C41.3027 6.22412 42.4319 7.35331 42.4319 8.74462V38.9906C42.4319 39.2662 42.21 39.4947 41.9277 39.4947ZM4.79238 38.4865H41.4236V8.74462C41.4236 7.91118 40.7448 7.23232 39.9114 7.23232H6.30468C5.47123 7.23232 4.79238 7.91118 4.79238 8.74462V38.4865Z" fill="#21365F"/>
<path d="M14.3705 16.8102H8.32129V12.1053C8.32129 11.3659 8.92621 10.761 9.66556 10.761H13.0262C13.7656 10.761 14.3705 11.3659 14.3705 12.1053V16.8102Z" fill="#BDC3D8"/>
<path d="M11.682 14.7938H8.32129V12.1053C8.32129 11.3659 8.92621 10.761 9.66556 10.761H12.3541V14.1217C12.3541 14.4913 12.0516 14.7938 11.682 14.7938Z" fill="white"/>
<path d="M14.3707 17.3142H8.32148C8.04591 17.3142 7.81738 17.0857 7.81738 16.8101V12.1052C7.81738 11.0836 8.64411 10.2568 9.66575 10.2568H13.0264C14.0481 10.2568 14.8748 11.0836 14.8748 12.1052V16.8101C14.8748 17.0857 14.6463 17.3142 14.3707 17.3142ZM8.82558 16.306H13.8666V12.1052C13.8666 11.6414 13.4902 11.265 13.0264 11.265H9.66575C9.20198 11.265 8.82558 11.6414 8.82558 12.1052V16.306Z" fill="#21365F"/>
<path d="M14.3705 16.8101H8.32129V22.8593H14.3705V16.8101Z" fill="#BDC3D8"/>
<path d="M11.682 20.8429H8.32129V16.8101H12.3541V20.1707C12.3541 20.5404 12.0516 20.8429 11.682 20.8429Z" fill="white"/>
<path d="M14.3707 23.3636H8.32148C8.04591 23.3636 7.81738 23.135 7.81738 22.8595V16.8103C7.81738 16.5347 8.04591 16.3062 8.32148 16.3062H14.3707C14.6463 16.3062 14.8748 16.5347 14.8748 16.8103V22.8595C14.8748 23.135 14.6463 23.3636 14.3707 23.3636ZM8.82558 22.3554H13.8666V17.3144H8.82558V22.3554Z" fill="#21365F"/>
<path d="M14.3705 22.8594H8.32129V28.9086H14.3705V22.8594Z" fill="#BDC3D8"/>
<path d="M11.682 26.8922H8.32129V22.8594H12.3541V26.22C12.3541 26.5897 12.0516 26.8922 11.682 26.8922Z" fill="white"/>
<path d="M14.3707 29.4126H8.32148C8.04591 29.4126 7.81738 29.1841 7.81738 28.9085V22.8593C7.81738 22.5838 8.04591 22.3552 8.32148 22.3552H14.3707C14.6463 22.3552 14.8748 22.5838 14.8748 22.8593V28.9085C14.8748 29.1841 14.6463 29.4126 14.3707 29.4126ZM8.82558 28.4044H13.8666V23.3634H8.82558V28.4044Z" fill="#21365F"/>
<path d="M13.0262 34.9576H9.66556C8.92621 34.9576 8.32129 34.3527 8.32129 33.6134V28.9084H14.3705V33.6134C14.3705 34.3527 13.7656 34.9576 13.0262 34.9576Z" fill="#BDC3D8"/>
<path d="M11.682 32.9412H8.32129V28.9084H12.3541V32.2691C12.3541 32.6388 12.0516 32.9412 11.682 32.9412Z" fill="white"/>
<path d="M13.0264 35.4619H9.66575C8.64411 35.4619 7.81738 34.6352 7.81738 33.6136V28.9086C7.81738 28.6331 8.04591 28.4045 8.32148 28.4045H14.3707C14.6463 28.4045 14.8748 28.6331 14.8748 28.9086V33.6136C14.8748 34.6285 14.0481 35.4619 13.0264 35.4619ZM8.82558 29.4127V33.6136C8.82558 34.0773 9.20198 34.4537 9.66575 34.4537H13.0264C13.4902 34.4537 13.8666 34.0773 13.8666 33.6136V29.4127H8.82558Z" fill="#21365F"/>
<path d="M36.5509 34.9578H19.7476C19.0082 34.9578 18.4033 34.3529 18.4033 33.6135V12.1053C18.4033 11.3659 19.0082 10.761 19.7476 10.761H36.5509C37.2903 10.761 37.8952 11.3659 37.8952 12.1053V33.6135C37.8952 34.3529 37.297 34.9578 36.5509 34.9578Z" fill="#BDC3D8"/>
<path d="M35.2067 32.9414H18.4033V12.1053C18.4033 11.3659 19.0082 10.761 19.7476 10.761H35.8788V32.2693C35.8788 32.6389 35.5763 32.9414 35.2067 32.9414Z" fill="white"/>
<path d="M36.5511 35.4618H19.7478C18.7261 35.4618 17.8994 34.6351 17.8994 33.6135V12.1052C17.8994 11.0836 18.7261 10.2568 19.7478 10.2568H36.5511C37.5728 10.2568 38.3995 11.0836 38.3995 12.1052V33.6135C38.3995 34.6284 37.5728 35.4618 36.5511 35.4618ZM19.7478 11.265C19.284 11.265 18.9076 11.6414 18.9076 12.1052V33.6135C18.9076 34.0772 19.284 34.4536 19.7478 34.4536H36.5511C37.0149 34.4536 37.3913 34.0772 37.3913 33.6135V12.1052C37.3913 11.6414 37.0149 11.265 36.5511 11.265H19.7478Z" fill="#21365F"/>
<path d="M28.485 15.4592H21.7637V22.1806H28.485V15.4592Z" fill="white"/>
<path d="M27.0063 15.4592C26.4686 18.094 24.3984 20.1642 21.7637 20.7019V22.1806H28.485V15.4592H27.0063Z" fill="#BDC3D8"/>
<path d="M28.4852 22.6846H21.7639C21.4883 22.6846 21.2598 22.4561 21.2598 22.1805V15.4592C21.2598 15.1836 21.4883 14.9551 21.7639 14.9551H28.4852C28.7608 14.9551 28.9893 15.1836 28.9893 15.4592V22.1805C28.9893 22.4628 28.7675 22.6846 28.4852 22.6846ZM22.268 21.6764H27.9811V15.9633H22.268V21.6764Z" fill="#21365F"/>
<path d="M29.1571 28.9018C31.7555 28.9018 33.862 26.7953 33.862 24.1969C33.862 21.5984 31.7555 19.4919 29.1571 19.4919C26.5586 19.4919 24.4521 21.5984 24.4521 24.1969C24.4521 26.7953 26.5586 28.9018 29.1571 28.9018Z" fill="white"/>
<path d="M31.3208 20.0229C31.6568 20.6682 31.8517 21.4008 31.8517 22.1805C31.8517 24.7817 29.748 26.8854 27.1468 26.8854C26.3671 26.8854 25.6345 26.6905 24.9893 26.3544C25.7757 27.8667 27.3484 28.9018 29.1632 28.9018C31.7644 28.9018 33.8681 26.7981 33.8681 24.1969C33.8614 22.3821 32.8263 20.8093 31.3208 20.0229Z" fill="#BDC3D8"/>
<path d="M29.1573 29.4059C26.2873 29.4059 23.9482 27.0668 23.9482 24.1968C23.9482 21.3268 26.2873 18.9878 29.1573 18.9878C32.0273 18.9878 34.3663 21.3268 34.3663 24.1968C34.3663 27.0736 32.034 29.4059 29.1573 29.4059ZM29.1573 19.996C26.8384 19.996 24.9564 21.878 24.9564 24.1968C24.9564 26.5157 26.8384 28.3977 29.1573 28.3977C31.4761 28.3977 33.3581 26.5157 33.3581 24.1968C33.3581 21.8847 31.4761 19.996 29.1573 19.996Z" fill="#21365F"/>
<path d="M25.1243 31.5971C26.9804 31.5971 28.485 30.0924 28.485 28.2364C28.485 26.3804 26.9804 24.8757 25.1243 24.8757C23.2683 24.8757 21.7637 26.3804 21.7637 28.2364C21.7637 30.0924 23.2683 31.5971 25.1243 31.5971Z" fill="white"/>
<path d="M26.7235 25.2925C26.9857 25.7697 27.147 26.3074 27.147 26.8854C27.147 28.7405 25.6414 30.2461 23.7863 30.2461C23.2083 30.2461 22.6639 30.0848 22.1934 29.8227C22.7647 30.8712 23.8602 31.5904 25.1306 31.5904C26.9857 31.5904 28.4912 30.0848 28.4912 28.2297C28.4845 26.9594 27.7653 25.8638 26.7235 25.2925Z" fill="#BDC3D8"/>
<path d="M25.1245 32.1011C22.9939 32.1011 21.2598 30.367 21.2598 28.2363C21.2598 26.1057 22.9939 24.3716 25.1245 24.3716C27.2552 24.3716 28.9893 26.1057 28.9893 28.2363C28.9893 30.367 27.2552 32.1011 25.1245 32.1011ZM25.1245 25.3798C23.5517 25.3798 22.268 26.6636 22.268 28.2363C22.268 29.8091 23.5517 31.0929 25.1245 31.0929C26.6973 31.0929 27.9811 29.8091 27.9811 28.2363C27.9811 26.6636 26.704 25.3798 25.1245 25.3798Z" fill="#21365F"/>
<path d="M33.19 16.8035C33.9324 16.8035 34.5342 16.2017 34.5342 15.4593C34.5342 14.7168 33.9324 14.115 33.19 14.115C32.4476 14.115 31.8457 14.7168 31.8457 15.4593C31.8457 16.2017 32.4476 16.8035 33.19 16.8035Z" fill="white"/>
<path d="M33.1902 17.3076C32.1685 17.3076 31.3418 16.4808 31.3418 15.4592C31.3418 14.4376 32.1685 13.6108 33.1902 13.6108C34.2118 13.6108 35.0385 14.4376 35.0385 15.4592C35.0385 16.4808 34.2118 17.3076 33.1902 17.3076ZM33.1902 14.619C32.7264 14.619 32.35 14.9954 32.35 15.4592C32.35 15.923 32.7264 16.2994 33.1902 16.2994C33.6539 16.2994 34.0303 15.923 34.0303 15.4592C34.0303 14.9954 33.6539 14.619 33.1902 14.619Z" fill="#21365F"/>
<path d="M42.6069 32.2693H34.5413C34.1716 32.2693 33.8691 32.5717 33.8691 32.9414V44.3677C33.8691 45.8531 35.0723 47.0562 36.5577 47.0562H40.5905C42.0759 47.0562 43.279 45.8531 43.279 44.3677V32.9414C43.279 32.565 42.9766 32.2693 42.6069 32.2693Z" fill="#BDC3D8"/>
<path d="M41.2626 32.2693H34.5413C34.1716 32.2693 33.8691 32.5717 33.8691 32.9414V43.0234C33.8691 44.1392 34.7698 45.0398 35.8855 45.0398H39.9183C40.6577 45.0398 41.2626 44.4416 41.2626 43.6956V32.2693Z" fill="white"/>
<path d="M40.5907 47.5603H36.5579C34.7969 47.5603 33.3652 46.1286 33.3652 44.3676V32.9414C33.3652 32.2961 33.8962 31.7651 34.5415 31.7651H42.6071C43.2523 31.7651 43.7833 32.2961 43.7833 32.9414V44.3676C43.7833 46.1286 42.3517 47.5603 40.5907 47.5603ZM34.5415 32.7733C34.4474 32.7733 34.3734 32.8473 34.3734 32.9414V44.3676C34.3734 45.5708 35.3547 46.5521 36.5579 46.5521H40.5907C41.7938 46.5521 42.7751 45.5708 42.7751 44.3676V32.9414C42.7751 32.8473 42.7012 32.7733 42.6071 32.7733H34.5415Z" fill="#21365F"/>
<path d="M44.6228 44.8717H43.2785C43.0029 44.8717 42.7744 44.6432 42.7744 44.3676V34.9577C42.7744 34.6821 43.0029 34.4536 43.2785 34.4536H44.6228C46.3838 34.4536 47.8154 35.8853 47.8154 37.6462V41.679C47.8154 43.44 46.3838 44.8717 44.6228 44.8717ZM43.7826 43.8635H44.6228C45.8259 43.8635 46.8072 42.8822 46.8072 41.679V37.6462C46.8072 36.4431 45.8259 35.4618 44.6228 35.4618H43.7826V43.8635Z" fill="#21365F"/>
</g>
<defs>
<clipPath id="clip0">
<rect width="50" height="51.5862" fill="white"/>
</clipPath>
</defs>
</svg>
