<svg width="80" height="76" viewBox="0 0 80 76" fill="none" xmlns="http://www.w3.org/2000/svg">
<path d="M13.3763 61.2636C20.7639 61.2636 26.7527 55.2749 26.7527 47.8873C26.7527 40.4998 20.7639 34.511 13.3763 34.511C5.98879 34.511 0 40.4998 0 47.8873C0 55.2749 5.98879 61.2636 13.3763 61.2636Z" fill="url(#paint0_linear)"/>
<path d="M39.2975 22.9308C45.6296 22.9308 50.7629 17.7976 50.7629 11.4654C50.7629 5.13324 45.6296 0 39.2975 0C32.9653 0 27.832 5.13324 27.832 11.4654C27.832 17.7976 32.9653 22.9308 39.2975 22.9308Z" fill="url(#paint1_linear)"/>
<path d="M60.8913 75.2896C71.4449 75.2896 80.0003 66.7342 80.0003 56.1806C80.0003 45.6269 71.4449 37.0715 60.8913 37.0715C50.3376 37.0715 41.7822 45.6269 41.7822 56.1806C41.7822 66.7342 50.3376 75.2896 60.8913 75.2896Z" fill="url(#paint2_linear)"/>
<path d="M11.4461 67.4071H54.4414C55.4924 67.4071 56.3523 66.5568 56.3523 65.4962V8.16908C56.3523 7.11809 55.4924 6.25818 54.4414 6.25818H21.0006C16.5195 10.7392 14.0162 13.2425 9.53516 17.7236V65.4962C9.53516 66.5472 10.3855 67.4071 11.4461 67.4071Z" fill="white"/>
<path d="M28.6445 67.4072H54.4417C55.5023 67.4072 56.3526 66.5568 56.3526 65.4963V13.9019H47.7536C37.2054 13.9019 28.6445 22.4627 28.6445 33.0109V67.4072Z" fill="white"/>
<path d="M54.4412 68.1237H11.4459C9.99357 68.1237 8.81836 66.9485 8.81836 65.4962V17.7236C8.81836 17.5325 8.8948 17.351 9.02856 17.2172L20.494 5.75183C20.6277 5.61806 20.8093 5.54163 21.0004 5.54163H54.4412C55.8935 5.54163 57.0687 6.71683 57.0687 8.16912V65.4962C57.0687 66.939 55.8935 68.1237 54.4412 68.1237ZM10.2515 18.0198V65.4962C10.2515 66.1555 10.7866 66.6906 11.4459 66.6906H54.4412C55.1005 66.6906 55.6355 66.1555 55.6355 65.4962V8.16912C55.6355 7.50986 55.1005 6.9748 54.4412 6.9748H21.2966L10.2515 18.0198Z" fill="#303030"/>
<path d="M42.0205 27.2781H70.6841V21.5454C70.6841 20.4944 69.8242 19.6345 68.7732 19.6345H43.9314C42.8804 19.6345 42.0205 20.4944 42.0205 21.5454V27.2781Z" fill="white"/>
<path d="M47.7539 27.2781H70.6848V23.4563H49.6648C48.6138 23.4563 47.7539 24.3162 47.7539 25.3672V27.2781Z" fill="white"/>
<path d="M43.9314 55.9418H56.3523V41.61H42.0205V54.0309C42.0205 55.0819 42.8709 55.9418 43.9314 55.9418Z" fill="white"/>
<path d="M56.3523 27.2782H42.0205V41.61H56.3523V27.2782Z" fill="white"/>
<path d="M56.3525 55.9418H68.7734C69.8244 55.9418 70.6843 55.0914 70.6843 54.0309V41.61H56.3525V55.9418Z" fill="white"/>
<path d="M70.6843 27.2782H56.3525V41.61H70.6843V27.2782Z" fill="white"/>
<path d="M61.1299 41.6099H70.6844V32.0554H63.9962C62.4102 32.0554 61.1299 33.3357 61.1299 34.9218V41.6099Z" fill="white"/>
<path d="M61.1299 55.8653H68.7735C69.8245 55.8653 70.6844 55.0054 70.6844 53.9544V44.3999H63.9962C62.4102 44.3999 61.1299 45.6802 61.1299 47.2663V55.8653Z" fill="white"/>
<path d="M46.7979 41.6099H56.3524V32.0554H49.6642C48.0782 32.0554 46.7979 33.3357 46.7979 34.9218V41.6099Z" fill="white"/>
<path d="M46.7979 55.8653H56.3524V48.2217H51.5751C48.9381 48.2217 46.7979 50.3619 46.7979 52.9989V55.8653Z" fill="white"/>
<path d="M70.6839 27.9948H42.0203C41.6286 27.9948 41.3037 27.6699 41.3037 27.2782V21.5455C41.3037 20.0932 42.4789 18.918 43.9312 18.918H68.773C70.2252 18.918 71.4005 20.0932 71.4005 21.5455V27.2782C71.4005 27.6699 71.0756 27.9948 70.6839 27.9948ZM42.7369 26.5616H69.9673V21.5455C69.9673 20.8862 69.4322 20.3511 68.773 20.3511H43.9312C43.2719 20.3511 42.7369 20.8862 42.7369 21.5455V26.5616Z" fill="#303030"/>
<path d="M56.3521 56.6583H43.9312C42.4789 56.6583 41.3037 55.4831 41.3037 54.0308V41.6099C41.3037 41.2182 41.6286 40.8933 42.0203 40.8933H56.3521C56.7438 40.8933 57.0687 41.2182 57.0687 41.6099V55.9417C57.0687 56.3334 56.7438 56.6583 56.3521 56.6583ZM42.7369 42.3265V54.0308C42.7369 54.69 43.2719 55.2251 43.9312 55.2251H55.6355V42.3265H42.7369Z" fill="#303030"/>
<path d="M56.3521 42.3265H42.0203C41.6286 42.3265 41.3037 42.0016 41.3037 41.6099V27.2781C41.3037 26.8864 41.6286 26.5615 42.0203 26.5615H56.3521C56.7438 26.5615 57.0687 26.8864 57.0687 27.2781V41.6099C57.0687 42.0016 56.7438 42.3265 56.3521 42.3265ZM42.7369 40.8933H55.6355V27.9947H42.7369V40.8933Z" fill="#303030"/>
<path d="M68.7732 56.6583H56.3523C55.9606 56.6583 55.6357 56.3334 55.6357 55.9417V41.6099C55.6357 41.2182 55.9606 40.8933 56.3523 40.8933H70.6841C71.0758 40.8933 71.4007 41.2182 71.4007 41.6099V54.0308C71.4007 55.4735 70.2255 56.6583 68.7732 56.6583ZM57.0689 55.2251H68.7732C69.4325 55.2251 69.9675 54.69 69.9675 54.0308V42.3265H57.0689V55.2251Z" fill="#303030"/>
<path d="M70.6841 42.3265H56.3523C55.9606 42.3265 55.6357 42.0016 55.6357 41.6099V27.2781C55.6357 26.8864 55.9606 26.5615 56.3523 26.5615H70.6841C71.0758 26.5615 71.4007 26.8864 71.4007 27.2781V41.6099C71.4007 42.0016 71.0758 42.3265 70.6841 42.3265ZM57.0689 40.8933H69.9675V27.9947H57.0689V40.8933Z" fill="#303030"/>
<path d="M9.53516 17.7236L21.0006 6.25818V17.7236H9.53516Z" fill="white"/>
<path d="M16.2236 17.7236L21.0009 6.25818V17.7236H16.2236Z" fill="white"/>
<path d="M21.0009 18.4403H9.53549C9.24886 18.4403 8.98133 18.2683 8.87623 18.0008C8.76158 17.7332 8.82846 17.4275 9.0291 17.2173L20.4945 5.75188C20.6952 5.55123 21.0105 5.48435 21.278 5.59901C21.5455 5.71366 21.7175 5.97163 21.7175 6.25827V17.7237C21.7175 18.1154 21.3926 18.4403 21.0009 18.4403ZM11.2649 17.0071H20.2843V7.98764L11.2649 17.0071Z" fill="#303030"/>
<path d="M57.308 24.4023C57.0596 24.4023 56.8112 24.2972 56.6296 24.1252C56.4576 23.9436 56.3525 23.6952 56.3525 23.4468C56.3525 23.1984 56.4576 22.95 56.6296 22.7684C56.9831 22.4149 57.6233 22.4149 57.9864 22.7684C58.1583 22.95 58.2634 23.1984 58.2634 23.4468C58.2634 23.6952 58.1583 23.9436 57.9864 24.1252C57.8048 24.3163 57.5564 24.4023 57.308 24.4023Z" fill="#303030"/>
<path d="M60.6523 23.4468C60.6523 22.9213 61.0823 22.4913 61.6078 22.4913C62.1333 22.4913 62.5633 22.9213 62.5633 23.4468C62.5633 23.9723 62.1333 24.4022 61.6078 24.4022C61.0823 24.4022 60.6523 23.9723 60.6523 23.4468Z" fill="#303030"/>
<path d="M65.9066 24.4022C65.6486 24.4022 65.4098 24.3066 65.2282 24.1251C65.0563 23.9436 64.9512 23.6952 64.9512 23.4467C64.9512 23.1983 65.0563 22.9499 65.2282 22.7779C65.5818 22.4148 66.2219 22.4148 66.585 22.7779C66.757 22.9499 66.8621 23.1983 66.8621 23.4467C66.8621 23.7047 66.757 23.9436 66.585 24.1251C66.4035 24.3162 66.155 24.4022 65.9066 24.4022Z" fill="#303030"/>
<path d="M52.0528 35.1606H46.3201C45.9284 35.1606 45.6035 34.8357 45.6035 34.444C45.6035 34.0523 45.9284 33.7274 46.3201 33.7274H52.0528C52.4446 33.7274 52.7694 34.0523 52.7694 34.444C52.7694 34.8357 52.4446 35.1606 52.0528 35.1606Z" fill="#303030"/>
<path d="M66.3849 35.1606H60.6521C60.2604 35.1606 59.9355 34.8357 59.9355 34.444C59.9355 34.0523 60.2604 33.7274 60.6521 33.7274H66.3849C66.7766 33.7274 67.1014 34.0523 67.1014 34.444C67.1014 34.8357 66.7766 35.1606 66.3849 35.1606Z" fill="#303030"/>
<path d="M66.3849 51.4033H60.6521C60.2604 51.4033 59.9355 51.0784 59.9355 50.6867C59.9355 50.2949 60.2604 49.9701 60.6521 49.9701H66.3849C66.7766 49.9701 67.1014 50.2949 67.1014 50.6867C67.1014 51.0784 66.7766 51.4033 66.3849 51.4033Z" fill="#303030"/>
<path d="M66.3849 47.5815H60.6521C60.2604 47.5815 59.9355 47.2566 59.9355 46.8649C59.9355 46.4732 60.2604 46.1483 60.6521 46.1483H66.3849C66.7766 46.1483 67.1014 46.4732 67.1014 46.8649C67.1014 47.2566 66.7766 47.5815 66.3849 47.5815Z" fill="#303030"/>
<path d="M49.1863 38.027C48.7946 38.027 48.4697 37.7021 48.4697 37.3104V31.5777C48.4697 31.1859 48.7946 30.8611 49.1863 30.8611C49.5781 30.8611 49.9029 31.1859 49.9029 31.5777V37.3104C49.9029 37.7021 49.5781 38.027 49.1863 38.027Z" fill="#303030"/>
<path d="M51.5754 51.881C51.3939 51.881 51.2124 51.8141 51.0691 51.6708L46.2918 46.8936C46.0147 46.6165 46.0147 46.1579 46.2918 45.8808C46.5689 45.6037 47.0275 45.6037 47.3046 45.8808L52.0818 50.658C52.3589 50.9351 52.3589 51.3937 52.0818 51.6708C51.9385 51.8046 51.757 51.881 51.5754 51.881Z" fill="#303030"/>
<path d="M46.7982 51.881C46.6166 51.881 46.4351 51.8141 46.2918 51.6708C46.0147 51.3937 46.0147 50.9351 46.2918 50.658L51.0691 45.8808C51.3461 45.6037 51.8048 45.6037 52.0818 45.8808C52.3589 46.1579 52.3589 46.6165 52.0818 46.8936L47.3046 51.6708C47.1613 51.8046 46.9797 51.881 46.7982 51.881Z" fill="#303030"/>
<path d="M25.7785 61.6745C31.583 61.6745 36.2885 56.969 36.2885 51.1645C36.2885 45.36 31.583 40.6545 25.7785 40.6545C19.974 40.6545 15.2686 45.36 15.2686 51.1645C15.2686 56.969 19.974 61.6745 25.7785 61.6745Z" fill="white"/>
<path d="M36.2879 51.1644C36.2879 51.0307 36.2688 50.8969 36.2688 50.7536C34.3865 48.9765 31.8546 47.8777 29.0647 47.8777C23.2555 47.8777 18.5547 52.5785 18.5547 58.3781C18.5547 58.5119 18.5738 58.6552 18.5738 58.7889C20.456 60.5661 22.988 61.6553 25.7779 61.6553C31.5775 61.6649 36.2879 56.964 36.2879 51.1644Z" fill="white"/>
<path d="M25.7781 51.881C25.6826 51.881 25.5775 51.8619 25.4915 51.8237C25.2335 51.709 25.0615 51.4511 25.0615 51.1644V40.6545C25.0615 40.2627 25.3864 39.9379 25.7781 39.9379C26.1698 39.9379 26.4947 40.2627 26.4947 40.6545V49.5306L33.0491 43.5399C33.3357 43.2724 33.7944 43.2915 34.0619 43.5877C34.3294 43.8839 34.3103 44.3329 34.0141 44.6005L26.2558 51.6899C26.1221 51.8141 25.9501 51.881 25.7781 51.881Z" fill="#303030"/>
<path d="M19.9881 60.6425C19.8543 60.6425 19.711 60.6043 19.5963 60.5278C19.2619 60.3081 19.1759 59.8686 19.3957 59.5342L25.1857 50.7631C25.3864 50.4669 25.7781 50.3523 26.0934 50.5147L35.5428 55.1104C35.8963 55.2824 36.0492 55.7124 35.8772 56.0659C35.7052 56.4194 35.2753 56.5723 34.9218 56.4003L26.0361 52.0721L20.5995 60.3176C20.4467 60.5374 20.2174 60.6425 19.9881 60.6425Z" fill="#303030"/>
<path d="M25.7783 62.391C19.587 62.391 14.5518 57.3558 14.5518 51.1644C14.5518 44.9731 19.587 39.9379 25.7783 39.9379C31.9696 39.9379 37.0049 44.9731 37.0049 51.1644C37.0049 57.3558 31.9601 62.391 25.7783 62.391ZM25.7783 41.371C20.38 41.371 15.9849 45.7661 15.9849 51.1644C15.9849 56.5627 20.38 60.9578 25.7783 60.9578C31.1766 60.9578 35.5717 56.5627 35.5717 51.1644C35.5717 45.7566 31.1766 41.371 25.7783 41.371Z" fill="#303030"/>
<path d="M29.0651 49.846C29.4664 49.846 29.8581 49.9033 30.2212 49.9988C29.7052 48.021 27.9186 46.5592 25.7783 46.5592C23.2368 46.5592 21.1826 48.6134 21.1826 51.1549C21.1826 53.2951 22.6445 55.0818 24.6222 55.5978C24.5267 55.2252 24.4694 54.843 24.4694 54.4417C24.4598 51.9097 26.5236 49.846 29.0651 49.846Z" fill="white"/>
<path d="M30.3734 51.1644C30.3734 50.7631 30.3161 50.3714 30.2206 50.0083C29.8479 49.9128 29.4658 49.8555 29.0645 49.8555C26.523 49.8555 24.4688 51.9097 24.4688 54.4512C24.4688 54.8525 24.5261 55.2442 24.6216 55.6073C24.9942 55.7028 25.3764 55.7602 25.7777 55.7602C28.3097 55.7602 30.3734 53.7059 30.3734 51.1644Z" fill="white"/>
<path d="M25.7781 56.4768C22.8449 56.4768 20.4658 54.0882 20.4658 51.1645C20.4658 48.2312 22.8544 45.8522 25.7781 45.8522C28.7018 45.8522 31.0904 48.2312 31.0904 51.1645C31.0904 54.0882 28.7018 56.4768 25.7781 56.4768ZM25.7781 47.2758C23.6379 47.2758 21.899 49.0147 21.899 51.1549C21.899 53.2951 23.6379 55.0341 25.7781 55.0341C27.9183 55.0341 29.6573 53.2951 29.6573 51.1549C29.6573 49.0243 27.9183 47.2758 25.7781 47.2758Z" fill="#303030"/>
<path d="M38.1991 23.2175H30.5555C30.1637 23.2175 29.8389 22.8926 29.8389 22.5009C29.8389 22.1092 30.1637 21.7843 30.5555 21.7843H38.1991C38.5908 21.7843 38.9157 22.1092 38.9157 22.5009C38.9157 22.8926 38.5908 23.2175 38.1991 23.2175Z" fill="#303030"/>
<path d="M26.7338 23.2175H15.2683C14.8766 23.2175 14.5518 22.8926 14.5518 22.5009C14.5518 22.1092 14.8766 21.7843 15.2683 21.7843H26.7338C27.1255 21.7843 27.4504 22.1092 27.4504 22.5009C27.4504 22.8926 27.1255 23.2175 26.7338 23.2175Z" fill="#303030"/>
<path d="M38.199 18.4403H25.7781C25.3864 18.4403 25.0615 18.1154 25.0615 17.7237C25.0615 17.3319 25.3864 17.0071 25.7781 17.0071H38.199C38.5907 17.0071 38.9156 17.3319 38.9156 17.7237C38.9156 18.1154 38.5907 18.4403 38.199 18.4403Z" fill="#303030"/>
<path d="M38.1988 27.9947H23.867C23.4752 27.9947 23.1504 27.6698 23.1504 27.2781C23.1504 26.8864 23.4752 26.5615 23.867 26.5615H38.1988C38.5905 26.5615 38.9153 26.8864 38.9153 27.2781C38.9153 27.6698 38.5905 27.9947 38.1988 27.9947Z" fill="#303030"/>
<path d="M20.0456 27.9947H15.2683C14.8766 27.9947 14.5518 27.6698 14.5518 27.2781C14.5518 26.8864 14.8766 26.5615 15.2683 26.5615H20.0456C20.4373 26.5615 20.7622 26.8864 20.7622 27.2781C20.7622 27.6698 20.4373 27.9947 20.0456 27.9947Z" fill="#303030"/>
<path d="M38.1991 32.772H30.5555C30.1637 32.772 29.8389 32.4472 29.8389 32.0555C29.8389 31.6637 30.1637 31.3389 30.5555 31.3389H38.1991C38.5908 31.3389 38.9157 31.6637 38.9157 32.0555C38.9157 32.4472 38.5908 32.772 38.1991 32.772Z" fill="#303030"/>
<path d="M26.7338 32.772H15.2683C14.8766 32.772 14.5518 32.4472 14.5518 32.0555C14.5518 31.6637 14.8766 31.3389 15.2683 31.3389H26.7338C27.1255 31.3389 27.4504 31.6637 27.4504 32.0555C27.4504 32.4472 27.1255 32.772 26.7338 32.772Z" fill="#303030"/>
<path d="M32.4659 37.5493H26.7332C26.3415 37.5493 26.0166 37.2244 26.0166 36.8327C26.0166 36.4409 26.3415 36.1161 26.7332 36.1161H32.4659C32.8576 36.1161 33.1825 36.4409 33.1825 36.8327C33.1825 37.2244 32.8576 37.5493 32.4659 37.5493Z" fill="#303030"/>
<path d="M22.912 37.5493H15.2683C14.8766 37.5493 14.5518 37.2244 14.5518 36.8327C14.5518 36.4409 14.8766 36.1161 15.2683 36.1161H22.912C23.3037 36.1161 23.6286 36.4409 23.6286 36.8327C23.6286 37.2244 23.3037 37.5493 22.912 37.5493Z" fill="#303030"/>
<path d="M62.0857 62.6299C63.1411 62.6299 63.9966 61.7744 63.9966 60.719C63.9966 59.6636 63.1411 58.8081 62.0857 58.8081C61.0303 58.8081 60.1748 59.6636 60.1748 60.719C60.1748 61.7744 61.0303 62.6299 62.0857 62.6299Z" fill="white"/>
<path d="M62.0855 63.3464C60.6332 63.3464 59.458 62.1712 59.458 60.7189C59.458 59.2666 60.6332 58.0914 62.0855 58.0914C63.5378 58.0914 64.713 59.2666 64.713 60.7189C64.713 62.1617 63.5378 63.3464 62.0855 63.3464ZM62.0855 59.5246C61.4262 59.5246 60.8912 60.0597 60.8912 60.7189C60.8912 61.3782 61.4262 61.9132 62.0855 61.9132C62.7448 61.9132 63.2798 61.3782 63.2798 60.7189C63.2798 60.0597 62.7448 59.5246 62.0855 59.5246Z" fill="#303030"/>
<path d="M68.7732 67.4071C69.8286 67.4071 70.6841 66.5516 70.6841 65.4962C70.6841 64.4409 69.8286 63.5853 68.7732 63.5853C67.7178 63.5853 66.8623 64.4409 66.8623 65.4962C66.8623 66.5516 67.7178 67.4071 68.7732 67.4071Z" fill="white"/>
<path d="M68.773 68.1238C67.3207 68.1238 66.1455 66.9486 66.1455 65.4963C66.1455 64.044 67.3207 62.8688 68.773 62.8688C70.2253 62.8688 71.4005 64.044 71.4005 65.4963C71.4005 66.939 70.2253 68.1238 68.773 68.1238ZM68.773 64.302C68.1137 64.302 67.5787 64.837 67.5787 65.4963C67.5787 66.1555 68.1137 66.6906 68.773 66.6906C69.4323 66.6906 69.9673 66.1555 69.9673 65.4963C69.9673 64.837 69.4323 64.302 68.773 64.302Z" fill="#303030"/>
<path d="M68.7732 15.8031C69.8286 15.8031 70.6841 14.9476 70.6841 13.8922C70.6841 12.8369 69.8286 11.9813 68.7732 11.9813C67.7178 11.9813 66.8623 12.8369 66.8623 13.8922C66.8623 14.9476 67.7178 15.8031 68.7732 15.8031Z" fill="white"/>
<path d="M68.773 16.5198C67.3207 16.5198 66.1455 15.3446 66.1455 13.8923C66.1455 12.44 67.3207 11.2648 68.773 11.2648C70.2253 11.2648 71.4005 12.44 71.4005 13.8923C71.4005 15.3446 70.2253 16.5198 68.773 16.5198ZM68.773 12.6979C68.1137 12.6979 67.5787 13.233 67.5787 13.8923C67.5787 14.5515 68.1137 15.0866 68.773 15.0866C69.4323 15.0866 69.9673 14.5515 69.9673 13.8923C69.9673 13.233 69.4323 12.6979 68.773 12.6979Z" fill="#303030"/>
<path d="M62.0857 10.0705C63.1411 10.0705 63.9966 9.21492 63.9966 8.15956C63.9966 7.1042 63.1411 6.24866 62.0857 6.24866C61.0303 6.24866 60.1748 7.1042 60.1748 8.15956C60.1748 9.21492 61.0303 10.0705 62.0857 10.0705Z" fill="white"/>
<path d="M62.0855 10.7871C60.6332 10.7871 59.458 9.61188 59.458 8.1596C59.458 6.70731 60.6332 5.5321 62.0855 5.5321C63.5378 5.5321 64.713 6.70731 64.713 8.1596C64.713 9.61188 63.5378 10.7871 62.0855 10.7871ZM62.0855 6.96528C61.4262 6.96528 60.8912 7.50034 60.8912 8.1596C60.8912 8.81886 61.4262 9.35391 62.0855 9.35391C62.7448 9.35391 63.2798 8.81886 63.2798 8.1596C63.2798 7.50034 62.7448 6.96528 62.0855 6.96528Z" fill="#303030"/>
<defs>
<linearGradient id="paint0_linear" x1="-1.39801e-07" y1="48.0657" x2="26.7527" y2="48.0657" gradientUnits="userSpaceOnUse">
<stop offset="0.0104167" stop-color="#00FF6F"/>
<stop offset="1" stop-color="#1BFFFF"/>
</linearGradient>
<linearGradient id="paint1_linear" x1="27.832" y1="11.6183" x2="50.7629" y2="11.6183" gradientUnits="userSpaceOnUse">
<stop offset="0.0104167" stop-color="#00FF6F"/>
<stop offset="1" stop-color="#1BFFFF"/>
</linearGradient>
<linearGradient id="paint2_linear" x1="41.7822" y1="56.4354" x2="80.0003" y2="56.4354" gradientUnits="userSpaceOnUse">
<stop offset="0.0104167" stop-color="#00FF6F"/>
<stop offset="1" stop-color="#1BFFFF"/>
</linearGradient>
</defs>
</svg>
