<svg width="80" height="80" viewBox="0 0 80 80" fill="none" xmlns="http://www.w3.org/2000/svg">
<g clip-path="url(#clip0)">
<path d="M50.3876 80C58.1439 80 64.4315 73.7123 64.4315 65.9561C64.4315 58.1999 58.1439 51.9122 50.3876 51.9122C42.6314 51.9122 36.3438 58.1999 36.3438 65.9561C36.3438 73.7123 42.6314 80 50.3876 80Z" fill="url(#paint0_linear)"/>
<path d="M12.0376 45.3919C18.6858 45.3919 24.0752 40.0025 24.0752 33.3543C24.0752 26.7061 18.6858 21.3167 12.0376 21.3167C5.38942 21.3167 0 26.7061 0 33.3543C0 40.0025 5.38942 45.3919 12.0376 45.3919Z" fill="url(#paint1_linear)"/>
<path d="M59.426 40.1254C70.5063 40.1254 79.4887 31.143 79.4887 20.0627C79.4887 8.98237 70.5063 0 59.426 0C48.3457 0 39.3633 8.98237 39.3633 20.0627C39.3633 31.143 48.3457 40.1254 59.426 40.1254Z" fill="url(#paint2_linear)"/>
<path d="M72.476 59.9373H8.27539V15.7994C8.27539 14.6959 9.17821 13.7931 10.2817 13.7931H70.4697C71.5732 13.7931 72.476 14.6959 72.476 15.7994V59.9373Z" fill="white"/>
<path d="M68.4635 56.9279H8.27539V15.7994C8.27539 14.6959 9.17821 13.7931 10.2817 13.7931H69.4666V55.9248C69.4666 56.4765 69.0252 56.9279 68.4635 56.9279Z" fill="white"/>
<path d="M72.4764 60.6897H8.27579C7.8645 60.6897 7.52344 60.3486 7.52344 59.9373V15.7994C7.52344 14.2746 8.75729 13.0408 10.2821 13.0408H70.4701C71.9949 13.0408 73.2288 14.2746 73.2288 15.7994V59.9373C73.2288 60.3586 72.8977 60.6897 72.4764 60.6897ZM9.02814 59.185H71.7241V15.7994C71.7241 15.1072 71.1623 14.5455 70.4701 14.5455H10.2821C9.5899 14.5455 9.02814 15.1072 9.02814 15.7994V59.185Z" fill="#303030"/>
<path d="M54.4198 65.9562H26.332V71.975H54.4198V65.9562Z" fill="white"/>
<path d="M51.4104 65.9562H26.332V68.9656H50.4073C50.959 68.9656 51.4104 68.5142 51.4104 67.9624V65.9562Z" fill="white"/>
<path d="M54.4202 72.7274H26.3324C25.9211 72.7274 25.5801 72.3863 25.5801 71.975V65.9562C25.5801 65.5449 25.9211 65.2039 26.3324 65.2039H54.4202C54.8315 65.2039 55.1726 65.5449 55.1726 65.9562V71.975C55.1726 72.3963 54.8415 72.7274 54.4202 72.7274ZM27.0848 71.2227H53.6679V66.7086H27.0848V71.2227Z" fill="#303030"/>
<path d="M69.4666 65.9562H11.2848C9.61959 65.9562 8.27539 64.612 8.27539 62.9468V59.9374H72.476V62.9468C72.476 64.612 71.1318 65.9562 69.4666 65.9562Z" fill="white"/>
<path d="M68.4635 62.9468H8.27539V59.9374H69.4666V61.9436C69.4666 62.4954 69.0252 62.9468 68.4635 62.9468Z" fill="white"/>
<path d="M69.467 66.7085H11.2852C9.2087 66.7085 7.52344 65.0232 7.52344 62.9467V59.9373C7.52344 59.526 7.8645 59.1849 8.27579 59.1849H72.4764C72.8877 59.1849 73.2288 59.526 73.2288 59.9373V62.9467C73.2288 65.0232 71.5435 66.7085 69.467 66.7085ZM9.02814 60.6896V62.9467C9.02814 64.1906 10.0413 65.2037 11.2852 65.2037H69.467C70.7109 65.2037 71.7241 64.1906 71.7241 62.9467V60.6896H9.02814Z" fill="#303030"/>
<path d="M64.4516 72.7274H16.3012C15.8899 72.7274 15.5488 72.3863 15.5488 71.975C15.5488 71.5637 15.8899 71.2227 16.3012 71.2227H64.4516C64.8629 71.2227 65.204 71.5637 65.204 71.975C65.204 72.3963 64.873 72.7274 64.4516 72.7274Z" fill="#303030"/>
<path d="M40.3762 63.9499C40.9302 63.9499 41.3793 63.5008 41.3793 62.9467C41.3793 62.3927 40.9302 61.9436 40.3762 61.9436C39.8222 61.9436 39.373 62.3927 39.373 62.9467C39.373 63.5008 39.8222 63.9499 40.3762 63.9499Z" fill="#303030"/>
<path d="M64.4511 19.8119H38.3696C37.2661 19.8119 36.3633 20.7047 36.3633 21.8182V49.9059C36.3633 51.0094 37.2661 51.9122 38.3696 51.9122H56.426L66.4573 59.9373V21.8182C66.4573 20.7047 65.5645 19.8119 64.4511 19.8119Z" fill="white"/>
<path d="M63.4479 19.8119H38.3696C37.2661 19.8119 36.3633 20.7047 36.3633 21.8182V46.8965H56.1752C57.3188 46.8965 58.4222 47.2877 59.305 48L62.6354 50.6683C62.9664 50.9291 63.4479 50.6984 63.4479 50.2771V19.8119Z" fill="white"/>
<path d="M66.4577 60.6897C66.2872 60.6897 66.1267 60.6295 65.9862 60.5292L56.1656 52.6646H38.3699C36.8452 52.6646 35.6113 51.4307 35.6113 49.906V21.8182C35.6113 20.2934 36.8452 19.0596 38.3699 19.0596H64.4515C65.9762 19.0596 67.2101 20.2934 67.2101 21.8182V59.9373C67.2101 60.2282 67.0395 60.489 66.7888 60.6194C66.6784 60.6596 66.5681 60.6897 66.4577 60.6897ZM38.3699 20.5643C37.6778 20.5643 37.116 21.126 37.116 21.8182V49.906C37.116 50.5981 37.6778 51.1599 38.3699 51.1599H56.4264C56.5969 51.1599 56.7674 51.2201 56.8979 51.3204L65.7054 58.3724V21.8182C65.7054 21.126 65.1436 20.5643 64.4515 20.5643H38.3699Z" fill="#303030"/>
<path d="M61.4417 31.0972H47.3979C46.9866 31.0972 46.6455 30.7562 46.6455 30.3449C46.6455 29.9336 46.9866 29.5925 47.3979 29.5925H61.4417C61.853 29.5925 62.1941 29.9336 62.1941 30.3449C62.1941 30.7562 61.8631 31.0972 61.4417 31.0972Z" fill="#303030"/>
<path d="M54.4203 31.0972C54.009 31.0972 53.668 30.7562 53.668 30.3449V27.3355C53.668 26.9242 54.009 26.5831 54.4203 26.5831C54.8316 26.5831 55.1727 26.9242 55.1727 27.3355V30.3449C55.1727 30.7562 54.8416 31.0972 54.4203 31.0972Z" fill="#303030"/>
<path d="M49.2033 46.0941C48.9927 46.0941 48.782 46.0038 48.6316 45.8333C48.3607 45.5123 48.4008 45.0408 48.7118 44.77C56.135 38.4502 59.2046 30.1643 59.2347 30.0841C59.3751 29.6929 59.8065 29.4922 60.1977 29.6327C60.5889 29.7731 60.7896 30.2045 60.6491 30.5957C60.5187 30.9468 57.429 39.323 49.6848 45.9136C49.5444 46.0339 49.3739 46.0941 49.2033 46.0941Z" fill="#303030"/>
<path d="M60.9402 47.1474C60.7797 47.1474 60.6192 47.0972 60.4788 46.9869C54.5202 42.4026 50.9992 36.4841 49.4343 33.3643C49.2437 32.9932 49.3942 32.5418 49.7653 32.3512C50.1365 32.1606 50.5879 32.311 50.7785 32.6822C52.2932 35.6916 55.6738 41.3894 61.4017 45.7831C61.7327 46.0339 61.7929 46.5054 61.5421 46.8364C61.3917 47.0471 61.171 47.1474 60.9402 47.1474Z" fill="#303030"/>
<path d="M42.3827 7.77429H16.3012C15.1977 7.77429 14.2949 8.67711 14.2949 9.78056V49.906L24.3263 41.8809H42.3827C43.4861 41.8809 44.389 40.9781 44.389 39.8746V9.78056C44.389 8.66708 43.4861 7.77429 42.3827 7.77429Z" fill="white"/>
<path d="M41.3796 7.77429H16.3012C15.1977 7.77429 14.2949 8.67711 14.2949 9.78056V43.2853L20.9457 37.9686C21.8385 37.2564 22.9419 36.8652 24.0755 36.8652H36.3639C39.1325 36.8652 41.3796 34.6182 41.3796 31.8495V7.77429Z" fill="white"/>
<path d="M14.2943 50.6583C14.184 50.6583 14.0737 50.6383 13.9633 50.5881C13.7025 50.4577 13.542 50.1969 13.542 49.906V9.78059C13.542 8.25583 14.7859 7.02197 16.3006 7.02197H42.3821C43.9069 7.02197 45.1407 8.25583 45.1407 9.78059V39.8746C45.1407 41.3994 43.9069 42.6333 42.3821 42.6333H24.5865L14.7658 50.4978C14.6254 50.5982 14.4649 50.6583 14.2943 50.6583ZM16.3006 8.52667C15.6084 8.52667 15.0467 9.08843 15.0467 9.78059V48.3411L23.8542 41.2891C23.9846 41.1787 24.1552 41.1286 24.3257 41.1286H42.3821C43.0743 41.1286 43.636 40.5668 43.636 39.8746V9.78059C43.636 9.08843 43.0743 8.52667 42.3821 8.52667H16.3006Z" fill="#303030"/>
<path d="M34.3571 24.8276H31.3477V14.7963H34.3571C36.0223 14.7963 37.3665 16.1405 37.3665 17.8057V21.8182C37.3665 23.4834 36.0223 24.8276 34.3571 24.8276Z" fill="white"/>
<path d="M33.3539 22.8213H31.3477V14.7963H32.3508C34.016 14.7963 35.3602 16.1405 35.3602 17.8057V20.8151C35.3602 21.9185 34.4674 22.8213 33.3539 22.8213Z" fill="white"/>
<path d="M34.3575 25.58H31.3481C30.9368 25.58 30.5957 25.2389 30.5957 24.8276V14.7963C30.5957 14.385 30.9368 14.0439 31.3481 14.0439H34.3575C36.4339 14.0439 38.1192 15.7292 38.1192 17.8057V21.8182C38.1192 23.8947 36.4339 25.58 34.3575 25.58ZM32.1004 24.0753H34.3575C35.6013 24.0753 36.6145 23.0621 36.6145 21.8182V17.8057C36.6145 16.5618 35.6013 15.5486 34.3575 15.5486H32.1004V24.0753Z" fill="#303030"/>
<path d="M36.3633 34.859H31.3477V24.8276H36.3633C38.0285 24.8276 39.3727 26.1718 39.3727 27.837V31.8496C39.3727 33.5148 38.0285 34.859 36.3633 34.859Z" fill="white"/>
<path d="M35.3602 32.8527H31.3477V24.8276H34.3571C36.0223 24.8276 37.3665 26.1718 37.3665 27.837V30.8464C37.3665 31.9499 36.4737 32.8527 35.3602 32.8527Z" fill="white"/>
<path d="M36.3637 35.6114H31.3481C30.9368 35.6114 30.5957 35.2703 30.5957 34.859V24.8277C30.5957 24.4164 30.9368 24.0753 31.3481 24.0753H36.3637C38.4402 24.0753 40.1255 25.7606 40.1255 27.8371V31.8496C40.1255 33.9261 38.4402 35.6114 36.3637 35.6114ZM32.1004 34.1067H36.3637C37.6076 34.1067 38.6208 33.0935 38.6208 31.8496V27.8371C38.6208 26.5932 37.6076 25.58 36.3637 25.58H32.1004V34.1067Z" fill="#303030"/>
<path d="M27.3353 35.6113C26.9842 35.6113 26.6733 35.3605 26.603 35.0094L23.3328 18.6383L20.0526 35.0094C19.9723 35.4207 19.5711 35.6815 19.1698 35.6013C18.7585 35.521 18.4977 35.1198 18.578 34.7185L22.5905 14.6558C22.6607 14.3047 22.9717 14.054 23.3328 14.054C23.694 14.054 24.0049 14.3047 24.0751 14.6558L28.0877 34.7185C28.1679 35.1298 27.9071 35.521 27.4958 35.6013C27.4356 35.6013 27.3855 35.6113 27.3353 35.6113Z" fill="#303030"/>
<path d="M25.9306 28.5894H20.7143C20.303 28.5894 19.9619 28.2484 19.9619 27.8371C19.9619 27.4258 20.303 27.0847 20.7143 27.0847H25.9306C26.3419 27.0847 26.6829 27.4258 26.6829 27.8371C26.6829 28.2484 26.3419 28.5894 25.9306 28.5894Z" fill="#303030"/>
<path d="M69.4668 10.5329H56.727C56.3157 10.5329 55.9746 10.1918 55.9746 9.78055C55.9746 9.35923 56.3157 9.0282 56.727 9.0282H69.4668C69.8781 9.0282 70.2191 9.35923 70.2191 9.78055C70.2191 10.1918 69.8781 10.5329 69.4668 10.5329Z" fill="#303030"/>
<path d="M52.7148 10.5329H50.4076C49.9963 10.5329 49.6553 10.1918 49.6553 9.78055C49.6553 9.35923 49.9963 9.0282 50.4076 9.0282H52.7148C53.1261 9.0282 53.4672 9.36926 53.4672 9.78055C53.4672 10.1918 53.1261 10.5329 52.7148 10.5329Z" fill="#303030"/>
<path d="M33.3541 55.674H22.6205C22.2092 55.674 21.8682 55.3329 21.8682 54.9217C21.8682 54.5104 22.2092 54.1693 22.6205 54.1693H33.3541C33.7653 54.1693 34.1064 54.5104 34.1064 54.9217C34.1064 55.343 33.7653 55.674 33.3541 55.674Z" fill="#303030"/>
<path d="M18.6084 55.674H16.3012C15.8899 55.674 15.5488 55.3329 15.5488 54.9217C15.5488 54.5104 15.8899 54.1693 16.3012 54.1693H18.6084C19.0197 54.1693 19.3607 54.5104 19.3607 54.9217C19.3607 55.343 19.0197 55.674 18.6084 55.674Z" fill="#303030"/>
</g>
<defs>
<linearGradient id="paint0_linear" x1="36.3437" y1="66.1434" x2="64.4315" y2="66.1434" gradientUnits="userSpaceOnUse">
<stop offset="0.0104167" stop-color="#00FF6F"/>
<stop offset="1" stop-color="#1BFFFF"/>
</linearGradient>
<linearGradient id="paint1_linear" x1="-1.25809e-07" y1="33.5148" x2="24.0752" y2="33.5148" gradientUnits="userSpaceOnUse">
<stop offset="0.0104167" stop-color="#00FF6F"/>
<stop offset="1" stop-color="#1BFFFF"/>
</linearGradient>
<linearGradient id="paint2_linear" x1="39.3633" y1="20.3302" x2="79.4887" y2="20.3302" gradientUnits="userSpaceOnUse">
<stop offset="0.0104167" stop-color="#00FF6F"/>
<stop offset="1" stop-color="#1BFFFF"/>
</linearGradient>
<clipPath id="clip0">
<rect width="79.4884" height="80" fill="white"/>
</clipPath>
</defs>
</svg>
