<svg width="80" height="75" viewBox="0 0 80 75" fill="none" xmlns="http://www.w3.org/2000/svg">
<path d="M65.8227 66.076C73.6526 66.076 79.9999 59.7286 79.9999 51.8988C79.9999 44.0689 73.6526 37.7216 65.8227 37.7216C57.9929 37.7216 51.6455 44.0689 51.6455 51.8988C51.6455 59.7286 57.9929 66.076 65.8227 66.076Z" fill="url(#paint0_linear)"/>
<path d="M27.3414 74.6836C34.0527 74.6836 39.4933 69.243 39.4933 62.5317C39.4933 55.8204 34.0527 50.3798 27.3414 50.3798C20.63 50.3798 15.1895 55.8204 15.1895 62.5317C15.1895 69.243 20.63 74.6836 27.3414 74.6836Z" fill="url(#paint1_linear)"/>
<path d="M20.2532 40.5063C31.4387 40.5063 40.5063 31.4387 40.5063 20.2532C40.5063 9.06765 31.4387 0 20.2532 0C9.06765 0 0 9.06765 0 20.2532C0 31.4387 9.06765 40.5063 20.2532 40.5063Z" fill="url(#paint2_linear)"/>
<path d="M25.3166 36.4557C25.3166 42.0456 20.7799 46.5823 15.1901 46.5823C9.60019 46.5823 5.06348 42.0456 5.06348 36.4557H25.3166Z" fill="white"/>
<path d="M69.8733 36.4557C69.8733 42.0456 65.3366 46.5823 59.7467 46.5823C54.1568 46.5823 49.6201 42.0456 49.6201 36.4557H69.8733Z" fill="white"/>
<path d="M12.6582 46.2481C13.4683 46.4607 14.3088 46.5823 15.1898 46.5823C20.7797 46.5823 25.3164 42.0456 25.3164 36.4557H20.2531C20.2531 41.1645 17.0228 45.124 12.6582 46.2481Z" fill="white"/>
<path d="M64.8098 36.4557C64.8098 41.1747 61.5794 45.124 57.2148 46.2481C58.025 46.4607 58.8655 46.5823 59.7465 46.5823C65.3364 46.5823 69.8731 42.0456 69.8731 36.4557H64.8098Z" fill="white"/>
<path d="M15.1898 47.3417C9.18472 47.3417 4.30371 42.4506 4.30371 36.4557C4.30371 36.0405 4.64801 35.6962 5.0632 35.6962H25.3164C25.7316 35.6962 26.0759 36.0405 26.0759 36.4557C26.0759 42.4506 21.1949 47.3417 15.1898 47.3417ZM5.85308 37.2152C6.23789 42.0253 10.2784 45.8227 15.1898 45.8227C20.1012 45.8227 24.1417 42.0253 24.5265 37.2152H5.85308Z" fill="#303030"/>
<path d="M59.7464 47.3417C53.7414 47.3417 48.8604 42.4607 48.8604 36.4557C48.8604 36.0405 49.2047 35.6962 49.6198 35.6962H69.873C70.2882 35.6962 70.6325 36.0405 70.6325 36.4557C70.6325 42.4506 65.7515 47.3417 59.7464 47.3417ZM50.4097 37.2152C50.7945 42.0253 54.835 45.8227 59.7464 45.8227C64.6578 45.8227 68.6983 42.0253 69.0831 37.2152H50.4097Z" fill="#303030"/>
<path d="M23.2915 37.2152H7.08899C6.84595 37.2152 6.61304 37.0937 6.47127 36.8911C6.32949 36.6886 6.29911 36.4253 6.38013 36.1924L14.4814 13.9139C14.5928 13.6101 14.8763 13.4177 15.1903 13.4177C15.5143 13.4177 15.7978 13.6203 15.8991 13.9139L24.0004 36.1924C24.0814 36.4253 24.051 36.6785 23.9092 36.8911C23.7675 37.0937 23.5346 37.2152 23.2915 37.2152ZM8.17253 35.6962H22.208L15.1903 16.3949L8.17253 35.6962Z" fill="#303030"/>
<path d="M67.8482 37.2152H51.6456C51.4026 37.2152 51.1697 37.0937 51.0279 36.8911C50.8861 36.6886 50.8558 36.4253 50.9368 36.1924L59.038 13.9139C59.1494 13.6101 59.433 13.4177 59.7469 13.4177C60.0709 13.4177 60.3545 13.6203 60.4558 13.9139L68.557 36.1924C68.638 36.4253 68.6077 36.6785 68.4659 36.8911C68.3241 37.0937 68.0912 37.2152 67.8482 37.2152ZM52.7292 35.6962H66.7646L59.7469 16.3949L52.7292 35.6962Z" fill="#303030"/>
<path d="M69.8736 67.8482H5.06348V63.7975C5.06348 62.6836 5.97487 61.7722 7.08879 61.7722H67.8483C68.9622 61.7722 69.8736 62.6836 69.8736 63.7975V67.8482Z" fill="white"/>
<path d="M64.8105 61.7721H10.127V57.7215C10.127 56.5974 11.0383 55.6962 12.1523 55.6962H62.7852C63.8991 55.6962 64.8105 56.5974 64.8105 57.7215V61.7721Z" fill="white"/>
<path d="M69.8739 67.8482H12.1523V66.8355C12.1523 65.7216 13.0637 64.8102 14.1777 64.8102H69.8739V67.8482Z" fill="white"/>
<path d="M64.8099 61.7721H21.2656V60.7594C21.2656 59.6354 22.177 58.7341 23.2909 58.7341H64.8099V61.7721Z" fill="white"/>
<path d="M42.5319 11.1393H32.4053V55.6962H42.5319V11.1393Z" fill="white"/>
<path d="M59.7464 14.1773H15.1895C15.1895 10.8254 17.9135 8.10132 21.2654 8.10132H53.6705C57.0224 8.10132 59.7464 10.8254 59.7464 14.1773Z" fill="white"/>
<path d="M59.7466 14.1773H21.2656C21.2656 12.4962 22.6226 11.1393 24.3036 11.1393H56.7087C58.3897 11.1393 59.7466 12.4962 59.7466 14.1773Z" fill="white"/>
<path d="M59.7471 14.9367H15.1902C14.775 14.9367 14.4307 14.5924 14.4307 14.1772C14.4307 10.4102 17.499 7.3418 21.2661 7.3418H53.6712C57.4383 7.3418 60.5066 10.4102 60.5066 14.1772C60.5066 14.5924 60.1623 14.9367 59.7471 14.9367ZM16.0003 13.4177H58.937C58.5623 10.8456 56.3446 8.86078 53.6712 8.86078H21.2661C18.5927 8.86078 16.375 10.8456 16.0003 13.4177Z" fill="#303030"/>
<path d="M42.532 55.6962H37.4688V27.3417C37.4688 26.2177 38.3801 25.3164 39.4941 25.3164H42.532V55.6962Z" fill="white"/>
<path d="M69.8733 68.6076H5.0632C4.64801 68.6076 4.30371 68.2633 4.30371 67.8481V63.7975C4.30371 62.2583 5.54928 61.0127 7.08852 61.0127H67.848C69.3873 61.0127 70.6328 62.2583 70.6328 63.7975V67.8481C70.6328 68.2633 70.2885 68.6076 69.8733 68.6076ZM5.8227 67.0886H69.1138V63.7975C69.1138 63.0988 68.5468 62.5317 67.848 62.5317H7.08852C6.38979 62.5317 5.8227 63.0988 5.8227 63.7975V67.0886Z" fill="#303030"/>
<path d="M64.8102 62.5317H10.1267C9.71149 62.5317 9.36719 62.1874 9.36719 61.7722V57.7216C9.36719 56.1823 10.6128 54.9368 12.152 54.9368H62.7849C64.3242 54.9368 65.5697 56.1823 65.5697 57.7216V61.7722C65.5697 62.1874 65.2254 62.5317 64.8102 62.5317ZM10.8862 61.0127H64.0507V57.7216C64.0507 57.0228 63.4836 56.4558 62.7849 56.4558H12.152C11.4533 56.4558 10.8862 57.0228 10.8862 57.7216V61.0127Z" fill="#303030"/>
<path d="M42.5316 56.4557H32.405C31.9898 56.4557 31.6455 56.1114 31.6455 55.6962V11.1393C31.6455 10.7241 31.9898 10.3798 32.405 10.3798H42.5316C42.9468 10.3798 43.2911 10.7241 43.2911 11.1393V55.6962C43.2911 56.1114 42.9468 56.4557 42.5316 56.4557ZM33.1645 54.9367H41.7721V11.8987H33.1645V54.9367Z" fill="#303030"/>
<path d="M37.4685 19.2405C41.9427 19.2405 45.5697 15.6134 45.5697 11.1392C45.5697 6.66502 41.9427 3.03796 37.4685 3.03796C32.9942 3.03796 29.3672 6.66502 29.3672 11.1392C29.3672 15.6134 32.9942 19.2405 37.4685 19.2405Z" fill="white"/>
<path d="M45.5699 11.1393C45.5699 9.95445 45.3066 8.8304 44.8509 7.80761C43.8281 7.35191 42.704 7.08862 41.5192 7.08862C37.0433 7.08862 33.418 10.7139 33.418 15.1899C33.418 16.3747 33.6813 17.4988 34.137 18.5215C35.1496 18.9772 36.2737 19.2405 37.4686 19.2405C41.9446 19.2405 45.5699 15.6152 45.5699 11.1393Z" fill="white"/>
<path d="M37.4682 20C32.5872 20 28.6074 16.0303 28.6074 11.1392C28.6074 6.25819 32.5872 2.27844 37.4682 2.27844C42.3492 2.27844 46.3289 6.25819 46.3289 11.1392C46.3289 16.0202 42.3492 20 37.4682 20ZM37.4682 3.79743C33.4175 3.79743 30.1264 7.08857 30.1264 11.1392C30.1264 15.1898 33.4175 18.481 37.4682 18.481C41.5188 18.481 44.81 15.1898 44.81 11.1392C44.81 7.08857 41.5188 3.79743 37.4682 3.79743Z" fill="#303030"/>
<path d="M37.4686 14.1773C39.1465 14.1773 40.5066 12.8171 40.5066 11.1393C40.5066 9.46147 39.1465 8.10132 37.4686 8.10132C35.7908 8.10132 34.4307 9.46147 34.4307 11.1393C34.4307 12.8171 35.7908 14.1773 37.4686 14.1773Z" fill="white"/>
<path d="M37.4684 14.9367C35.3722 14.9367 33.6709 13.2355 33.6709 11.1393C33.6709 9.04306 35.3722 7.3418 37.4684 7.3418C39.5646 7.3418 41.2658 9.04306 41.2658 11.1393C41.2658 13.2355 39.5646 14.9367 37.4684 14.9367ZM37.4684 8.86078C36.2127 8.86078 35.1899 9.88357 35.1899 11.1393C35.1899 12.395 36.2127 13.4177 37.4684 13.4177C38.7241 13.4177 39.7468 12.395 39.7468 11.1393C39.7468 9.88357 38.7241 8.86078 37.4684 8.86078Z" fill="#303030"/>
<path d="M25.3163 24.5266C26.4349 24.5266 27.3416 23.6198 27.3416 22.5013C27.3416 21.3827 26.4349 20.476 25.3163 20.476C24.1978 20.476 23.291 21.3827 23.291 22.5013C23.291 23.6198 24.1978 24.5266 25.3163 24.5266Z" fill="white"/>
<path d="M25.3161 25.2861C23.7768 25.2861 22.5312 24.0405 22.5312 22.5012C22.5312 20.962 23.7768 19.7164 25.3161 19.7164C26.8553 19.7164 28.1009 20.962 28.1009 22.5012C28.1009 24.0405 26.8553 25.2861 25.3161 25.2861ZM25.3161 21.2354C24.6173 21.2354 24.0502 21.8025 24.0502 22.5012C24.0502 23.2 24.6173 23.7671 25.3161 23.7671C26.0148 23.7671 26.5819 23.2 26.5819 22.5012C26.5819 21.8025 26.0148 21.2354 25.3161 21.2354Z" fill="#303030"/>
<path d="M48.1318 31.362C49.2503 31.362 50.1571 30.4553 50.1571 29.3367C50.1571 28.2182 49.2503 27.3114 48.1318 27.3114C47.0132 27.3114 46.1064 28.2182 46.1064 29.3367C46.1064 30.4553 47.0132 31.362 48.1318 31.362Z" fill="white"/>
<path d="M48.1315 32.1215C46.5922 32.1215 45.3467 30.8759 45.3467 29.3367C45.3467 27.7974 46.5922 26.5519 48.1315 26.5519C49.6707 26.5519 50.9163 27.7974 50.9163 29.3367C50.9163 30.8759 49.6707 32.1215 48.1315 32.1215ZM48.1315 28.0709C47.4328 28.0709 46.8657 28.638 46.8657 29.3367C46.8657 30.0354 47.4328 30.6025 48.1315 30.6025C48.8302 30.6025 49.3973 30.0354 49.3973 29.3367C49.3973 28.638 48.8302 28.0709 48.1315 28.0709Z" fill="#303030"/>
<path d="M21.9345 52.6582C23.053 52.6582 23.9598 51.7514 23.9598 50.6329C23.9598 49.5143 23.053 48.6075 21.9345 48.6075C20.8159 48.6075 19.9092 49.5143 19.9092 50.6329C19.9092 51.7514 20.8159 52.6582 21.9345 52.6582Z" fill="white"/>
<path d="M21.9342 53.4178C20.395 53.4178 19.1494 52.1722 19.1494 50.633C19.1494 49.0937 20.395 47.8481 21.9342 47.8481C23.4735 47.8481 24.719 49.0937 24.719 50.633C24.719 52.1621 23.4633 53.4178 21.9342 53.4178ZM21.9342 49.3671C21.2355 49.3671 20.6684 49.9342 20.6684 50.633C20.6684 51.3317 21.2355 51.8988 21.9342 51.8988C22.633 51.8988 23.2 51.3317 23.2 50.633C23.2 49.9342 22.633 49.3671 21.9342 49.3671Z" fill="#303030"/>
<path d="M7.08879 16.2025C8.20734 16.2025 9.11411 15.2957 9.11411 14.1772C9.11411 13.0586 8.20734 12.1519 7.08879 12.1519C5.97024 12.1519 5.06348 13.0586 5.06348 14.1772C5.06348 15.2957 5.97024 16.2025 7.08879 16.2025Z" fill="white"/>
<path d="M7.08852 16.9621C5.54928 16.9621 4.30371 15.7165 4.30371 14.1773C4.30371 12.638 5.54928 11.3925 7.08852 11.3925C8.62776 11.3925 9.87333 12.638 9.87333 14.1773C9.87333 15.7064 8.62776 16.9621 7.08852 16.9621ZM7.08852 12.9114C6.38979 12.9114 5.8227 13.4785 5.8227 14.1773C5.8227 14.876 6.38979 15.4431 7.08852 15.4431C7.78726 15.4431 8.35434 14.876 8.35434 14.1773C8.35434 13.4785 7.78726 12.9114 7.08852 12.9114Z" fill="#303030"/>
<path d="M67.8486 20.2531C68.9671 20.2531 69.8739 19.3464 69.8739 18.2278C69.8739 17.1093 68.9671 16.2025 67.8486 16.2025C66.73 16.2025 65.8232 17.1093 65.8232 18.2278C65.8232 19.3464 66.73 20.2531 67.8486 20.2531Z" fill="white"/>
<path d="M67.8483 21.0126C66.309 21.0126 65.0635 19.767 65.0635 18.2278C65.0635 16.6886 66.309 15.443 67.8483 15.443C69.3875 15.443 70.6331 16.6886 70.6331 18.2278C70.6331 19.767 69.3875 21.0126 67.8483 21.0126ZM67.8483 16.962C67.1496 16.962 66.5825 17.5291 66.5825 18.2278C66.5825 18.9265 67.1496 19.4936 67.8483 19.4936C68.547 19.4936 69.1141 18.9265 69.1141 18.2278C69.1141 17.5291 68.547 16.962 67.8483 16.962Z" fill="#303030"/>
<path d="M67.8486 51.1393C68.9671 51.1393 69.8739 50.2325 69.8739 49.1139C69.8739 47.9954 68.9671 47.0886 67.8486 47.0886C66.73 47.0886 65.8232 47.9954 65.8232 49.1139C65.8232 50.2325 66.73 51.1393 67.8486 51.1393Z" fill="white"/>
<path d="M67.8483 51.8987C66.309 51.8987 65.0635 50.6532 65.0635 49.1139C65.0635 47.5747 66.309 46.3291 67.8483 46.3291C69.3875 46.3291 70.6331 47.5747 70.6331 49.1139C70.6331 50.643 69.3875 51.8987 67.8483 51.8987ZM67.8483 47.8481C67.1496 47.8481 66.5825 48.4152 66.5825 49.1139C66.5825 49.8126 67.1496 50.3797 67.8483 50.3797C68.547 50.3797 69.1141 49.8126 69.1141 49.1139C69.1141 48.4152 68.547 47.8481 67.8483 47.8481Z" fill="#303030"/>
<defs>
<linearGradient id="paint0_linear" x1="51.6455" y1="52.0878" x2="79.9999" y2="52.0878" gradientUnits="userSpaceOnUse">
<stop offset="0.0104167" stop-color="#00FF6F"/>
<stop offset="1" stop-color="#1BFFFF"/>
</linearGradient>
<linearGradient id="paint1_linear" x1="15.1895" y1="62.6937" x2="39.4933" y2="62.6937" gradientUnits="userSpaceOnUse">
<stop offset="0.0104167" stop-color="#00FF6F"/>
<stop offset="1" stop-color="#1BFFFF"/>
</linearGradient>
<linearGradient id="paint2_linear" x1="-2.11673e-07" y1="20.5232" x2="40.5063" y2="20.5232" gradientUnits="userSpaceOnUse">
<stop offset="0.0104167" stop-color="#00FF6F"/>
<stop offset="1" stop-color="#1BFFFF"/>
</linearGradient>
</defs>
</svg>
