<svg width="50" height="50" viewBox="0 0 50 50" fill="none" xmlns="http://www.w3.org/2000/svg">
<g clip-path="url(#clip0)">
<path d="M40.9678 38.8709C45.9562 38.8709 50.0001 34.827 50.0001 29.8387C50.0001 24.8503 45.9562 20.8064 40.9678 20.8064C35.9794 20.8064 31.9355 24.8503 31.9355 29.8387C31.9355 34.827 35.9794 38.8709 40.9678 38.8709Z" fill="#59DBF0"/>
<path d="M18.6716 49.3547C22.9474 49.3547 26.4136 45.8885 26.4136 41.6128C26.4136 37.337 22.9474 33.8708 18.6716 33.8708C14.3959 33.8708 10.9297 37.337 10.9297 41.6128C10.9297 45.8885 14.3959 49.3547 18.6716 49.3547Z" fill="#59DBF0"/>
<path d="M12.9032 25.8064C20.0295 25.8064 25.8064 20.0295 25.8064 12.9032C25.8064 5.77697 20.0295 0 12.9032 0C5.77697 0 0 5.77697 0 12.9032C0 20.0295 5.77697 25.8064 12.9032 25.8064Z" fill="#59DBF0"/>
<path d="M35.9678 44.9999H43.0645C44.4904 44.9999 45.6452 43.8451 45.6452 42.4193V32.0967H35.9678V44.9999Z" fill="white"/>
<path d="M6.93514 10.1614C5.50933 10.1614 4.35449 11.3162 4.35449 12.742V23.0646L13.3867 32.0969H35.9674V10.1614H6.93514Z" fill="white"/>
<path d="M4.35449 23.0645V32.0967H13.3867L4.35449 23.0645Z" fill="white"/>
<path d="M45.6452 19.1936H35.9678V25.6452H45.6452V19.1936Z" fill="white"/>
<path d="M45.6452 25.6453H35.9678V32.0969H45.6452V25.6453Z" fill="white"/>
<path d="M43.0645 10.1614H35.9678V19.1936H45.6452V12.742C45.6452 11.3162 44.4904 10.1614 43.0645 10.1614Z" fill="white"/>
<path d="M13.3867 32.0967L26.2899 44.9999V32.0967H13.3867Z" fill="white"/>
<path d="M26.29 32.0967V44.9999H35.9675V32.0967H26.29Z" fill="white"/>
<path d="M19.8384 38.5483L13.3868 32.0967H4.35449V42.4193C4.35449 43.8451 5.50933 44.9999 6.93514 44.9999H10.8061V38.5483H19.8384Z" fill="white"/>
<path d="M19.8389 38.5483H10.8066V45H26.2905L19.8389 38.5483Z" fill="white"/>
<path d="M45.6456 42.4193V35.3225H39.194C38.8392 35.3225 38.5488 35.6128 38.5488 35.9677V44.9999H43.065C44.4908 44.9999 45.6456 43.8451 45.6456 42.4193Z" fill="#BDC3D8"/>
<path d="M35.9679 21.1292H9.51625C9.16142 21.1292 8.87109 21.4195 8.87109 21.7743V27.5808L13.3872 32.0969H35.9679V21.1292Z" fill="#BDC3D8"/>
<path d="M7.58105 30.4258V32.0968H10.8069L8.68428 29.9742C8.27783 29.5678 7.58105 29.8517 7.58105 30.4258Z" fill="#BDC3D8"/>
<path d="M45.645 22.4194H41.7741C41.4192 22.4194 41.1289 22.7098 41.1289 23.0646V25.6452H45.645V22.4194Z" fill="#BDC3D8"/>
<path d="M45.645 27.5806H39.8385C39.4837 27.5806 39.1934 27.8709 39.1934 28.2257V32.0967H45.645V27.5806Z" fill="#BDC3D8"/>
<path d="M45.645 13.3872H39.8385C39.4837 13.3872 39.1934 13.6775 39.1934 14.0324V19.1937H45.645V13.3872Z" fill="#BDC3D8"/>
<path d="M21.5871 36.4257L26.2904 41.129V35.3225H22.0452C21.471 35.3225 21.1807 36.0193 21.5871 36.4257Z" fill="#BDC3D8"/>
<path d="M35.9676 37.9033H30.8063C30.4515 37.9033 30.1611 38.1936 30.1611 38.5485V45.0001H35.9676V37.9033Z" fill="#BDC3D8"/>
<path d="M10.8069 38.5483H19.8391L16.6133 35.3225H8.22622C7.87138 35.3225 7.58105 35.6128 7.58105 35.9677V44.9999H10.8069V38.5483Z" fill="#BDC3D8"/>
<path d="M23.0645 41.7742H16.6129C16.2581 41.7742 15.9678 42.0645 15.9678 42.4193V45H26.2904L23.0645 41.7742Z" fill="#BDC3D8"/>
<path d="M43.064 45.4838H35.9673C35.7028 45.4838 35.4834 45.2644 35.4834 44.9999V32.0967C35.4834 31.8321 35.7028 31.6128 35.9673 31.6128H45.6447C45.9092 31.6128 46.1286 31.8321 46.1286 32.0967V42.4192C46.1286 44.1096 44.7544 45.4838 43.064 45.4838ZM36.4511 44.516H43.064C44.2189 44.516 45.1608 43.5741 45.1608 42.4192V32.5805H36.4511V44.516Z" fill="#21365F"/>
<path d="M35.9679 32.5807H13.3872C13.2582 32.5807 13.1356 32.5291 13.0453 32.4388L4.01303 23.4065C3.92271 23.3162 3.87109 23.1936 3.87109 23.0646V12.742C3.87109 11.0517 5.24529 9.67749 6.93561 9.67749H35.9679C36.2324 9.67749 36.4517 9.89685 36.4517 10.1614V32.0968C36.4517 32.3614 36.2324 32.5807 35.9679 32.5807ZM13.5872 31.613H35.484V10.6452H6.93561C5.78077 10.6452 4.83884 11.5872 4.83884 12.742V22.8646L13.5872 31.613Z" fill="#21365F"/>
<path d="M13.3872 32.5806H4.35496C4.09045 32.5806 3.87109 32.3612 3.87109 32.0967V23.0645C3.87109 22.8709 3.98722 22.6903 4.16787 22.6193C4.34851 22.5419 4.55496 22.587 4.6969 22.7225L13.7292 31.7548C13.8646 31.8903 13.9098 32.1032 13.8324 32.2838C13.7614 32.4645 13.5808 32.5806 13.3872 32.5806ZM4.83884 31.6128H12.2195L4.83884 24.2322V31.6128Z" fill="#21365F"/>
<path d="M45.6447 26.1291H35.9673C35.7028 26.1291 35.4834 25.9097 35.4834 25.6452V19.1936C35.4834 18.9291 35.7028 18.7097 35.9673 18.7097H45.6447C45.9092 18.7097 46.1286 18.9291 46.1286 19.1936V25.6452C46.1286 25.9097 45.9092 26.1291 45.6447 26.1291ZM36.4511 25.1613H45.1608V19.6775H36.4511V25.1613Z" fill="#21365F"/>
<path d="M45.6447 32.5807H35.9673C35.7028 32.5807 35.4834 32.3614 35.4834 32.0969V25.6452C35.4834 25.3807 35.7028 25.1614 35.9673 25.1614H45.6447C45.9092 25.1614 46.1286 25.3807 46.1286 25.6452V32.0969C46.1286 32.3614 45.9092 32.5807 45.6447 32.5807ZM36.4511 31.613H45.1608V26.1291H36.4511V31.613Z" fill="#21365F"/>
<path d="M45.6447 19.6775H35.9673C35.7028 19.6775 35.4834 19.4581 35.4834 19.1936V10.1614C35.4834 9.89685 35.7028 9.67749 35.9673 9.67749H43.064C44.7544 9.67749 46.1286 11.0517 46.1286 12.742V19.1936C46.1286 19.4581 45.9092 19.6775 45.6447 19.6775ZM36.4511 18.7097H45.1608V12.742C45.1608 11.5872 44.2189 10.6452 43.064 10.6452H36.4511V18.7097Z" fill="#21365F"/>
<path d="M26.2904 45.4838C26.1679 45.4838 26.0388 45.4321 25.9485 45.3418L13.0453 32.4386C12.9098 32.3031 12.8646 32.0902 12.9421 31.9096C13.0195 31.7289 13.1937 31.6128 13.3872 31.6128H26.2904C26.555 31.6128 26.7743 31.8321 26.7743 32.0967V44.9999C26.7743 45.1934 26.6582 45.3741 26.4775 45.4451C26.413 45.4709 26.3485 45.4838 26.2904 45.4838ZM14.555 32.5805L25.8066 43.8321V32.5805H14.555Z" fill="#21365F"/>
<path d="M35.9679 45.4838H26.2905C26.1615 45.4838 26.0389 45.4321 25.9486 45.3418C25.8583 45.2515 25.8066 45.1289 25.8066 44.9999V32.0967C25.8066 31.8321 26.026 31.6128 26.2905 31.6128H35.9679C36.2325 31.6128 36.4518 31.8321 36.4518 32.0967V44.9999C36.4518 45.2644 36.2325 45.4838 35.9679 45.4838ZM26.7744 44.516H35.4841V32.5805H26.7744V44.516Z" fill="#21365F"/>
<path d="M10.8066 45.4838H6.93561C5.24529 45.4838 3.87109 44.1096 3.87109 42.4192V32.0967C3.87109 31.8321 4.09045 31.6128 4.35496 31.6128H13.3872C13.5163 31.6128 13.6388 31.6644 13.7292 31.7547L20.1808 38.2063C20.3163 38.3418 20.3614 38.5547 20.284 38.7354C20.2066 38.916 20.0324 39.0321 19.8388 39.0321H11.2904V44.9999C11.2904 45.2644 11.0775 45.4838 10.8066 45.4838ZM4.83884 32.5805V42.4192C4.83884 43.5741 5.78077 44.516 6.93561 44.516H10.3227V38.5483C10.3227 38.2838 10.5421 38.0644 10.8066 38.0644H18.6711L13.1872 32.5805H4.83884Z" fill="#21365F"/>
<path d="M26.29 45.4838H10.8061C10.5416 45.4838 10.3223 45.2645 10.3223 44.9999V38.5483C10.3223 38.2838 10.5416 38.0645 10.8061 38.0645H19.8384C19.9674 38.0645 20.09 38.1161 20.1803 38.2064L26.6319 44.658C26.7674 44.7935 26.8126 45.0064 26.7352 45.187C26.6642 45.3677 26.49 45.4838 26.29 45.4838ZM11.29 44.5161H25.1223L19.6384 39.0322H11.29V44.5161Z" fill="#21365F"/>
<path d="M29.5095 7.29679C29.4257 7.21292 29.3418 7.12905 29.2579 7.04518C24.8128 2.59357 17.5999 2.59357 13.1611 7.05163L12.916 7.29679C8.37405 11.8645 8.38695 19.2516 12.9418 23.8065L21.2321 32.0968L29.4966 23.8323C34.0644 19.2645 34.0644 11.8645 29.5095 7.29679Z" fill="white"/>
<path d="M29.497 23.8324C33.3938 19.9356 33.9551 13.9679 31.2002 9.46465C30.0776 9.14852 28.897 8.96143 27.6776 8.96143C20.5486 8.96143 14.7744 14.7421 14.7744 21.8647C14.7744 23.5034 15.0905 25.0711 15.6518 26.5098L21.2389 32.0969L29.497 23.8324Z" fill="#BDC3D8"/>
<path d="M21.2327 32.5807C21.1101 32.5807 20.9875 32.5355 20.8907 32.4387L12.6004 24.1484C7.86492 19.4129 7.85847 11.7032 12.581 6.96131L12.8262 6.71615C15.0585 4.46454 18.0391 3.22583 21.2069 3.22583H21.2133C24.3811 3.22583 27.3617 4.46454 29.6004 6.70325L29.852 6.95486C34.5875 11.7032 34.5875 19.4258 29.8391 24.1742L21.5746 32.4387C21.4778 32.5355 21.3552 32.5807 21.2327 32.5807ZM21.2133 4.19357C18.2972 4.19357 15.5617 5.33551 13.5036 7.40002L13.2585 7.64519C8.91008 12.0129 8.92298 19.1097 13.2778 23.4645L21.2262 31.4129L29.1488 23.4903C33.5165 19.1226 33.523 12.0129 29.1552 7.63873L28.9101 7.39357C26.8585 5.32906 24.1294 4.19357 21.2133 4.19357Z" fill="#21365F"/>
<path d="M21.2192 21.8647C24.7823 21.8647 27.6708 18.9762 27.6708 15.413C27.6708 11.8499 24.7823 8.96143 21.2192 8.96143C17.6561 8.96143 14.7676 11.8499 14.7676 15.413C14.7676 18.9762 17.6561 21.8647 21.2192 21.8647Z" fill="white"/>
<path d="M27.6707 15.4129C27.6707 14.4904 27.4771 13.6129 27.1223 12.8194C26.3288 12.471 25.4513 12.271 24.5288 12.271C20.9675 12.271 18.0771 15.1613 18.0771 18.7226C18.0771 19.6452 18.2771 20.5226 18.6255 21.3162C19.4191 21.6645 20.2965 21.8645 21.2191 21.8645C24.7804 21.8645 27.6707 18.9742 27.6707 15.4129Z" fill="#BDC3D8"/>
<path d="M21.2187 22.3485C17.3929 22.3485 14.2832 19.2388 14.2832 15.413C14.2832 11.5872 17.3929 8.47754 21.2187 8.47754C25.0445 8.47754 28.1542 11.5872 28.1542 15.413C28.1542 19.2388 25.0445 22.3485 21.2187 22.3485ZM21.2187 9.44528C17.9284 9.44528 15.2509 12.1227 15.2509 15.413C15.2509 18.7033 17.9284 21.3808 21.2187 21.3808C24.509 21.3808 27.1864 18.7033 27.1864 15.413C27.1864 12.1227 24.509 9.44528 21.2187 9.44528Z" fill="#21365F"/>
<path d="M23.0574 24.716C22.8316 24.716 22.6316 24.5612 22.5865 24.3289C22.5349 24.0644 22.7026 23.8128 22.9607 23.7547C25.3736 23.2515 27.451 21.7289 28.6574 19.5741C28.7865 19.3418 29.0833 19.258 29.3155 19.387C29.5478 19.516 29.6316 19.8128 29.5026 20.0451C28.1542 22.4451 25.8445 24.1418 23.1542 24.7031C23.122 24.716 23.0897 24.716 23.0574 24.716Z" fill="#21365F"/>
<path d="M30.058 17.6451C30.0258 17.6451 29.9935 17.6451 29.9613 17.6386C29.6967 17.587 29.529 17.3354 29.5806 17.0709C29.6903 16.529 29.7419 15.9741 29.7419 15.4128C29.7419 15.1483 29.9613 14.929 30.2258 14.929C30.4903 14.929 30.7096 15.1483 30.7096 15.4128C30.7096 16.0322 30.6516 16.6515 30.529 17.2515C30.4903 17.4838 30.2838 17.6451 30.058 17.6451Z" fill="#21365F"/>
<path d="M6.93504 22.258C6.67053 22.258 6.45117 22.0386 6.45117 21.7741V17.3999C6.45117 17.1354 6.67053 16.916 6.93504 16.916C7.19956 16.916 7.41891 17.1354 7.41891 17.3999V21.7741C7.41891 22.0386 7.20601 22.258 6.93504 22.258Z" fill="#21365F"/>
<path d="M6.93504 15.2969C6.67053 15.2969 6.45117 15.0775 6.45117 14.813V13.3872C6.45117 13.1227 6.67053 12.9033 6.93504 12.9033C7.19956 12.9033 7.41891 13.1227 7.41891 13.3872V14.813C7.41891 15.084 7.20601 15.2969 6.93504 15.2969Z" fill="#21365F"/>
<path d="M44.355 8.0645C44.0904 8.0645 43.8711 7.84515 43.8711 7.58063V4.99998C43.8711 4.73547 44.0904 4.51611 44.355 4.51611C44.6195 4.51611 44.8388 4.73547 44.8388 4.99998V7.58063C44.8388 7.84515 44.6195 8.0645 44.355 8.0645Z" fill="#21365F"/>
<path d="M45.6456 6.77414H43.0649C42.8004 6.77414 42.5811 6.55478 42.5811 6.29027C42.5811 6.02575 42.8004 5.8064 43.0649 5.8064H45.6456C45.9101 5.8064 46.1294 6.02575 46.1294 6.29027C46.1294 6.55478 45.9101 6.77414 45.6456 6.77414Z" fill="#21365F"/>
<path d="M40.4839 6.77414C40.7511 6.77414 40.9677 6.5575 40.9677 6.29027C40.9677 6.02303 40.7511 5.8064 40.4839 5.8064C40.2166 5.8064 40 6.02303 40 6.29027C40 6.5575 40.2166 6.77414 40.4839 6.77414Z" fill="#21365F"/>
<path d="M38.5483 6.77414C38.8156 6.77414 39.0322 6.5575 39.0322 6.29027C39.0322 6.02303 38.8156 5.8064 38.5483 5.8064C38.2811 5.8064 38.0645 6.02303 38.0645 6.29027C38.0645 6.5575 38.2811 6.77414 38.5483 6.77414Z" fill="#21365F"/>
<path d="M35.9673 6.77414C36.2345 6.77414 36.4511 6.5575 36.4511 6.29027C36.4511 6.02303 36.2345 5.8064 35.9673 5.8064C35.7 5.8064 35.4834 6.02303 35.4834 6.29027C35.4834 6.5575 35.7 6.77414 35.9673 6.77414Z" fill="#21365F"/>
<path d="M32.0972 6.77414C32.3644 6.77414 32.581 6.5575 32.581 6.29027C32.581 6.02303 32.3644 5.8064 32.0972 5.8064C31.8299 5.8064 31.6133 6.02303 31.6133 6.29027C31.6133 6.5575 31.8299 6.77414 32.0972 6.77414Z" fill="#21365F"/>
<path d="M9.51569 6.77414H6.93504C6.67053 6.77414 6.45117 6.55478 6.45117 6.29027C6.45117 6.02575 6.67053 5.8064 6.93504 5.8064H9.51569C9.7802 5.8064 9.99956 6.02575 9.99956 6.29027C9.99956 6.55478 9.78666 6.77414 9.51569 6.77414Z" fill="#21365F"/>
<path d="M8.22606 8.0645C7.96154 8.0645 7.74219 7.84515 7.74219 7.58063V4.99998C7.74219 4.73547 7.96154 4.51611 8.22606 4.51611C8.49057 4.51611 8.70993 4.73547 8.70993 4.99998V7.58063C8.70993 7.84515 8.49703 8.0645 8.22606 8.0645Z" fill="#21365F"/>
</g>
<defs>
<clipPath id="clip0">
<rect width="50" height="49.3548" fill="white"/>
</clipPath>
</defs>
</svg>
