<svg width="80" height="80" viewBox="0 0 80 80" fill="none" xmlns="http://www.w3.org/2000/svg">
<path d="M21.4389 29.5125C29.5885 29.5125 36.1951 22.9059 36.1951 14.7563C36.1951 6.6066 29.5885 0 21.4389 0C13.2892 0 6.68262 6.6066 6.68262 14.7563C6.68262 22.9059 13.2892 29.5125 21.4389 29.5125Z" fill="url(#paint0_linear)"/>
<path d="M67.3513 61.1963C74.3368 61.1963 79.9996 55.5335 79.9996 48.5481C79.9996 41.5627 74.3368 35.8999 67.3513 35.8999C60.3659 35.8999 54.7031 41.5627 54.7031 48.5481C54.7031 55.5335 60.3659 61.1963 67.3513 61.1963Z" fill="url(#paint1_linear)"/>
<path d="M21.0804 79.1252C32.7227 79.1252 42.1607 69.6872 42.1607 58.0448C42.1607 46.4025 32.7227 36.9645 21.0804 36.9645C9.438 36.9645 0 46.4025 0 58.0448C0 69.6872 9.438 79.1252 21.0804 79.1252Z" fill="url(#paint2_linear)"/>
<path d="M71.2833 56.506C71.0198 58.2346 69.8498 59.6891 68.2056 60.3215L54.9776 65.3808C52.3215 66.3927 49.3703 64.9065 48.6008 62.1766C48.0422 60.174 49.17 58.087 51.1516 57.444L53.7655 56.6114C61.1226 55.0514 65.4757 52.2899 68.2161 52.2583C70.7563 52.2267 71.7787 54.419 71.2833 56.506Z" fill="white"/>
<path d="M53.2598 66.4875C52.3955 66.4875 51.5206 66.2873 50.7301 65.8867C49.3177 65.1805 48.2743 63.9052 47.8421 62.3874C47.157 59.9632 48.5061 57.4546 50.9093 56.6957L53.5233 55.863C57.3915 55.0303 60.3744 53.9026 62.7775 53.0066C65.0015 52.1634 66.7617 51.4994 68.2057 51.4783C69.4811 51.4572 70.5878 51.9526 71.3151 52.8485C72.1056 53.8393 72.3797 55.2622 72.0529 56.6641C71.7367 58.6562 70.377 60.3426 68.4798 61.0699L55.2519 66.1292C54.6194 66.3716 53.9449 66.4875 53.2598 66.4875ZM68.2795 53.0488C68.269 53.0488 68.2479 53.0488 68.2374 53.0488C67.0779 53.0593 65.4231 53.6812 63.3467 54.4717C60.9014 55.3993 57.8553 56.5481 53.9343 57.3808L51.3941 58.1924C49.8026 58.6983 48.9172 60.3531 49.3704 61.9552C49.6761 63.062 50.4139 63.9579 51.4469 64.4744C52.4798 64.9908 53.6287 65.0435 54.7038 64.643L67.9317 59.5837C69.3019 59.0567 70.2822 57.834 70.5035 56.39C70.5035 56.369 70.514 56.3479 70.514 56.3268C70.7354 55.3782 70.5773 54.4401 70.0819 53.8288C69.6708 53.3123 69.07 53.0488 68.2795 53.0488Z" fill="#303030"/>
<path d="M74.1612 56.4321C72.1269 54.7351 66.4879 59.9314 51.8265 62.693C53.7554 61.9657 54.451 60.8906 54.5143 59.805C54.841 54.9459 50.6355 55.1673 50.6355 55.1673C29.0176 55.4202 45.4602 50.2872 16.0742 50.1501V69.1014C16.0742 69.1014 48.4431 80.0948 72.949 61.2384C72.949 61.249 76.8278 58.6455 74.1612 56.4321Z" fill="white"/>
<path d="M51.8262 62.7035C53.7445 62.3452 55.5047 61.9341 57.1173 61.5125C55.8841 61.502 54.788 61.4809 53.8183 61.4387C53.4072 61.913 52.7642 62.3452 51.8262 62.7035Z" fill="white"/>
<path d="M74.1608 56.4321C72.39 54.9565 67.8894 58.6877 57.1173 61.5019C55.4941 61.9235 53.7445 62.3346 51.8261 62.693C52.7642 62.3346 53.3966 61.9024 53.8182 61.4281C50.2451 61.27 48.3479 60.859 47.0304 60.3425C37.5653 56.6218 27.3835 61.9973 25.0225 71.1989C34.0554 72.7167 48.6219 73.5493 62.5244 67.4044C66.0765 65.8339 69.5864 63.8313 72.9487 61.2384C72.9487 61.249 76.8275 58.6455 74.1608 56.4321Z" fill="white"/>
<path d="M37.9446 73.033C25.4439 73.033 15.9999 69.9131 15.8208 69.8498C15.5045 69.7444 15.2832 69.4387 15.2832 69.1015V50.1608C15.2832 49.9499 15.3675 49.7497 15.5151 49.6021C15.6627 49.4546 15.8945 49.4019 16.0737 49.3702C31.9999 49.444 34.7193 51.0145 37.1225 52.3953C39.0829 53.5231 40.7904 54.5033 50.6244 54.3874C50.6771 54.3874 52.6587 54.2925 54.0395 55.7049C54.9986 56.6746 55.4202 58.0764 55.2937 59.8683C55.2621 60.2899 55.1567 60.7642 54.9038 61.2385C60.88 59.8472 65.1067 58.1081 68.0579 56.8959C71.4624 55.4941 73.328 54.7247 74.6455 55.8208C75.7101 56.7062 75.8893 57.6548 75.8576 58.2978C75.7522 60.2372 73.6126 61.7339 73.3596 61.9025C61.9868 70.6825 48.8115 73.033 37.9446 73.033ZM16.8642 68.5323C21.1646 69.8287 50.2872 77.6917 72.4743 60.6166C72.9696 60.2793 74.2661 59.1937 74.3082 58.2135C74.3188 58.0659 74.3399 57.6021 73.6653 57.0435C73.0856 56.5586 71.241 57.3175 68.6903 58.361C65.1804 59.805 59.8682 61.9868 51.9841 63.4835C51.5836 63.5573 51.1831 63.3149 51.0777 62.9144C50.9723 62.5244 51.1725 62.1028 51.5625 61.9658C52.9433 61.4388 53.6811 60.7009 53.7443 59.7629C53.8287 58.4559 53.5652 57.4651 52.9433 56.8221C52.0684 55.9157 50.6982 55.9684 50.6877 55.9684C40.3899 56.0843 38.5138 55.0092 36.353 53.7655C34.1607 52.5007 31.6837 51.0777 16.8748 50.9513V68.5323H16.8642Z" fill="#303030"/>
<path d="M44.4686 64.3689C41.8019 64.3689 38.7242 64.1371 35.2565 63.6838C34.8243 63.6311 34.5186 63.2306 34.5713 62.7985C34.624 62.3663 35.0246 62.0606 35.4567 62.1239C44.4686 63.3149 49.2011 62.6931 51.5832 61.9552C51.9943 61.8288 52.4475 62.0606 52.574 62.4823C52.7005 62.9039 52.4686 63.3466 52.047 63.473C50.0865 64.0633 47.5463 64.3689 44.4686 64.3689Z" fill="#303030"/>
<path d="M16.0737 50.1608H7.6416V69.1331H16.0737V50.1608Z" fill="white"/>
<path d="M16.0735 69.1331H11.8574V58.5929C11.8574 56.2635 13.7441 54.3768 16.0735 54.3768V69.1331Z" fill="white"/>
<path d="M16.0742 69.9236H7.64208C7.20993 69.9236 6.85156 69.5652 6.85156 69.1331V50.1608C6.85156 49.7286 7.20993 49.3702 7.64208 49.3702H16.0742C16.5064 49.3702 16.8647 49.7286 16.8647 50.1608V69.1331C16.8647 69.5758 16.5064 69.9236 16.0742 69.9236ZM8.43259 68.3426H15.2837V50.9513H8.43259V68.3426Z" fill="#303030"/>
<path d="M11.8577 65.9711C12.4398 65.9711 12.9117 65.4992 12.9117 64.9171C12.9117 64.3349 12.4398 63.863 11.8577 63.863C11.2756 63.863 10.8037 64.3349 10.8037 64.9171C10.8037 65.4992 11.2756 65.9711 11.8577 65.9711Z" fill="#303030"/>
<path d="M47.6943 51.2147C60.5009 51.2147 70.8827 40.8329 70.8827 28.0263C70.8827 15.2197 60.5009 4.83789 47.6943 4.83789C34.8877 4.83789 24.5059 15.2197 24.5059 28.0263C24.5059 40.8329 34.8877 51.2147 47.6943 51.2147Z" fill="white"/>
<path d="M70.8831 28.0264C70.8831 23.7892 69.7448 19.8156 67.7527 16.4006C64.3377 14.419 60.364 13.2701 56.1269 13.2701C43.3206 13.2701 32.9385 23.6522 32.9385 36.4585C32.9385 40.6957 34.0768 44.6694 36.0689 48.0844C39.4839 50.0659 43.4576 51.2148 47.6947 51.2148C60.5011 51.2148 70.8831 40.8327 70.8831 28.0264Z" fill="white"/>
<path d="M47.6947 52.0053C34.4773 52.0053 23.7158 41.2438 23.7158 28.0264C23.7158 14.809 34.4773 4.04749 47.6947 4.04749C60.9121 4.04749 71.6737 14.809 71.6737 28.0264C71.6737 41.2438 60.9121 52.0053 47.6947 52.0053ZM47.6947 5.62851C35.3416 5.62851 25.2968 15.6733 25.2968 28.0264C25.2968 40.3795 35.3416 50.4243 47.6947 50.4243C60.0478 50.4243 70.0926 40.3795 70.0926 28.0264C70.0926 15.6733 60.0478 5.62851 47.6947 5.62851Z" fill="#303030"/>
<path d="M74.6461 23.8208C74.2772 23.8208 73.9399 23.5573 73.8661 23.1779C72.9491 18.1924 70.6303 13.5969 67.152 9.87619C66.8569 9.55998 66.8674 9.05405 67.1942 8.75893C67.5104 8.4638 68.0163 8.47434 68.3114 8.80109C71.9899 12.7431 74.4563 17.6232 75.426 22.9039C75.4998 23.336 75.2258 23.7471 74.7936 23.8208C74.7409 23.8103 74.6882 23.8208 74.6461 23.8208Z" fill="#303030"/>
<path d="M64.5582 7.22001C64.3896 7.22001 64.2209 7.1673 64.0734 7.05136C63.3777 6.50327 62.6399 5.9868 61.8915 5.5125C61.5226 5.28061 61.4172 4.78522 61.6491 4.41632C61.881 4.04741 62.3658 3.94201 62.7348 4.17389C63.5253 4.67982 64.3052 5.22791 65.0431 5.79708C65.3909 6.07113 65.4436 6.56651 65.1801 6.9038C65.022 7.1146 64.7901 7.22001 64.5582 7.22001Z" fill="#303030"/>
<path d="M47.6944 44.8907C57.0083 44.8907 64.5587 37.3403 64.5587 28.0264C64.5587 18.7125 57.0083 11.1621 47.6944 11.1621C38.3805 11.1621 30.8301 18.7125 30.8301 28.0264C30.8301 37.3403 38.3805 44.8907 47.6944 44.8907Z" fill="white"/>
<path d="M64.5584 28.0264C64.5584 25.5494 64.0103 23.2095 63.0617 21.0909C60.9431 20.1318 58.6032 19.5942 56.1368 19.5942C46.8192 19.5942 39.2725 27.141 39.2725 36.4585C39.2725 38.9355 39.8206 41.2754 40.7692 43.3834C42.8877 44.3426 45.2277 44.8907 47.6941 44.8907C57.0116 44.8907 64.5584 37.3439 64.5584 28.0264Z" fill="white"/>
<path d="M47.6939 45.6812C37.9547 45.6812 30.0391 37.755 30.0391 28.0264C30.0391 18.2873 37.9547 10.3716 47.6939 10.3716C57.433 10.3716 65.3487 18.2978 65.3487 28.0264C65.3487 37.7655 57.433 45.6812 47.6939 45.6812ZM47.6939 11.9526C38.8296 11.9526 31.6201 19.1621 31.6201 28.0264C31.6201 36.8907 38.8296 44.1002 47.6939 44.1002C56.5582 44.1002 63.7676 36.8907 63.7676 28.0264C63.7676 19.1621 56.5582 11.9526 47.6939 11.9526Z" fill="#303030"/>
<path d="M59.0671 34.361C58.9512 34.361 58.8353 34.3294 58.7193 34.2767C58.3293 34.087 58.1607 33.6126 58.3504 33.2227C59.1409 31.5995 59.5414 29.8498 59.5414 28.0264C59.5414 26.2029 59.1409 24.4638 58.3504 22.8406C58.1607 22.4506 58.3188 21.9763 58.7193 21.7866C59.1093 21.5968 59.5836 21.7549 59.7733 22.1555C60.6692 24 61.1225 25.971 61.1225 28.0369C61.1225 30.1028 60.6692 32.0843 59.7628 33.9183C59.6468 34.1924 59.3623 34.361 59.0671 34.361Z" fill="#303030"/>
<path d="M36.3219 34.361C36.0268 34.361 35.7528 34.1924 35.6157 33.9183C34.7198 32.0738 34.2666 30.0922 34.2666 28.0369C34.2666 25.971 34.7198 23.9895 35.6263 22.1555C35.816 21.7549 36.2903 21.5968 36.6803 21.7866C37.0703 21.9763 37.2389 22.4506 37.0492 22.8406C36.2376 24.4638 35.8371 26.2134 35.8371 28.0369C35.8371 29.8603 36.2376 31.5995 37.0281 33.2227C37.2179 33.6126 37.0598 34.087 36.6592 34.2767C36.5538 34.3294 36.4379 34.361 36.3219 34.361Z" fill="#303030"/>
<path d="M27.6684 28.8169C28.105 28.8169 28.459 28.4629 28.459 28.0264C28.459 27.5898 28.105 27.2358 27.6684 27.2358C27.2319 27.2358 26.8779 27.5898 26.8779 28.0264C26.8779 28.4629 27.2319 28.8169 27.6684 28.8169Z" fill="#303030"/>
<path d="M67.7202 28.8169C68.1568 28.8169 68.5107 28.4629 68.5107 28.0264C68.5107 27.5898 68.1568 27.2358 67.7202 27.2358C67.2836 27.2358 66.9297 27.5898 66.9297 28.0264C66.9297 28.4629 67.2836 28.8169 67.7202 28.8169Z" fill="#303030"/>
<path d="M47.6948 48.8432C48.1314 48.8432 48.4853 48.4893 48.4853 48.0527C48.4853 47.6161 48.1314 47.2622 47.6948 47.2622C47.2582 47.2622 46.9043 47.6161 46.9043 48.0527C46.9043 48.4893 47.2582 48.8432 47.6948 48.8432Z" fill="#303030"/>
<path d="M47.6948 8.7905C48.1314 8.7905 48.4853 8.43657 48.4853 7.99999C48.4853 7.5634 48.1314 7.20947 47.6948 7.20947C47.2582 7.20947 46.9043 7.5634 46.9043 7.99999C46.9043 8.43657 47.2582 8.7905 47.6948 8.7905Z" fill="#303030"/>
<path d="M61.3016 41.6337C61.6073 41.328 62.1132 41.328 62.4189 41.6337C62.7245 41.9393 62.7245 42.4453 62.4189 42.7509C62.1132 43.0566 61.6073 43.0566 61.3016 42.7509C60.9854 42.4453 60.9854 41.9393 61.3016 41.6337Z" fill="#303030"/>
<path d="M32.9695 13.3123C33.2751 13.0066 33.7811 13.0066 34.0867 13.3123C34.3924 13.6179 34.3924 14.1239 34.0867 14.4295C33.7811 14.7352 33.2751 14.7352 32.9695 14.4295C32.6638 14.1133 32.6638 13.6179 32.9695 13.3123Z" fill="#303030"/>
<path d="M61.3015 14.4295C60.9958 14.1239 60.9958 13.6179 61.3015 13.3123C61.6072 13.0066 62.1131 13.0066 62.4188 13.3123C62.7244 13.6179 62.7244 14.1239 62.4188 14.4295C62.1026 14.7352 61.6072 14.7352 61.3015 14.4295Z" fill="#303030"/>
<path d="M32.9695 42.7509C32.6638 42.4453 32.6638 41.9393 32.9695 41.6337C33.2751 41.328 33.7811 41.328 34.0867 41.6337C34.3924 41.9393 34.3924 42.4453 34.0867 42.7509C33.7811 43.0566 33.2857 43.0566 32.9695 42.7509Z" fill="#303030"/>
<path d="M65.4653 35.3939C65.6339 34.9934 66.0977 34.8037 66.4982 34.9618C66.8987 35.1304 67.0885 35.5942 66.9304 35.9947C66.7617 36.3952 66.298 36.5849 65.8974 36.4268C65.4969 36.2582 65.2966 35.7944 65.4653 35.3939Z" fill="#303030"/>
<path d="M28.4589 20.058C28.6275 19.6574 29.0913 19.4677 29.4918 19.6258C29.8924 19.7945 30.0821 20.2582 29.924 20.6588C29.7553 21.0593 29.2916 21.249 28.891 21.0804C28.48 20.9223 28.2903 20.469 28.4589 20.058Z" fill="#303030"/>
<path d="M55.0513 10.2556C54.6507 10.087 54.461 9.62323 54.6191 9.22271C54.7877 8.82218 55.2515 8.63246 55.652 8.8011C56.0526 8.96974 56.2423 9.43351 56.0842 9.83404C55.9261 10.2346 55.4623 10.4243 55.0513 10.2556Z" fill="#303030"/>
<path d="M39.7261 47.2622C39.3255 47.0935 39.1358 46.6298 39.2939 46.2292C39.4626 45.8287 39.9263 45.639 40.3268 45.7971C40.7274 45.9657 40.9171 46.4295 40.759 46.83C40.5903 47.2411 40.1266 47.4308 39.7261 47.2622Z" fill="#303030"/>
<path d="M65.4648 20.6693C65.2961 20.2688 65.4858 19.805 65.8969 19.6364C66.2974 19.4677 66.7612 19.6575 66.9298 20.0685C67.0985 20.4691 66.9088 20.9328 66.4977 21.1015C66.0972 21.2596 65.6334 21.0699 65.4648 20.6693Z" fill="#303030"/>
<path d="M28.4589 35.9948C28.2903 35.5942 28.48 35.1305 28.891 34.9618C29.2916 34.7932 29.7553 34.9829 29.924 35.394C30.0926 35.7945 29.9029 36.2583 29.4918 36.4269C29.0913 36.585 28.6275 36.3953 28.4589 35.9948Z" fill="#303030"/>
<path d="M40.3375 10.2556C39.937 10.4242 39.4732 10.2345 39.3046 9.82342C39.136 9.42289 39.3257 8.95912 39.7368 8.79048C40.1373 8.62184 40.601 8.81156 40.7697 9.21209C40.9278 9.62315 40.7381 10.0869 40.3375 10.2556Z" fill="#303030"/>
<path d="M55.6627 47.2622C55.2622 47.4309 54.7984 47.2412 54.6298 46.8301C54.4612 46.4296 54.6509 45.9658 55.0619 45.7972C55.4625 45.6285 55.9262 45.8182 56.0949 46.2293C56.253 46.6298 56.0633 47.0936 55.6627 47.2622Z" fill="#303030"/>
<path d="M47.7052 38.83C44.7645 38.83 42.1716 37.386 41.0965 35.1621C40.9068 34.7615 41.0755 34.2978 41.4655 34.108C41.8554 33.9183 42.3297 34.0869 42.5195 34.4769C43.3205 36.1317 45.4075 37.249 47.7052 37.249C50.7514 37.249 53.2283 35.3623 53.2283 33.0329C53.2283 30.3136 51.2573 28.8169 47.6842 28.8169C43.2362 28.8169 40.5801 26.6456 40.5801 23.0198C40.5801 19.8261 43.7632 17.2227 47.6842 17.2227C50.6249 17.2227 53.2178 18.6667 54.2929 20.8906C54.4826 21.2806 54.3139 21.7549 53.924 21.9447C53.534 22.1344 53.0597 21.9657 52.8699 21.5758C52.0689 19.9209 49.9819 18.8037 47.6842 18.8037C44.6381 18.8037 42.1611 20.6904 42.1611 23.0198C42.1611 25.7391 44.1216 27.2358 47.6842 27.2358C52.1427 27.2358 54.8093 29.3966 54.8093 33.0329C54.8093 36.2266 51.6262 38.83 47.7052 38.83Z" fill="#303030"/>
<path d="M47.6841 41.992C47.2519 41.992 46.8936 41.6337 46.8936 41.2015V14.8511C46.8936 14.4189 47.2519 14.0605 47.6841 14.0605C48.1162 14.0605 48.4746 14.4189 48.4746 14.8511V41.2015C48.4746 41.6442 48.1268 41.992 47.6841 41.992Z" fill="#303030"/>
<path d="M20.2897 43.8367C21.4539 43.8367 22.3977 42.8929 22.3977 41.7286C22.3977 40.5644 21.4539 39.6206 20.2897 39.6206C19.1254 39.6206 18.1816 40.5644 18.1816 41.7286C18.1816 42.8929 19.1254 43.8367 20.2897 43.8367Z" fill="white"/>
<path d="M20.2902 44.6272C18.688 44.6272 17.3916 43.3307 17.3916 41.7286C17.3916 40.1265 18.688 38.8301 20.2902 38.8301C21.8923 38.8301 23.1887 40.1265 23.1887 41.7286C23.1887 43.3307 21.8923 44.6272 20.2902 44.6272ZM20.2902 40.4111C19.5629 40.4111 18.9726 41.0014 18.9726 41.7286C18.9726 42.4559 19.5629 43.0462 20.2902 43.0462C21.0174 43.0462 21.6077 42.4559 21.6077 41.7286C21.6077 41.0014 21.0174 40.4111 20.2902 40.4111Z" fill="#303030"/>
<path d="M73.0016 48.0527C74.1658 48.0527 75.1096 47.1089 75.1096 45.9447C75.1096 44.7805 74.1658 43.8367 73.0016 43.8367C71.8374 43.8367 70.8936 44.7805 70.8936 45.9447C70.8936 47.1089 71.8374 48.0527 73.0016 48.0527Z" fill="white"/>
<path d="M73.0011 48.8432C71.399 48.8432 70.1025 47.5468 70.1025 45.9447C70.1025 44.3426 71.399 43.0461 73.0011 43.0461C74.6032 43.0461 75.8996 44.3426 75.8996 45.9447C75.8996 47.5468 74.5927 48.8432 73.0011 48.8432ZM73.0011 44.6272C72.2738 44.6272 71.6836 45.2174 71.6836 45.9447C71.6836 46.672 72.2738 47.2622 73.0011 47.2622C73.7284 47.2622 74.3186 46.672 74.3186 45.9447C74.3186 45.2174 73.7178 44.6272 73.0011 44.6272Z" fill="#303030"/>
<path d="M9.74964 35.4044C10.9139 35.4044 11.8577 34.4606 11.8577 33.2964C11.8577 32.1322 10.9139 31.1884 9.74964 31.1884C8.5854 31.1884 7.6416 32.1322 7.6416 33.2964C7.6416 34.4606 8.5854 35.4044 9.74964 35.4044Z" fill="white"/>
<path d="M9.75011 36.195C8.14801 36.195 6.85156 34.8986 6.85156 33.2965C6.85156 31.6944 8.14801 30.3979 9.75011 30.3979C11.3522 30.3979 12.6487 31.6944 12.6487 33.2965C12.6487 34.8986 11.3522 36.195 9.75011 36.195ZM9.75011 31.979C9.02284 31.979 8.43259 32.5692 8.43259 33.2965C8.43259 34.0238 9.02284 34.614 9.75011 34.614C10.4774 34.614 11.0676 34.0238 11.0676 33.2965C11.0676 32.5692 10.4774 31.979 9.75011 31.979Z" fill="#303030"/>
<path d="M18.1823 23.8103C19.3465 23.8103 20.2903 22.8665 20.2903 21.7023C20.2903 20.538 19.3465 19.5942 18.1823 19.5942C17.018 19.5942 16.0742 20.538 16.0742 21.7023C16.0742 22.8665 17.018 23.8103 18.1823 23.8103Z" fill="white"/>
<path d="M18.1818 24.6008C16.5796 24.6008 15.2832 23.3044 15.2832 21.7023C15.2832 20.1002 16.5796 18.8037 18.1818 18.8037C19.7839 18.8037 21.0803 20.1002 21.0803 21.7023C21.0803 23.3044 19.7839 24.6008 18.1818 24.6008ZM18.1818 20.3847C17.4545 20.3847 16.8642 20.975 16.8642 21.7023C16.8642 22.4295 17.4545 23.0198 18.1818 23.0198C18.909 23.0198 19.4993 22.4295 19.4993 21.7023C19.4993 20.975 18.909 20.3847 18.1818 20.3847Z" fill="#303030"/>
<path d="M12.9117 12.2161C14.076 12.2161 15.0198 11.2723 15.0198 10.108C15.0198 8.9438 14.076 8 12.9117 8C11.7475 8 10.8037 8.9438 10.8037 10.108C10.8037 11.2723 11.7475 12.2161 12.9117 12.2161Z" fill="white"/>
<path d="M12.9112 13.0066C11.3091 13.0066 10.0127 11.7101 10.0127 10.108C10.0127 8.50592 11.3091 7.20947 12.9112 7.20947C14.5134 7.20947 15.8098 8.50592 15.8098 10.108C15.8098 11.6996 14.5134 13.0066 12.9112 13.0066ZM12.9112 8.7905C12.184 8.7905 11.5937 9.38075 11.5937 10.108C11.5937 10.8353 12.184 11.4255 12.9112 11.4255C13.6385 11.4255 14.2288 10.8353 14.2288 10.108C14.2288 9.38075 13.6385 8.7905 12.9112 8.7905Z" fill="#303030"/>
<path d="M26.6139 9.05396C27.7781 9.05396 28.7219 8.11016 28.7219 6.94593C28.7219 5.78169 27.7781 4.83789 26.6139 4.83789C25.4497 4.83789 24.5059 5.78169 24.5059 6.94593C24.5059 8.11016 25.4497 9.05396 26.6139 9.05396Z" fill="white"/>
<path d="M26.6144 9.84459C25.0123 9.84459 23.7158 8.54814 23.7158 6.94604C23.7158 5.34393 25.0123 4.04749 26.6144 4.04749C28.2165 4.04749 29.5129 5.34393 29.5129 6.94604C29.5129 8.5376 28.2165 9.84459 26.6144 9.84459ZM26.6144 5.62851C25.8871 5.62851 25.2968 6.21876 25.2968 6.94604C25.2968 7.67331 25.8871 8.26356 26.6144 8.26356C27.3416 8.26356 27.9319 7.67331 27.9319 6.94604C27.9319 6.21876 27.3416 5.62851 26.6144 5.62851Z" fill="#303030"/>
<defs>
<linearGradient id="paint0_linear" x1="6.68262" y1="14.953" x2="36.1951" y2="14.953" gradientUnits="userSpaceOnUse">
<stop offset="0.0104167" stop-color="#00FF6F"/>
<stop offset="1" stop-color="#1BFFFF"/>
</linearGradient>
<linearGradient id="paint1_linear" x1="54.7031" y1="48.7168" x2="79.9996" y2="48.7168" gradientUnits="userSpaceOnUse">
<stop offset="0.0104167" stop-color="#00FF6F"/>
<stop offset="1" stop-color="#1BFFFF"/>
</linearGradient>
<linearGradient id="paint2_linear" x1="-2.20318e-07" y1="58.326" x2="42.1607" y2="58.326" gradientUnits="userSpaceOnUse">
<stop offset="0.0104167" stop-color="#00FF6F"/>
<stop offset="1" stop-color="#1BFFFF"/>
</linearGradient>
</defs>
</svg>
