<svg width="80" height="80" viewBox="0 0 80 80" fill="none" xmlns="http://www.w3.org/2000/svg">
<path d="M47.498 28.2188C55.2904 28.2188 61.6074 21.9018 61.6074 14.1095C61.6074 6.31709 55.2904 0.00012207 47.498 0.00012207C39.7056 0.00012207 33.3887 6.31709 33.3887 14.1095C33.3887 21.9018 39.7056 28.2188 47.498 28.2188Z" fill="url(#paint0_linear)"/>
<path d="M12.0937 62.232C18.7729 62.232 24.1875 56.8175 24.1875 50.1383C24.1875 43.4591 18.7729 38.0446 12.0937 38.0446C5.41455 38.0446 0 43.4591 0 50.1383C0 56.8175 5.41455 62.232 12.0937 62.232Z" fill="url(#paint1_linear)"/>
<path d="M59.8437 79.3653C70.9757 79.3653 80 70.341 80 59.2091C80 48.0771 70.9757 39.0529 59.8437 39.0529C48.7118 39.0529 39.6875 48.0771 39.6875 59.2091C39.6875 70.341 48.7118 79.3653 59.8437 79.3653Z" fill="url(#paint2_linear)"/>
<path d="M64.8847 71.5552V21.1647H8.44727V63.4927C8.44727 67.9473 12.0552 71.5552 16.5098 71.5552H64.8847Z" fill="white"/>
<path d="M61.8612 67.524V21.1647H8.44727V61.4771C8.44727 64.813 11.1583 67.524 14.4941 67.524H61.8612Z" fill="white"/>
<path d="M64.8885 72.3101H16.5136C11.6459 72.3101 7.69531 68.3595 7.69531 63.4918V21.1637C7.69531 20.7505 8.03797 20.4078 8.45117 20.4078H64.8885C65.3017 20.4078 65.6444 20.7505 65.6444 21.1637V71.5542C65.6444 71.9675 65.3017 72.3101 64.8885 72.3101ZM9.20703 21.9196V63.4918C9.20703 67.523 12.4824 70.7984 16.5136 70.7984H64.1327V21.9196H9.20703Z" fill="#303030"/>
<path d="M36.6514 34.7633V27.2047H29.2641V34.7633H36.6514Z" fill="white"/>
<path d="M34.6392 31.746V27.2108H29.2676V32.7538H33.6314C34.1857 32.7538 34.6392 32.3003 34.6392 31.746Z" fill="white"/>
<path d="M36.6587 35.5255H29.2715C28.8583 35.5255 28.5156 35.1828 28.5156 34.7696V27.2111C28.5156 26.7979 28.8583 26.4552 29.2715 26.4552H36.6587C37.0719 26.4552 37.4146 26.7979 37.4146 27.2111V34.7696C37.4146 35.1828 37.082 35.5255 36.6587 35.5255ZM30.0273 34.0138H35.9029V27.9669H30.0273V34.0138Z" fill="#303030"/>
<path d="M44.0527 34.7694V27.2108H36.6655V34.7694H44.0527Z" fill="white"/>
<path d="M42.0415 31.746V27.2108H36.6699V32.7538H41.0337C41.588 32.7538 42.0415 32.3003 42.0415 31.746Z" fill="white"/>
<path d="M44.0611 35.5255H36.6738C36.2606 35.5255 35.918 35.1828 35.918 34.7696V27.2111C35.918 26.7979 36.2606 26.4552 36.6738 26.4552H44.0611C44.4743 26.4552 44.8169 26.7979 44.8169 27.2111V34.7696C44.8169 35.1828 44.4743 35.5255 44.0611 35.5255ZM37.4196 34.0138H43.2951V27.9669H37.4196V34.0138Z" fill="#303030"/>
<path d="M51.4365 34.767V27.2084H44.0493V34.767H51.4365Z" fill="white"/>
<path d="M49.4244 31.746V27.2108H44.0527V32.7538H48.4166C48.9709 32.7538 49.4244 32.3003 49.4244 31.746Z" fill="white"/>
<path d="M51.4439 35.5255H44.0566C43.6434 35.5255 43.3008 35.1828 43.3008 34.7696V27.2111C43.3008 26.7979 43.6434 26.4552 44.0566 26.4552H51.4439C51.8571 26.4552 52.1997 26.7979 52.1997 27.2111V34.7696C52.1997 35.1828 51.8571 35.5255 51.4439 35.5255ZM44.8125 34.0138H50.688V27.9669H44.8125V34.0138Z" fill="#303030"/>
<path d="M58.8291 34.7718V27.2133H51.4419V34.7718H58.8291Z" fill="white"/>
<path d="M56.817 31.746V27.2108H51.4453V32.7538H55.8092C56.3635 32.7538 56.817 32.3003 56.817 31.746Z" fill="white"/>
<path d="M58.8267 35.5255H51.4394C51.0262 35.5255 50.6836 35.1828 50.6836 34.7696V27.2111C50.6836 26.7979 51.0262 26.4552 51.4394 26.4552H58.8267C59.2399 26.4552 59.5825 26.7979 59.5825 27.2111V34.7696C59.5825 35.1828 59.2499 35.5255 58.8267 35.5255ZM52.1953 34.0138H58.0708V27.9669H52.1953V34.0138Z" fill="#303030"/>
<path d="M21.876 42.328V34.7694H14.4887L14.4887 42.328H21.876Z" fill="white"/>
<path d="M19.854 39.3045V34.7694H14.4824V40.3123H18.8462C19.4106 40.3123 19.854 39.8588 19.854 39.3045Z" fill="white"/>
<path d="M21.8833 43.084H14.4961C14.0829 43.084 13.7402 42.7414 13.7402 42.3282V34.7696C13.7402 34.3564 14.0829 34.0138 14.4961 34.0138H21.8833C22.2965 34.0138 22.6392 34.3564 22.6392 34.7696V42.3282C22.6392 42.7414 22.2965 43.084 21.8833 43.084ZM15.2419 41.5723H21.1174V35.5255H15.2419V41.5723Z" fill="#303030"/>
<path d="M29.2676 42.3243V34.7657H21.8803V42.3243H29.2676Z" fill="white"/>
<path d="M27.2564 39.3045V34.7694H21.8848V40.3123H26.2486C26.8029 40.3123 27.2564 39.8588 27.2564 39.3045Z" fill="white"/>
<path d="M29.2759 43.084H21.8887C21.4755 43.084 21.1328 42.7414 21.1328 42.3282V34.7696C21.1328 34.3564 21.4755 34.0138 21.8887 34.0138H29.2759C29.6891 34.0138 30.0318 34.3564 30.0318 34.7696V42.3282C30.0318 42.7414 29.6891 43.084 29.2759 43.084ZM22.6445 41.5723H28.5201V35.5255H22.6445V41.5723Z" fill="#303030"/>
<path d="M36.6514 42.3219V34.7633H29.2641V42.3219H36.6514Z" fill="white"/>
<path d="M34.6392 39.3045V34.7694H29.2676V40.3123H33.6314C34.1857 40.3123 34.6392 39.8588 34.6392 39.3045Z" fill="white"/>
<path d="M36.6587 43.084H29.2715C28.8583 43.084 28.5156 42.7414 28.5156 42.3282V34.7696C28.5156 34.3564 28.8583 34.0138 29.2715 34.0138H36.6587C37.0719 34.0138 37.4146 34.3564 37.4146 34.7696V42.3282C37.4146 42.7414 37.082 43.084 36.6587 43.084ZM30.0273 41.5723H35.9029V35.5255H30.0273V41.5723Z" fill="#303030"/>
<path d="M44.0527 42.328V34.7694H36.6655V42.328H44.0527Z" fill="white"/>
<path d="M42.0415 39.3045V34.7694H36.6699V40.3123H41.0337C41.588 40.3123 42.0415 39.8588 42.0415 39.3045Z" fill="white"/>
<path d="M44.0611 43.084H36.6738C36.2606 43.084 35.918 42.7414 35.918 42.3282V34.7696C35.918 34.3564 36.2606 34.0138 36.6738 34.0138H44.0611C44.4743 34.0138 44.8169 34.3564 44.8169 34.7696V42.3282C44.8169 42.7414 44.4743 43.084 44.0611 43.084ZM37.4196 41.5723H43.2951V35.5255H37.4196V41.5723Z" fill="#303030"/>
<path d="M51.4365 42.3255V34.767H44.0493V42.3255H51.4365Z" fill="white"/>
<path d="M49.4244 39.3045V34.7694H44.0527V40.3123H48.4166C48.9709 40.3123 49.4244 39.8588 49.4244 39.3045Z" fill="white"/>
<path d="M51.4439 43.084H44.0566C43.6434 43.084 43.3008 42.7414 43.3008 42.3282V34.7696C43.3008 34.3564 43.6434 34.0138 44.0566 34.0138H51.4439C51.8571 34.0138 52.1997 34.3564 52.1997 34.7696V42.3282C52.1997 42.7414 51.8571 43.084 51.4439 43.084ZM44.8125 41.5723H50.688V35.5255H44.8125V41.5723Z" fill="#303030"/>
<path d="M58.8291 42.3304V34.7719H51.4419V42.3304H58.8291Z" fill="white"/>
<path d="M56.817 39.3045V34.7694H51.4453V40.3123H55.8092C56.3635 40.3123 56.817 39.8588 56.817 39.3045Z" fill="white"/>
<path d="M58.8267 43.084H51.4394C51.0262 43.084 50.6836 42.7414 50.6836 42.3282V34.7696C50.6836 34.3564 51.0262 34.0138 51.4394 34.0138H58.8267C59.2399 34.0138 59.5825 34.3564 59.5825 34.7696V42.3282C59.5825 42.7414 59.2499 43.084 58.8267 43.084ZM52.1953 41.5723H58.0708V35.5255H52.1953V41.5723Z" fill="#303030"/>
<path d="M21.876 49.8866V42.328H14.4887L14.4887 49.8866H21.876Z" fill="white"/>
<path d="M19.854 46.8632V42.328H14.4824V47.871H18.8462C19.4106 47.871 19.854 47.4175 19.854 46.8632Z" fill="white"/>
<path d="M21.8833 50.6427H14.4961C14.0829 50.6427 13.7402 50.3001 13.7402 49.8869V42.3282C13.7402 41.915 14.0829 41.5724 14.4961 41.5724H21.8833C22.2965 41.5724 22.6392 41.915 22.6392 42.3282V49.8869C22.6392 50.3001 22.2965 50.6427 21.8833 50.6427ZM15.2419 49.131H21.1174V43.0841H15.2419V49.131Z" fill="#303030"/>
<path d="M29.2676 49.883V42.3243H21.8803V49.883H29.2676Z" fill="white"/>
<path d="M27.2564 46.8632V42.328H21.8848V47.871H26.2486C26.8029 47.871 27.2564 47.4175 27.2564 46.8632Z" fill="white"/>
<path d="M29.2759 50.6427H21.8887C21.4755 50.6427 21.1328 50.3001 21.1328 49.8869V42.3282C21.1328 41.915 21.4755 41.5724 21.8887 41.5724H29.2759C29.6891 41.5724 30.0318 41.915 30.0318 42.3282V49.8869C30.0318 50.3001 29.6891 50.6427 29.2759 50.6427ZM22.6445 49.131H28.5201V43.0841H22.6445V49.131Z" fill="#303030"/>
<path d="M36.6514 49.8805V42.3219H29.2641V49.8805H36.6514Z" fill="white"/>
<path d="M34.6392 46.8632V42.328H29.2676V47.871H33.6314C34.1857 47.871 34.6392 47.4175 34.6392 46.8632Z" fill="white"/>
<path d="M36.6587 50.6427H29.2715C28.8583 50.6427 28.5156 50.3001 28.5156 49.8869V42.3282C28.5156 41.915 28.8583 41.5724 29.2715 41.5724H36.6587C37.0719 41.5724 37.4146 41.915 37.4146 42.3282V49.8869C37.4146 50.3001 37.082 50.6427 36.6587 50.6427ZM30.0273 49.131H35.9029V43.0841H30.0273V49.131Z" fill="#303030"/>
<path d="M44.0527 49.8866V42.328H36.6655V49.8866H44.0527Z" fill="white"/>
<path d="M42.0415 46.8632V42.328H36.6699V47.871H41.0337C41.588 47.871 42.0415 47.4175 42.0415 46.8632Z" fill="white"/>
<path d="M44.0611 50.6427H36.6738C36.2606 50.6427 35.918 50.3001 35.918 49.8869V42.3282C35.918 41.915 36.2606 41.5724 36.6738 41.5724H44.0611C44.4743 41.5724 44.8169 41.915 44.8169 42.3282V49.8869C44.8169 50.3001 44.4743 50.6427 44.0611 50.6427ZM37.4196 49.131H43.2951V43.0841H37.4196V49.131Z" fill="#303030"/>
<path d="M51.4365 49.8842V42.3256H44.0493V49.8842H51.4365Z" fill="white"/>
<path d="M49.4244 46.8632V42.328H44.0527V47.871H48.4166C48.9709 47.871 49.4244 47.4175 49.4244 46.8632Z" fill="white"/>
<path d="M51.4439 50.6427H44.0566C43.6434 50.6427 43.3008 50.3001 43.3008 49.8869V42.3282C43.3008 41.915 43.6434 41.5724 44.0566 41.5724H51.4439C51.8571 41.5724 52.1997 41.915 52.1997 42.3282V49.8869C52.1997 50.3001 51.8571 50.6427 51.4439 50.6427ZM44.8125 49.131H50.688V43.0841H44.8125V49.131Z" fill="#303030"/>
<path d="M58.8291 49.889V42.3304H51.4419V49.889H58.8291Z" fill="white"/>
<path d="M56.817 46.8632V42.328H51.4453V47.871H55.8092C56.3635 47.871 56.817 47.4175 56.817 46.8632Z" fill="white"/>
<path d="M58.8267 50.6427H51.4394C51.0262 50.6427 50.6836 50.3001 50.6836 49.8869V42.3282C50.6836 41.915 51.0262 41.5724 51.4394 41.5724H58.8267C59.2399 41.5724 59.5825 41.915 59.5825 42.3282V49.8869C59.5825 50.3001 59.2499 50.6427 58.8267 50.6427ZM52.1953 49.131H58.0708V43.0841H52.1953V49.131Z" fill="#303030"/>
<path d="M21.8848 57.4452V49.8866H14.4975L14.4975 57.4452H21.8848Z" fill="white"/>
<path d="M19.854 54.4217V49.8866H14.4824V55.4296H18.8462C19.4106 55.4296 19.854 54.976 19.854 54.4217Z" fill="white"/>
<path d="M21.8833 58.2013H14.4961C14.0829 58.2013 13.7402 57.8586 13.7402 57.4454V49.8868C13.7402 49.4736 14.0829 49.131 14.4961 49.131H21.8833C22.2965 49.131 22.6392 49.4736 22.6392 49.8868V57.4454C22.6392 57.8586 22.2965 58.2013 21.8833 58.2013ZM15.2419 56.6896H21.1174V50.6427H15.2419V56.6896Z" fill="#303030"/>
<path d="M29.2686 57.4414V49.8829H21.8813V57.4414H29.2686Z" fill="white"/>
<path d="M27.2564 54.4217V49.8866H21.8848V55.4296H26.2486C26.8029 55.4296 27.2564 54.976 27.2564 54.4217Z" fill="white"/>
<path d="M29.2759 58.2013H21.8887C21.4755 58.2013 21.1328 57.8586 21.1328 57.4454V49.8868C21.1328 49.4736 21.4755 49.131 21.8887 49.131H29.2759C29.6891 49.131 30.0318 49.4736 30.0318 49.8868V57.4454C30.0318 57.8586 29.6891 58.2013 29.2759 58.2013ZM22.6445 56.6896H28.5201V50.6427H22.6445V56.6896Z" fill="#303030"/>
<path d="M36.6611 57.4476V49.889H29.2739V57.4476H36.6611Z" fill="white"/>
<path d="M34.6392 54.4217V49.8866H29.2676V55.4296H33.6314C34.1857 55.4296 34.6392 54.976 34.6392 54.4217Z" fill="white"/>
<path d="M36.6587 58.2013H29.2715C28.8583 58.2013 28.5156 57.8586 28.5156 57.4454V49.8868C28.5156 49.4736 28.8583 49.131 29.2715 49.131H36.6587C37.0719 49.131 37.4146 49.4736 37.4146 49.8868V57.4454C37.4146 57.8586 37.082 58.2013 36.6587 58.2013ZM30.0273 56.6896H35.9029V50.6427H30.0273V56.6896Z" fill="#303030"/>
<path d="M16.5137 71.555C20.9682 71.555 24.5762 67.9471 24.5762 63.4926H72.9511C72.9511 67.9471 69.3431 71.555 64.8886 71.555H16.5137Z" fill="white"/>
<path d="M67.6399 63.4926C66.743 66.9695 63.5986 69.5394 59.8394 69.5394H21.8349C20.4139 70.7891 18.5595 71.555 16.5137 71.555H64.8886C69.3431 71.555 72.9511 67.9471 72.9511 63.4926H67.6399Z" fill="white"/>
<path d="M64.8924 72.3111H16.5176C16.1044 72.3111 15.7617 71.9685 15.7617 71.5553C15.7617 71.1421 16.1044 70.7994 16.5176 70.7994C20.5488 70.7994 23.8242 67.524 23.8242 63.4928C23.8242 63.0796 24.1669 62.7369 24.5801 62.7369H72.9549C73.3681 62.7369 73.7108 63.0796 73.7108 63.4928C73.7108 68.3504 69.7501 72.3111 64.8924 72.3111ZM21.4458 70.7994H64.8924C68.6617 70.7994 71.7758 67.9272 72.1588 64.2487H25.2956C25.0638 66.9697 23.5924 69.3482 21.4458 70.7994Z" fill="#303030"/>
<path d="M64.8847 21.1646H8.44727V13.1022C8.44727 11.9936 9.3543 11.0865 10.4629 11.0865H62.8691C63.9777 11.0865 64.8847 11.9936 64.8847 13.1022V21.1646Z" fill="white"/>
<path d="M59.8456 18.1412H8.44727V13.1022C8.44727 11.9936 9.3543 11.0865 10.4629 11.0865H61.8612V16.1256C61.8612 17.2342 60.9542 18.1412 59.8456 18.1412Z" fill="white"/>
<path d="M64.8885 21.9195H8.45117C8.03797 21.9195 7.69531 21.5769 7.69531 21.1637V13.1012C7.69531 11.5693 8.93492 10.3297 10.4668 10.3297H62.8729C64.4048 10.3297 65.6444 11.5693 65.6444 13.1012V21.1637C65.6444 21.5769 65.3017 21.9195 64.8885 21.9195ZM9.20703 20.4078H64.1327V13.1012C64.1327 12.4058 63.5683 11.8414 62.8729 11.8414H10.4668C9.7714 11.8414 9.20703 12.4058 9.20703 13.1012V20.4078Z" fill="#303030"/>
<path d="M42.7051 16.881C42.2919 16.881 41.9492 16.5383 41.9492 16.1251C41.9492 15.7119 42.2919 15.3692 42.7051 15.3692C43.9548 15.3692 44.9726 14.3514 44.9726 13.1017V10.0782C44.9726 8.82855 43.9548 7.81067 42.7051 7.81067C41.4554 7.81067 40.4375 8.82855 40.4375 10.0782V11.086C40.4375 11.4993 40.0948 11.8419 39.6816 11.8419C39.2684 11.8419 38.9258 11.4993 38.9258 11.086V10.0782C38.9258 7.99207 40.6189 6.29895 42.7051 6.29895C44.7912 6.29895 46.4844 7.99207 46.4844 10.0782V13.1017C46.4844 15.1878 44.7912 16.881 42.7051 16.881Z" fill="#303030"/>
<path d="M54.8144 16.881C54.4012 16.881 54.0586 16.5383 54.0586 16.1251C54.0586 15.7119 54.4012 15.3692 54.8144 15.3692C56.0641 15.3692 57.082 14.3514 57.082 13.1017V10.0782C57.082 8.82855 56.0641 7.81067 54.8144 7.81067C53.5648 7.81067 52.5469 8.82855 52.5469 10.0782V11.086C52.5469 11.4993 52.2042 11.8419 51.791 11.8419C51.3778 11.8419 51.0352 11.4993 51.0352 11.086V10.0782C51.0352 7.99207 52.7283 6.29895 54.8144 6.29895C56.9006 6.29895 58.5937 7.99207 58.5937 10.0782V13.1017C58.5937 15.1878 56.8905 16.881 54.8144 16.881Z" fill="#303030"/>
<path d="M30.6152 16.881C30.202 16.881 29.8594 16.5383 29.8594 16.1251C29.8594 15.7119 30.202 15.3692 30.6152 15.3692C31.8649 15.3692 32.8828 14.3514 32.8828 13.1017V10.0782C32.8828 8.82855 31.8649 7.81067 30.6152 7.81067C29.3655 7.81067 28.3477 8.82855 28.3477 10.0782V11.086C28.3477 11.4993 28.005 11.8419 27.5918 11.8419C27.1786 11.8419 26.8359 11.4993 26.8359 11.086V10.0782C26.8359 7.99207 28.5291 6.29895 30.6152 6.29895C32.7014 6.29895 34.3945 7.99207 34.3945 10.0782V13.1017C34.3945 15.1878 32.7014 16.881 30.6152 16.881Z" fill="#303030"/>
<path d="M18.5156 16.881C18.1024 16.881 17.7598 16.5383 17.7598 16.1251C17.7598 15.7119 18.1024 15.3692 18.5156 15.3692C19.7653 15.3692 20.7832 14.3514 20.7832 13.1017V10.0782C20.7832 8.82855 19.7653 7.81067 18.5156 7.81067C17.2659 7.81067 16.248 8.82855 16.248 10.0782V11.086C16.248 11.4993 15.9054 11.8419 15.4922 11.8419C15.079 11.8419 14.7363 11.4993 14.7363 11.086V10.0782C14.7363 7.99207 16.4295 6.29895 18.5156 6.29895C20.6018 6.29895 22.2949 7.99207 22.2949 10.0782V13.1017C22.2949 15.1878 20.6018 16.881 18.5156 16.881Z" fill="#303030"/>
<path d="M72.9512 54.1705H68.9199C68.5067 54.1705 68.1641 53.8279 68.1641 53.4147C68.1641 53.0015 68.5067 52.6588 68.9199 52.6588H72.9512C73.3644 52.6588 73.707 53.0015 73.707 53.4147C73.707 53.8279 73.3644 54.1705 72.9512 54.1705Z" fill="#303030"/>
<path d="M70.9316 56.1852C70.5184 56.1852 70.1758 55.8425 70.1758 55.4293V51.3981C70.1758 50.9849 70.5184 50.6422 70.9316 50.6422C71.3448 50.6422 71.6875 50.9849 71.6875 51.3981V55.4293C71.6875 55.8425 71.3448 56.1852 70.9316 56.1852Z" fill="#303030"/>
<path d="M70.9316 48.1232C71.3491 48.1232 71.6875 47.7848 71.6875 47.3673C71.6875 46.9499 71.3491 46.6115 70.9316 46.6115C70.5142 46.6115 70.1758 46.9499 70.1758 47.3673C70.1758 47.7848 70.5142 48.1232 70.9316 48.1232Z" fill="#303030"/>
<path d="M70.9316 45.0995C71.3491 45.0995 71.6875 44.7611 71.6875 44.3436C71.6875 43.9262 71.3491 43.5878 70.9316 43.5878C70.5142 43.5878 70.1758 43.9262 70.1758 44.3436C70.1758 44.7611 70.5142 45.0995 70.9316 45.0995Z" fill="#303030"/>
<path d="M70.9316 41.0687C71.3491 41.0687 71.6875 40.7303 71.6875 40.3128C71.6875 39.8954 71.3491 39.557 70.9316 39.557C70.5142 39.557 70.1758 39.8954 70.1758 40.3128C70.1758 40.7303 70.5142 41.0687 70.9316 41.0687Z" fill="#303030"/>
<path d="M70.9316 35.0214C71.3491 35.0214 71.6875 34.6829 71.6875 34.2655C71.6875 33.8481 71.3491 33.5096 70.9316 33.5096C70.5142 33.5096 70.1758 33.8481 70.1758 34.2655C70.1758 34.6829 70.5142 35.0214 70.9316 35.0214Z" fill="#303030"/>
<path d="M59.848 60.2167H50.0723C49.6591 60.2167 49.3164 59.874 49.3164 59.4608C49.3164 59.0476 49.6591 58.705 50.0723 58.705H59.848C60.2612 58.705 60.6039 59.0476 60.6039 59.4608C60.6039 59.874 60.2612 60.2167 59.848 60.2167Z" fill="#303030"/>
<path d="M46.0426 60.2167H43.7246C43.3114 60.2167 42.9688 59.874 42.9688 59.4608C42.9688 59.0476 43.3114 58.705 43.7246 58.705H46.0426C46.4558 58.705 46.7984 59.0476 46.7984 59.4608C46.7984 59.874 46.4558 60.2167 46.0426 60.2167Z" fill="#303030"/>
<defs>
<linearGradient id="paint0_linear" x1="33.3887" y1="14.2976" x2="61.6074" y2="14.2976" gradientUnits="userSpaceOnUse">
<stop offset="0.0104167" stop-color="#00FF6F"/>
<stop offset="1" stop-color="#1BFFFF"/>
</linearGradient>
<linearGradient id="paint1_linear" x1="-1.26396e-07" y1="50.2996" x2="24.1875" y2="50.2996" gradientUnits="userSpaceOnUse">
<stop offset="0.0104167" stop-color="#00FF6F"/>
<stop offset="1" stop-color="#1BFFFF"/>
</linearGradient>
<linearGradient id="paint2_linear" x1="39.6875" y1="59.4778" x2="80" y2="59.4778" gradientUnits="userSpaceOnUse">
<stop offset="0.0104167" stop-color="#00FF6F"/>
<stop offset="1" stop-color="#1BFFFF"/>
</linearGradient>
</defs>
</svg>
