<svg width="80" height="78" viewBox="0 0 80 78" fill="none" xmlns="http://www.w3.org/2000/svg">
<path d="M14.3113 64.3497C22.2152 64.3497 28.6225 57.9423 28.6225 50.0384C28.6225 42.1345 22.2152 35.7272 14.3113 35.7272C6.40737 35.7272 0 42.1345 0 50.0384C0 57.9423 6.40737 64.3497 14.3113 64.3497Z" fill="url(#paint0_linear)"/>
<path d="M44.4777 24.5337C51.2525 24.5337 56.7445 19.0417 56.7445 12.2669C56.7445 5.49216 51.2525 0.00012207 44.4777 0.00012207C37.703 0.00012207 32.2109 5.49216 32.2109 12.2669C32.2109 19.0417 37.703 24.5337 44.4777 24.5337Z" fill="url(#paint1_linear)"/>
<path d="M59.555 77.4548C70.8463 77.4548 79.9997 68.3014 79.9997 57.0101C79.9997 45.7188 70.8463 36.5654 59.555 36.5654C48.2637 36.5654 39.1104 45.7188 39.1104 57.0101C39.1104 68.3014 48.2637 77.4548 59.555 77.4548Z" fill="url(#paint2_linear)"/>
<path d="M25.1877 72.2516L22.3766 66.5475L16.5907 65.1061L15.1494 59.3203L9.44531 56.5092V72.2516H25.1877Z" fill="white"/>
<path d="M19.1775 72.2516L17.6544 69.1542C17.5215 68.8885 17.2761 68.684 16.9899 68.6124L14.4752 67.9787C14.1072 67.8867 13.821 67.6004 13.729 67.2324L13.0952 64.7177C13.0236 64.4213 12.8294 64.1862 12.5534 64.0533L9.45605 62.5302V72.2618H19.1775V72.2516Z" fill="white"/>
<path d="M25.1878 73.0183H9.44539C9.02627 73.0183 8.67871 72.6708 8.67871 72.2517V56.5093C8.67871 56.2435 8.8116 55.9981 9.03649 55.855C9.26138 55.7119 9.54761 55.7017 9.78272 55.8141L15.4868 58.6253C15.6912 58.7275 15.8343 58.9115 15.8957 59.1262L17.2348 64.4622L22.5709 65.8014C22.7855 65.8525 22.9695 66.0058 23.0718 66.2103L25.8829 71.9143C25.9953 72.1494 25.9851 72.4357 25.842 72.6605C25.6989 72.8752 25.4536 73.0183 25.1878 73.0183ZM10.2121 71.485H23.9509L21.8451 67.212L16.4068 65.8525C16.1308 65.7809 15.9161 65.5662 15.8446 65.2902L14.485 59.852L10.2121 57.7462V71.485Z" fill="#303030"/>
<path d="M30.8922 58.0323L35.1447 62.2848L25.1881 72.2516L22.377 66.5476L30.8922 58.0323Z" fill="white"/>
<path d="M30.8923 58.0323L33.7034 60.8435L27.1407 67.4062C26.8953 67.6516 26.4762 67.58 26.3229 67.2733L24.7793 64.1453L30.8923 58.0323Z" fill="white"/>
<path d="M25.1883 73.0183C25.1474 73.0183 25.1065 73.0183 25.0656 73.0081C24.8203 72.9672 24.6158 72.8138 24.5034 72.5889L21.6922 66.8849C21.5491 66.5884 21.6104 66.2409 21.8353 66.0058L30.3505 57.4905C30.6368 57.2043 31.1479 57.2043 31.4341 57.4905L35.6866 61.743C35.983 62.0395 35.983 62.5302 35.6866 62.8266L25.7198 72.7934C25.5869 72.9365 25.3825 73.0183 25.1883 73.0183ZM23.3073 66.7009L25.4029 70.9534L34.0612 62.295L30.8923 59.1261L23.3073 66.7009Z" fill="#303030"/>
<path d="M9.44531 56.5092L19.4121 46.5526L23.6646 50.8051L15.1494 59.3203L9.44531 56.5092Z" fill="white"/>
<path d="M11.3877 54.5771L19.4122 46.5526L22.2234 49.3638L15.6709 55.9163C15.3642 56.2229 14.894 56.3047 14.4953 56.1105L11.3877 54.5771Z" fill="white"/>
<path d="M15.1496 60.087C15.0371 60.087 14.9145 60.0564 14.8123 60.0053L9.1082 57.1941C8.8833 57.0817 8.72997 56.8772 8.68908 56.6319C8.64819 56.3865 8.72997 56.1412 8.90375 55.9674L18.8705 46.0007C19.167 45.7042 19.6576 45.7042 19.9541 46.0007L24.2066 50.2531C24.3497 50.3963 24.4315 50.5905 24.4315 50.7949C24.4315 50.9994 24.3497 51.1936 24.2066 51.3367L15.6914 59.8519C15.538 60.0053 15.3438 60.087 15.1496 60.087ZM10.7438 56.2945L14.9963 58.3901L22.5812 50.8052L19.4123 47.6362L10.7438 56.2945Z" fill="#303030"/>
<path d="M22.3766 66.5476L16.5908 65.1062L15.1494 59.3204L23.6646 50.8052L30.8918 58.0324L22.3766 66.5476Z" fill="white"/>
<path d="M29.4503 56.591L23.6645 50.8052L17.3164 57.1532L18.5635 62.152C18.6555 62.52 18.9418 62.8062 19.3098 62.8982L21.8142 63.5218C22.1618 63.6035 22.5298 63.5115 22.7854 63.256L29.4503 56.591Z" fill="white"/>
<path d="M22.3766 67.3142C22.3153 67.3142 22.2539 67.304 22.1926 67.2937L16.4068 65.8422C16.1308 65.7706 15.9161 65.5559 15.8445 65.2799L14.4032 59.4941C14.3419 59.2385 14.4134 58.9523 14.6076 58.7683L23.1228 50.2531C23.4193 49.9566 23.91 49.9566 24.2064 50.2531L31.4336 57.4803C31.7301 57.7767 31.7301 58.2674 31.4336 58.5639L22.9184 67.0791C22.7753 67.2324 22.5811 67.3142 22.3766 67.3142ZM17.2246 64.4724L22.1415 65.699L29.8083 58.0323L23.6646 51.8887L15.9979 59.5554L17.2246 64.4724Z" fill="#303030"/>
<path d="M67.7533 48.3927C77.6281 38.5179 77.2498 22.2542 66.6186 12.8701C57.4696 4.79445 43.4446 4.83533 34.3365 12.9621C28.7551 17.9404 26.0462 24.82 26.1893 31.6587C26.2711 35.3592 24.7377 38.9166 22.1106 41.5335L18.9621 44.682C18.5634 45.0807 18.5634 45.7247 18.9621 46.1233L35.5632 62.7244C35.9618 63.1231 36.6058 63.1231 37.0045 62.7244L40.337 59.3919C42.8619 56.867 46.2864 55.4052 49.854 55.4972C56.3247 55.6812 62.8364 53.3199 67.7533 48.3927Z" fill="white"/>
<path d="M74.0914 24.9733C73.887 30.9227 71.5154 36.8107 66.9767 41.3494C62.0495 46.2766 55.5481 48.638 49.0978 48.454C45.5302 48.3517 42.1058 49.8238 39.5808 52.3385L32.3945 59.5248L35.5839 62.7141C35.9826 63.1128 36.6266 63.1128 37.0252 62.7141L40.3577 59.3816C42.8826 56.8567 46.3071 55.3949 49.8747 55.4869C56.325 55.6709 62.8264 53.3096 67.7536 48.3824C74.1017 42.0446 76.2075 33.0694 74.0914 24.9733Z" fill="white"/>
<path d="M36.2992 63.7875C35.8392 63.7875 35.3792 63.6137 35.0316 63.2662L18.4305 46.6549C17.7354 45.9598 17.7354 44.8251 18.4305 44.13L21.579 40.9815C24.0937 38.4668 25.5044 35.0628 25.4328 31.6689C25.2795 24.3191 28.336 17.2861 33.8356 12.3896C43.3015 3.93574 57.623 3.90507 67.1297 12.2976C72.4045 16.959 75.4303 23.3786 75.6552 30.3809C75.8698 37.2912 73.1916 44.0584 68.3053 48.9345C63.3884 53.8514 56.8358 56.4683 49.8642 56.2639C46.6237 56.1719 43.3321 57.511 40.9094 59.9337L37.577 63.2662C37.2192 63.6137 36.7592 63.7875 36.2992 63.7875ZM50.5389 7.65667C44.8961 7.65667 39.2432 9.61936 34.8578 13.5345C29.6955 18.1346 26.8231 24.7382 26.9662 31.6383C27.0479 35.4512 25.4839 39.2641 22.6626 42.0753L19.5141 45.2238C19.4119 45.326 19.4119 45.4895 19.5141 45.5815L36.1152 62.1826C36.2174 62.2848 36.3809 62.2848 36.4729 62.1826L39.8054 58.8501C42.5246 56.131 46.1944 54.6488 49.8846 54.7305C56.4576 54.9248 62.5808 52.4714 67.2013 47.8509C71.8525 43.1997 74.3058 37.005 74.1014 30.4218C73.8969 23.8489 71.0551 17.8177 66.0973 13.4425C61.7426 9.58869 56.1407 7.65667 50.5389 7.65667Z" fill="#303030"/>
<path d="M29.4506 57.3576C29.2461 57.3576 29.0519 57.2758 28.9088 57.1327L24.5745 52.7984C24.4314 52.6553 24.3496 52.4611 24.3496 52.2567C24.3496 52.0522 24.4314 51.858 24.5745 51.7149L44.8147 31.4747C45.1112 31.1782 45.6018 31.1782 45.8983 31.4747L50.2326 35.8089C50.529 36.1054 50.529 36.596 50.2326 36.8925L29.9923 57.1327C29.8492 57.2758 29.655 57.3576 29.4506 57.3576ZM26.1896 52.2464L29.4403 55.4971L48.597 36.3405L45.3463 33.0898L26.1896 52.2464Z" fill="#303030"/>
<path d="M48.2397 23.3377C46.645 21.7431 44.0587 21.7431 42.4538 23.3377C40.8591 24.9324 40.8591 27.5187 42.4538 29.1236L45.3467 32.0165L48.2397 29.1236C49.8344 27.5187 49.8344 24.9324 48.2397 23.3377Z" fill="white"/>
<path d="M49.1699 24.7791C48.9757 25.3004 48.669 25.8013 48.2397 26.2204L47.5139 26.9462C46.3179 28.1422 44.3757 28.1422 43.1796 26.9462L42.4539 26.2204C42.0347 25.7911 41.7281 25.3004 41.5236 24.7791C40.9716 26.2306 41.2783 27.9378 42.4539 29.1133L45.3468 32.0062L48.2397 29.1133C49.4153 27.9378 49.7219 26.2408 49.1699 24.7791Z" fill="white"/>
<path d="M45.3462 32.773C45.152 32.773 44.9578 32.7014 44.8044 32.5481L41.9115 29.6552C40.0204 27.7641 40.0204 24.6769 41.9115 22.7858C43.8026 20.8946 46.8898 20.8946 48.7809 22.7858C50.6721 24.6769 50.6721 27.7641 48.7809 29.6552L45.888 32.5481C45.7449 32.7014 45.5507 32.773 45.3462 32.773ZM45.3462 22.9084C44.4978 22.9084 43.6493 23.2356 42.9951 23.8796C41.6968 25.1778 41.6968 27.2836 42.9951 28.5818L45.3462 30.933L47.6974 28.5818C48.9956 27.2836 48.9956 25.1778 47.6974 23.8796C47.0533 23.2253 46.2049 22.9084 45.3462 22.9084Z" fill="#303030"/>
<path d="M58.3594 33.4579C56.7647 31.8632 54.1785 31.8632 52.5736 33.4579L49.6807 36.3508L52.5736 39.2437C54.1683 40.8384 56.7545 40.8384 58.3594 39.2437C59.9643 37.6388 59.9643 35.0525 58.3594 33.4579Z" fill="white"/>
<path d="M59.2892 34.8992C59.095 35.4205 58.7883 35.9214 58.359 36.3405C56.7643 37.9352 54.178 37.9352 52.5731 36.3405L51.1318 34.8992L49.6904 36.3405L52.5833 39.2334C54.178 40.8281 56.7643 40.8281 58.3692 39.2334C59.5345 38.0681 59.8412 36.361 59.2892 34.8992Z" fill="white"/>
<path d="M55.467 41.1962C54.2198 41.1962 52.9829 40.726 52.0323 39.7753L49.1393 36.8824C48.8429 36.5859 48.8429 36.0953 49.1393 35.7988L52.0323 32.9059C53.9234 31.0148 57.0105 31.0148 58.9017 32.9059C60.7928 34.797 60.7928 37.8842 58.9017 39.7753C57.9612 40.726 56.7141 41.1962 55.467 41.1962ZM50.7749 36.3406L53.126 38.6917C54.4243 39.99 56.5301 39.99 57.8283 38.6917C59.1265 37.3935 59.1265 35.2877 57.8283 33.9895C56.5301 32.7015 54.4243 32.6912 53.126 33.9895L50.7749 36.3406Z" fill="#303030"/>
<path d="M38.2418 19.8826C38.0476 19.8826 37.8534 19.8111 37.7 19.6577L35.5329 17.4906C35.2364 17.1941 35.2364 16.7035 35.5329 16.407C35.8293 16.1106 36.32 16.1106 36.6165 16.407L38.7836 18.5742C39.08 18.8706 39.08 19.3613 38.7836 19.6577C38.6405 19.8111 38.436 19.8826 38.2418 19.8826Z" fill="#303030"/>
<path d="M64.9938 46.6345C64.7995 46.6345 64.6053 46.5629 64.452 46.4096L62.2848 44.2424C61.9884 43.946 61.9884 43.4553 62.2848 43.1589C62.5813 42.8624 63.072 42.8624 63.3684 43.1589L65.5355 45.326C65.832 45.6224 65.832 46.1131 65.5355 46.4096C65.3822 46.5527 65.188 46.6345 64.9938 46.6345Z" fill="#303030"/>
<path d="M62.8266 19.8826C62.6324 19.8826 62.4382 19.8111 62.2848 19.6577C61.9884 19.3613 61.9884 18.8706 62.2848 18.5742L64.452 16.407C64.7484 16.1106 65.2391 16.1106 65.5355 16.407C65.832 16.7035 65.832 17.1941 65.5355 17.4906L63.3684 19.6577C63.2151 19.8111 63.0208 19.8826 62.8266 19.8826Z" fill="#303030"/>
<path d="M33.7444 27.672C33.6831 27.672 33.6115 27.6618 33.5502 27.6414L30.5857 26.844C30.1768 26.7316 29.9315 26.3125 30.0439 25.9036C30.1564 25.4947 30.5653 25.2493 30.9844 25.3618L33.9488 26.1591C34.3577 26.2716 34.6031 26.6907 34.4906 27.0996C34.3986 27.4471 34.0817 27.672 33.7444 27.672Z" fill="#303030"/>
<path d="M70.2786 37.465C70.2172 37.465 70.1457 37.4548 70.0844 37.4343L67.1199 36.637C66.711 36.5245 66.4656 36.1054 66.5781 35.6965C66.6905 35.2876 67.0994 35.0423 67.5186 35.1548L70.483 35.9521C70.8919 36.0645 71.1373 36.4837 71.0248 36.8926C70.9328 37.2401 70.6261 37.465 70.2786 37.465Z" fill="#303030"/>
<path d="M55.027 15.3847C54.9657 15.3847 54.8941 15.3745 54.8328 15.354C54.4239 15.2416 54.1785 14.8225 54.291 14.4136L55.0883 11.4491C55.2008 11.0402 55.6097 10.7949 56.0288 10.9073C56.4377 11.0198 56.683 11.4389 56.5706 11.8478L55.7732 14.8122C55.6812 15.1598 55.3746 15.3847 55.027 15.3847Z" fill="#303030"/>
<path d="M45.2438 51.9194C45.1825 51.9194 45.1109 51.9091 45.0496 51.8887C44.6407 51.7763 44.3953 51.3571 44.5078 50.9482L45.3051 47.9838C45.4176 47.5749 45.8265 47.3295 46.2456 47.442C46.6545 47.5544 46.8998 47.9735 46.7874 48.3824L45.99 51.3469C45.8878 51.6945 45.5811 51.9194 45.2438 51.9194Z" fill="#303030"/>
<path d="M30.7799 37.465C30.4426 37.465 30.1359 37.2401 30.0439 36.8926C29.9315 36.4837 30.1768 36.0645 30.5857 35.9521L33.5502 35.1548C33.9693 35.0423 34.3782 35.2876 34.4906 35.6965C34.6031 36.1054 34.3577 36.5245 33.9488 36.637L30.9844 37.4343C30.9128 37.4548 30.8515 37.465 30.7799 37.465Z" fill="#303030"/>
<path d="M67.3248 27.672C66.9875 27.672 66.6808 27.4471 66.5888 27.0996C66.4764 26.6907 66.7217 26.2716 67.1306 26.1591L70.0951 25.3618C70.5142 25.2493 70.9231 25.4947 71.0355 25.9036C71.148 26.3125 70.9027 26.7316 70.4938 26.844L67.5293 27.6414C67.4577 27.672 67.3862 27.672 67.3248 27.672Z" fill="#303030"/>
<path d="M46.0314 15.3847C45.694 15.3847 45.3874 15.1598 45.2954 14.8122L44.498 11.8478C44.3856 11.4389 44.6309 11.0198 45.0398 10.9073C45.4589 10.7949 45.8678 11.0402 45.9803 11.4491L46.7776 14.4136C46.89 14.8225 46.6447 15.2416 46.2358 15.354C46.1643 15.3745 46.1029 15.3847 46.0314 15.3847Z" fill="#303030"/>
<path d="M55.8243 51.9194C55.487 51.9194 55.1803 51.6945 55.0883 51.3469L54.291 48.3824C54.1785 47.9735 54.4239 47.5544 54.8328 47.442C55.2519 47.3295 55.6608 47.5749 55.7732 47.9838L56.5706 50.9482C56.683 51.3571 56.4377 51.7763 56.0288 51.8887C55.9572 51.9194 55.8857 51.9194 55.8243 51.9194Z" fill="#303030"/>
<path d="M25.1774 10.6723H23.7667C23.3476 10.6723 23 10.3247 23 9.90559C23 9.48648 23.3476 9.13892 23.7667 9.13892H25.1774C25.5965 9.13892 25.944 9.48648 25.944 9.90559C25.944 10.3247 25.5965 10.6723 25.1774 10.6723Z" fill="#303030"/>
<path d="M29.8902 10.6723H28.4796C28.0605 10.6723 27.7129 10.3247 27.7129 9.90559C27.7129 9.48648 28.0605 9.13892 28.4796 9.13892H29.8902C30.3094 9.13892 30.6569 9.48648 30.6569 9.90559C30.6569 10.3247 30.3196 10.6723 29.8902 10.6723Z" fill="#303030"/>
<path d="M26.8233 13.739C26.4042 13.739 26.0566 13.3914 26.0566 12.9723V11.5616C26.0566 11.1425 26.4042 10.7949 26.8233 10.7949C27.2424 10.7949 27.59 11.1425 27.59 11.5616V12.9723C27.59 13.4016 27.2527 13.739 26.8233 13.739Z" fill="#303030"/>
<path d="M26.8233 9.02652C26.4042 9.02652 26.0566 8.67896 26.0566 8.25984V6.83894C26.0566 6.41982 26.4042 6.07227 26.8233 6.07227C27.2424 6.07227 27.59 6.41982 27.59 6.83894V8.24962C27.59 8.67896 27.2527 9.02652 26.8233 9.02652Z" fill="#303030"/>
<path d="M12.9108 20.8946H11.5001C11.081 20.8946 10.7334 20.547 10.7334 20.1279C10.7334 19.7088 11.081 19.3612 11.5001 19.3612H12.9108C13.3299 19.3612 13.6774 19.7088 13.6774 20.1279C13.6774 20.5572 13.3299 20.8946 12.9108 20.8946Z" fill="#303030"/>
<path d="M17.6236 20.8946H16.213C15.7938 20.8946 15.4463 20.547 15.4463 20.1279C15.4463 19.7088 15.7938 19.3612 16.213 19.3612H17.6236C18.0428 19.3612 18.3903 19.7088 18.3903 20.1279C18.3903 20.5572 18.053 20.8946 17.6236 20.8946Z" fill="#303030"/>
<path d="M14.5567 23.9612C14.1376 23.9612 13.79 23.6137 13.79 23.1946V21.7839C13.79 21.3648 14.1376 21.0172 14.5567 21.0172C14.9758 21.0172 15.3234 21.3648 15.3234 21.7839V23.1946C15.3234 23.6239 14.9861 23.9612 14.5567 23.9612Z" fill="#303030"/>
<path d="M14.5567 19.2488C14.1376 19.2488 13.79 18.9013 13.79 18.4822V17.0715C13.79 16.6524 14.1376 16.3048 14.5567 16.3048C14.9758 16.3048 15.3234 16.6524 15.3234 17.0715V18.4822C15.3234 18.9013 14.9861 19.2488 14.5567 19.2488Z" fill="#303030"/>
<path d="M15.9772 35.2058H14.5665C14.1474 35.2058 13.7998 34.8583 13.7998 34.4392C13.7998 34.02 14.1474 33.6725 14.5665 33.6725H15.9772C16.3963 33.6725 16.7438 34.02 16.7438 34.4392C16.7438 34.8685 16.3963 35.2058 15.9772 35.2058Z" fill="#303030"/>
<path d="M20.6901 35.2058H19.2794C18.8603 35.2058 18.5127 34.8583 18.5127 34.4392C18.5127 34.02 18.8603 33.6725 19.2794 33.6725H20.6901C21.1092 33.6725 21.4567 34.02 21.4567 34.4392C21.4567 34.8685 21.1194 35.2058 20.6901 35.2058Z" fill="#303030"/>
<path d="M17.6231 38.2725C17.204 38.2725 16.8564 37.925 16.8564 37.5058V36.0952C16.8564 35.6761 17.204 35.3285 17.6231 35.3285C18.0422 35.3285 18.3898 35.6761 18.3898 36.0952V37.5058C18.3898 37.9352 18.0525 38.2725 17.6231 38.2725Z" fill="#303030"/>
<path d="M17.6231 33.5601C17.204 33.5601 16.8564 33.2126 16.8564 32.7934V31.3828C16.8564 30.9636 17.204 30.6161 17.6231 30.6161C18.0422 30.6161 18.3898 30.9636 18.3898 31.3828V32.7934C18.3898 33.2126 18.0525 33.5601 17.6231 33.5601Z" fill="#303030"/>
<path d="M70.1559 58.7274H68.7452C68.3261 58.7274 67.9785 58.3799 67.9785 57.9608C67.9785 57.5417 68.3261 57.1941 68.7452 57.1941H70.1559C70.575 57.1941 70.9225 57.5417 70.9225 57.9608C70.9225 58.3799 70.5852 58.7274 70.1559 58.7274Z" fill="#303030"/>
<path d="M74.8785 58.7274H73.4678C73.0487 58.7274 72.7012 58.3799 72.7012 57.9608C72.7012 57.5417 73.0487 57.1941 73.4678 57.1941H74.8785C75.2976 57.1941 75.6452 57.5417 75.6452 57.9608C75.6452 58.3799 75.2976 58.7274 74.8785 58.7274Z" fill="#303030"/>
<path d="M71.8116 61.7941C71.3925 61.7941 71.0449 61.4466 71.0449 61.0275V59.6168C71.0449 59.1977 71.3925 58.8501 71.8116 58.8501C72.2307 58.8501 72.5783 59.1874 72.5783 59.6066V61.0172C72.5783 61.4466 72.2307 61.7941 71.8116 61.7941Z" fill="#303030"/>
<path d="M71.8116 57.0715C71.3925 57.0715 71.0449 56.7239 71.0449 56.3048V54.8941C71.0449 54.475 71.3925 54.1274 71.8116 54.1274C72.2307 54.1274 72.5783 54.4648 72.5783 54.8941V56.3048C72.5783 56.7341 72.2307 57.0715 71.8116 57.0715Z" fill="#303030"/>
<path d="M52.7779 69.9721H51.3673C50.9481 69.9721 50.6006 69.6245 50.6006 69.2054C50.6006 68.7863 50.9481 68.4387 51.3673 68.4387H52.7779C53.1971 68.4387 53.5446 68.7863 53.5446 69.2054C53.5446 69.6245 53.1971 69.9721 52.7779 69.9721Z" fill="#303030"/>
<path d="M57.5006 69.9721H56.0899C55.6708 69.9721 55.3232 69.6245 55.3232 69.2054C55.3232 68.7863 55.6708 68.4387 56.0899 68.4387H57.5006C57.9197 68.4387 58.2673 68.7863 58.2673 69.2054C58.2673 69.6245 57.9197 69.9721 57.5006 69.9721Z" fill="#303030"/>
<path d="M54.4337 73.0387C54.0146 73.0387 53.667 72.6912 53.667 72.2721V70.8614C53.667 70.4423 54.0146 70.0947 54.4337 70.0947C54.8528 70.0947 55.2003 70.4423 55.2003 70.8614V72.2721C55.2003 72.6912 54.8528 73.0387 54.4337 73.0387Z" fill="#303030"/>
<path d="M54.4337 68.316C54.0146 68.316 53.667 67.9684 53.667 67.5493V66.1386C53.667 65.7195 54.0146 65.3719 54.4337 65.3719C54.8528 65.3719 55.2003 65.7195 55.2003 66.1386V67.5493C55.2003 67.9786 54.8528 68.316 54.4337 68.316Z" fill="#303030"/>
<defs>
<linearGradient id="paint0_linear" x1="-1.49572e-07" y1="50.2293" x2="28.6225" y2="50.2293" gradientUnits="userSpaceOnUse">
<stop offset="0.0104167" stop-color="#00FF6F"/>
<stop offset="1" stop-color="#1BFFFF"/>
</linearGradient>
<linearGradient id="paint1_linear" x1="32.2109" y1="12.4305" x2="56.7445" y2="12.4305" gradientUnits="userSpaceOnUse">
<stop offset="0.0104167" stop-color="#00FF6F"/>
<stop offset="1" stop-color="#1BFFFF"/>
</linearGradient>
<linearGradient id="paint2_linear" x1="39.1104" y1="57.2827" x2="79.9997" y2="57.2827" gradientUnits="userSpaceOnUse">
<stop offset="0.0104167" stop-color="#00FF6F"/>
<stop offset="1" stop-color="#1BFFFF"/>
</linearGradient>
</defs>
</svg>
