<svg width="75" height="83" viewBox="0 0 75 83" fill="none" xmlns="http://www.w3.org/2000/svg">
<g clip-path="url(#clip0)">
<path d="M26.8077 29.7872C35.0332 29.7872 41.7013 23.1191 41.7013 14.8936C41.7013 6.6681 35.0332 0 26.8077 0C18.5822 0 11.9141 6.6681 11.9141 14.8936C11.9141 23.1191 18.5822 29.7872 26.8077 29.7872Z" fill="url(#paint0_linear)"/>
<path d="M12.9788 73.4042C20.0293 73.4042 25.7448 67.6887 25.7448 60.6383C25.7448 53.5878 20.0293 47.8723 12.9788 47.8723C5.9284 47.8723 0.212891 53.5878 0.212891 60.6383C0.212891 67.6887 5.9284 73.4042 12.9788 73.4042Z" fill="url(#paint1_linear)"/>
<path d="M53.7229 82.4893C65.4736 82.4893 74.9995 72.9635 74.9995 61.2128C74.9995 49.462 65.4736 39.9362 53.7229 39.9362C41.9721 39.9362 32.4463 49.462 32.4463 61.2128C32.4463 72.9635 41.9721 82.4893 53.7229 82.4893Z" fill="url(#paint2_linear)"/>
<path d="M23.478 75.7979C22.3078 75.7979 21.3503 74.8405 21.3503 73.6702V69.6596C21.3503 67.5 19.9461 66.2447 17.7758 66.2447C15.2758 66.2447 8.53116 65.9468 7.92478 62.766C7.1801 58.8617 8.02052 52.4681 8.02052 52.4681C8.02052 52.4681 4.87159 51.2447 2.22265 49.7128C-0.415645 48.1809 1.27584 45.7979 1.91414 45.0426C7.03116 38.9788 7.85031 35.0319 7.85031 35.0319C7.85031 19.8192 20.2971 7.50003 35.5631 7.7128C50.0631 7.91493 62.0844 19.766 62.4886 34.2554C62.6375 39.5 61.3078 44.4149 58.8822 48.6277C56.5737 52.6171 53.5418 56.9681 52.1056 60.1596C49.978 64.8511 49.8822 75.7979 49.8822 75.7979H23.478Z" fill="white"/>
<path d="M52.1063 60.1596C53.5531 56.9788 56.585 52.6277 58.8829 48.6277C61.1808 44.6277 62.4999 39.9788 62.4999 35.032C62.4999 21.532 52.702 10.3298 39.8403 8.11707C28.0957 11.4575 19.3084 22.2128 18.9042 34.8086C18.6276 43.3298 22.0744 51.0213 27.7339 56.4469C30.8829 59.4681 32.5744 63.7128 32.5744 68.0745V75.7979H49.8935C49.8722 75.7979 49.9786 64.8511 52.1063 60.1596Z" fill="white"/>
<path d="M49.872 76.5954H23.4784C21.8613 76.5954 20.5528 75.2869 20.5528 73.6699V69.6592C20.5528 67.9997 19.5422 67.0422 17.7762 67.0422C14.0954 67.0422 7.82942 66.5103 7.13793 62.9146C6.51027 59.606 6.96772 54.7018 7.15921 52.9784C6.11665 52.5529 3.85069 51.5741 1.82942 50.4039C0.808142 49.8082 0.212397 49.0316 0.0421843 48.0954C-0.213135 46.606 0.723035 45.2231 1.30814 44.5316C5.84006 39.1699 6.91453 35.489 7.05282 34.9465C7.0741 27.3933 10.0528 20.3188 15.4252 15.0209C20.8294 9.69115 27.9784 6.79753 35.5741 6.92519C50.4464 7.12732 62.872 19.3826 63.2869 34.2337C63.4358 39.4358 62.1486 44.5529 59.5741 49.0316C59.5635 49.0422 59.5528 49.0635 59.5422 49.0741C58.6911 50.5422 57.7443 52.0635 56.8188 53.5422C55.223 56.106 53.7124 58.5209 52.8188 60.489C50.7869 64.9677 50.6698 75.7018 50.6698 75.8082C50.6698 76.2443 50.3188 76.5954 49.872 76.5954ZM35.1805 8.5103C28.1592 8.5103 21.5635 11.2124 16.5635 16.1486C11.4677 21.1699 8.65921 27.8826 8.65921 35.0316C8.65921 35.0848 8.64857 35.138 8.63793 35.1912C8.60601 35.3614 7.7124 39.4039 2.53155 45.5529C2.27623 45.8507 1.45708 46.9146 1.61665 47.8188C1.70176 48.2763 2.03155 48.6699 2.62729 49.0209C5.19112 50.5103 8.27623 51.7124 8.30814 51.7231C8.64857 51.8614 8.86133 52.2018 8.80814 52.5741C8.7975 52.638 7.98899 58.8826 8.70176 62.6167C9.09538 64.7018 13.8401 65.4465 17.7656 65.4465C20.4145 65.4465 22.1379 67.0954 22.1379 69.6592V73.6699C22.1379 74.4039 22.7337 74.9997 23.4677 74.9997H49.0847C49.1486 72.3614 49.5103 63.9252 51.3613 59.8295C52.2975 57.7763 53.8294 55.3082 55.4571 52.7018C56.3826 51.2231 57.3294 49.6912 58.1805 48.2337C58.1911 48.2231 58.2018 48.2018 58.2018 48.1912C60.6167 43.9784 61.8081 39.1699 61.6805 34.2763C61.2975 20.2656 49.5741 8.71243 35.5528 8.5103C35.4358 8.5103 35.3081 8.5103 35.1805 8.5103Z" fill="#303030"/>
<path d="M68.8825 36.4361C68.8825 24.9042 59.2229 15.6276 47.5633 16.2553C37.2123 16.8085 28.808 25.4042 28.4676 35.7766C28.2761 41.7659 30.7016 47.1915 34.6804 51C36.8931 53.1276 38.0846 56.1064 38.0846 59.1808V63.0319H59.2548V58.9574C59.2548 55.883 60.5953 53.0106 62.7974 50.8617C66.5527 47.2021 68.8825 42.0957 68.8825 36.4361Z" fill="white"/>
<path d="M53.415 16.7979C59.4789 20.2872 63.564 26.8085 63.564 34.3085C63.564 39.9681 61.2342 45.0745 57.4789 48.734C55.2767 50.883 53.9363 53.7553 53.9363 56.8298V63.0319H59.2555V58.9574C59.2555 55.883 60.5959 53.0106 62.798 50.8617C66.5533 47.2021 68.8831 42.0957 68.8831 36.4362C68.8831 26.9149 62.2874 18.9361 53.415 16.7979Z" fill="white"/>
<path d="M59.2551 63.8298H38.0849C37.6487 63.8298 37.287 63.4681 37.287 63.032V59.1809C37.287 56.266 36.1381 53.5 34.1275 51.5745C29.8296 47.4575 27.4785 41.6915 27.67 35.7447C28.0211 24.9468 36.7339 16.032 47.5211 15.4575C53.3509 15.149 58.9041 17.1809 63.1275 21.1915C67.3615 25.2022 69.6807 30.6171 69.6807 36.4362C69.6807 42.1277 67.436 47.4468 63.3509 51.4362C61.2232 53.5107 60.053 56.1915 60.053 58.9575V63.032C60.053 63.4788 59.7019 63.8298 59.2551 63.8298ZM38.8828 62.2341H58.4573V58.9575C58.4573 55.7554 59.7977 52.6702 62.2339 50.2873C66.0104 46.6171 68.0849 41.6915 68.0849 36.4362C68.0849 31.0532 65.936 26.0532 62.0211 22.3405C58.1168 18.6383 52.9892 16.7554 47.5956 17.0426C37.6381 17.5745 29.5743 25.8085 29.2551 35.7873C29.0743 41.2766 31.2551 46.6064 35.2232 50.4149C37.5424 52.6383 38.8722 55.8298 38.8722 59.1702V62.2341H38.8828Z" fill="#303030"/>
<path d="M55.0528 67.2873H42.2868C41.1166 67.2873 40.1592 66.3299 40.1592 65.1596V63.032H57.1805V65.1596C57.1805 66.3405 56.2336 67.2873 55.0528 67.2873Z" fill="white"/>
<path d="M50.7978 67.2873H42.3191C41.1489 67.2873 40.1914 66.3299 40.1914 65.1596V63.032H52.9254V65.1596C52.9254 66.3405 51.968 67.2873 50.7978 67.2873Z" fill="white"/>
<path d="M55.0528 68.0852H42.2869C40.6698 68.0852 39.3613 66.7767 39.3613 65.1597V63.032C39.3613 62.5958 39.723 62.2341 40.1592 62.2341H57.1805C57.6166 62.2341 57.9783 62.5958 57.9783 63.032V65.1597C57.9783 66.7767 56.6698 68.0852 55.0528 68.0852ZM40.9571 63.8299V65.1597C40.9571 65.8937 41.5528 66.4895 42.2869 66.4895H55.0528C55.7869 66.4895 56.3826 65.8937 56.3826 65.1597V63.8299H40.9571Z" fill="#303030"/>
<path d="M55.0528 71.5425H42.2868C41.1166 71.5425 40.1592 70.5851 40.1592 69.4149C40.1592 68.2447 41.1166 67.2872 42.2868 67.2872H55.0528C56.223 67.2872 57.1805 68.234 57.1805 69.4149C57.1805 70.5957 56.2336 71.5425 55.0528 71.5425Z" fill="white"/>
<path d="M47.606 71.5425H42.2868C41.1166 71.5425 40.1592 70.5851 40.1592 69.4149C40.1592 68.2447 41.1166 67.2872 42.2868 67.2872H47.606C48.7762 67.2872 49.7336 68.234 49.7336 69.4149C49.7336 70.5957 48.7762 71.5425 47.606 71.5425Z" fill="white"/>
<path d="M55.0528 72.3404H42.2869C40.6698 72.3404 39.3613 71.0319 39.3613 69.4149C39.3613 67.7979 40.6698 66.4894 42.2869 66.4894H55.0528C56.6698 66.4894 57.9783 67.7979 57.9783 69.4149C57.9783 71.0319 56.6698 72.3404 55.0528 72.3404ZM42.2869 68.0851C41.5528 68.0851 40.9571 68.6809 40.9571 69.4149C40.9571 70.149 41.5528 70.7447 42.2869 70.7447H55.0528C55.7869 70.7447 56.3826 70.149 56.3826 69.4149C56.3826 68.6809 55.7869 68.0851 55.0528 68.0851H42.2869Z" fill="#303030"/>
<path d="M55.0528 75.7979H42.2868C41.1166 75.7979 40.1592 74.8405 40.1592 73.6703C40.1592 72.5 41.1166 71.5426 42.2868 71.5426H55.0528C56.223 71.5426 57.1805 72.5 57.1805 73.6703C57.1805 74.8511 56.2336 75.7979 55.0528 75.7979Z" fill="white"/>
<path d="M51.8613 75.7979H42.2868C41.1166 75.7979 40.1592 74.8405 40.1592 73.6703C40.1592 72.5 41.1166 71.5426 42.2868 71.5426H51.8613C53.0315 71.5426 53.989 72.5 53.989 73.6703C53.989 74.8511 53.0422 75.7979 51.8613 75.7979Z" fill="white"/>
<path d="M55.0528 76.5958H42.2869C40.6698 76.5958 39.3613 75.2873 39.3613 73.6703C39.3613 72.0533 40.6698 70.7448 42.2869 70.7448H55.0528C56.6698 70.7448 57.9783 72.0533 57.9783 73.6703C57.9783 75.2873 56.6698 76.5958 55.0528 76.5958ZM42.2869 72.3405C41.5528 72.3405 40.9571 72.9362 40.9571 73.6703C40.9571 74.4043 41.5528 75.0001 42.2869 75.0001H55.0528C55.7869 75.0001 56.3826 74.4043 56.3826 73.6703C56.3826 72.9362 55.7869 72.3405 55.0528 72.3405H42.2869Z" fill="#303030"/>
<path d="M48.6699 63.8298C48.2338 63.8298 47.8721 63.4787 47.8721 63.0319V33.2446C47.8721 32.8085 48.2338 32.4468 48.6699 32.4468C49.1061 32.4468 49.4678 32.8085 49.4678 33.2446V63.0319C49.4678 63.4787 49.1061 63.8298 48.6699 63.8298Z" fill="#303030"/>
<path d="M67.8189 36.4362H68.8827C68.8827 47.0106 60.3082 55.5851 49.7338 55.5851H48.6699C48.6699 45.0106 57.2444 36.4362 67.8189 36.4362Z" fill="white"/>
<path d="M67.8188 36.4362C67.4145 36.4362 67.0209 36.4681 66.6166 36.5C65.5741 45.6489 58.0847 52.8191 48.7975 53.4042C48.7124 54.1276 48.6592 54.851 48.6592 55.5957H49.723C60.2975 55.5957 68.8719 47.0213 68.8719 36.4468H67.8188V36.4362Z" fill="white"/>
<path d="M49.7338 56.383H48.6699C48.2338 56.383 47.8721 56.0319 47.8721 55.5851C47.8721 44.5851 56.8189 35.6383 67.8189 35.6383H68.8827C69.3189 35.6383 69.6806 36 69.6806 36.4362C69.6806 47.4362 60.7338 56.383 49.7338 56.383ZM49.4891 54.7872H49.7338C59.5848 54.7872 67.6487 46.9894 68.0636 37.2341H67.8189C57.9678 37.2341 49.904 45.0426 49.4891 54.7872Z" fill="#303030"/>
<path d="M48.6696 56.383C48.5313 56.383 48.393 56.3511 48.2653 56.2766C47.8823 56.0532 47.7547 55.5639 47.9781 55.1809C54.1802 44.649 63.4462 39.9256 63.8398 39.7234C64.2334 39.5319 64.7121 39.6809 64.9143 40.0745C65.1164 40.4681 64.9568 40.9468 64.5632 41.149C64.4675 41.1915 55.3185 45.8724 49.3611 55.9894C49.2121 56.2447 48.9462 56.383 48.6696 56.383Z" fill="#303030"/>
<path d="M67.8189 14.0958H68.8827C68.8827 24.6703 60.3082 33.2448 49.7338 33.2448H48.6699C48.6699 22.6703 57.2444 14.0958 67.8189 14.0958Z" fill="white"/>
<path d="M67.8188 14.0958C67.4145 14.0958 67.0209 14.1277 66.6166 14.1597C65.5741 23.3086 58.0847 30.4788 48.7975 31.0639C48.7124 31.7873 48.6592 32.5107 48.6592 33.2554H49.723C60.2975 33.2554 68.8719 24.6809 68.8719 14.1065H67.8188V14.0958Z" fill="white"/>
<path d="M49.7338 34.0425H48.6699C48.2338 34.0425 47.8721 33.6808 47.8721 33.2447C47.8721 22.2447 56.8189 13.2979 67.8189 13.2979H68.8827C69.3189 13.2979 69.6806 13.6596 69.6806 14.0957C69.6806 25.0957 60.7338 34.0425 49.7338 34.0425ZM49.4891 32.4468H49.7338C59.5848 32.4468 67.6487 24.6489 68.0636 14.8936H67.8189C57.9678 14.8936 49.904 22.6915 49.4891 32.4468Z" fill="#303030"/>
<path d="M48.6696 34.0426C48.5313 34.0426 48.393 34.0106 48.2653 33.9362C47.8823 33.7128 47.7547 33.2234 47.9781 32.8404C54.1802 22.3085 63.4462 17.5851 63.8398 17.383C64.2334 17.1915 64.7121 17.3404 64.9143 17.734C65.1164 18.1277 64.9568 18.6064 64.5632 18.8085C64.4675 18.8511 55.3185 23.5319 49.3611 33.6489C49.2121 33.9043 48.9462 34.0426 48.6696 34.0426Z" fill="#303030"/>
<path d="M29.5209 25.7979H28.457C28.457 36.3723 37.0315 44.9468 47.606 44.9468H48.6698C48.6698 34.3723 40.0953 25.7979 29.5209 25.7979Z" fill="white"/>
<path d="M29.5209 25.7979H28.457C28.457 25.8936 28.4677 25.9893 28.4677 26.0851C37.4251 27.5957 44.2549 35.3085 44.3932 44.6595C45.4358 44.8404 46.4996 44.9468 47.5953 44.9468H48.6592C48.6698 34.3723 40.0953 25.7979 29.5209 25.7979Z" fill="white"/>
<path d="M48.6698 45.7447H47.606C36.606 45.7447 27.6592 36.7979 27.6592 25.7979C27.6592 25.3617 28.0209 25 28.4571 25H29.5209C40.5209 25 49.4677 33.9468 49.4677 44.9468C49.4677 45.3936 49.106 45.7447 48.6698 45.7447ZM29.2762 26.5957C29.6911 36.3511 37.7549 44.1489 47.606 44.1489H47.8507C47.4358 34.4043 39.3719 26.5957 29.5209 26.5957H29.2762Z" fill="#303030"/>
<path d="M48.6702 45.7447C48.3936 45.7447 48.1276 45.6064 47.9787 45.3511C42.0106 35.2128 32.8723 30.5639 32.7766 30.5107C32.383 30.3086 32.2234 29.8298 32.4149 29.4362C32.617 29.0426 33.0957 28.883 33.4893 29.0852C33.883 29.2767 43.1489 34.0001 49.351 44.5426C49.5744 44.9256 49.4468 45.415 49.0638 45.6384C48.9468 45.7128 48.8085 45.7447 48.6702 45.7447Z" fill="#303030"/>
<path d="M30.7764 17.8511C31.0955 17.5426 31.1062 17.0426 30.7976 16.7235C30.4891 16.4043 29.9891 16.3937 29.67 16.7022C29.3508 17.0107 29.3402 17.5107 29.6487 17.8298C29.8083 17.9894 30.0104 18.0745 30.2232 18.0745C30.4253 18.0745 30.6274 18.0001 30.7764 17.8511Z" fill="#303030"/>
<path d="M34.872 14.6277C35.2443 14.3936 35.3613 13.8936 35.1273 13.5213C34.8933 13.1489 34.3933 13.0426 34.0209 13.2766C33.6486 13.5106 33.5422 14.0106 33.7762 14.383C33.9252 14.617 34.1911 14.7553 34.4464 14.7553C34.5954 14.7553 34.7443 14.7128 34.872 14.6277Z" fill="#303030"/>
<path d="M29.8829 55.266C29.5744 55.5852 29.5957 56.0852 29.9148 56.3937C30.0638 56.5426 30.2659 56.6065 30.4574 56.6065C30.6702 56.6065 30.8829 56.5214 31.0425 56.3618C31.3404 56.032 31.3297 55.532 31.0106 55.2341C30.6808 54.9256 30.1808 54.9469 29.8829 55.266Z" fill="#303030"/>
<path d="M35.1482 58.4043C34.7759 58.1702 34.2865 58.2873 34.0525 58.6596C33.8184 59.0319 33.9355 59.5319 34.3078 59.7553C34.3078 59.766 34.3078 59.766 34.3078 59.766C34.4461 59.8404 34.5844 59.883 34.7333 59.883C34.9993 59.883 35.2546 59.7447 35.4142 59.5C35.6376 59.1277 35.5206 58.6277 35.1482 58.4043Z" fill="#303030"/>
<path d="M39.5426 12.2979C39.9575 12.1384 40.1703 11.6809 40.0107 11.266C39.8511 10.8511 39.3937 10.649 38.9788 10.7979C38.9788 10.8086 38.9788 10.8086 38.9788 10.8086C38.5639 10.9575 38.3617 11.415 38.5213 11.8299C38.6383 12.149 38.9362 12.3511 39.266 12.3511C39.3617 12.3511 39.4575 12.3299 39.5426 12.2979Z" fill="#303030"/>
<path d="M22.0849 37.3936C22.521 37.3936 22.8828 37.0319 22.8721 36.5957C22.8721 36.1489 22.5104 35.7979 22.0742 35.7979C21.6274 35.7979 21.2764 36.1596 21.2764 36.5957C21.2764 36.6064 21.2764 36.6064 21.2764 36.6064C21.287 37.0425 21.6381 37.3936 22.0742 37.3936C22.0849 37.3936 22.0849 37.3936 22.0849 37.3936Z" fill="#303030"/>
<path d="M22.4248 32.0213C22.478 32.032 22.5312 32.0426 22.5844 32.0426C22.9568 32.0426 23.2865 31.7767 23.361 31.3937C23.4568 30.9681 23.1695 30.5426 22.744 30.4575C22.3078 30.3724 21.8823 30.649 21.7972 31.0852C21.7121 31.5213 21.9993 31.9362 22.4248 32.0213Z" fill="#303030"/>
<path d="M23.851 26.8298C23.9574 26.8724 24.0637 26.8936 24.1595 26.8936C24.4786 26.8936 24.7659 26.7128 24.8935 26.4043C25.0637 26 24.8829 25.5319 24.4786 25.3617C24.0637 25.1915 23.5957 25.383 23.4255 25.7873C23.2552 26.1915 23.4467 26.6596 23.851 26.8298Z" fill="#303030"/>
<path d="M26.7444 22.1809C26.9997 22.1809 27.2444 22.0533 27.4039 21.8299C27.6486 21.4682 27.5635 20.9682 27.2018 20.7235C26.8295 20.4682 26.3401 20.5639 26.0848 20.9256C25.8401 21.2873 25.9359 21.7873 26.2976 22.0426C26.4359 22.1384 26.5848 22.1809 26.7444 22.1809Z" fill="#303030"/>
<path d="M26.4676 51.1064C26.1059 51.3617 26.0208 51.8511 26.2761 52.2128C26.4357 52.4362 26.6803 52.5532 26.925 52.5532C27.0846 52.5532 27.2548 52.5 27.3931 52.4043C27.7548 52.149 27.8399 51.649 27.5846 51.2979C27.3293 50.9362 26.8293 50.8511 26.4676 51.1064Z" fill="#303030"/>
<path d="M22.4893 41.1595C22.0531 41.2553 21.7872 41.6808 21.8723 42.1064C21.9467 42.4893 22.2872 42.7447 22.6489 42.7447C22.702 42.7447 22.7659 42.734 22.8191 42.7234C23.2552 42.6383 23.5318 42.2127 23.4361 41.7766C23.3403 41.351 22.9254 41.0744 22.4893 41.1595Z" fill="#303030"/>
<path d="M23.968 46.3404C23.5637 46.5106 23.3829 46.9787 23.5531 47.383C23.6914 47.6808 23.9786 47.8617 24.2871 47.8617C24.3935 47.8617 24.5105 47.8404 24.6063 47.7979C25.0105 47.6277 25.202 47.1489 25.0212 46.7447C24.851 46.3404 24.3723 46.1596 23.968 46.3404Z" fill="#303030"/>
<path d="M64.6277 71.5425C65.8027 71.5425 66.7553 70.59 66.7553 69.4149C66.7553 68.2398 65.8027 67.2872 64.6277 67.2872C63.4526 67.2872 62.5 68.2398 62.5 69.4149C62.5 70.59 63.4526 71.5425 64.6277 71.5425Z" fill="white"/>
<path d="M64.6277 72.3404C63.0107 72.3404 61.7021 71.0319 61.7021 69.4149C61.7021 67.7979 63.0107 66.4894 64.6277 66.4894C66.2447 66.4894 67.5532 67.7979 67.5532 69.4149C67.5532 71.0319 66.2447 72.3404 64.6277 72.3404ZM64.6277 68.0851C63.8936 68.0851 63.2979 68.6809 63.2979 69.4149C63.2979 70.149 63.8936 70.7447 64.6277 70.7447C65.3617 70.7447 65.9575 70.149 65.9575 69.4149C65.9575 68.6809 65.3617 68.0851 64.6277 68.0851Z" fill="#303030"/>
<path d="M31.6482 67.2873C32.8232 67.2873 33.7758 66.3347 33.7758 65.1596C33.7758 63.9846 32.8232 63.032 31.6482 63.032C30.4731 63.032 29.5205 63.9846 29.5205 65.1596C29.5205 66.3347 30.4731 67.2873 31.6482 67.2873Z" fill="white"/>
<path d="M31.6482 68.0852C30.0312 68.0852 28.7227 66.7767 28.7227 65.1597C28.7227 63.5426 30.0312 62.2341 31.6482 62.2341C33.2652 62.2341 34.5737 63.5426 34.5737 65.1597C34.5737 66.7767 33.2546 68.0852 31.6482 68.0852ZM31.6482 63.8299C30.9141 63.8299 30.3184 64.4256 30.3184 65.1597C30.3184 65.8937 30.9141 66.4895 31.6482 66.4895C32.3822 66.4895 32.978 65.8937 32.978 65.1597C32.978 64.4256 32.3822 63.8299 31.6482 63.8299Z" fill="#303030"/>
<path d="M15.6911 50.2659C16.8662 50.2659 17.8188 49.3134 17.8188 48.1383C17.8188 46.9632 16.8662 46.0106 15.6911 46.0106C14.5161 46.0106 13.5635 46.9632 13.5635 48.1383C13.5635 49.3134 14.5161 50.2659 15.6911 50.2659Z" fill="white"/>
<path d="M15.6912 51.0638C14.0741 51.0638 12.7656 49.7553 12.7656 48.1383C12.7656 46.5213 14.0741 45.2128 15.6912 45.2128C17.3082 45.2128 18.6167 46.5213 18.6167 48.1383C18.6167 49.7553 17.2975 51.0638 15.6912 51.0638ZM15.6912 46.8085C14.9571 46.8085 14.3614 47.4043 14.3614 48.1383C14.3614 48.8723 14.9571 49.4681 15.6912 49.4681C16.4252 49.4681 17.0209 48.8723 17.0209 48.1383C17.0209 47.4043 16.4252 46.8085 15.6912 46.8085Z" fill="#303030"/>
<path d="M66.7546 60.9042C67.9297 60.9042 68.8823 59.9517 68.8823 58.7766C68.8823 57.6015 67.9297 56.6489 66.7546 56.6489C65.5795 56.6489 64.627 57.6015 64.627 58.7766C64.627 59.9517 65.5795 60.9042 66.7546 60.9042Z" fill="white"/>
<path d="M66.7546 61.7021C65.1376 61.7021 63.8291 60.3936 63.8291 58.7766C63.8291 57.1596 65.1376 55.8511 66.7546 55.8511C68.3717 55.8511 69.6802 57.1596 69.6802 58.7766C69.6802 60.3936 68.3717 61.7021 66.7546 61.7021ZM66.7546 57.4468C66.0206 57.4468 65.4248 58.0426 65.4248 58.7766C65.4248 59.5106 66.0206 60.1064 66.7546 60.1064C67.4887 60.1064 68.0844 59.5106 68.0844 58.7766C68.0844 58.0426 67.4887 57.4468 66.7546 57.4468Z" fill="#303030"/>
<path d="M58.2448 11.9681C59.4199 11.9681 60.3725 11.0155 60.3725 9.84043C60.3725 8.66535 59.4199 7.71277 58.2448 7.71277C57.0698 7.71277 56.1172 8.66535 56.1172 9.84043C56.1172 11.0155 57.0698 11.9681 58.2448 11.9681Z" fill="white"/>
<path d="M58.2439 12.766C56.6269 12.766 55.3184 11.4575 55.3184 9.84045C55.3184 8.22343 56.6269 6.91492 58.2439 6.91492C59.8609 6.91492 61.1694 8.22343 61.1694 9.84045C61.1694 11.4575 59.8609 12.766 58.2439 12.766ZM58.2439 8.51066C57.5099 8.51066 56.9141 9.10641 56.9141 9.84045C56.9141 10.5745 57.5099 11.1702 58.2439 11.1702C58.9779 11.1702 59.5737 10.5745 59.5737 9.84045C59.5737 9.10641 58.9779 8.51066 58.2439 8.51066Z" fill="#303030"/>
</g>
<defs>
<linearGradient id="paint0_linear" x1="11.9141" y1="15.0922" x2="41.7013" y2="15.0922" gradientUnits="userSpaceOnUse">
<stop offset="0.0104167" stop-color="#00FF6F"/>
<stop offset="1" stop-color="#1BFFFF"/>
</linearGradient>
<linearGradient id="paint1_linear" x1="0.21289" y1="60.8085" x2="25.7448" y2="60.8085" gradientUnits="userSpaceOnUse">
<stop offset="0.0104167" stop-color="#00FF6F"/>
<stop offset="1" stop-color="#1BFFFF"/>
</linearGradient>
<linearGradient id="paint2_linear" x1="32.4463" y1="61.4965" x2="74.9995" y2="61.4965" gradientUnits="userSpaceOnUse">
<stop offset="0.0104167" stop-color="#00FF6F"/>
<stop offset="1" stop-color="#1BFFFF"/>
</linearGradient>
<clipPath id="clip0">
<rect width="75" height="82.4894" fill="white"/>
</clipPath>
</defs>
</svg>
