<svg width="50" height="47" viewBox="0 0 50 47" fill="none" xmlns="http://www.w3.org/2000/svg">
<g clip-path="url(#clip0)">
<path d="M36.849 18.239C41.7119 18.239 45.654 14.2968 45.654 9.43394C45.654 4.57105 41.7119 0.628906 36.849 0.628906C31.9861 0.628906 28.0439 4.57105 28.0439 9.43394C28.0439 14.2968 31.9861 18.239 36.849 18.239Z" fill="#59DBF0"/>
<path d="M7.54717 28.4403C11.7154 28.4403 15.0943 25.0613 15.0943 20.8931C15.0943 16.7249 11.7154 13.3459 7.54717 13.3459C3.37898 13.3459 0 16.7249 0 20.8931C0 25.0613 3.37898 28.4403 7.54717 28.4403Z" fill="#59DBF0"/>
<path d="M37.4214 46.8552C44.3684 46.8552 50 41.2236 50 34.2766C50 27.3296 44.3684 21.698 37.4214 21.698C30.4744 21.698 24.8428 27.3296 24.8428 34.2766C24.8428 41.2236 30.4744 46.8552 37.4214 46.8552Z" fill="#59DBF0"/>
<path d="M17.798 6.32074L12.7666 10.4088V0.47168H17.798V6.32074Z" fill="white"/>
<path d="M17.798 6.32064L14.6533 8.8741V4.24517C14.6533 3.55334 15.2194 2.9873 15.9112 2.9873H17.798V6.32064Z" fill="#BDC3D8"/>
<path d="M12.7666 10.8805C12.6974 10.8805 12.6283 10.8679 12.5654 10.8365C12.4018 10.761 12.2949 10.5912 12.2949 10.4088V0.471698C12.2949 0.213836 12.5088 0 12.7666 0H17.7981C18.0559 0 18.2698 0.213836 18.2698 0.471698V6.32075C18.2698 6.46541 18.2069 6.59748 18.0937 6.68553L13.0622 10.7736C12.9805 10.8428 12.8735 10.8805 12.7666 10.8805ZM13.2383 0.943396V9.42138L17.3264 6.10063V0.943396H13.2383Z" fill="#21365F"/>
<path d="M42.6098 40.7233H7.38965V19.1824L24.9997 4.87427L42.6098 19.1824V40.7233Z" fill="white"/>
<path d="M42.6096 40.7233H12.4209V24.2831L27.641 11.9183C28.1001 11.5409 28.7668 11.5409 29.2259 11.9183L42.6096 22.7925V40.7233Z" fill="#BDC3D8"/>
<path d="M42.6098 41.1951H7.38967C7.13181 41.1951 6.91797 40.9812 6.91797 40.7234V19.1825C6.91797 19.0378 6.98086 18.9058 7.09407 18.8177L24.7041 4.50954C24.8802 4.37117 25.1255 4.37117 25.3016 4.50954L42.9117 18.8177C43.0249 18.9058 43.0878 19.0441 43.0878 19.1825V40.7234C43.0815 40.9812 42.8739 41.1951 42.6098 41.1951ZM7.86136 40.2517H42.1381V19.4089L24.9997 5.48438L7.86136 19.4089V40.2517Z" fill="#21365F"/>
<path d="M22.4838 24.3711H12.4209V40.7233H22.4838V24.3711Z" fill="white"/>
<path d="M22.4846 28.1448H17.4532C16.7614 28.1448 16.1953 28.7108 16.1953 29.4026V40.7234H22.4846V28.1448Z" fill="#BDC3D8"/>
<path d="M22.4838 41.195H12.4209C12.1631 41.195 11.9492 40.9812 11.9492 40.7233V24.3711C11.9492 24.1133 12.1631 23.8994 12.4209 23.8994H22.4838C22.7417 23.8994 22.9555 24.1133 22.9555 24.3711V40.7233C22.9555 40.9812 22.748 41.195 22.4838 41.195ZM12.8926 40.2516H22.0121V24.8428H12.8926V40.2516Z" fill="#21365F"/>
<path d="M21.2074 33.176C21.2074 33.5156 20.937 33.786 20.5974 33.786C20.2577 33.786 19.9873 33.5156 19.9873 33.176C19.9873 32.8364 20.2577 32.5659 20.5974 32.5659C20.937 32.5659 21.2074 32.8364 21.2074 33.176Z" fill="#21365F"/>
<path d="M45.1256 41.1949H4.87404C4.61618 41.1949 4.40234 40.981 4.40234 40.7232C4.40234 40.4653 4.61618 40.2515 4.87404 40.2515H45.1256C45.3835 40.2515 45.5973 40.4653 45.5973 40.7232C45.5973 40.981 45.3898 41.1949 45.1256 41.1949Z" fill="#21365F"/>
<path d="M19.056 0.943396H11.5088C11.2509 0.943396 11.0371 0.72956 11.0371 0.471698C11.0371 0.213836 11.2509 0 11.5088 0H19.056C19.3138 0 19.5277 0.213836 19.5277 0.471698C19.5277 0.72956 19.3201 0.943396 19.056 0.943396Z" fill="#21365F"/>
<path d="M4.87402 21.2264L24.9998 4.8742L45.1256 21.2264V16.8239L24.9998 0.47168L4.87402 16.8239V21.2264Z" fill="white"/>
<path d="M12.7666 14.7863L24.9993 4.8743L45.1251 21.2265V18.8303L25.7289 3.08185C25.2697 2.70449 24.6094 2.70449 24.144 3.08185L13.2383 11.8869C12.9427 12.1259 12.7729 12.4844 12.7729 12.868V14.7863H12.7666Z" fill="#BDC3D8"/>
<path d="M45.1256 21.6981C45.0187 21.6981 44.9118 21.6604 44.83 21.5912L24.9998 5.48431L5.17593 21.5912C5.03127 21.7044 4.8426 21.7296 4.67278 21.6478C4.50926 21.5724 4.40234 21.4088 4.40234 21.2264V16.8239C4.40234 16.6793 4.46524 16.5472 4.57844 16.4591L24.7042 0.106947C24.8803 -0.0314174 25.1256 -0.0314174 25.3017 0.106947L45.4275 16.4591C45.5407 16.5472 45.6036 16.6856 45.6036 16.8239V21.2264C45.6036 21.4088 45.4967 21.5724 45.3332 21.6541C45.264 21.6856 45.1948 21.6981 45.1256 21.6981ZM24.9998 4.40254C25.1067 4.40254 25.2074 4.44028 25.2954 4.50946L44.6539 20.239V17.0503L24.9998 1.08179L5.34574 17.0503V20.239L24.7042 4.50946C24.7923 4.44028 24.8929 4.40254 24.9998 4.40254Z" fill="#21365F"/>
<path d="M15.5664 18.7736L25.0004 11.1069L34.4343 18.7736H15.5664Z" fill="white"/>
<path d="M20.9814 18.7736L25.5349 15.0755C25.994 14.6981 26.6607 14.6981 27.1198 15.0755L31.6733 18.7736H20.9814Z" fill="#BDC3D8"/>
<path d="M34.4333 19.2453H15.5654C15.3641 19.2453 15.188 19.1196 15.1188 18.9309C15.0497 18.7422 15.1126 18.5347 15.2635 18.4089L24.6975 10.7422C24.8736 10.6038 25.1188 10.6038 25.2949 10.7422L34.7289 18.4089C34.8861 18.5347 34.9427 18.7422 34.8736 18.9309C34.8107 19.1196 34.6346 19.2453 34.4333 19.2453ZM16.8924 18.3019H33.1063L24.9993 11.7108L16.8924 18.3019Z" fill="#21365F"/>
<path d="M37.5785 24.3711H27.5156V34.434H37.5785V24.3711Z" fill="white"/>
<path d="M37.5784 34.4339H30.0312V28.1446C30.0312 27.4528 30.5973 26.8867 31.2891 26.8867H37.5784V34.4339Z" fill="#BDC3D8"/>
<path d="M32.5469 34.9057C32.289 34.9057 32.0752 34.6919 32.0752 34.434V24.3711C32.0752 24.1133 32.289 23.8994 32.5469 23.8994C32.8048 23.8994 33.0186 24.1133 33.0186 24.3711V34.434C33.0186 34.6982 32.811 34.9057 32.5469 34.9057Z" fill="#21365F"/>
<path d="M37.5785 29.8743H27.5156C27.2578 29.8743 27.0439 29.6605 27.0439 29.4026C27.0439 29.1447 27.2578 28.9309 27.5156 28.9309H37.5785C37.8364 28.9309 38.0502 29.1447 38.0502 29.4026C38.0502 29.6605 37.8427 29.8743 37.5785 29.8743Z" fill="#21365F"/>
<path d="M37.5785 34.9057H27.5156C27.2578 34.9057 27.0439 34.6919 27.0439 34.434V24.3711C27.0439 24.1133 27.2578 23.8994 27.5156 23.8994H37.5785C37.8364 23.8994 38.0502 24.1133 38.0502 24.3711V34.434C38.0502 34.6982 37.8427 34.9057 37.5785 34.9057ZM27.9873 33.9623H37.1068V24.8428H27.9873V33.9623Z" fill="#21365F"/>
<path d="M42.0564 11.9435C41.9558 11.9435 41.8489 11.9121 41.7608 11.8366C41.5596 11.6731 41.5218 11.3775 41.6853 11.1762L43.2577 9.21394C43.4212 9.01268 43.7168 8.97494 43.918 9.13847C44.1193 9.30199 44.157 9.59759 43.9935 9.79884L42.4212 11.7611C42.3331 11.8806 42.1948 11.9435 42.0564 11.9435Z" fill="#21365F"/>
<path d="M43.8243 11.7484C43.7237 11.7484 43.6168 11.7169 43.5287 11.6415L41.5665 10.0691C41.3652 9.90562 41.3275 9.61002 41.491 9.40876C41.6545 9.2075 41.9501 9.16977 42.1514 9.33329L44.1136 10.9056C44.3149 11.0691 44.3526 11.3647 44.1891 11.566C44.1011 11.6855 43.9627 11.7484 43.8243 11.7484Z" fill="#21365F"/>
<path d="M40.1946 7.76103C40.3959 7.92456 40.4273 8.22015 40.2701 8.42141C40.1066 8.62267 39.811 8.66041 39.6097 8.49688C39.4085 8.33336 39.377 8.03776 39.5343 7.83651C39.6978 7.62896 39.9934 7.59751 40.1946 7.76103Z" fill="#21365F"/>
<path d="M38.723 6.57866C38.9242 6.74218 38.9557 7.03778 38.7984 7.23904C38.6349 7.4403 38.3393 7.47803 38.138 7.31451C37.9368 7.15099 37.9053 6.85539 38.0626 6.65413C38.2261 6.44659 38.5217 6.41514 38.723 6.57866Z" fill="#21365F"/>
<path d="M36.7617 5.0064C36.963 5.16992 37.0007 5.46552 36.8372 5.66677C36.6737 5.86803 36.3781 5.90577 36.1768 5.74224C35.9756 5.57872 35.9378 5.28313 36.1014 5.08187C36.2649 4.87432 36.5605 4.84287 36.7617 5.0064Z" fill="#21365F"/>
<path d="M33.8174 2.64141C34.0187 2.80493 34.0564 3.10053 33.8929 3.30178C33.7293 3.50304 33.4337 3.54078 33.2325 3.37725C33.0312 3.21373 32.9935 2.91814 33.157 2.71688C33.3205 2.50933 33.6161 2.47788 33.8174 2.64141Z" fill="#21365F"/>
<path d="M4.87404 34.2767C4.61618 34.2767 4.40234 34.0691 4.40234 33.805V28.9119C4.40234 28.654 4.61618 28.4402 4.87404 28.4402C5.1319 28.4402 5.34574 28.654 5.34574 28.9119V33.805C5.34574 34.0691 5.13819 34.2767 4.87404 34.2767Z" fill="#21365F"/>
<path d="M4.87404 26.8679C4.61618 26.8679 4.40234 26.6541 4.40234 26.3962V25.0063C4.40234 24.7422 4.61618 24.5283 4.87404 24.5283C5.1319 24.5283 5.34574 24.7422 5.34574 25V26.39C5.34574 26.6541 5.13819 26.8679 4.87404 26.8679Z" fill="#21365F"/>
<path d="M45.126 38.0504C44.8681 38.0504 44.6543 37.8366 44.6543 37.5787V30.7988C44.6543 30.541 44.8681 30.3271 45.126 30.3271C45.3839 30.3271 45.5977 30.541 45.5977 30.7988V37.585C45.5977 37.8429 45.3901 38.0504 45.126 38.0504Z" fill="#21365F"/>
<path d="M45.126 28.7547C44.8681 28.7547 44.6543 28.5409 44.6543 28.283V26.8931C44.6543 26.6352 44.8681 26.4214 45.126 26.4214C45.3839 26.4214 45.5977 26.6352 45.5977 26.8931V28.283C45.5977 28.5409 45.3901 28.7547 45.126 28.7547Z" fill="#21365F"/>
<path d="M38.8364 34.9056H26.2578C26 34.9056 25.7861 34.6917 25.7861 34.4339C25.7861 34.176 26 33.9622 26.2578 33.9622H38.8364C39.0943 33.9622 39.3081 34.176 39.3081 34.4339C39.3081 34.6917 39.1006 34.9056 38.8364 34.9056Z" fill="#21365F"/>
<path d="M23.7417 24.8428H11.1631C10.9052 24.8428 10.6914 24.629 10.6914 24.3711C10.6914 24.1133 10.9052 23.8994 11.1631 23.8994H23.7417C23.9996 23.8994 24.2134 24.1133 24.2134 24.3711C24.2134 24.629 24.0059 24.8428 23.7417 24.8428Z" fill="#21365F"/>
<path d="M7.38977 11.0064H4.87404C4.61618 11.0064 4.40234 10.7925 4.40234 10.5347C4.40234 10.2768 4.61618 10.063 4.87404 10.063H7.38977C7.64763 10.063 7.86146 10.2768 7.86146 10.5347C7.86146 10.7925 7.65392 11.0064 7.38977 11.0064Z" fill="#21365F"/>
<path d="M6.13185 12.2641C5.87399 12.2641 5.66016 12.0502 5.66016 11.7924V9.27663C5.66016 9.01877 5.87399 8.80493 6.13185 8.80493C6.38972 8.80493 6.60355 9.01877 6.60355 9.27663V11.7924C6.60355 12.0502 6.39601 12.2641 6.13185 12.2641Z" fill="#21365F"/>
<path d="M9.90539 4.71708H7.38967C7.13181 4.71708 6.91797 4.50324 6.91797 4.24538C6.91797 3.98752 7.13181 3.77368 7.38967 3.77368H9.90539C10.1633 3.77368 10.3771 3.98752 10.3771 4.24538C10.3771 4.50324 10.1695 4.71708 9.90539 4.71708Z" fill="#21365F"/>
<path d="M8.64748 5.97474C8.38962 5.97474 8.17578 5.76091 8.17578 5.50305V2.98732C8.17578 2.72946 8.38962 2.51562 8.64748 2.51562C8.90534 2.51562 9.11918 2.72946 9.11918 2.98732V5.50305C9.11918 5.76091 8.91163 5.97474 8.64748 5.97474Z" fill="#21365F"/>
<path d="M25 19.2453C24.7422 19.2453 24.5283 19.0315 24.5283 18.7736V11.107C24.5283 10.8491 24.7422 10.6353 25 10.6353C25.2579 10.6353 25.4717 10.8491 25.4717 11.107V18.7736C25.4717 19.0315 25.2642 19.2453 25 19.2453Z" fill="#21365F"/>
</g>
<defs>
<clipPath id="clip0">
<rect width="50" height="46.8553" fill="white"/>
</clipPath>
</defs>
</svg>
