<svg width="50" height="50" viewBox="0 0 50 50" fill="none" xmlns="http://www.w3.org/2000/svg">
<path d="M20.3014 49.0795C25.2782 49.0795 29.3127 45.045 29.3127 40.0682C29.3127 35.0914 25.2782 31.0569 20.3014 31.0569C15.3245 31.0569 11.29 35.0914 11.29 40.0682C11.29 45.045 15.3245 49.0795 20.3014 49.0795Z" fill="#59DBF0"/>
<path d="M42.2758 28.4373C46.5416 28.4373 49.9998 24.9791 49.9998 20.7133C49.9998 16.4474 46.5416 12.9893 42.2758 12.9893C38.0099 12.9893 34.5518 16.4474 34.5518 20.7133C34.5518 24.9791 38.0099 28.4373 42.2758 28.4373Z" fill="#59DBF0"/>
<path d="M12.8733 25.7467C19.9831 25.7467 25.7467 19.9831 25.7467 12.8733C25.7467 5.76359 19.9831 0 12.8733 0C5.76358 0 0 5.76359 0 12.8733C0 19.9831 5.76358 25.7467 12.8733 25.7467Z" fill="#59DBF0"/>
<path d="M17.5409 33.9149L15.2495 33.3098H12.5847H9.91349L7.62203 33.9149C6.75308 34.1466 6.1416 34.9319 6.1416 35.833V38.1437H19.0149V35.833C19.0149 34.9254 18.4099 34.1401 17.5409 33.9149Z" fill="white"/>
<path d="M17.9979 34.1079C17.026 35.5562 15.404 36.7534 13.3764 37.3262C10.5765 38.1244 7.79582 37.5129 6.1416 35.9552V38.1373H12.5783H19.0149V35.8265C19.0149 35.0992 18.6159 34.4491 17.9979 34.1079Z" fill="#BDC3D8"/>
<path d="M19.0143 38.6199H6.14095C5.87705 38.6199 5.6582 38.4011 5.6582 38.1372V35.8264C5.6582 34.7064 6.41129 33.728 7.49265 33.4448L9.79054 32.8398C9.82916 32.8269 9.87422 32.8269 9.91284 32.8269H15.2424C15.281 32.8269 15.3261 32.8333 15.3647 32.8398L17.6561 33.4448C18.7375 33.728 19.4906 34.7064 19.4906 35.8264V38.1372C19.497 38.4011 19.2846 38.6199 19.0143 38.6199ZM6.6237 37.6544H18.5315V35.8264C18.5315 35.1441 18.0745 34.5519 17.4115 34.3781L15.178 33.7924H9.9772L7.74368 34.3781C7.08714 34.5519 6.6237 35.1441 6.6237 35.8264V37.6544Z" fill="#21365F"/>
<path d="M12.5779 36.4571C12.5779 36.4571 15.2298 34.3845 15.2426 33.3096C14.6827 33.0199 14.2578 32.4986 14.142 31.8678C14.1227 31.7777 14.1098 31.1919 14.1034 31.1018H11.0524C11.0395 31.2048 11.0266 31.8034 11.0009 31.9128C10.8786 32.5307 10.4666 33.0328 9.91309 33.3096C9.93883 34.3845 12.5779 36.4571 12.5779 36.4571Z" fill="white"/>
<path d="M14.4956 34.6677C14.914 34.1785 15.2422 33.6829 15.2487 33.3096C14.6887 33.0199 14.2639 32.4986 14.148 31.8678C14.1287 31.7777 14.1158 31.1919 14.1094 31.1018H12.6611C12.6804 31.3721 12.6998 32.1639 12.7255 32.299C12.9057 33.3289 13.588 34.185 14.4956 34.6677Z" fill="#BDC3D8"/>
<path d="M12.5775 36.9464C12.4745 36.9464 12.3651 36.9142 12.2814 36.8434C11.6184 36.322 9.4557 34.5326 9.42996 33.3225C9.42352 33.1359 9.53294 32.9621 9.7003 32.8784C10.138 32.666 10.4405 32.2798 10.5306 31.8228C10.5371 31.7584 10.5499 31.5525 10.5564 31.3787C10.5628 31.2242 10.5692 31.089 10.5757 31.044C10.6079 30.7994 10.8074 30.6191 11.052 30.6191H14.103C14.3476 30.6191 14.5535 30.8058 14.5857 31.0504C14.5922 31.089 14.5986 31.2242 14.605 31.3787C14.6115 31.5396 14.6179 31.7262 14.6243 31.7971C14.708 32.2476 15.0234 32.6596 15.4675 32.8848C15.6285 32.9685 15.7315 33.1359 15.7315 33.3225C15.7121 34.5326 13.543 36.3285 12.88 36.8434C12.7899 36.9078 12.6869 36.9464 12.5775 36.9464ZM10.4663 33.5478C10.7173 34.1078 11.6442 35.0669 12.5839 35.8457C13.5237 35.0669 14.457 34.1078 14.7016 33.5478C14.1673 33.1681 13.7876 32.5952 13.6717 31.9644C13.6653 31.9193 13.6524 31.7584 13.646 31.5911H11.5154C11.5026 31.8164 11.4961 31.9387 11.4833 32.0159C11.3545 32.6338 10.9941 33.1809 10.4663 33.5478Z" fill="#21365F"/>
<path d="M15.6745 28.4822C15.6745 26.429 14.2906 25.2639 12.5785 25.2639C10.8663 25.2639 9.48242 26.429 9.48242 28.4822C9.48242 30.5355 10.8663 32.1962 12.5785 32.1962C14.2906 32.1962 15.6745 30.5355 15.6745 28.4822Z" fill="white"/>
<path d="M13.3247 25.3477C13.5629 25.8047 13.6981 26.3582 13.6981 27.0019C13.6981 29.0552 12.3142 30.7158 10.602 30.7158C10.4218 30.7158 10.248 30.6965 10.0742 30.6579C10.6342 31.5912 11.5482 32.2027 12.5845 32.2027C14.2967 32.2027 15.6806 30.542 15.6806 28.4887C15.6741 26.738 14.67 25.6373 13.3247 25.3477Z" fill="#BDC3D8"/>
<path d="M12.5778 32.679C10.6082 32.679 8.99902 30.7995 8.99902 28.4823C8.99902 26.3003 10.473 24.7812 12.5778 24.7812C14.6826 24.7812 16.1566 26.3003 16.1566 28.4823C16.1566 30.7931 14.5539 32.679 12.5778 32.679ZM12.5778 25.7467C10.9944 25.7467 9.96452 26.8217 9.96452 28.4823C9.96452 30.2653 11.136 31.7135 12.5778 31.7135C14.0196 31.7135 15.1911 30.2653 15.1911 28.4823C15.1911 26.8217 14.1677 25.7467 12.5778 25.7467Z" fill="#21365F"/>
<path d="M30.4144 33.9149L28.1229 33.3098H25.4581H22.7934L20.4955 33.9149C19.6265 34.1466 19.0215 34.9319 19.0215 35.833V38.1437H31.8948V35.833C31.8884 34.9254 31.2833 34.1401 30.4144 33.9149Z" fill="white"/>
<path d="M31.8882 35.8263C31.8882 34.9252 31.2832 34.1399 30.4078 33.9082L30.131 33.8374C30.028 35.7233 28.8115 36.9206 26.9062 38.1307H31.8818V35.8263H31.8882Z" fill="#BDC3D8"/>
<path d="M31.8883 38.6199H19.015C18.7511 38.6199 18.5322 38.4011 18.5322 38.1372V35.8264C18.5322 34.7064 19.2853 33.728 20.3731 33.4448L22.6646 32.8398C22.7032 32.8269 22.7482 32.8269 22.7869 32.8269H28.1164C28.155 32.8269 28.2001 32.8333 28.2387 32.8398L30.5302 33.4448C31.6115 33.728 32.3646 34.7064 32.3646 35.8264V38.1372C32.3711 38.4011 32.1586 38.6199 31.8883 38.6199ZM19.4977 37.6544H31.4056V35.8264C31.4056 35.1441 30.9486 34.5519 30.2856 34.3781L28.0521 33.7924H22.8512L20.6177 34.3781C19.9612 34.5519 19.4977 35.1441 19.4977 35.8264V37.6544Z" fill="#21365F"/>
<path d="M25.4509 35.1698C25.4509 35.1698 28.0964 34.3845 28.1157 33.3096C27.5557 33.0199 27.1309 32.4986 27.015 31.8678C26.9957 31.7777 26.9828 31.1919 26.9764 31.1018H23.9254C23.9125 31.2048 23.8997 31.8034 23.8739 31.9128C23.7516 32.5307 23.3397 33.0328 22.7861 33.3096C22.8119 34.3845 25.4509 35.1698 25.4509 35.1698Z" fill="white"/>
<path d="M28.1229 33.3096C27.5629 33.0199 27.1381 32.4986 27.0222 31.8678C27.0029 31.7777 26.99 31.1919 26.9836 31.1018L25.5225 31.3657C25.5353 31.4944 25.5546 32.3441 25.5804 32.4793C25.7413 33.3482 26.3077 34.0755 27.0608 34.5004C27.6144 34.185 28.11 33.773 28.1229 33.3096Z" fill="#BDC3D8"/>
<path d="M25.4509 35.6527C25.4059 35.6527 25.3608 35.6463 25.3158 35.6334C24.8201 35.4853 22.3356 34.6743 22.3098 33.3162C22.3034 33.1295 22.4128 32.9557 22.5802 32.8721C23.0179 32.6597 23.3204 32.2735 23.4105 31.8164C23.4169 31.7521 23.4298 31.5461 23.4363 31.3723C23.4427 31.2178 23.4491 31.0827 23.4556 31.0376C23.4813 30.793 23.6873 30.6128 23.9319 30.6128H26.9829C27.2274 30.6128 27.4334 30.7995 27.4656 31.044C27.472 31.0827 27.4785 31.2178 27.4849 31.3723C27.4914 31.5332 27.4978 31.7199 27.5042 31.7907C27.5879 32.2413 27.9033 32.6532 28.3474 32.8785C28.5083 32.9622 28.6113 33.1295 28.6113 33.3162C28.592 34.6808 26.101 35.4853 25.599 35.6334C25.5475 35.6463 25.5024 35.6527 25.4509 35.6527ZM23.3719 33.5222C23.668 33.9084 24.5884 34.3847 25.4574 34.6615C26.3392 34.3782 27.2596 33.9019 27.5493 33.5157C27.0279 33.136 26.661 32.576 26.5452 31.9516C26.5387 31.9001 26.5259 31.7456 26.5194 31.5783H24.3889C24.376 31.8036 24.3696 31.9259 24.3567 32.0031C24.2344 32.621 23.8804 33.1617 23.3719 33.5222Z" fill="#21365F"/>
<path d="M28.5475 28.4822C28.5475 26.429 27.1637 25.2639 25.4515 25.2639C23.7394 25.2639 22.3555 26.429 22.3555 28.4822C22.3555 30.5355 23.7394 32.1962 25.4515 32.1962C27.1637 32.1962 28.5475 30.5355 28.5475 28.4822Z" fill="white"/>
<path d="M26.1978 25.3477C26.4359 25.8047 26.5711 26.3582 26.5711 27.0019C26.5711 29.0552 25.1872 30.7158 23.4751 30.7158C23.2948 30.7158 23.1211 30.6965 22.9473 30.6579C23.5073 31.5912 24.4213 32.2027 25.4576 32.2027C27.1697 32.2027 28.5536 30.542 28.5536 28.4887C28.5472 26.738 27.543 25.6373 26.1978 25.3477Z" fill="#BDC3D8"/>
<path d="M25.4518 32.679C23.4822 32.679 21.873 30.7995 21.873 28.4823C21.873 26.3003 23.347 24.7812 25.4518 24.7812C27.5566 24.7812 29.0306 26.3003 29.0306 28.4823C29.0306 30.7931 27.4279 32.679 25.4518 32.679ZM25.4518 25.7467C23.8684 25.7467 22.8385 26.8217 22.8385 28.4823C22.8385 30.2653 24.01 31.7135 25.4518 31.7135C26.8936 31.7135 28.0651 30.2653 28.0651 28.4823C28.0651 26.8217 27.0417 25.7467 25.4518 25.7467Z" fill="#21365F"/>
<path d="M25.4515 38.62C25.1876 38.62 24.9688 38.4011 24.9688 38.1372V35.1764C24.9688 34.9125 25.1876 34.6936 25.4515 34.6936C25.7154 34.6936 25.9342 34.9125 25.9342 35.1764V38.1372C25.9342 38.4011 25.7218 38.62 25.4515 38.62Z" fill="#21365F"/>
<path d="M43.2874 33.9149L40.996 33.3098H38.3312H35.6664L33.375 33.9149C32.506 34.1466 31.8945 34.9319 31.8945 35.833V38.1437H44.7679V35.833C44.7614 34.9254 44.1564 34.1401 43.2874 33.9149Z" fill="white"/>
<path d="M43.287 33.9148L42.8236 33.7925C42.8236 33.8247 42.83 33.8633 42.83 33.8955C42.83 35.2085 41.8388 36.3028 40.5321 36.4315L31.8877 37.294V38.1308H44.761V35.82C44.761 34.9253 44.156 34.1401 43.287 33.9148Z" fill="#BDC3D8"/>
<path d="M44.7672 38.6199H31.8939C31.63 38.6199 31.4111 38.4011 31.4111 38.1372V35.8264C31.4111 34.7064 32.1642 33.728 33.252 33.4448L35.5435 32.8398C35.5821 32.8269 35.6271 32.8269 35.6658 32.8269H40.9953C41.0339 32.8269 41.079 32.8333 41.1176 32.8398L43.4091 33.4448C44.4904 33.728 45.25 34.7064 45.25 35.8264V38.1372C45.25 38.4011 45.0311 38.6199 44.7672 38.6199ZM32.3702 37.6544H44.278V35.8264C44.278 35.1441 43.821 34.5519 43.158 34.3781L40.9245 33.7924H35.7237L33.4902 34.3781C32.8336 34.5519 32.3702 35.1441 32.3702 35.8264V37.6544Z" fill="#21365F"/>
<path d="M40.294 34.2686C40.6866 33.9919 40.9891 33.6636 40.9956 33.3096C40.4356 33.0199 40.0108 32.4986 39.8949 31.8678C39.8756 31.7777 39.8627 31.1919 39.8563 31.1018H36.8053C36.7924 31.2048 36.7796 31.8034 36.7538 31.9128C36.6315 32.5307 36.2196 33.0328 35.666 33.3096C35.6725 33.67 35.975 33.9919 36.3676 34.2686C37.5326 35.0861 39.1289 35.0861 40.294 34.2686Z" fill="white"/>
<path d="M39.9661 34.4617C40.0756 34.4038 40.1914 34.3394 40.2944 34.2686C40.687 33.9919 40.9896 33.6636 40.996 33.3096C40.436 33.0199 40.0112 32.4986 39.8953 31.8678C39.876 31.7777 39.8631 31.1919 39.8567 31.1018H38.6016C38.6209 31.4687 38.6402 32.1574 38.6659 32.2926C38.8204 33.1615 39.3032 33.9211 39.9661 34.4617Z" fill="#BDC3D8"/>
<path d="M38.3314 35.3694C37.5461 35.3694 36.7608 35.1377 36.0914 34.6678C35.4993 34.2559 35.1967 33.7989 35.1839 33.3225C35.1774 33.1359 35.2869 32.9621 35.4542 32.8784C35.8919 32.666 36.1944 32.2798 36.2845 31.8228C36.291 31.752 36.3038 31.546 36.3103 31.3722C36.3167 31.2242 36.3232 31.0955 36.3296 31.0504C36.3553 30.8058 36.5613 30.6191 36.8059 30.6191H39.8569C40.1015 30.6191 40.3074 30.7994 40.3396 31.044C40.3461 31.089 40.3525 31.2242 40.3589 31.3787C40.3654 31.5396 40.3718 31.7198 40.3783 31.7906C40.4619 32.2412 40.7773 32.6531 41.2215 32.8784C41.3824 32.9621 41.4854 33.1294 41.4854 33.3161C41.4789 33.7989 41.1764 34.2494 40.5778 34.6678C39.9019 35.1377 39.1167 35.3694 38.3314 35.3694ZM36.2459 33.5221C36.3167 33.6122 36.439 33.7345 36.6385 33.8761C37.6491 34.5841 39.0072 34.5841 40.0178 33.8761C40.2238 33.7345 40.3461 33.6122 40.4169 33.5156C39.9019 33.1359 39.5351 32.5759 39.4192 31.9515C39.4128 31.9065 39.3999 31.7456 39.3934 31.5782H37.2629C37.25 31.8228 37.2436 31.9258 37.2307 32.003C37.1084 32.6209 36.7608 33.1552 36.2459 33.5221Z" fill="#21365F"/>
<path d="M41.4206 28.4822C41.4206 26.429 40.0367 25.2639 38.3245 25.2639C36.6124 25.2639 35.2285 26.429 35.2285 28.4822C35.2285 30.5355 36.6124 32.1962 38.3245 32.1962C40.0367 32.1962 41.4206 30.5355 41.4206 28.4822Z" fill="white"/>
<path d="M40.7633 26.4097C40.7633 26.4612 40.7762 26.4998 40.7762 26.5513C40.7762 28.6046 39.3923 30.2652 37.6801 30.2652C36.6889 30.2652 35.8135 29.7052 35.2471 28.8363C35.3951 30.7222 36.7146 32.1962 38.3238 32.1962C40.0359 32.1962 41.4198 30.5356 41.4198 28.4823C41.4198 27.6262 41.1688 26.9375 40.7633 26.4097Z" fill="#BDC3D8"/>
<path d="M38.3307 32.679C36.3547 32.679 34.752 30.7995 34.752 28.4823C34.752 26.3003 36.2259 24.7812 38.3307 24.7812C40.4355 24.7812 41.9095 26.3003 41.9095 28.4823C41.9031 30.7931 40.3004 32.679 38.3307 32.679ZM38.3307 25.7467C36.7409 25.7467 35.7175 26.8217 35.7175 28.4823C35.7175 30.2653 36.8889 31.7135 38.3307 31.7135C39.7725 31.7135 40.944 30.2653 40.944 28.4823C40.9376 26.8217 39.9142 25.7467 38.3307 25.7467Z" fill="#21365F"/>
<path d="M44.7616 38.1372H6.1416V44.5739H44.7616V38.1372Z" fill="#BDC3D8"/>
<path d="M41.5433 38.1372H6.1416V41.9992H40.2559C40.964 41.9992 41.5433 41.4199 41.5433 40.7119V38.1372Z" fill="white"/>
<path d="M44.7609 45.0567H6.14095C5.87705 45.0567 5.6582 44.8379 5.6582 44.574V38.1373C5.6582 37.8734 5.87705 37.6545 6.14095 37.6545H44.7609C45.0248 37.6545 45.2437 37.8734 45.2437 38.1373V44.574C45.2437 44.8379 45.0313 45.0567 44.7609 45.0567ZM6.6237 44.0912H44.2782V38.62H6.6237V44.0912Z" fill="#21365F"/>
<path d="M46.0485 38.62H4.85384C4.58994 38.62 4.37109 38.4012 4.37109 38.1373C4.37109 37.8734 4.58994 37.6545 4.85384 37.6545H46.0485C46.3124 37.6545 46.5312 37.8734 46.5312 38.1373C46.5312 38.4012 46.3188 38.62 46.0485 38.62Z" fill="#21365F"/>
<path d="M30.414 12.0301L28.1225 11.425H25.4577H22.7865L20.4951 12.0301C19.6261 12.2618 19.0146 13.0471 19.0146 13.9482V16.259H31.888V13.9482C31.888 13.0407 31.2829 12.2554 30.414 12.0301Z" fill="white"/>
<path d="M30.871 12.2231C29.899 13.6714 28.277 14.8686 26.2495 15.4415C23.4495 16.2396 20.6689 15.6281 19.0146 14.0705V16.2525H25.4513H31.888V13.9417C31.888 13.2144 31.4889 12.5643 30.871 12.2231Z" fill="#BDC3D8"/>
<path d="M31.8883 16.7354H19.015C18.7446 16.7354 18.5322 16.5165 18.5322 16.2526V13.9419C18.5322 12.8219 19.2853 11.8435 20.3731 11.5603L22.6646 10.9553C22.7096 10.9488 22.7482 10.9424 22.7869 10.9424H28.1164C28.155 10.9424 28.2001 10.9488 28.2387 10.9553L30.5302 11.5603C31.6115 11.8435 32.3711 12.8219 32.3711 13.9419V16.2526C32.3711 16.5165 32.1586 16.7354 31.8883 16.7354ZM19.4977 15.7699H31.4056V13.9419C31.4056 13.2596 30.9486 12.6674 30.2856 12.4936L28.0521 11.9079H22.8512L20.6177 12.4936C19.9612 12.6674 19.4977 13.2596 19.4977 13.9419V15.7699Z" fill="#21365F"/>
<path d="M25.4509 14.5789C25.4509 14.5789 28.0964 12.5063 28.1157 11.4314C27.5557 11.1418 27.1309 10.6204 27.015 9.9896C26.9957 9.89948 26.9828 9.31375 26.9764 9.22363H23.9254C23.9125 9.32662 23.8997 9.92523 23.8739 10.0347C23.7516 10.6526 23.3397 11.1546 22.7861 11.4314C22.8119 12.4999 25.4509 14.5789 25.4509 14.5789Z" fill="white"/>
<path d="M27.3686 12.7832C27.787 12.294 28.1153 11.8048 28.1217 11.4251C27.5617 11.1354 27.1369 10.614 27.0211 9.98325C27.0017 9.89314 26.9889 9.3074 26.9824 9.21729H25.5342C25.5471 9.48763 25.5728 10.2793 25.5985 10.4145C25.7788 11.4444 26.4611 12.3004 27.3686 12.7832Z" fill="#BDC3D8"/>
<path d="M25.4515 15.0619C25.3421 15.0619 25.2391 15.0297 25.1554 14.9589C24.4924 14.4375 22.3362 12.6481 22.304 11.438C22.2975 11.2514 22.407 11.0776 22.5743 10.9939C23.012 10.7815 23.3145 10.3953 23.4046 9.93827C23.4111 9.86747 23.424 9.6615 23.4304 9.48771C23.4368 9.33967 23.4433 9.21093 23.4497 9.16588C23.4755 8.92128 23.6814 8.73462 23.9325 8.73462H26.9834C27.228 8.73462 27.434 8.91485 27.4597 9.15944C27.4662 9.2045 27.4726 9.33967 27.4791 9.50058C27.4855 9.6615 27.4919 9.84172 27.4984 9.91253C27.582 10.3631 27.8974 10.775 28.3416 11.0003C28.5025 11.084 28.6055 11.2514 28.6055 11.438C28.5862 12.6481 26.417 14.4439 25.754 14.9589C25.6639 15.0232 25.5609 15.0619 25.4515 15.0619ZM23.3403 11.6633C23.5913 12.2233 24.5182 13.1824 25.4579 13.9612C26.3977 13.1824 27.331 12.2233 27.5756 11.6633C27.0414 11.2835 26.668 10.7107 26.5457 10.0799C26.5393 10.0348 26.5264 9.88035 26.52 9.70656H24.3895C24.3766 9.95115 24.3701 10.0541 24.3573 10.1314C24.2285 10.7493 23.8681 11.2964 23.3403 11.6633Z" fill="#21365F"/>
<path d="M28.5475 6.59748C28.5475 4.54419 27.1637 3.37915 25.4515 3.37915C23.7394 3.37915 22.3555 4.54419 22.3555 6.59748C22.3555 8.65078 23.7394 10.3114 25.4515 10.3114C27.1637 10.3114 28.5475 8.65078 28.5475 6.59748Z" fill="white"/>
<path d="M26.1978 3.46289C26.4359 3.91989 26.5711 4.47345 26.5711 5.11711C26.5711 7.17041 25.1872 8.83107 23.4751 8.83107C23.2948 8.83107 23.1211 8.80532 22.9473 8.77314C23.5073 9.70645 24.4213 10.3179 25.4576 10.3179C27.1697 10.3179 28.5536 8.65728 28.5536 6.60398C28.5472 4.85321 27.543 3.75254 26.1978 3.46289Z" fill="#BDC3D8"/>
<path d="M25.4518 10.7943C23.4822 10.7943 21.873 8.91476 21.873 6.59757C21.873 4.41554 23.347 2.89648 25.4518 2.89648C27.5566 2.89648 29.0306 4.41554 29.0306 6.59757C29.0306 8.90833 27.4279 10.7943 25.4518 10.7943ZM25.4518 3.86198C23.8684 3.86198 22.8385 4.93691 22.8385 6.59757C22.8385 8.38052 24.01 9.82877 25.4518 9.82877C26.8936 9.82877 28.0651 8.38052 28.0651 6.59757C28.0651 4.93691 27.0417 3.86198 25.4518 3.86198Z" fill="#21365F"/>
<path d="M17.5409 12.0301L15.2495 11.425H12.5847H9.91349L7.62203 12.0301C6.75308 12.2618 6.1416 13.0471 6.1416 13.9482V16.259H19.0149V13.9482C19.0149 13.0407 18.4099 12.2554 17.5409 12.0301Z" fill="white"/>
<path d="M17.5409 12.03L17.0775 11.9077C17.0775 11.9399 17.0839 11.9785 17.0839 12.0107C17.0839 13.3238 16.0927 14.418 14.786 14.5467L6.1416 15.4157V16.2525H19.0149V13.9417C19.0149 13.0406 18.4099 12.2553 17.5409 12.03Z" fill="#BDC3D8"/>
<path d="M19.0143 16.7354H6.14095C5.87705 16.7354 5.6582 16.5165 5.6582 16.2526V13.9419C5.6582 12.8219 6.41129 11.8435 7.49265 11.5603L9.79054 10.9553C9.82916 10.9424 9.87422 10.9424 9.91284 10.9424H15.2424C15.281 10.9424 15.3261 10.9488 15.3647 10.9553L17.6561 11.5603C18.7375 11.8435 19.4906 12.8219 19.4906 13.9419V16.2526C19.497 16.5165 19.2846 16.7354 19.0143 16.7354ZM6.6237 15.7699H18.5315V13.9419C18.5315 13.2596 18.0745 12.6674 17.4115 12.4936L15.178 11.9079H9.9772L7.74368 12.4936C7.08714 12.6674 6.6237 13.2596 6.6237 13.9419V15.7699Z" fill="#21365F"/>
<path d="M14.5479 12.3905C14.9405 12.1137 15.243 11.7854 15.2495 11.4314C14.6895 11.1418 14.2647 10.6204 14.1488 9.9896C14.1295 9.89948 14.1166 9.31375 14.1102 9.22363H11.0592C11.0463 9.32662 11.0335 9.92523 11.0077 10.0347C10.8854 10.6526 10.4735 11.1546 9.91992 11.4314C9.92636 11.7919 10.2289 12.1137 10.6215 12.3905C11.7866 13.2015 13.3764 13.2015 14.5479 12.3905Z" fill="white"/>
<path d="M14.2191 12.5772C14.3285 12.5193 14.4443 12.4549 14.5473 12.3841C14.94 12.1073 15.2425 11.7791 15.2489 11.4251C14.6889 11.1354 14.2641 10.614 14.1483 9.98325C14.129 9.89314 14.1161 9.3074 14.1096 9.21729H12.8545C12.8738 9.58417 12.8931 10.2729 12.9189 10.4081C13.0733 11.277 13.5561 12.0365 14.2191 12.5772Z" fill="#BDC3D8"/>
<path d="M12.5843 13.4849C11.799 13.4849 11.0138 13.2532 10.3444 12.7833C9.75219 12.3713 9.44967 11.9143 9.43679 11.438C9.43036 11.2514 9.53978 11.0776 9.70713 10.9939C10.1448 10.7815 10.4473 10.3953 10.5375 9.93827C10.5439 9.87391 10.5568 9.66794 10.5632 9.49415C10.5696 9.33967 10.5761 9.2045 10.5825 9.15944C10.6147 8.91485 10.8142 8.73462 11.0653 8.73462H14.1162C14.3608 8.73462 14.5668 8.92128 14.599 9.15944C14.6054 9.19806 14.6119 9.33323 14.6183 9.48771C14.6247 9.64863 14.6312 9.83529 14.6376 9.90609C14.7213 10.3567 15.0367 10.7686 15.4808 10.9939C15.6417 11.0776 15.7447 11.2449 15.7447 11.4316C15.7383 11.9143 15.4293 12.3649 14.8372 12.7833C14.1549 13.2532 13.3696 13.4849 12.5843 13.4849ZM10.4988 11.6376C10.5696 11.7277 10.6919 11.85 10.8915 11.9916C11.902 12.6996 13.2602 12.6996 14.2643 11.9916C14.4381 11.8693 14.5797 11.747 14.6634 11.6311C14.1484 11.2514 13.7815 10.6914 13.6657 10.067C13.6592 10.022 13.6464 9.86104 13.6399 9.69368H11.5094C11.4965 9.91897 11.4901 10.0413 11.4772 10.1185C11.3614 10.7364 11.0138 11.2707 10.4988 11.6376ZM14.5475 12.3906H14.5539H14.5475Z" fill="#21365F"/>
<path d="M15.6745 6.59748C15.6745 4.54419 14.2906 3.37915 12.5785 3.37915C10.8663 3.37915 9.48242 4.54419 9.48242 6.59748C9.48242 8.65078 10.8663 10.3114 12.5785 10.3114C14.2906 10.3114 15.6745 8.65078 15.6745 6.59748Z" fill="white"/>
<path d="M15.0172 4.5249C15.0172 4.5764 15.0301 4.61502 15.0301 4.66651C15.0301 6.7198 13.6462 8.38046 11.934 8.38046C10.9428 8.38046 10.0674 7.82047 9.50098 6.95152C9.64902 8.83747 10.9685 10.3115 12.5777 10.3115C14.2899 10.3115 15.6737 8.6508 15.6737 6.59751C15.6737 5.74143 15.4227 5.05271 15.0172 4.5249Z" fill="#BDC3D8"/>
<path d="M12.5778 10.7943C10.6082 10.7943 8.99902 8.91476 8.99902 6.59757C8.99902 4.41554 10.473 2.89648 12.5778 2.89648C14.6826 2.89648 16.1566 4.41554 16.1566 6.59757C16.1566 8.90833 14.5539 10.7943 12.5778 10.7943ZM12.5778 3.86198C10.9944 3.86198 9.96452 4.93691 9.96452 6.59757C9.96452 8.38052 11.136 9.82877 12.5778 9.82877C14.0196 9.82877 15.1911 8.38052 15.1911 6.59757C15.1911 4.93691 14.1677 3.86198 12.5778 3.86198Z" fill="#21365F"/>
<path d="M43.2874 12.0301L40.996 11.425H38.3312H35.6664L33.375 12.0301C32.506 12.2618 31.8945 13.0471 31.8945 13.9482V16.259H44.7679V13.9482C44.7614 13.0407 44.1564 12.2554 43.2874 12.0301Z" fill="white"/>
<path d="M44.7617 13.9418C44.7617 13.0407 44.1566 12.2554 43.2877 12.0237L43.0109 11.9529C42.9079 13.8388 41.6914 15.036 39.7861 16.2461H44.7617V13.9418Z" fill="#BDC3D8"/>
<path d="M44.7672 16.7354H31.8939C31.63 16.7354 31.4111 16.5165 31.4111 16.2526V13.9419C31.4111 12.8219 32.1642 11.8435 33.252 11.5603L35.5435 10.9553C35.5821 10.9424 35.6271 10.9424 35.6658 10.9424H40.9953C41.0339 10.9424 41.079 10.9488 41.1176 10.9553L43.4091 11.5603C44.4904 11.8435 45.25 12.8219 45.25 13.9419V16.2526C45.25 16.5165 45.0311 16.7354 44.7672 16.7354ZM32.3702 15.7699H44.278V13.9419C44.278 13.2596 43.821 12.6674 43.158 12.4936L40.9245 11.9079H35.7237L33.4902 12.4936C32.8336 12.6674 32.3702 13.2596 32.3702 13.9419V15.7699Z" fill="#21365F"/>
<path d="M38.3249 13.2916C38.3249 13.2916 40.9704 12.5063 40.9897 11.4314C40.4297 11.1418 40.0049 10.6204 39.889 9.9896C39.8697 9.89948 39.8569 9.31375 39.8504 9.22363H36.7994C36.7866 9.32662 36.7737 9.92523 36.748 10.0347C36.6257 10.6526 36.2137 11.1546 35.6602 11.4314C35.6859 12.4999 38.3249 13.2916 38.3249 13.2916Z" fill="white"/>
<path d="M40.9959 11.4251C40.4359 11.1354 40.0111 10.614 39.8952 9.98325C39.8759 9.89314 39.8631 9.3074 39.8566 9.21729L38.3955 9.48119C38.4084 9.60992 38.4277 10.4596 38.4534 10.5947C38.6144 11.4637 39.1808 12.191 39.9339 12.6158C40.4874 12.3004 40.983 11.8885 40.9959 11.4251Z" fill="#BDC3D8"/>
<path d="M38.3314 13.7745C38.2863 13.7745 38.2413 13.7681 38.1962 13.7552C37.7006 13.6072 35.216 12.7962 35.1839 11.438C35.1774 11.2514 35.2869 11.0776 35.4542 10.9939C35.8919 10.7815 36.1944 10.3953 36.2845 9.93827C36.291 9.86747 36.3038 9.6615 36.3103 9.48771C36.3167 9.33967 36.3232 9.21093 36.3296 9.16588C36.3553 8.92128 36.5613 8.73462 36.8123 8.73462H39.8633C40.1079 8.73462 40.3139 8.91485 40.3396 9.15944C40.3461 9.2045 40.3525 9.33967 40.3589 9.50058C40.3654 9.6615 40.3718 9.84172 40.3783 9.91253C40.4619 10.3631 40.7773 10.775 41.2215 11.0003C41.3824 11.084 41.4854 11.2514 41.4854 11.438C41.466 12.8026 38.9751 13.6072 38.473 13.7552C38.4215 13.7617 38.3765 13.7745 38.3314 13.7745ZM36.2459 11.644C36.542 12.0302 37.4624 12.5065 38.3314 12.7833C39.2068 12.5001 40.1337 12.0238 40.4233 11.6376C39.9019 11.2578 39.5351 10.6914 39.4192 10.0734C39.4128 10.0284 39.3999 9.87391 39.3934 9.70012H37.2629C37.25 9.94471 37.2436 10.0477 37.2307 10.1249C37.1084 10.7364 36.7544 11.2771 36.2459 11.644Z" fill="#21365F"/>
<path d="M41.4206 6.59748C41.4206 4.54419 40.0367 3.37915 38.3245 3.37915C36.6124 3.37915 35.2285 4.54419 35.2285 6.59748C35.2285 8.65078 36.6124 10.3114 38.3245 10.3114C40.0367 10.3114 41.4206 8.65078 41.4206 6.59748Z" fill="white"/>
<path d="M39.0718 3.46289C39.31 3.91989 39.4451 4.47345 39.4451 5.11711C39.4451 7.17041 38.0612 8.83107 36.3491 8.83107C36.1689 8.83107 35.9951 8.81176 35.8213 8.77314C36.3813 9.70645 37.2953 10.3179 38.3316 10.3179C40.0437 10.3179 41.4276 8.65728 41.4276 6.60398C41.4212 4.85321 40.4171 3.75254 39.0718 3.46289Z" fill="#BDC3D8"/>
<path d="M38.3307 10.7943C36.3547 10.7943 34.752 8.91476 34.752 6.59757C34.752 4.41554 36.2259 2.89648 38.3307 2.89648C40.4355 2.89648 41.9095 4.41554 41.9095 6.59757C41.9031 8.90833 40.3004 10.7943 38.3307 10.7943ZM38.3307 3.86198C36.7409 3.86198 35.7175 4.93691 35.7175 6.59757C35.7175 8.38052 36.8889 9.82877 38.3307 9.82877C39.7725 9.82877 40.944 8.38052 40.944 6.59757C40.9376 4.93691 39.9142 3.86198 38.3307 3.86198Z" fill="#21365F"/>
<path d="M38.3314 16.7354C38.0675 16.7354 37.8486 16.5166 37.8486 16.2527V13.2918C37.8486 13.0279 38.0675 12.8091 38.3314 12.8091C38.5953 12.8091 38.8141 13.0279 38.8141 13.2918V16.2527C38.8141 16.5166 38.5953 16.7354 38.3314 16.7354Z" fill="#21365F"/>
<path d="M44.7616 16.2461H6.1416V22.6828H44.7616V16.2461Z" fill="#BDC3D8"/>
<path d="M41.5433 16.2524H6.1416V20.1144H40.2559C40.964 20.1144 41.5433 19.5351 41.5433 18.8271V16.2524Z" fill="white"/>
<path d="M44.7609 23.1719H6.14095C5.87705 23.1719 5.6582 22.9531 5.6582 22.6892V16.2525C5.6582 15.9886 5.87705 15.7698 6.14095 15.7698H44.7609C45.0248 15.7698 45.2437 15.9886 45.2437 16.2525V22.6892C45.2437 22.9531 45.0313 23.1719 44.7609 23.1719ZM6.6237 22.2064H44.2782V16.7353H6.6237V22.2064Z" fill="#21365F"/>
<path d="M46.0485 16.7353H4.85384C4.58994 16.7353 4.37109 16.5164 4.37109 16.2525C4.37109 15.9886 4.58994 15.7698 4.85384 15.7698H46.0485C46.3124 15.7698 46.5312 15.9886 46.5312 16.2525C46.5312 16.5164 46.3188 16.7353 46.0485 16.7353Z" fill="#21365F"/>
<path d="M6.14095 30.896C5.87705 30.896 5.6582 30.6772 5.6582 30.4133V22.6893C5.6582 22.4254 5.87705 22.2065 6.14095 22.2065C6.40486 22.2065 6.6237 22.4254 6.6237 22.6893V30.4133C6.6237 30.6772 6.41129 30.896 6.14095 30.896Z" fill="#21365F"/>
<path d="M44.7611 30.896C44.4972 30.896 44.2783 30.6772 44.2783 30.4133V22.6893C44.2783 22.4254 44.4972 22.2065 44.7611 22.2065C45.025 22.2065 45.2438 22.4254 45.2438 22.6893V30.4133C45.2438 30.6772 45.0314 30.896 44.7611 30.896Z" fill="#21365F"/>
<path d="M21.0094 20.5973H11.4896C11.2257 20.5973 11.0068 20.3785 11.0068 20.1146C11.0068 19.8507 11.2257 19.6318 11.4896 19.6318H21.003C21.2669 19.6318 21.4857 19.8507 21.4857 20.1146C21.4922 20.3785 21.2733 20.5973 21.0094 20.5973Z" fill="#21365F"/>
<path d="M25.0068 20.5973H23.5843C23.3204 20.5973 23.1016 20.3785 23.1016 20.1146C23.1016 19.8507 23.3204 19.6318 23.5843 19.6318H25.0068C25.2707 19.6318 25.4896 19.8507 25.4896 20.1146C25.4896 20.3785 25.2772 20.5973 25.0068 20.5973Z" fill="#21365F"/>
<path d="M32.5958 42.4819H20.5013C20.2374 42.4819 20.0186 42.263 20.0186 41.9991C20.0186 41.7352 20.2374 41.5164 20.5013 41.5164H32.5958C32.8597 41.5164 33.0785 41.7352 33.0785 41.9991C33.0785 42.263 32.8597 42.4819 32.5958 42.4819Z" fill="#21365F"/>
<path d="M36.5928 42.4819H35.1702C34.9063 42.4819 34.6875 42.263 34.6875 41.9991C34.6875 41.7352 34.9063 41.5164 35.1702 41.5164H36.5928C36.8567 41.5164 37.0755 41.7352 37.0755 41.9991C37.0755 42.263 36.8631 42.4819 36.5928 42.4819Z" fill="#21365F"/>
</svg>
