<svg width="50" height="46" viewBox="0 0 50 46" fill="none" xmlns="http://www.w3.org/2000/svg">
<g clip-path="url(#clip0)">
<path d="M37.7633 18.4211C42.8501 18.4211 46.9738 14.2974 46.9738 9.21053C46.9738 4.12369 42.8501 0 37.7633 0C32.6764 0 28.5527 4.12369 28.5527 9.21053C28.5527 14.2974 32.6764 18.4211 37.7633 18.4211Z" fill="#59DBF0"/>
<path d="M42.1057 44.8685C46.4658 44.8685 50.0004 41.3339 50.0004 36.9737C50.0004 32.6136 46.4658 29.079 42.1057 29.079C37.7455 29.079 34.2109 32.6136 34.2109 36.9737C34.2109 41.3339 37.7455 44.8685 42.1057 44.8685Z" fill="#59DBF0"/>
<path d="M15.1315 42.8158C22.3984 42.8158 28.2894 36.9248 28.2894 29.6579C28.2894 22.391 22.3984 16.5 15.1315 16.5C7.86462 16.5 1.97363 22.391 1.97363 29.6579C1.97363 36.9248 7.86462 42.8158 15.1315 42.8158Z" fill="#59DBF0"/>
<path d="M30.2367 4.17106C30.9538 5.25001 32.4472 5.51316 33.4999 4.73685C34.8091 3.76974 36.6972 4.44737 37.0722 6.01974C37.3749 7.27632 38.6841 8.02632 39.9407 7.65132C41.5065 7.18422 43.0459 8.45395 42.8551 10.0592C42.6972 11.3421 43.6775 12.4868 44.9867 12.5592C46.6183 12.6513 47.6249 14.3618 46.888 15.8092C46.2959 16.9605 46.8157 18.3684 48.0196 18.8816C49.5262 19.5197 49.8749 21.4671 48.6775 22.5724C47.7236 23.4605 47.7236 24.954 48.6775 25.8355C49.8683 26.9408 49.5196 28.8947 48.0196 29.5263C46.8157 30.0395 46.2959 31.4408 46.888 32.5987C47.6249 34.0395 46.6249 35.7566 44.9867 35.8487C43.6775 35.9211 42.7038 37.0658 42.8551 38.3487C43.0459 39.954 41.513 41.2237 39.9407 40.7566C38.6841 40.3816 37.3749 41.1316 37.0722 42.3882C36.6972 43.9605 34.8091 44.6382 33.4999 43.6711C32.4472 42.8947 30.9538 43.1579 30.2367 44.2369C29.342 45.5855 27.3288 45.5855 26.4341 44.2369C25.717 43.1579 24.2236 42.8947 23.1709 43.6711C21.8617 44.6382 19.9736 43.9605 19.5986 42.3882C19.2959 41.1316 17.9867 40.3816 16.7301 40.7566C15.1643 41.2237 13.6249 39.9474 13.8157 38.3487C13.967 37.0658 12.9933 35.9211 11.6841 35.8487C10.0525 35.7566 9.04592 34.0395 9.78277 32.5987C10.3749 31.4474 9.85513 30.0395 8.65119 29.5263C7.14461 28.8882 6.79592 26.9408 7.99329 25.8355C8.94724 24.9474 8.94724 23.454 7.99329 22.5724C6.8025 21.4671 7.15119 19.5197 8.65119 18.8816C9.85513 18.375 10.3749 16.9671 9.78277 15.8092C9.04592 14.3684 10.0459 12.6513 11.6841 12.5592C12.9933 12.4868 13.967 11.3421 13.8157 10.0592C13.6249 8.45395 15.1578 7.18422 16.7301 7.65132C17.9867 8.02632 19.2959 7.27632 19.5986 6.01974C19.9736 4.44737 21.8617 3.76974 23.1709 4.73685C24.217 5.51316 25.717 5.25001 26.4341 4.17106C27.3354 2.82237 29.342 2.82237 30.2367 4.17106Z" fill="white"/>
<path d="M19.6052 42.4012C19.9802 43.9736 21.8683 44.6512 23.1775 43.6841C24.2236 42.9078 25.7236 43.171 26.4407 44.2499C27.3354 45.5986 29.3486 45.5986 30.2433 44.2499C30.9604 43.171 32.4538 42.9078 33.5065 43.6841C34.8157 44.6512 36.7038 43.9736 37.0788 42.4012C37.3815 41.1447 38.6907 40.3947 39.9473 40.7697C41.5131 41.2368 43.0525 39.9605 42.8617 38.3618C42.7038 37.0789 43.6841 35.9341 44.9933 35.8618C46.6249 35.7697 47.6315 34.0526 46.8946 32.6118C46.3025 31.4605 46.8223 30.0526 48.0262 29.5394C49.5328 28.9012 49.8815 26.9539 48.6841 25.8486C47.7302 24.9605 47.7302 23.467 48.6841 22.5855C49.8749 21.4802 49.5262 19.5328 48.0262 18.8947C46.8223 18.3815 46.3025 16.9802 46.8946 15.8223C47.6315 14.3815 46.6315 12.6644 44.9933 12.5723C44.1315 12.5262 43.421 12.0065 43.0788 11.296C41.1183 10.717 39.0525 10.4012 36.9078 10.4012C24.9209 10.4012 15.1973 20.1184 15.1973 32.1118C15.1973 35.171 15.8354 38.0855 16.9802 40.7302C18.1446 40.4999 19.3223 41.217 19.6052 42.4012Z" fill="#BDC3D8"/>
<path d="M28.3354 45.7566C27.4012 45.7566 26.5328 45.296 26.0262 44.5197C25.7565 44.1118 25.3354 43.8421 24.8486 43.7566C24.3551 43.671 23.8683 43.7829 23.467 44.0789C22.7104 44.6381 21.7367 44.7763 20.8551 44.4539C19.9801 44.1381 19.3354 43.4079 19.1249 42.5131C19.013 42.046 18.717 41.6513 18.2959 41.4013C17.8617 41.1513 17.3617 41.0921 16.8815 41.2368C15.9736 41.5066 15.0065 41.3026 14.2894 40.6973C13.5854 40.1052 13.2301 39.2039 13.342 38.296C13.4012 37.8158 13.2565 37.3487 12.9473 36.9802C12.6249 36.5987 12.1775 36.375 11.6775 36.3487C10.7367 36.296 9.89462 35.7829 9.42751 34.9671C8.96699 34.171 8.94725 33.2039 9.36172 32.3816C9.58541 31.9539 9.61172 31.4605 9.44725 31.0066C9.28278 30.546 8.93409 30.1842 8.47357 29.9934C7.61172 29.625 6.99988 28.8618 6.83541 27.9473C6.67751 27.0395 6.98672 26.1184 7.67093 25.4868C8.03278 25.1513 8.23014 24.7039 8.23014 24.2171C8.23014 23.7302 8.03278 23.2763 7.67093 22.9473C6.98672 22.3158 6.67751 21.3947 6.83541 20.4868C6.9933 19.5723 7.60514 18.8026 8.47357 18.4408C8.93409 18.25 9.2762 17.8881 9.44725 17.4276C9.61172 16.9737 9.58541 16.4868 9.36172 16.0526C8.94067 15.2302 8.96699 14.2697 9.42751 13.4671C9.89462 12.6579 10.7367 12.1381 11.6775 12.0855C12.1775 12.0592 12.6315 11.8355 12.9473 11.4539C13.2565 11.0855 13.4012 10.6118 13.342 10.1381C13.2301 9.23024 13.5854 8.32893 14.2959 7.73682C15.013 7.13156 15.9801 6.92761 16.888 7.19735C17.3683 7.34209 17.8749 7.28287 18.3025 7.03287C18.7236 6.78945 19.0196 6.39472 19.1315 5.92761C19.342 5.03288 19.9933 4.30919 20.8617 3.98682C21.7433 3.66445 22.7236 3.80261 23.4736 4.35524C23.8749 4.6513 24.3617 4.76972 24.8551 4.67761C25.342 4.59209 25.763 4.32235 26.0328 3.91445C26.5459 3.14472 27.4078 2.67761 28.342 2.67761C29.2762 2.67761 30.138 3.13814 30.6512 3.91445C30.9209 4.32235 31.3354 4.59209 31.8288 4.67761C32.3223 4.76314 32.8091 4.6513 33.2104 4.35524C33.967 3.80261 34.9407 3.65788 35.8223 3.98024C36.6973 4.30261 37.342 5.0263 37.5525 5.92103C37.6644 6.38814 37.9604 6.78288 38.3815 7.0263C38.8157 7.2763 39.3157 7.33551 39.7959 7.19077C40.7038 6.92103 41.6709 7.12498 42.388 7.73024C43.092 8.32235 43.4473 9.22366 43.3354 10.1316C43.2762 10.6118 43.4209 11.0789 43.7301 11.4473C44.0525 11.8289 44.4999 12.0526 44.9999 12.0789C45.9407 12.1316 46.7828 12.6513 47.2499 13.4605C47.7104 14.2566 47.7302 15.2237 47.3091 16.046C47.0854 16.4802 47.0591 16.9671 47.2236 17.421C47.3946 17.8816 47.7367 18.2434 48.1973 18.4342C49.0591 18.8026 49.6709 19.5658 49.8354 20.4802C49.9933 21.3881 49.6841 22.3092 48.9999 22.9408C48.638 23.2763 48.4407 23.7237 48.4407 24.2105C48.4407 24.6973 48.638 25.1513 48.9999 25.4802C49.6841 26.1118 49.9933 27.0329 49.8354 27.9408C49.6775 28.8552 49.0657 29.6184 48.1973 29.9868C47.7367 30.1776 47.3946 30.5395 47.2236 31.0066C47.0591 31.4605 47.0854 31.9473 47.3091 32.3816C47.7302 33.2039 47.7038 34.1645 47.2499 34.9671C46.7828 35.7763 45.9407 36.296 44.9999 36.3487C44.4999 36.375 44.0459 36.5987 43.7301 36.9802C43.4209 37.3487 43.2762 37.8223 43.3354 38.296C43.4473 39.2039 43.092 40.1052 42.3815 40.6973C41.6644 41.3026 40.6973 41.5066 39.7894 41.2368C39.3091 41.0921 38.8025 41.1513 38.3749 41.4013C37.9538 41.6447 37.6578 42.0395 37.5459 42.5131C37.3354 43.4079 36.6841 44.1316 35.8157 44.4539C34.9341 44.7763 33.9538 44.6381 33.2038 44.0789C32.8025 43.7829 32.3157 43.671 31.8223 43.7566C31.3354 43.8421 30.9144 44.1118 30.6446 44.5197C30.138 45.296 29.2696 45.7566 28.3354 45.7566ZM24.5394 42.7434C24.7038 42.7434 24.8617 42.7566 25.0196 42.7829C25.7762 42.9145 26.4275 43.3421 26.8486 43.9737C27.1841 44.4802 27.7236 44.7697 28.3354 44.7697C28.9473 44.7697 29.4933 44.4802 29.8223 43.9737C30.2433 43.3421 30.8946 42.9145 31.6512 42.7829C32.3946 42.6513 33.1775 42.8355 33.7894 43.2829C34.2762 43.6381 34.9078 43.7302 35.4801 43.5263C36.0459 43.3158 36.4538 42.8684 36.592 42.2895C36.7696 41.5526 37.2301 40.9342 37.888 40.5526C38.5459 40.171 39.3486 40.0789 40.0788 40.296C40.6644 40.4671 41.2894 40.3421 41.7499 39.9473C42.2038 39.5592 42.4275 39 42.3551 38.4145C42.263 37.6645 42.4801 36.9276 42.9736 36.3487C43.4604 35.7631 44.1841 35.4079 44.9473 35.3618C45.5525 35.3289 46.0986 35 46.3946 34.4737C46.6907 33.9605 46.7038 33.3618 46.4341 32.8289C46.0854 32.1513 46.0394 31.3816 46.3025 30.671C46.5591 29.9605 47.1117 29.3816 47.8157 29.0855C48.3815 28.8487 48.763 28.3684 48.8617 27.7763C48.967 27.1908 48.7696 26.6184 48.3288 26.2105C47.7762 25.6973 47.4538 24.9671 47.4538 24.2171C47.4538 23.4671 47.7696 22.7368 48.3288 22.2237C48.7696 21.8158 48.967 21.2434 48.8617 20.6579C48.7565 20.0658 48.3749 19.5855 47.8157 19.3487C47.1117 19.0526 46.5591 18.4737 46.3025 17.7566C46.0394 17.0395 46.092 16.2763 46.4341 15.5987C46.7038 15.0723 46.6907 14.4737 46.3946 13.9539C46.092 13.4342 45.5525 13.1052 44.9473 13.0658C44.1841 13.0263 43.4604 12.6645 42.9736 12.0789C42.4867 11.4934 42.263 10.7631 42.3551 10.0066C42.4275 9.42103 42.2038 8.86182 41.7499 8.47366C41.2828 8.08551 40.6578 7.95393 40.0788 8.12498C39.342 8.34209 38.5459 8.24998 37.888 7.8684C37.2301 7.48682 36.7696 6.8684 36.592 6.13814C36.4538 5.55919 36.0459 5.10524 35.4801 4.9013C34.9078 4.69077 34.2762 4.78288 33.7894 5.13814C33.1775 5.59209 32.4012 5.76972 31.6512 5.63814C30.8946 5.50656 30.2499 5.07893 29.8288 4.44735C29.4933 3.94077 28.9538 3.65788 28.342 3.65788C27.7301 3.65788 27.1841 3.94735 26.8551 4.44735C26.4341 5.07893 25.7828 5.50656 25.0262 5.63814C24.2762 5.76972 23.4999 5.58551 22.888 5.13814C22.4012 4.78288 21.7696 4.69077 21.1973 4.9013C20.6315 5.11182 20.2236 5.55919 20.0854 6.13814C19.9078 6.87498 19.4472 7.4934 18.7894 7.87498C18.1315 8.25656 17.3288 8.34866 16.5986 8.13156C16.013 7.96051 15.388 8.08551 14.9275 8.48024C14.4736 8.8684 14.2499 9.42103 14.3223 10.0131C14.4144 10.7631 14.1907 11.5 13.7038 12.0855C13.217 12.671 12.4933 13.0263 11.7301 13.0723C11.1249 13.1052 10.5788 13.4342 10.2828 13.9605C9.98672 14.4737 9.97357 15.0789 10.2433 15.6052C10.592 16.2829 10.638 17.0526 10.3749 17.7631C10.1183 18.4737 9.56567 19.0526 8.86172 19.3487C8.30909 19.5855 7.91436 20.0723 7.81567 20.6579C7.71041 21.2434 7.90778 21.8158 8.34857 22.2237C8.89462 22.7302 9.21041 23.4605 9.21041 24.2105C9.21041 24.9605 8.89462 25.6908 8.33541 26.2039C7.89462 26.6118 7.69725 27.1842 7.80251 27.7697C7.90778 28.3552 8.29593 28.8421 8.84857 29.0789C9.55251 29.375 10.1051 29.9539 10.3617 30.6645C10.6249 31.3816 10.5723 32.1447 10.2301 32.8223C9.96041 33.3487 9.97357 33.9473 10.2696 34.4671C10.5722 34.9868 11.1117 35.3158 11.717 35.3552C12.4801 35.3947 13.2038 35.7566 13.6907 36.3421C14.1775 36.921 14.4012 37.6579 14.3091 38.4079C14.2367 38.9934 14.4604 39.5526 14.9144 39.9408C15.3749 40.3289 16.0065 40.4605 16.5854 40.2895C17.3157 40.0723 18.1183 40.1645 18.7762 40.546C19.4341 40.9276 19.8946 41.546 20.0723 42.2829C20.2104 42.8618 20.6183 43.3158 21.1841 43.5197C21.7565 43.7302 22.388 43.6381 22.8749 43.2763C23.3617 42.9342 23.9473 42.7434 24.5394 42.7434Z" fill="#21365F"/>
<path d="M28.3351 40.6579C37.4187 40.6579 44.7824 33.2942 44.7824 24.2106C44.7824 15.1269 37.4187 7.76318 28.3351 7.76318C19.2514 7.76318 11.8877 15.1269 11.8877 24.2106C11.8877 33.2942 19.2514 40.6579 28.3351 40.6579Z" fill="white"/>
<path d="M44.7826 24.2105C44.7826 20.9671 43.8418 17.9408 42.2168 15.3947C40.0194 14.3026 37.5392 13.6842 34.9142 13.6842C25.8286 13.6842 18.4668 21.046 18.4668 30.1316C18.4668 33.375 19.4076 36.4013 21.0326 38.9474C23.23 40.0395 25.7102 40.6579 28.3352 40.6579C37.4207 40.6579 44.7826 33.296 44.7826 24.2105Z" fill="#BDC3D8"/>
<path d="M28.3353 41.1514C18.9932 41.1514 11.3945 33.5527 11.3945 24.2106C11.3945 14.8685 18.9932 7.26978 28.3353 7.26978C37.6774 7.26978 45.2761 14.8685 45.2761 24.2106C45.2761 33.5527 37.6774 41.1514 28.3353 41.1514ZM28.3353 8.25662C19.5393 8.25662 12.3814 15.4145 12.3814 24.2106C12.3814 33.0066 19.5393 40.1645 28.3353 40.1645C37.1314 40.1645 44.2893 33.0066 44.2893 24.2106C44.2893 15.4145 37.1314 8.25662 28.3353 8.25662Z" fill="#21365F"/>
<path d="M23.9606 22.2434L19.5725 16.9736L15.1777 22.2434H23.9606Z" fill="white"/>
<path d="M23.9604 22.2434L19.5723 16.9736L20.4407 22.2434H23.9604Z" fill="#BDC3D8"/>
<path d="M23.96 22.7368H15.1771C14.9863 22.7368 14.8086 22.625 14.7297 22.4539C14.6508 22.2829 14.6771 22.0723 14.7955 21.9276L19.1836 16.6579C19.2758 16.546 19.4139 16.4802 19.5652 16.4802C19.71 16.4802 19.8481 16.546 19.9468 16.6579L24.3415 21.9276C24.4665 22.0723 24.4929 22.2829 24.4073 22.4539C24.3284 22.625 24.1508 22.7368 23.96 22.7368ZM16.2297 21.75H22.9008L19.5652 17.75L16.2297 21.75Z" fill="#21365F"/>
<path d="M32.7165 22.2434L28.3218 16.9736L23.9336 22.2434H32.7165Z" fill="white"/>
<path d="M32.717 22.2434L28.3223 16.9736L29.1973 22.2434H32.717Z" fill="#BDC3D8"/>
<path d="M32.7168 22.7368H23.9339C23.7431 22.7368 23.5655 22.625 23.4865 22.4539C23.4076 22.2829 23.4339 22.0723 23.5523 21.9276L27.9405 16.6579C28.0326 16.546 28.1707 16.4802 28.3221 16.4802C28.4668 16.4802 28.605 16.546 28.7036 16.6579L33.0918 21.9276C33.2168 22.0723 33.2431 22.2829 33.1576 22.4539C33.0786 22.625 32.9076 22.7368 32.7168 22.7368ZM24.9865 21.75H31.6576L28.3221 17.75L24.9865 21.75Z" fill="#21365F"/>
<path d="M41.4931 22.2434L37.105 16.9736L32.7168 22.2434H41.4931Z" fill="white"/>
<path d="M41.4936 22.2434L37.1055 16.9736L37.9805 22.2434H41.4936Z" fill="#BDC3D8"/>
<path d="M41.4934 22.7368H32.7171C32.5263 22.7368 32.3487 22.625 32.2697 22.4539C32.1908 22.2829 32.2171 22.0723 32.3355 21.9276L36.7237 16.6579C36.8158 16.546 36.9539 16.4802 37.1053 16.4802C37.25 16.4802 37.3882 16.546 37.4868 16.6579L41.875 21.9276C42 22.0723 42.0263 22.2829 41.9408 22.4539C41.8618 22.625 41.6842 22.7368 41.4934 22.7368ZM33.7697 21.75H40.4408L37.1053 17.75L33.7697 21.75Z" fill="#21365F"/>
<path d="M28.3223 16.9736L32.717 22.2434L37.1052 16.9736H28.3223Z" fill="white"/>
<path d="M33.5852 16.9736L32.7168 22.2434L37.105 16.9736H33.5852Z" fill="#BDC3D8"/>
<path d="M32.7174 22.7368C32.5726 22.7368 32.4345 22.671 32.3358 22.5592L27.9476 17.2894C27.8226 17.1447 27.7963 16.9342 27.8818 16.7631C27.9608 16.5921 28.1384 16.4802 28.3292 16.4802H37.1055C37.2963 16.4802 37.474 16.5921 37.5529 16.7631C37.6318 16.9342 37.6055 17.1381 37.4871 17.2894L33.099 22.5592C33.0003 22.671 32.8621 22.7368 32.7174 22.7368ZM29.3818 17.4671L32.7174 21.4671L36.0529 17.4671H29.3818Z" fill="#21365F"/>
<path d="M19.5459 16.9736L23.9341 22.2434L28.3222 16.9736H19.5459Z" fill="white"/>
<path d="M24.8086 16.9736L23.9336 22.2434L28.3217 16.9736H24.8086Z" fill="#BDC3D8"/>
<path d="M23.9342 22.7368C23.7894 22.7368 23.6513 22.671 23.5526 22.5592L19.1644 17.2894C19.0394 17.1447 19.0131 16.9342 19.0986 16.7631C19.1776 16.5921 19.3552 16.4802 19.546 16.4802H28.3289C28.5197 16.4802 28.6973 16.5921 28.7763 16.7631C28.8552 16.9342 28.8289 17.1381 28.7105 17.2894L24.3223 22.5592C24.2171 22.671 24.0789 22.7368 23.9342 22.7368ZM20.5986 17.4671L23.9342 21.4671L27.2697 17.4671H20.5986Z" fill="#21365F"/>
<path d="M15.1777 22.2434H23.9343L28.3356 38.0263L15.1777 22.2434Z" fill="white"/>
<path d="M20.4404 22.2434H23.9339L28.3352 38.0263L20.4404 22.2434Z" fill="#BDC3D8"/>
<path d="M28.3357 38.5197C28.191 38.5197 28.0528 38.4605 27.9542 38.3421L14.7963 22.5592C14.6713 22.4145 14.645 22.2039 14.7305 22.0329C14.8094 21.8618 14.9871 21.75 15.1778 21.75H23.9344C24.1581 21.75 24.3489 21.8947 24.4081 22.1118L28.816 37.8947C28.8752 38.1184 28.7765 38.3553 28.5726 38.4671C28.4936 38.5066 28.4147 38.5197 28.3357 38.5197ZM16.2305 22.7368L27.2436 35.9474L23.5594 22.7368H16.2305Z" fill="#21365F"/>
<path d="M41.4929 22.2434H32.7165L28.335 38.0263L41.4929 22.2434Z" fill="white"/>
<path d="M41.4929 22.2434H37.9797L28.335 38.0263L41.4929 22.2434Z" fill="#BDC3D8"/>
<path d="M28.3355 38.5197C28.2566 38.5197 28.1776 38.5 28.1053 38.4605C27.9013 38.3553 27.796 38.1184 27.8553 37.8882L32.2368 22.1118C32.2961 21.9013 32.4934 21.75 32.7105 21.75H41.4934C41.6842 21.75 41.8618 21.8618 41.9408 22.0329C42.0197 22.2039 41.9934 22.4079 41.875 22.5592L28.7171 38.3421C28.6184 38.4605 28.4803 38.5197 28.3355 38.5197ZM33.0921 22.7368L29.4276 35.9539L40.4474 22.7368H33.0921Z" fill="#21365F"/>
<path d="M34.6708 35.25H33.763C33.4932 35.25 33.2695 35.0263 33.2695 34.7566C33.2695 34.4869 33.4932 34.2632 33.763 34.2632H34.6708C34.9406 34.2632 35.1643 34.4869 35.1643 34.7566C35.1643 35.0263 34.9472 35.25 34.6708 35.25Z" fill="#21365F"/>
<path d="M37.7109 35.25H36.803C36.5333 35.25 36.3096 35.0263 36.3096 34.7566C36.3096 34.4869 36.5333 34.2632 36.803 34.2632H37.7109C37.9806 34.2632 38.2043 34.4869 38.2043 34.7566C38.2043 35.0263 37.9806 35.25 37.7109 35.25Z" fill="#21365F"/>
<path d="M35.7366 37.2237C35.4668 37.2237 35.2432 37 35.2432 36.7303V35.8224C35.2432 35.5527 35.4668 35.329 35.7366 35.329C36.0063 35.329 36.23 35.5527 36.23 35.8224V36.7303C36.23 37 36.0063 37.2237 35.7366 37.2237Z" fill="#21365F"/>
<path d="M35.7366 34.1842C35.4668 34.1842 35.2432 33.9605 35.2432 33.6907V32.7828C35.2432 32.5131 35.4668 32.2894 35.7366 32.2894C36.0063 32.2894 36.23 32.5131 36.23 32.7828V33.6907C36.23 33.9671 36.0063 34.1842 35.7366 34.1842Z" fill="#21365F"/>
<path d="M21.5654 13.8552H20.6575C20.3877 13.8552 20.1641 13.6316 20.1641 13.3618C20.1641 13.0921 20.3877 12.8684 20.6575 12.8684H21.5654C21.8351 12.8684 22.0588 13.0921 22.0588 13.3618C22.0588 13.6316 21.8417 13.8552 21.5654 13.8552Z" fill="#21365F"/>
<path d="M24.6054 13.8552H23.6975C23.4278 13.8552 23.2041 13.6316 23.2041 13.3618C23.2041 13.0921 23.4278 12.8684 23.6975 12.8684H24.6054C24.8752 12.8684 25.0988 13.0921 25.0988 13.3618C25.0988 13.6316 24.8752 13.8552 24.6054 13.8552Z" fill="#21365F"/>
<path d="M22.6311 15.8289C22.3614 15.8289 22.1377 15.6053 22.1377 15.3355V14.4276C22.1377 14.1579 22.3614 13.9342 22.6311 13.9342C22.9009 13.9342 23.1245 14.1579 23.1245 14.4276V15.3355C23.1245 15.6053 22.9009 15.8289 22.6311 15.8289Z" fill="#21365F"/>
<path d="M22.6311 12.7895C22.3614 12.7895 22.1377 12.5658 22.1377 12.2961V11.3882C22.1377 11.1185 22.3614 10.8948 22.6311 10.8948C22.9009 10.8948 23.1245 11.1185 23.1245 11.3882V12.2961C23.1245 12.5724 22.9009 12.7895 22.6311 12.7895Z" fill="#21365F"/>
<path d="M28.8027 11.8816H27.8948C27.6251 11.8816 27.4014 11.6579 27.4014 11.3882C27.4014 11.1185 27.6251 10.8948 27.8948 10.8948H28.8027C29.0724 10.8948 29.2961 11.1185 29.2961 11.3882C29.2961 11.6579 29.079 11.8816 28.8027 11.8816Z" fill="#21365F"/>
<path d="M31.8417 11.8816H30.9339C30.6641 11.8816 30.4404 11.6579 30.4404 11.3882C30.4404 11.1185 30.6641 10.8948 30.9339 10.8948H31.8417C32.1115 10.8948 32.3352 11.1185 32.3352 11.3882C32.3352 11.6579 32.1115 11.8816 31.8417 11.8816Z" fill="#21365F"/>
<path d="M29.8684 13.8553C29.5987 13.8553 29.375 13.6316 29.375 13.3619V12.454C29.375 12.1843 29.5987 11.9606 29.8684 11.9606C30.1382 11.9606 30.3618 12.1843 30.3618 12.454V13.3619C30.3618 13.6316 30.1382 13.8553 29.8684 13.8553Z" fill="#21365F"/>
<path d="M29.8684 10.8158C29.5987 10.8158 29.375 10.5921 29.375 10.3223V9.41444C29.375 9.1447 29.5987 8.92102 29.8684 8.92102C30.1382 8.92102 30.3618 9.1447 30.3618 9.41444V10.3223C30.3618 10.5987 30.1382 10.8158 29.8684 10.8158Z" fill="#21365F"/>
<path d="M15.8554 30.1316H14.9475C14.6778 30.1316 14.4541 29.9079 14.4541 29.6382C14.4541 29.3685 14.6778 29.1448 14.9475 29.1448H15.8554C16.1252 29.1448 16.3488 29.3685 16.3488 29.6382C16.3488 29.9079 16.1252 30.1316 15.8554 30.1316Z" fill="#21365F"/>
<path d="M18.8876 30.1316H17.9797C17.71 30.1316 17.4863 29.9079 17.4863 29.6382C17.4863 29.3685 17.71 29.1448 17.9797 29.1448H18.8876C19.1574 29.1448 19.3811 29.3685 19.3811 29.6382C19.3811 29.9079 19.164 30.1316 18.8876 30.1316Z" fill="#21365F"/>
<path d="M16.9143 32.1053C16.6446 32.1053 16.4209 31.8816 16.4209 31.6119V30.704C16.4209 30.4343 16.6446 30.2106 16.9143 30.2106C17.1841 30.2106 17.4077 30.4343 17.4077 30.704V31.6119C17.4077 31.8816 17.1906 32.1053 16.9143 32.1053Z" fill="#21365F"/>
<path d="M16.9143 29.0658C16.6446 29.0658 16.4209 28.8421 16.4209 28.5723V27.6644C16.4209 27.3947 16.6446 27.171 16.9143 27.171C17.1841 27.171 17.4077 27.3947 17.4077 27.6644V28.5723C17.4077 28.8487 17.1906 29.0658 16.9143 29.0658Z" fill="#21365F"/>
<path d="M28.3349 38.0263L23.9336 22.2434H32.7165L28.3349 38.0263Z" fill="white"/>
<path d="M28.335 38.0263L29.1968 22.2434H32.7165L28.335 38.0263Z" fill="#BDC3D8"/>
<path d="M28.3359 38.5197C28.1123 38.5197 27.9215 38.375 27.8623 38.1579L23.4609 22.375C23.4215 22.2237 23.4478 22.0658 23.5465 21.9474C23.6386 21.8224 23.7833 21.75 23.9412 21.75H32.7241C32.8754 21.75 33.0267 21.8224 33.1188 21.9408C33.2109 22.0658 33.2438 22.2237 33.2044 22.3684L28.8162 38.1579C28.757 38.375 28.5596 38.5197 28.3359 38.5197ZM24.5859 22.7368L28.3359 36.1842L32.0662 22.7303H24.5859V22.7368Z" fill="#21365F"/>
</g>
<defs>
<clipPath id="clip0">
<rect width="50" height="45.7566" fill="white"/>
</clipPath>
</defs>
</svg>
