<svg width="80" height="83" viewBox="0 0 80 83" fill="none" xmlns="http://www.w3.org/2000/svg">
<g clip-path="url(#clip0)">
<path d="M65.7103 49.7372C73.602 49.7372 79.9996 43.3396 79.9996 35.4478C79.9996 27.556 73.602 21.1584 65.7103 21.1584C57.8185 21.1584 51.4209 27.556 51.4209 35.4478C51.4209 43.3396 57.8185 49.7372 65.7103 49.7372Z" fill="url(#paint0_linear)"/>
<path d="M35.1113 82.2761C41.8757 82.2761 47.3593 76.7924 47.3593 70.0281C47.3593 63.2637 41.8757 57.78 35.1113 57.78C28.3469 57.78 22.8633 63.2637 22.8633 70.0281C22.8633 76.7924 28.3469 82.2761 35.1113 82.2761Z" fill="url(#paint1_linear)"/>
<path d="M20.4134 40.8267C31.6874 40.8267 40.8267 31.6874 40.8267 20.4134C40.8267 9.13938 31.6874 0 20.4134 0C9.13938 0 0 9.13938 0 20.4134C0 31.6874 9.13938 40.8267 20.4134 40.8267Z" fill="url(#paint2_linear)"/>
<path d="M54.9729 10.0638H11.0841C10.5228 10.0638 10.0635 10.5231 10.0635 11.0845V68.2419C10.0635 68.8033 10.5228 69.2626 11.0841 69.2626H54.9729C55.5343 69.2626 55.9936 68.8033 55.9936 68.2419V11.0845C55.9936 10.5129 55.5343 10.0638 54.9729 10.0638Z" fill="white"/>
<path d="M49.8588 10.0638H11.0734C10.512 10.0638 10.0527 10.5231 10.0527 11.0845V65.1799H49.8588V10.0638Z" fill="white"/>
<path d="M54.9728 70.0281H11.084C10.1042 70.0281 9.29785 69.2218 9.29785 68.2419V11.0845C9.29785 10.1047 10.1042 9.29834 11.084 9.29834H54.9728C55.9526 9.29834 56.7589 10.1047 56.7589 11.0845V68.2419C56.7589 69.2218 55.9526 70.0281 54.9728 70.0281ZM11.084 10.8293C10.9411 10.8293 10.8289 10.9416 10.8289 11.0845V68.2419C10.8289 68.3848 10.9411 68.4971 11.084 68.4971H54.9728C55.1157 68.4971 55.2279 68.3848 55.2279 68.2419V11.0845C55.2279 10.9416 55.1157 10.8293 54.9728 10.8293H11.084Z" fill="#303030"/>
<path d="M61.0969 16.1879H24.3528C21.1684 19.3724 19.372 21.1687 16.1875 24.3532V74.366C16.1875 74.9273 16.6468 75.3866 17.2082 75.3866H61.0969C61.6583 75.3866 62.1176 74.9273 62.1176 74.366V17.2085C62.1176 16.6472 61.6583 16.1879 61.0969 16.1879Z" fill="white"/>
<path d="M55.9936 16.1879H24.3528C21.1684 19.3724 19.372 21.1687 16.1875 24.3532V71.304H54.9729C55.5343 71.304 55.9936 70.8447 55.9936 70.2833V16.1879Z" fill="white"/>
<path d="M61.0968 76.1521H17.208C16.2282 76.1521 15.4219 75.3458 15.4219 74.366V24.3532C15.4219 24.1491 15.5035 23.9552 15.6464 23.8123L23.8118 15.6469C23.9547 15.504 24.1486 15.4224 24.3527 15.4224H61.0968C62.0766 15.4224 62.883 16.2287 62.883 17.2085V74.366C62.883 75.3458 62.0766 76.1521 61.0968 76.1521ZM16.9529 24.6696V74.366C16.9529 74.5089 17.0652 74.6211 17.208 74.6211H61.0968C61.2397 74.6211 61.352 74.5089 61.352 74.366V17.2085C61.352 17.0656 61.2397 16.9534 61.0968 16.9534H24.6691L16.9529 24.6696Z" fill="#303030"/>
<path d="M16.1875 24.3532H24.3529V16.1879L16.1875 24.3532Z" fill="white"/>
<path d="M24.3532 25.1187H16.1878C15.8816 25.1187 15.5958 24.935 15.4836 24.6492C15.3611 24.3634 15.4325 24.0368 15.6469 23.8122L23.8122 15.6469C24.0266 15.4325 24.3634 15.3611 24.6492 15.4836C24.935 15.606 25.1187 15.8816 25.1187 16.1878V24.3532C25.1187 24.7716 24.7716 25.1187 24.3532 25.1187ZM18.0352 23.5877H23.5877V18.0352L18.0352 23.5877Z" fill="#303030"/>
<path d="M75.3863 51.6561H71.3036C70.8851 51.6561 70.5381 51.3091 70.5381 50.8906C70.5381 50.4721 70.8851 50.1251 71.3036 50.1251H75.3863C75.8047 50.1251 76.1518 50.4721 76.1518 50.8906C76.1518 51.3091 75.8047 51.6561 75.3863 51.6561Z" fill="#303030"/>
<path d="M73.3446 53.6974C72.9261 53.6974 72.5791 53.3504 72.5791 52.9319V48.8492C72.5791 48.4308 72.9261 48.0837 73.3446 48.0837C73.7631 48.0837 74.1101 48.4308 74.1101 48.8492V52.9319C74.1101 53.3504 73.7631 53.6974 73.3446 53.6974Z" fill="#303030"/>
<path d="M73.3446 45.5321C73.7674 45.5321 74.1101 45.1894 74.1101 44.7666C74.1101 44.3438 73.7674 44.0011 73.3446 44.0011C72.9218 44.0011 72.5791 44.3438 72.5791 44.7666C72.5791 45.1894 72.9218 45.5321 73.3446 45.5321Z" fill="#303030"/>
<path d="M73.3446 42.4701C73.7674 42.4701 74.1101 42.1274 74.1101 41.7046C74.1101 41.2818 73.7674 40.9391 73.3446 40.9391C72.9218 40.9391 72.5791 41.2818 72.5791 41.7046C72.5791 42.1274 72.9218 42.4701 73.3446 42.4701Z" fill="#303030"/>
<path d="M73.3446 37.3667C73.7674 37.3667 74.1101 37.024 74.1101 36.6012C74.1101 36.1784 73.7674 35.8357 73.3446 35.8357C72.9218 35.8357 72.5791 36.1784 72.5791 36.6012C72.5791 37.024 72.9218 37.3667 73.3446 37.3667Z" fill="#303030"/>
<path d="M73.3446 31.2427C73.7674 31.2427 74.1101 30.8999 74.1101 30.4772C74.1101 30.0544 73.7674 29.7117 73.3446 29.7117C72.9218 29.7117 72.5791 30.0544 72.5791 30.4772C72.5791 30.8999 72.9218 31.2427 73.3446 31.2427Z" fill="#303030"/>
<path d="M60.8782 56.2897L56.2881 60.8798L61.0081 65.5998L65.5982 61.0097L60.8782 56.2897Z" fill="white"/>
<path d="M61.8925 61.9138L59.6062 64.2001L56.2891 60.8829L59.3 57.8719L61.9027 60.4747C62.2906 60.8625 62.2906 61.5157 61.8925 61.9138Z" fill="white"/>
<path d="M61.0048 66.3639C60.8109 66.3639 60.617 66.2925 60.4639 66.1394L55.7484 61.4239C55.4524 61.1279 55.4524 60.638 55.7484 60.342L60.3414 55.749C60.6374 55.453 61.1273 55.453 61.4233 55.749L66.1388 60.4645C66.4348 60.7605 66.4348 61.2504 66.1388 61.5464L61.5458 66.1394C61.4029 66.2925 61.1987 66.3639 61.0048 66.3639ZM57.3712 60.8829L61.0048 64.5165L64.5159 61.0054L60.8823 57.3718L57.3712 60.8829Z" fill="#303030"/>
<path d="M66.6843 59.9186L59.9219 66.681L66.475 73.2342L73.2375 66.4717L66.6843 59.9186Z" fill="white"/>
<path d="M73.2428 66.4762L66.6901 59.9235L65.1591 61.4545L68.0884 64.3838C68.8846 65.1799 68.8846 66.4762 68.0884 67.2723L64.3018 71.059L66.486 73.2432L73.2428 66.4762Z" fill="white"/>
<path d="M66.4758 74.0087C66.2717 74.0087 66.0777 73.927 65.9348 73.7842L59.3822 67.2315C59.0862 66.9355 59.0862 66.4455 59.3822 66.1495L66.1492 59.3825C66.4452 59.0865 66.9351 59.0865 67.2311 59.3825L73.7838 65.9352C73.9267 66.0781 74.0083 66.272 74.0083 66.4762C74.0083 66.6803 73.9267 66.8742 73.7838 67.0171L67.0168 73.7842C66.8739 73.927 66.6799 74.0087 66.4758 74.0087ZM61.005 66.6905L66.4758 72.1613L72.1609 66.4762L66.6901 61.0054L61.005 66.6905Z" fill="#303030"/>
<path d="M74.4475 72.1919L72.1918 74.4476C70.9466 75.6928 68.9256 75.6928 67.6804 74.4476L66.4658 73.233L73.2329 66.4659L74.4475 67.6703C75.6927 68.9258 75.6927 70.9467 74.4475 72.1919Z" fill="white"/>
<path d="M74.4472 67.6805L73.2326 66.4659L71.7016 67.9969L72.1405 68.4358C72.9673 69.2626 72.9673 70.5996 72.1405 71.4264L68.5273 75.0395C69.7215 75.6213 71.1913 75.4376 72.1813 74.4476L74.437 72.1919C75.6924 70.9467 75.6924 68.9257 74.4472 67.6805Z" fill="white"/>
<path d="M69.9359 76.1522C68.9254 76.1522 67.915 75.7643 67.1393 74.9988L65.9349 73.7842C65.6389 73.4882 65.6389 72.9983 65.9349 72.7023L72.7019 65.9353C72.9877 65.6495 73.498 65.6495 73.7838 65.9353L74.9984 67.1499C76.5396 68.6911 76.5396 71.2019 74.9984 72.7431L72.7427 74.9988C71.967 75.7643 70.9464 76.1522 69.9359 76.1522ZM67.5578 73.2433L68.2212 73.9169C69.1704 74.8661 70.7014 74.8661 71.6506 73.9169L73.9063 71.6612C74.8453 70.712 74.8453 69.181 73.9063 68.2318L73.2327 67.5582L67.5578 73.2433Z" fill="#303030"/>
<path d="M45.0823 24.3531C56.5342 24.3531 65.8121 33.631 65.8121 45.0829C65.8121 56.5348 56.5342 65.8127 45.0823 65.8127C33.6304 65.8127 24.3525 56.5348 24.3525 45.0829C24.3525 33.631 33.6304 24.3531 45.0823 24.3531Z" fill="white"/>
<path d="M58.1269 28.9768C61.0154 32.5389 62.7505 37.0809 62.7505 42.021C62.7505 53.4729 53.4726 62.7507 42.0207 62.7507C37.0705 62.7507 32.5387 61.0156 28.9766 58.1271C32.7735 62.812 38.5811 65.8127 45.0827 65.8127C56.5346 65.8127 65.8125 56.5349 65.8125 45.083C65.8125 38.5813 62.8117 32.7737 58.1269 28.9768Z" fill="white"/>
<path d="M45.0822 66.5782C33.2322 66.5782 23.5869 56.9329 23.5869 45.0829C23.5869 33.233 33.2322 23.5876 45.0822 23.5876C56.9322 23.5876 66.5775 33.233 66.5775 45.0829C66.5775 56.9329 56.9424 66.5782 45.0822 66.5782ZM45.0822 25.1186C34.0692 25.1186 25.1179 34.0801 25.1179 45.0829C25.1179 56.0857 34.0794 65.0472 45.0822 65.0472C56.085 65.0472 65.0465 56.0857 65.0465 45.0829C65.0465 34.0801 56.0952 25.1186 45.0822 25.1186Z" fill="#303030"/>
<path d="M45.0823 59.3723C52.9741 59.3723 59.3717 52.9747 59.3717 45.0829C59.3717 37.1911 52.9741 30.7936 45.0823 30.7936C37.1905 30.7936 30.793 37.1911 30.793 45.0829C30.793 52.9747 37.1905 59.3723 45.0823 59.3723Z" fill="white"/>
<path d="M53.462 33.5291C55.1767 35.8868 56.1974 38.7753 56.1974 41.9087C56.1974 49.7985 49.7978 56.1981 41.908 56.1981C38.7746 56.1981 35.8861 55.1774 33.5283 53.4627C36.1208 57.0351 40.326 59.3724 45.0823 59.3724C52.9721 59.3724 59.3716 52.9728 59.3716 45.083C59.3716 40.3267 57.0343 36.1216 53.462 33.5291Z" fill="white"/>
<path d="M45.0822 60.1378C36.7842 60.1378 30.0273 53.381 30.0273 45.0829C30.0273 36.7849 36.7842 30.0281 45.0822 30.0281C53.3802 30.0281 60.1371 36.7849 60.1371 45.0829C60.1371 53.381 53.3802 60.1378 45.0822 60.1378ZM45.0822 31.5591C37.6211 31.5591 31.5583 37.6218 31.5583 45.0829C31.5583 52.544 37.6211 58.6068 45.0822 58.6068C52.5433 58.6068 58.6061 52.544 58.6061 45.0829C58.6061 37.6218 52.5433 31.5591 45.0822 31.5591Z" fill="#303030"/>
<path d="M45.0821 49.8494C44.6637 49.8494 44.3166 49.5024 44.3166 49.0839C44.3166 46.4506 45.8068 45.3687 47.001 44.4909C48.0625 43.7152 48.9096 43.1028 48.9096 41.531C48.9096 39.4182 47.1949 37.7035 45.0821 37.7035C42.9694 37.7035 41.2546 39.4182 41.2546 41.531C41.2546 41.9495 40.9076 42.2965 40.4891 42.2965C40.0707 42.2965 39.7236 41.9495 39.7236 41.531C39.7236 38.5813 42.1324 36.1725 45.0821 36.1725C48.0319 36.1725 50.4407 38.5813 50.4407 41.531C50.4407 43.8887 49.0934 44.8686 47.9094 45.7362C46.756 46.5731 45.8476 47.2365 45.8476 49.0839C45.8476 49.5126 45.5006 49.8494 45.0821 49.8494Z" fill="#303030"/>
<path d="M45.0822 53.9118C44.8168 53.9118 44.5514 53.8097 44.3575 53.6158C44.1738 53.4218 44.0615 53.1565 44.0615 52.9013C44.0615 52.6257 44.1738 52.3604 44.3575 52.1766C44.7352 51.7888 45.419 51.7888 45.8069 52.1766C45.9906 52.3604 46.1029 52.6257 46.1029 52.9013C46.1029 53.1565 45.9906 53.4218 45.8069 53.6158C45.6129 53.8097 45.3476 53.9118 45.0822 53.9118Z" fill="#303030"/>
<path d="M41.7046 72.0695H28.7421C28.3236 72.0695 27.9766 71.7224 27.9766 71.304C27.9766 70.8855 28.3236 70.5385 28.7421 70.5385H41.7046C42.123 70.5385 42.4701 70.8855 42.4701 71.304C42.4701 71.7224 42.123 72.0695 41.7046 72.0695Z" fill="#303030"/>
<path d="M24.6589 72.0695H22.3114C21.8929 72.0695 21.5459 71.7224 21.5459 71.304C21.5459 70.8855 21.8929 70.5385 22.3114 70.5385H24.6589C25.0774 70.5385 25.4244 70.8855 25.4244 71.304C25.4244 71.7224 25.0774 72.0695 24.6589 72.0695Z" fill="#303030"/>
</g>
<defs>
<linearGradient id="paint0_linear" x1="51.4209" y1="35.6384" x2="79.9996" y2="35.6384" gradientUnits="userSpaceOnUse">
<stop offset="0.0104167" stop-color="#00FF6F"/>
<stop offset="1" stop-color="#1BFFFF"/>
</linearGradient>
<linearGradient id="paint1_linear" x1="22.8633" y1="70.1914" x2="47.3593" y2="70.1914" gradientUnits="userSpaceOnUse">
<stop offset="0.0104167" stop-color="#00FF6F"/>
<stop offset="1" stop-color="#1BFFFF"/>
</linearGradient>
<linearGradient id="paint2_linear" x1="-2.13347e-07" y1="20.6856" x2="40.8267" y2="20.6856" gradientUnits="userSpaceOnUse">
<stop offset="0.0104167" stop-color="#00FF6F"/>
<stop offset="1" stop-color="#1BFFFF"/>
</linearGradient>
<clipPath id="clip0">
<rect width="80" height="82.2761" fill="white"/>
</clipPath>
</defs>
</svg>
