<svg width="80" height="79" viewBox="0 0 80 79" fill="none" xmlns="http://www.w3.org/2000/svg">
<g clip-path="url(#clip0)">
<path d="M13.939 57.4984C21.6373 57.4984 27.878 51.2577 27.878 43.5594C27.878 35.8611 21.6373 29.6204 13.939 29.6204C6.24071 29.6204 0 35.8611 0 43.5594C0 51.2577 6.24071 57.4984 13.939 57.4984Z" fill="url(#paint0_linear)"/>
<path d="M52.769 23.8955C59.3676 23.8955 64.7167 18.5463 64.7167 11.9477C64.7167 5.34918 59.3676 0 52.769 0C46.1705 0 40.8213 5.34918 40.8213 11.9477C40.8213 18.5463 46.1705 23.8955 52.769 23.8955Z" fill="url(#paint1_linear)"/>
<path d="M60.0867 78.4069C71.0843 78.4069 79.9996 69.4916 79.9996 58.4941C79.9996 47.4965 71.0843 38.5812 60.0867 38.5812C49.0891 38.5812 40.1738 47.4965 40.1738 58.4941C40.1738 69.4916 49.0891 78.4069 60.0867 78.4069Z" fill="url(#paint2_linear)"/>
<path d="M69.4467 69.6951H9.70809C8.61288 69.6951 7.7168 68.799 7.7168 67.7038V37.8345H71.438V67.7038C71.438 68.799 70.5419 69.6951 69.4467 69.6951Z" fill="white"/>
<path d="M66.4598 65.7125H10.7037C9.05096 65.7125 7.7168 64.3783 7.7168 62.7256V37.8345H67.4554V64.7169C67.4554 65.2645 67.0074 65.7125 66.4598 65.7125Z" fill="white"/>
<path d="M69.4464 70.4419H9.70775C8.19437 70.4419 6.96973 69.2172 6.96973 67.7038V37.8345C6.96973 37.4263 7.30825 37.0878 7.71646 37.0878H71.4377C71.8459 37.0878 72.1844 37.4263 72.1844 37.8345V67.7038C72.1844 69.2172 70.9598 70.4419 69.4464 70.4419ZM8.46319 38.5812V67.7038C8.46319 68.3908 9.02075 68.9484 9.70775 68.9484H69.4464C70.1334 68.9484 70.691 68.3908 70.691 67.7038V38.5812H8.46319Z" fill="#303030"/>
<path d="M50.5292 69.6951H28.625V60.7343C28.625 59.6391 29.5211 58.743 30.6163 58.743H48.5379C49.6331 58.743 50.5292 59.6391 50.5292 60.7343V69.6951Z" fill="white"/>
<path d="M46.5466 67.7038H28.625V60.7343C28.625 59.6391 29.5211 58.743 30.6163 58.743H45.5509C46.6462 58.743 47.5422 59.6391 47.5422 60.7343V66.7082C47.5422 67.2558 47.0942 67.7038 46.5466 67.7038Z" fill="white"/>
<path d="M50.5288 70.4419H28.6247C28.2164 70.4419 27.8779 70.1034 27.8779 69.6952V60.7344C27.8779 59.221 29.1026 57.9963 30.616 57.9963H48.5375C50.0509 57.9963 51.2756 59.221 51.2756 60.7344V69.6952C51.2756 70.1034 50.937 70.4419 50.5288 70.4419ZM29.3714 68.9484H49.7821V60.7344C49.7821 60.0474 49.2245 59.4898 48.5375 59.4898H30.616C29.929 59.4898 29.3714 60.0474 29.3714 60.7344V68.9484Z" fill="#303030"/>
<path d="M12.6945 55.5073H11.6989C11.2907 55.5073 10.9521 55.1687 10.9521 54.7605C10.9521 54.3523 11.2907 54.0138 11.6989 54.0138H12.6945C13.1027 54.0138 13.4413 54.3523 13.4413 54.7605C13.4413 55.1687 13.1027 55.5073 12.6945 55.5073Z" fill="#303030"/>
<path d="M62.9048 55.5073H60.8736C60.4654 55.5073 60.1269 55.1687 60.1269 54.7605C60.1269 54.3523 60.4654 54.0138 60.8736 54.0138H62.9048C63.313 54.0138 63.6515 54.3523 63.6515 54.7605C63.6515 55.1687 63.3229 55.5073 62.9048 55.5073ZM57.3292 55.5073H55.298C54.8898 55.5073 54.5513 55.1687 54.5513 54.7605C54.5513 54.3523 54.8898 54.0138 55.298 54.0138H57.3292C57.7374 54.0138 58.0759 54.3523 58.0759 54.7605C58.0759 55.1687 57.7374 55.5073 57.3292 55.5073ZM23.8556 55.5073H21.8245C21.4163 55.5073 21.0778 55.1687 21.0778 54.7605C21.0778 54.3523 21.4163 54.0138 21.8245 54.0138H23.8556C24.2638 54.0138 24.6023 54.3523 24.6023 54.7605C24.6023 55.1687 24.2638 55.5073 23.8556 55.5073ZM18.27 55.5073H16.2389C15.8307 55.5073 15.4922 55.1687 15.4922 54.7605C15.4922 54.3523 15.8307 54.0138 16.2389 54.0138H18.27C18.6782 54.0138 19.0168 54.3523 19.0168 54.7605C19.0168 55.1687 18.6882 55.5073 18.27 55.5073Z" fill="#303030"/>
<path d="M67.4553 55.5073H66.4596C66.0514 55.5073 65.7129 55.1687 65.7129 54.7605C65.7129 54.3523 66.0514 54.0138 66.4596 54.0138H67.4553C67.8635 54.0138 68.202 54.3523 68.202 54.7605C68.202 55.1687 67.8635 55.5073 67.4553 55.5073Z" fill="#303030"/>
<path d="M51.525 55.5073H27.6295C27.2114 55.5073 26.8828 55.1687 26.8828 54.7605C26.8828 54.3523 27.2213 54.0138 27.6295 54.0138H51.525C51.9332 54.0138 52.2717 54.3523 52.2717 54.7605C52.2717 55.1687 51.9332 55.5073 51.525 55.5073Z" fill="#303030"/>
<path d="M12.6945 51.5246H11.6989C11.2907 51.5246 10.9521 51.1861 10.9521 50.7779C10.9521 50.3696 11.2907 50.0311 11.6989 50.0311H12.6945C13.1027 50.0311 13.4413 50.3696 13.4413 50.7779C13.4413 51.1861 13.1027 51.5246 12.6945 51.5246Z" fill="#303030"/>
<path d="M63.4125 51.5246H61.3814C60.9732 51.5246 60.6347 51.1861 60.6347 50.7779C60.6347 50.3696 60.9732 50.0311 61.3814 50.0311H63.4125C63.8207 50.0311 64.1592 50.3696 64.1592 50.7779C64.1592 51.1861 63.8307 51.5246 63.4125 51.5246ZM58.3447 51.5246H56.3136C55.9053 51.5246 55.5668 51.1861 55.5668 50.7779C55.5668 50.3696 55.9053 50.0311 56.3136 50.0311H58.3447C58.7529 50.0311 59.0914 50.3696 59.0914 50.7779C59.0914 51.1861 58.7529 51.5246 58.3447 51.5246ZM53.2669 51.5246H51.2358C50.8276 51.5246 50.489 51.1861 50.489 50.7779C50.489 50.3696 50.8276 50.0311 51.2358 50.0311H53.2669C53.6751 50.0311 54.0136 50.3696 54.0136 50.7779C54.0136 51.1861 53.6851 51.5246 53.2669 51.5246ZM48.1991 51.5246H46.1679C45.7597 51.5246 45.4212 51.1861 45.4212 50.7779C45.4212 50.3696 45.7597 50.0311 46.1679 50.0311H48.1991C48.6073 50.0311 48.9458 50.3696 48.9458 50.7779C48.9458 51.1861 48.6073 51.5246 48.1991 51.5246ZM43.1312 51.5246H41.1001C40.6919 51.5246 40.3534 51.1861 40.3534 50.7779C40.3534 50.3696 40.6919 50.0311 41.1001 50.0311H43.1312C43.5394 50.0311 43.878 50.3696 43.878 50.7779C43.878 51.1861 43.5394 51.5246 43.1312 51.5246ZM38.0535 51.5246H36.0223C35.6141 51.5246 35.2756 51.1861 35.2756 50.7779C35.2756 50.3696 35.6141 50.0311 36.0223 50.0311H38.0535C38.4617 50.0311 38.8002 50.3696 38.8002 50.7779C38.8002 51.1861 38.4716 51.5246 38.0535 51.5246ZM32.9856 51.5246H30.9545C30.5463 51.5246 30.2078 51.1861 30.2078 50.7779C30.2078 50.3696 30.5463 50.0311 30.9545 50.0311H32.9856C33.3938 50.0311 33.7324 50.3696 33.7324 50.7779C33.7324 51.1861 33.3938 51.5246 32.9856 51.5246ZM27.9078 51.5246H25.8867C25.4785 51.5246 25.1399 51.1861 25.1399 50.7779C25.1399 50.3696 25.4785 50.0311 25.8867 50.0311H27.9178C28.326 50.0311 28.6645 50.3696 28.6645 50.7779C28.6546 51.1861 28.326 51.5246 27.9078 51.5246ZM22.84 51.5246H20.8089C20.4007 51.5246 20.0622 51.1861 20.0622 50.7779C20.0622 50.3696 20.4007 50.0311 20.8089 50.0311H22.84C23.2482 50.0311 23.5867 50.3696 23.5867 50.7779C23.5867 51.1861 23.2482 51.5246 22.84 51.5246ZM17.7622 51.5246H15.7311C15.3229 51.5246 14.9844 51.1861 14.9844 50.7779C14.9844 50.3696 15.3229 50.0311 15.7311 50.0311H17.7622C18.1704 50.0311 18.509 50.3696 18.509 50.7779C18.509 51.1861 18.1804 51.5246 17.7622 51.5246Z" fill="#303030"/>
<path d="M67.4553 51.5246H66.4596C66.0514 51.5246 65.7129 51.1861 65.7129 50.7779C65.7129 50.3696 66.0514 50.0311 66.4596 50.0311H67.4553C67.8635 50.0311 68.202 50.3696 68.202 50.7779C68.202 51.1861 67.8635 51.5246 67.4553 51.5246Z" fill="#303030"/>
<path d="M12.6945 47.5421H11.6989C11.2907 47.5421 10.9521 47.2035 10.9521 46.7953C10.9521 46.3871 11.2907 46.0486 11.6989 46.0486H12.6945C13.1027 46.0486 13.4413 46.3871 13.4413 46.7953C13.4413 47.2035 13.1027 47.5421 12.6945 47.5421Z" fill="#303030"/>
<path d="M62.9048 47.5421H60.8736C60.4654 47.5421 60.1269 47.2035 60.1269 46.7953C60.1269 46.3871 60.4654 46.0486 60.8736 46.0486H62.9048C63.313 46.0486 63.6515 46.3871 63.6515 46.7953C63.6515 47.2035 63.3229 47.5421 62.9048 47.5421ZM57.3292 47.5421H55.298C54.8898 47.5421 54.5513 47.2035 54.5513 46.7953C54.5513 46.3871 54.8898 46.0486 55.298 46.0486H57.3292C57.7374 46.0486 58.0759 46.3871 58.0759 46.7953C58.0759 47.2035 57.7374 47.5421 57.3292 47.5421ZM51.7535 47.5421H49.7224C49.3142 47.5421 48.9757 47.2035 48.9757 46.7953C48.9757 46.3871 49.3142 46.0486 49.7224 46.0486H51.7535C52.1618 46.0486 52.5003 46.3871 52.5003 46.7953C52.5003 47.2035 52.1618 47.5421 51.7535 47.5421ZM46.168 47.5421H44.1369C43.7287 47.5421 43.3901 47.2035 43.3901 46.7953C43.3901 46.3871 43.7287 46.0486 44.1369 46.0486H46.168C46.5762 46.0486 46.9147 46.3871 46.9147 46.7953C46.9147 47.2035 46.5861 47.5421 46.168 47.5421ZM40.5924 47.5421H38.5613C38.153 47.5421 37.8145 47.2035 37.8145 46.7953C37.8145 46.3871 38.153 46.0486 38.5613 46.0486H40.5924C41.0006 46.0486 41.3391 46.3871 41.3391 46.7953C41.3391 47.2035 41.0006 47.5421 40.5924 47.5421ZM35.0068 47.5421H32.9757C32.5675 47.5421 32.229 47.2035 32.229 46.7953C32.229 46.3871 32.5675 46.0486 32.9757 46.0486H35.0068C35.415 46.0486 35.7535 46.3871 35.7535 46.7953C35.7535 47.2035 35.425 47.5421 35.0068 47.5421ZM29.4312 47.5421H27.4001C26.9919 47.5421 26.6534 47.2035 26.6534 46.7953C26.6534 46.3871 26.9919 46.0486 27.4001 46.0486H29.4312C29.8394 46.0486 30.1779 46.3871 30.1779 46.7953C30.1779 47.2035 29.8394 47.5421 29.4312 47.5421ZM23.8556 47.5421H21.8245C21.4163 47.5421 21.0778 47.2035 21.0778 46.7953C21.0778 46.3871 21.4163 46.0486 21.8245 46.0486H23.8556C24.2638 46.0486 24.6023 46.3871 24.6023 46.7953C24.6023 47.2035 24.2638 47.5421 23.8556 47.5421ZM18.27 47.5421H16.2389C15.8307 47.5421 15.4922 47.2035 15.4922 46.7953C15.4922 46.3871 15.8307 46.0486 16.2389 46.0486H18.27C18.6782 46.0486 19.0168 46.3871 19.0168 46.7953C19.0168 47.2035 18.6882 47.5421 18.27 47.5421Z" fill="#303030"/>
<path d="M67.4553 47.5421H66.4596C66.0514 47.5421 65.7129 47.2035 65.7129 46.7953C65.7129 46.3871 66.0514 46.0486 66.4596 46.0486H67.4553C67.8635 46.0486 68.202 46.3871 68.202 46.7953C68.202 47.2035 67.8635 47.5421 67.4553 47.5421Z" fill="#303030"/>
<path d="M12.6945 43.5595H11.6989C11.2907 43.5595 10.9521 43.221 10.9521 42.8128C10.9521 42.4046 11.2907 42.066 11.6989 42.066H12.6945C13.1027 42.066 13.4413 42.4046 13.4413 42.8128C13.4413 43.221 13.1027 43.5595 12.6945 43.5595Z" fill="#303030"/>
<path d="M63.4125 43.5595H61.3814C60.9732 43.5595 60.6347 43.221 60.6347 42.8128C60.6347 42.4046 60.9732 42.066 61.3814 42.066H63.4125C63.8207 42.066 64.1592 42.4046 64.1592 42.8128C64.1592 43.221 63.8307 43.5595 63.4125 43.5595ZM58.3447 43.5595H56.3136C55.9053 43.5595 55.5668 43.221 55.5668 42.8128C55.5668 42.4046 55.9053 42.066 56.3136 42.066H58.3447C58.7529 42.066 59.0914 42.4046 59.0914 42.8128C59.0914 43.221 58.7529 43.5595 58.3447 43.5595ZM53.2669 43.5595H51.2358C50.8276 43.5595 50.489 43.221 50.489 42.8128C50.489 42.4046 50.8276 42.066 51.2358 42.066H53.2669C53.6751 42.066 54.0136 42.4046 54.0136 42.8128C54.0136 43.221 53.6851 43.5595 53.2669 43.5595ZM48.1991 43.5595H46.1679C45.7597 43.5595 45.4212 43.221 45.4212 42.8128C45.4212 42.4046 45.7597 42.066 46.1679 42.066H48.1991C48.6073 42.066 48.9458 42.4046 48.9458 42.8128C48.9458 43.221 48.6073 43.5595 48.1991 43.5595ZM43.1312 43.5595H41.1001C40.6919 43.5595 40.3534 43.221 40.3534 42.8128C40.3534 42.4046 40.6919 42.066 41.1001 42.066H43.1312C43.5394 42.066 43.878 42.4046 43.878 42.8128C43.878 43.221 43.5394 43.5595 43.1312 43.5595ZM38.0535 43.5595H36.0223C35.6141 43.5595 35.2756 43.221 35.2756 42.8128C35.2756 42.4046 35.6141 42.066 36.0223 42.066H38.0535C38.4617 42.066 38.8002 42.4046 38.8002 42.8128C38.8002 43.221 38.4716 43.5595 38.0535 43.5595ZM32.9856 43.5595H30.9545C30.5463 43.5595 30.2078 43.221 30.2078 42.8128C30.2078 42.4046 30.5463 42.066 30.9545 42.066H32.9856C33.3938 42.066 33.7324 42.4046 33.7324 42.8128C33.7324 43.221 33.3938 43.5595 32.9856 43.5595ZM27.9078 43.5595H25.8867C25.4785 43.5595 25.1399 43.221 25.1399 42.8128C25.1399 42.4046 25.4785 42.066 25.8867 42.066H27.9178C28.326 42.066 28.6645 42.4046 28.6645 42.8128C28.6546 43.221 28.326 43.5595 27.9078 43.5595ZM22.84 43.5595H20.8089C20.4007 43.5595 20.0622 43.221 20.0622 42.8128C20.0622 42.4046 20.4007 42.066 20.8089 42.066H22.84C23.2482 42.066 23.5867 42.4046 23.5867 42.8128C23.5867 43.221 23.2482 43.5595 22.84 43.5595ZM17.7622 43.5595H15.7311C15.3229 43.5595 14.9844 43.221 14.9844 42.8128C14.9844 42.4046 15.3229 42.066 15.7311 42.066H17.7622C18.1704 42.066 18.509 42.4046 18.509 42.8128C18.509 43.221 18.1804 43.5595 17.7622 43.5595Z" fill="#303030"/>
<path d="M67.4553 43.5595H66.4596C66.0514 43.5595 65.7129 43.221 65.7129 42.8128C65.7129 42.4046 66.0514 42.066 66.4596 42.066H67.4553C67.8635 42.066 68.202 42.4046 68.202 42.8128C68.202 43.221 67.8635 43.5595 67.4553 43.5595Z" fill="#303030"/>
<path d="M71.438 37.8345H7.7168V7.96517C7.7168 6.86996 8.61288 5.97388 9.70809 5.97388H69.4467C70.5419 5.97388 71.438 6.86996 71.438 7.96517V37.8345Z" fill="white"/>
<path d="M65.4642 34.8476H7.7168V7.96517C7.7168 6.86996 8.61288 5.97388 9.70809 5.97388H65.4642C67.1169 5.97388 68.4511 7.30804 68.4511 8.96081V31.8606C68.4511 33.5134 67.1169 34.8476 65.4642 34.8476Z" fill="white"/>
<path d="M71.4377 38.5813H7.71646C7.30825 38.5813 6.96973 38.2427 6.96973 37.8345V7.96519C6.96973 6.45182 8.19437 5.22717 9.70775 5.22717H69.4464C70.9598 5.22717 72.1844 6.45182 72.1844 7.96519V37.8345C72.1844 38.2427 71.8459 38.5813 71.4377 38.5813ZM8.46319 37.0878H70.691V7.96519C70.691 7.2782 70.1334 6.72064 69.4464 6.72064H9.70775C9.02075 6.72064 8.46319 7.2782 8.46319 7.96519V37.0878Z" fill="#303030"/>
<path d="M65.4635 32.8563H13.69C13.1424 32.8563 12.6943 32.4083 12.6943 31.8607V11.9478C12.6943 11.4002 13.1424 10.9521 13.69 10.9521H65.4635C66.0111 10.9521 66.4591 11.4002 66.4591 11.9478V31.8607C66.4591 32.4083 66.0111 32.8563 65.4635 32.8563Z" fill="white"/>
<path d="M62.4765 29.8694H14.6856C13.5904 29.8694 12.6943 28.9833 12.6943 27.8781V11.9478C12.6943 11.4002 13.1424 10.9521 13.69 10.9521H61.4809C62.5761 10.9521 63.4722 11.8482 63.4722 12.9434V28.8737C63.4722 29.4213 63.0241 29.8694 62.4765 29.8694Z" fill="white"/>
<path d="M65.4641 33.6031H13.6906C12.7348 33.6031 11.9482 32.8165 11.9482 31.8607V11.9478C11.9482 10.992 12.7348 10.2054 13.6906 10.2054H65.4641C66.4199 10.2054 67.2065 10.992 67.2065 11.9478V31.8607C67.2065 32.8165 66.4199 33.6031 65.4641 33.6031ZM13.6906 11.6989C13.5512 11.6989 13.4417 11.8084 13.4417 11.9478V31.8607C13.4417 32.0001 13.5512 32.1096 13.6906 32.1096H65.4641C65.6035 32.1096 65.713 32.0001 65.713 31.8607V11.9478C65.713 11.8084 65.6035 11.6989 65.4641 11.6989H13.6906Z" fill="#303030"/>
<path d="M32.9165 28.6248C32.6775 28.6248 32.4386 28.5053 32.2892 28.2962L28.3066 22.3223C28.1374 22.0734 28.1374 21.7449 28.3066 21.496L32.2892 15.5221C32.5182 15.1836 32.9762 15.084 33.3247 15.313C33.6632 15.542 33.7628 16.01 33.5338 16.3485L29.83 21.9042L33.5338 27.4599C33.7628 27.8083 33.6732 28.2663 33.3247 28.4953C33.2052 28.5849 33.0658 28.6248 32.9165 28.6248Z" fill="#303030"/>
<path d="M46.2384 28.6248C46.099 28.6248 45.9496 28.5849 45.8202 28.4953C45.4817 28.2663 45.3821 27.7984 45.6111 27.4599L49.3249 21.9042L45.6211 16.3485C45.3921 16.01 45.4817 15.542 45.8301 15.313C46.1687 15.084 46.6366 15.1736 46.8656 15.5221L50.8482 21.496C51.0174 21.7449 51.0174 22.0734 50.8482 22.3223L46.8656 28.2962C46.7163 28.5053 46.4773 28.6248 46.2384 28.6248Z" fill="#303030"/>
<path d="M36.0918 28.6248C35.9624 28.6248 35.833 28.5949 35.7135 28.5252C35.3551 28.3162 35.2356 27.8582 35.4447 27.4997L42.4142 15.552C42.6233 15.1936 43.0813 15.0741 43.4397 15.2832C43.7981 15.4923 43.9176 15.9503 43.7085 16.3087L36.739 28.2564C36.5996 28.4954 36.3507 28.6248 36.0918 28.6248Z" fill="#303030"/>
<path d="M26.6336 16.6771H22.651C22.2428 16.6771 21.9043 16.3385 21.9043 15.9303C21.9043 15.5221 22.2428 15.1836 22.651 15.1836H26.6336C27.0418 15.1836 27.3803 15.5221 27.3803 15.9303C27.3803 16.3385 27.0518 16.6771 26.6336 16.6771Z" fill="#303030"/>
<path d="M24.6422 18.6684C24.234 18.6684 23.8955 18.3299 23.8955 17.9217V13.9391C23.8955 13.5309 24.234 13.1924 24.6422 13.1924C25.0505 13.1924 25.389 13.5309 25.389 13.9391V17.9217C25.389 18.3299 25.0604 18.6684 24.6422 18.6684Z" fill="#303030"/>
<path d="M21.6551 26.6335H17.6725C17.2643 26.6335 16.9258 26.3049 16.9258 25.8867C16.9258 25.4785 17.2643 25.14 17.6725 25.14H21.6551C22.0633 25.14 22.4018 25.4785 22.4018 25.8867C22.4018 26.3049 22.0633 26.6335 21.6551 26.6335Z" fill="#303030"/>
<path d="M19.6637 28.6248C19.2555 28.6248 18.917 28.2963 18.917 27.8781V23.8955C18.917 23.4873 19.2555 23.1488 19.6637 23.1488C20.0719 23.1488 20.4105 23.4873 20.4105 23.8955V27.8781C20.4105 28.2963 20.0719 28.6248 19.6637 28.6248Z" fill="#303030"/>
<path d="M60.4852 23.6465H56.5026C56.0944 23.6465 55.7559 23.318 55.7559 22.8998C55.7559 22.4916 56.0944 22.1531 56.5026 22.1531H60.4852C60.8934 22.1531 61.2319 22.4916 61.2319 22.8998C61.2319 23.318 60.9033 23.6465 60.4852 23.6465Z" fill="#303030"/>
<path d="M58.4948 25.6379C58.0866 25.6379 57.748 25.3093 57.748 24.8912V20.9086C57.748 20.5004 58.0866 20.1619 58.4948 20.1619C58.903 20.1619 59.2415 20.5004 59.2415 20.9086V24.8912C59.2415 25.3093 58.9129 25.6379 58.4948 25.6379Z" fill="#303030"/>
</g>
<defs>
<linearGradient id="paint0_linear" x1="-1.45681e-07" y1="43.7453" x2="27.878" y2="43.7453" gradientUnits="userSpaceOnUse">
<stop offset="0.0104167" stop-color="#00FF6F"/>
<stop offset="1" stop-color="#1BFFFF"/>
</linearGradient>
<linearGradient id="paint1_linear" x1="40.8213" y1="12.1071" x2="64.7167" y2="12.1071" gradientUnits="userSpaceOnUse">
<stop offset="0.0104167" stop-color="#00FF6F"/>
<stop offset="1" stop-color="#1BFFFF"/>
</linearGradient>
<linearGradient id="paint2_linear" x1="40.1738" y1="58.7596" x2="79.9996" y2="58.7596" gradientUnits="userSpaceOnUse">
<stop offset="0.0104167" stop-color="#00FF6F"/>
<stop offset="1" stop-color="#1BFFFF"/>
</linearGradient>
<clipPath id="clip0">
<rect width="80" height="78.407" fill="white"/>
</clipPath>
</defs>
</svg>
