<svg width="80" height="76" viewBox="0 0 80 76" fill="none" xmlns="http://www.w3.org/2000/svg">
<g clip-path="url(#clip0)">
<path d="M65.9068 57.6218C73.6904 57.6218 80.0002 51.312 80.0002 43.5284C80.0002 35.7449 73.6904 29.4351 65.9068 29.4351C58.1233 29.4351 51.8135 35.7449 51.8135 43.5284C51.8135 51.312 58.1233 57.6218 65.9068 57.6218Z" fill="url(#paint0_linear)"/>
<path d="M48.29 24.1601C54.9616 24.1601 60.37 18.7516 60.37 12.08C60.37 5.40841 54.9616 0 48.29 0C41.6184 0 36.21 5.40841 36.21 12.08C36.21 18.7516 41.6184 24.1601 48.29 24.1601Z" fill="url(#paint1_linear)"/>
<path d="M20.1334 75.2887C31.2527 75.2887 40.2668 66.2747 40.2668 55.1554C40.2668 44.036 31.2527 35.022 20.1334 35.022C9.01402 35.022 0 44.036 0 55.1554C0 66.2747 9.01402 75.2887 20.1334 75.2887Z" fill="url(#paint2_linear)"/>
<path d="M48.2902 28.1061L43.9816 26.9786H38.9785H33.9753L29.6668 28.1061C28.036 28.539 26.8984 30.0087 26.8984 31.6999V41.0619H51.0585V31.6999C51.0585 30.0087 49.921 28.5289 48.2902 28.1061Z" fill="white"/>
<path d="M48.2902 28.1061L47.5956 27.9249C47.8774 28.4585 48.0385 29.0524 48.0385 29.6866V38.042C48.0385 38.5956 47.5855 39.0486 47.0318 39.0486H26.8984V41.062H51.0585V31.6999C51.0585 30.0087 49.921 28.5289 48.2902 28.1061Z" fill="white"/>
<path d="M51.0586 41.817H26.8986C26.4858 41.817 26.1436 41.4747 26.1436 41.062V31.7C26.1436 29.6665 27.5126 27.8847 29.4756 27.3713L33.7842 26.2438C33.8446 26.2237 33.915 26.2136 33.9754 26.2136H43.9817C44.0421 26.2136 44.1126 26.2237 44.173 26.2438L48.4815 27.3713C50.4445 27.8847 51.8136 29.6665 51.8136 31.7V41.062C51.8136 41.4848 51.4814 41.817 51.0586 41.817ZM27.6536 40.307H50.3036V31.7C50.3036 30.351 49.3976 29.1732 48.099 28.831L43.8911 27.7236H34.0862L29.8783 28.831C28.5797 29.1732 27.6636 30.351 27.6636 31.7V40.307H27.6536Z" fill="#303030"/>
<path d="M43.6698 27.9954C43.8611 27.6229 43.9819 27.2807 43.9819 26.9787C42.9249 26.4351 42.1397 25.4586 41.9182 24.2707C41.888 24.0996 41.8578 23.0023 41.8377 22.8312H36.1097C36.0896 23.0224 36.0594 24.1499 36.0191 24.3512C35.7977 25.5089 35.0125 26.4552 33.9756 26.9686C33.9857 27.2706 34.1065 27.6229 34.2977 27.9954C36.2507 31.6597 41.737 31.6597 43.6698 27.9954Z" fill="white"/>
<path d="M41.918 24.2707C41.8878 24.0996 41.8576 23.0023 41.8375 22.8312H39.1295C39.1295 24.8344 38.6564 27.9149 36.1699 29.9685C38.6363 31.4583 42.1898 30.804 43.6696 27.9954C43.8609 27.6229 43.9817 27.2807 43.9817 26.9787C42.9347 26.4351 42.1395 25.4485 41.918 24.2707Z" fill="white"/>
<path d="M38.9884 31.4987C36.7234 31.4987 34.6698 30.2906 33.6329 28.3478C33.3611 27.8444 33.2302 27.4015 33.2201 26.9787C33.2101 26.6868 33.3812 26.415 33.6429 26.2841C34.5087 25.8613 35.1026 25.0962 35.2838 24.2003C35.304 24.0694 35.314 23.6768 35.3342 23.3446C35.3442 23.0628 35.3543 22.8111 35.3644 22.7306C35.4046 22.348 35.7268 22.0662 36.1093 22.0662H41.8372C42.2198 22.0662 42.5419 22.3581 42.5922 22.7306C42.6023 22.8111 42.6124 23.0527 42.6224 23.3346C42.6325 23.6466 42.6426 24.009 42.6627 24.1298C42.8338 25.0258 43.458 25.8412 44.3237 26.2841C44.5754 26.415 44.7364 26.6767 44.7364 26.9686C44.7264 27.3814 44.5955 27.8243 44.3338 28.3276C43.307 30.2705 41.2735 31.4785 39.0085 31.4886C38.9984 31.4987 38.9984 31.4987 38.9884 31.4987ZM34.8308 27.3512C34.861 27.4317 34.9114 27.5324 34.9718 27.6431C35.757 29.1128 37.2569 29.9886 38.9884 29.9886H38.9984C40.7299 29.9886 42.2198 29.1028 42.9949 27.633C43.0553 27.5223 43.0956 27.4216 43.1258 27.3411C42.109 26.6465 41.3842 25.5794 41.1628 24.4016C41.1426 24.2808 41.1326 24.0795 41.1024 23.5762H36.814C36.7938 24.0795 36.7737 24.3412 36.7435 24.4922C36.5321 25.67 35.8476 26.6868 34.8308 27.3512Z" fill="#303030"/>
<path d="M44.7869 17.9085C44.7869 14.0631 42.1897 11.8685 38.9784 11.8685C35.7671 11.8685 33.1699 14.0631 33.1699 17.9085C33.1699 21.754 35.7671 24.8747 38.9784 24.8747C42.1897 24.8848 44.7869 21.7641 44.7869 17.9085Z" fill="white"/>
<path d="M40.619 12.08C41.3438 13.0564 41.7666 14.345 41.7666 15.8952C41.7666 19.7407 39.1694 22.8614 35.9581 22.8614C35.5554 22.8614 35.1628 22.811 34.7803 22.7204C35.8373 24.0493 37.3271 24.8747 38.9781 24.8747C42.1894 24.8747 44.7866 21.754 44.7866 17.9086C44.7866 14.7476 43.0249 12.7041 40.619 12.08Z" fill="white"/>
<path d="M38.9785 25.6398C35.3646 25.6398 32.415 22.1769 32.415 17.9187C32.415 13.9222 35.1129 11.1237 38.9785 11.1237C42.8441 11.1237 45.542 13.9222 45.542 17.9187C45.542 22.1769 42.6025 25.6398 38.9785 25.6398ZM38.9785 12.6236C35.9585 12.6236 33.925 14.7477 33.925 17.9086C33.925 21.3313 36.19 24.1198 38.9785 24.1198C41.767 24.1198 44.032 21.3313 44.032 17.9086C44.032 14.7477 41.9985 12.6236 38.9785 12.6236Z" fill="#303030"/>
<path d="M32.9386 41.817C32.5259 41.817 32.1836 41.4747 32.1836 41.062V34.72C32.1836 34.3072 32.5259 33.965 32.9386 33.965C33.3513 33.965 33.6936 34.3072 33.6936 34.72V41.062C33.6936 41.4848 33.3614 41.817 32.9386 41.817Z" fill="#303030"/>
<path d="M69.1782 50.1221H12.8047V61.1954H69.1782V50.1221Z" fill="white"/>
<path d="M64.1448 58.1754H12.8047V50.1221H65.1515V57.1688C65.1515 57.7325 64.6985 58.1754 64.1448 58.1754Z" fill="white"/>
<path d="M69.1783 61.9604H12.8048C12.3921 61.9604 12.0498 61.6182 12.0498 61.2054V50.1321C12.0498 49.7193 12.3921 49.3771 12.8048 49.3771H69.1783C69.591 49.3771 69.9333 49.7193 69.9333 50.1321V61.2054C69.9333 61.6182 69.591 61.9604 69.1783 61.9604ZM13.5598 60.4504H68.4233V50.8871H13.5598V60.4504Z" fill="#303030"/>
<path d="M73.2052 50.122H8.77832L16.8317 41.062H65.1518L73.2052 50.122Z" fill="white"/>
<path d="M65.0408 47.102H11.4658L16.8314 41.062H60.7926L65.4132 46.2665C65.7052 46.5886 65.4736 47.102 65.0408 47.102Z" fill="white"/>
<path d="M73.205 50.877H8.7782C8.4762 50.877 8.21447 50.7059 8.09367 50.4341C7.97287 50.1623 8.0232 49.8502 8.21447 49.6187L16.2678 40.5587C16.4088 40.3976 16.6202 40.307 16.8316 40.307H65.1517C65.3631 40.307 65.5745 40.3976 65.7154 40.5587L73.7688 49.6187C73.9701 49.8402 74.0104 50.1623 73.8896 50.4341C73.7688 50.7059 73.507 50.877 73.205 50.877ZM10.4593 49.367H71.5239L64.8094 41.817H17.1738L10.4593 49.367Z" fill="#303030"/>
<path d="M12.8048 70.0138C12.3921 70.0138 12.0498 69.6715 12.0498 69.2588V61.2054C12.0498 60.7927 12.3921 60.4504 12.8048 60.4504C13.2175 60.4504 13.5598 60.7927 13.5598 61.2054V69.2588C13.5598 69.6715 13.2175 70.0138 12.8048 70.0138Z" fill="#303030"/>
<path d="M69.1788 70.0138C68.7661 70.0138 68.4238 69.6715 68.4238 69.2588V61.2054C68.4238 60.7927 68.7661 60.4504 69.1788 60.4504C69.5916 60.4504 69.9338 60.7927 69.9338 61.2054V69.2588C69.9338 69.6715 69.5916 70.0138 69.1788 70.0138Z" fill="#303030"/>
<path d="M65.1513 17.9086H43.0045C41.8972 17.9086 40.9912 18.8045 40.9912 19.9219V34.0153C40.9912 35.1226 41.8972 36.0286 43.0045 36.0286H65.1513C66.2586 36.0286 67.1646 35.1226 67.1646 34.0153V19.9219C67.1646 18.8146 66.2586 17.9086 65.1513 17.9086Z" fill="white"/>
<path d="M64.1446 17.9086H43.0045C41.8972 17.9086 40.9912 18.8045 40.9912 19.9219V33.0086H63.1379C63.6916 33.0086 64.1446 32.5556 64.1446 32.0019V17.9086Z" fill="white"/>
<path d="M65.1514 36.7836H43.0047C41.4745 36.7836 40.2363 35.5454 40.2363 34.0153V19.9219C40.2363 18.3918 41.4745 17.1536 43.0047 17.1536H65.1514C66.6815 17.1536 67.9197 18.3918 67.9197 19.9219V34.0153C67.9197 35.5454 66.6815 36.7836 65.1514 36.7836ZM43.0047 18.6636C42.3101 18.6636 41.7463 19.2273 41.7463 19.9219V34.0153C41.7463 34.7099 42.3101 35.2736 43.0047 35.2736H65.1514C65.846 35.2736 66.4097 34.7099 66.4097 34.0153V19.9219C66.4097 19.2273 65.846 18.6636 65.1514 18.6636H43.0047Z" fill="#303030"/>
<path d="M55.0853 24.9553H53.0719C51.9646 24.9553 51.0586 25.8613 51.0586 26.9687V45.0887H57.0986V26.9687C57.0986 25.8613 56.1926 24.9553 55.0853 24.9553Z" fill="white"/>
<path d="M54.0786 24.9553H53.0719C51.9646 24.9553 51.0586 25.8613 51.0586 26.9687V42.0687H53.0719C53.6256 42.0687 54.0786 41.6157 54.0786 41.062V24.9553Z" fill="white"/>
<path d="M57.0987 45.8437H51.0587C50.646 45.8437 50.3037 45.5014 50.3037 45.0887V26.9687C50.3037 25.4385 51.5419 24.2003 53.0721 24.2003H55.0854C56.6155 24.2003 57.8537 25.4385 57.8537 26.9687V45.0887C57.8537 45.5115 57.5115 45.8437 57.0987 45.8437ZM51.8137 44.3337H56.3437V26.9687C56.3437 26.2741 55.78 25.7103 55.0854 25.7103H53.0721C52.3775 25.7103 51.8137 26.2741 51.8137 26.9687V44.3337Z" fill="#303030"/>
<path d="M61.1247 45.8436H47.0314C46.6186 45.8436 46.2764 45.5014 46.2764 45.0886C46.2764 44.6759 46.6186 44.3336 47.0314 44.3336H61.1247C61.5375 44.3336 61.8797 44.6759 61.8797 45.0886C61.8797 45.5114 61.5375 45.8436 61.1247 45.8436Z" fill="#303030"/>
<path d="M24.9146 8.85725L20.8857 4.82837L16.8569 8.85725L20.8857 12.8861L24.9146 8.85725Z" fill="white"/>
<path d="M20.8885 13.6403C20.6973 13.6403 20.506 13.5698 20.355 13.4188L16.3283 9.39216C16.0364 9.10023 16.0364 8.61703 16.3283 8.3251L20.355 4.29842C20.6469 4.00648 21.1301 4.00648 21.4221 4.29842L25.4487 8.3251C25.7407 8.61703 25.7407 9.10023 25.4487 9.39216L21.4221 13.4188C21.2711 13.5598 21.0798 13.6403 20.8885 13.6403ZM17.9289 8.85863L20.8885 11.8182L23.8481 8.85863L20.8885 5.89902L17.9289 8.85863Z" fill="#303030"/>
<path d="M14.6876 44.233C14.2749 44.233 13.9326 43.8908 13.9326 43.478V14.043C13.9326 13.8417 14.0132 13.6504 14.1541 13.5095L17.8385 9.83516C18.1304 9.54323 18.6136 9.54323 18.9056 9.83516C19.1975 10.1271 19.1975 10.6103 18.9056 10.9022L15.4426 14.3652V43.478C15.4426 43.8908 15.1104 44.233 14.6876 44.233Z" fill="#303030"/>
<path d="M21.9249 19.9018C19.1565 17.1334 19.1565 12.6538 21.9249 9.89548C24.6932 7.13721 29.1729 7.12714 31.9312 9.89548L21.9249 19.9018Z" fill="white"/>
<path d="M28.9112 12.9155L31.9312 9.89547C29.1629 7.12713 24.6832 7.12713 21.925 9.89547C21.4015 10.4189 20.9787 11.0129 20.6465 11.637C23.3142 10.2478 26.6764 10.6706 28.9112 12.9155Z" fill="white"/>
<path d="M21.9257 20.6568C21.7344 20.6568 21.5431 20.5864 21.3921 20.4354C18.3419 17.3851 18.3419 12.4122 21.3921 9.362C24.4424 6.31179 29.4153 6.31179 32.4655 9.362C32.7574 9.65393 32.7574 10.1371 32.4655 10.4291L22.4592 20.4354C22.3082 20.5763 22.117 20.6568 21.9257 20.6568ZM26.9288 8.57679C25.2376 8.57679 23.6572 9.23113 22.4592 10.4291C21.2613 11.627 20.6069 13.2075 20.6069 14.8987C20.6069 16.3281 21.0801 17.6972 21.9559 18.8046L30.8347 9.92573C29.7274 9.04993 28.3684 8.57679 26.9288 8.57679Z" fill="#303030"/>
<path d="M73.2055 7.5902H69.1788C68.7661 7.5902 68.4238 7.24794 68.4238 6.8352C68.4238 6.42247 68.7661 6.0802 69.1788 6.0802H73.2055C73.6182 6.0802 73.9605 6.42247 73.9605 6.8352C73.9605 7.258 73.6182 7.5902 73.2055 7.5902Z" fill="#303030"/>
<path d="M71.1915 9.60357C70.7788 9.60357 70.4365 9.26131 70.4365 8.84857V4.8219C70.4365 4.40916 70.7788 4.06689 71.1915 4.06689C71.6043 4.06689 71.9465 4.40916 71.9465 4.8219V8.84857C71.9465 9.27137 71.6043 9.60357 71.1915 9.60357Z" fill="#303030"/>
<path d="M64.145 12.6235H60.1183C59.7055 12.6235 59.3633 12.2813 59.3633 11.8685C59.3633 11.4558 59.7055 11.1135 60.1183 11.1135H64.145C64.5577 11.1135 64.9 11.4558 64.9 11.8685C64.9 12.2913 64.5577 12.6235 64.145 12.6235Z" fill="#303030"/>
<path d="M62.132 14.6369C61.7192 14.6369 61.377 14.2946 61.377 13.8819V9.85522C61.377 9.44249 61.7192 9.10022 62.132 9.10022C62.5447 9.10022 62.887 9.44249 62.887 9.85522V13.8819C62.887 14.3047 62.5447 14.6369 62.132 14.6369Z" fill="#303030"/>
<path d="M49.0454 7.5902H45.0187C44.6059 7.5902 44.2637 7.24794 44.2637 6.8352C44.2637 6.42247 44.6059 6.0802 45.0187 6.0802H49.0454C49.4581 6.0802 49.8004 6.42247 49.8004 6.8352C49.8004 7.258 49.4581 7.5902 49.0454 7.5902Z" fill="#303030"/>
<path d="M47.0314 9.60357C46.6186 9.60357 46.2764 9.26131 46.2764 8.84857V4.8219C46.2764 4.40916 46.6186 4.06689 47.0314 4.06689C47.4441 4.06689 47.7864 4.40916 47.7864 4.8219V8.84857C47.7864 9.27137 47.4441 9.60357 47.0314 9.60357Z" fill="#303030"/>
</g>
<defs>
<linearGradient id="paint0_linear" x1="51.8135" y1="43.7164" x2="80.0002" y2="43.7164" gradientUnits="userSpaceOnUse">
<stop offset="0.0104167" stop-color="#00FF6F"/>
<stop offset="1" stop-color="#1BFFFF"/>
</linearGradient>
<linearGradient id="paint1_linear" x1="36.21" y1="12.2411" x2="60.37" y2="12.2411" gradientUnits="userSpaceOnUse">
<stop offset="0.0104167" stop-color="#00FF6F"/>
<stop offset="1" stop-color="#1BFFFF"/>
</linearGradient>
<linearGradient id="paint2_linear" x1="-2.10421e-07" y1="55.4238" x2="40.2668" y2="55.4238" gradientUnits="userSpaceOnUse">
<stop offset="0.0104167" stop-color="#00FF6F"/>
<stop offset="1" stop-color="#1BFFFF"/>
</linearGradient>
<clipPath id="clip0">
<rect width="80" height="75.2888" fill="white"/>
</clipPath>
</defs>
</svg>
