<svg width="50" height="49" viewBox="0 0 50 49" fill="none" xmlns="http://www.w3.org/2000/svg">
<g clip-path="url(#clip0)">
<path d="M21.1443 48.2772C26.0598 48.2772 30.0445 44.2924 30.0445 39.377C30.0445 34.4616 26.0598 30.4768 21.1443 30.4768C16.2289 30.4768 12.2441 34.4616 12.2441 39.377C12.2441 44.2924 16.2289 48.2772 21.1443 48.2772Z" fill="#59DBF0"/>
<path d="M7.62874 30.9535C11.842 30.9535 15.2575 27.538 15.2575 23.3248C15.2575 19.1115 11.842 15.696 7.62874 15.696C3.4155 15.696 0 19.1115 0 23.3248C0 27.538 3.4155 30.9535 7.62874 30.9535Z" fill="#59DBF0"/>
<path d="M37.2849 25.4291C44.3069 25.4291 49.9994 19.7366 49.9994 12.7146C49.9994 5.6925 44.3069 0 37.2849 0C30.2628 0 24.5703 5.6925 24.5703 12.7146C24.5703 19.7366 30.2628 25.4291 37.2849 25.4291Z" fill="#59DBF0"/>
<path d="M45.7784 36.2047H5.0918V11.4113C5.0918 10.356 5.94367 9.50415 6.99898 9.50415H43.8712C44.9265 9.50415 45.7784 10.356 45.7784 11.4113V36.2047Z" fill="#BDC3D8"/>
<path d="M41.3283 33.6618H5.0918V11.4113C5.0918 10.356 5.94367 9.50415 6.99898 9.50415H42.5997V32.3904C42.5997 33.0897 42.0276 33.6618 41.3283 33.6618Z" fill="white"/>
<path d="M45.7786 36.6815H5.09203C4.83138 36.6815 4.61523 36.4654 4.61523 36.2047V11.4113C4.61523 10.0954 5.68326 9.02734 6.99921 9.02734H43.8714C45.1874 9.02734 46.2554 10.0954 46.2554 11.4113V36.2047C46.2554 36.4654 46.0393 36.6815 45.7786 36.6815ZM5.56883 35.7279H45.3018V11.4113C45.3018 10.623 44.6597 9.98094 43.8714 9.98094H6.99921C6.21091 9.98094 5.56883 10.623 5.56883 11.4113V35.7279Z" fill="#21365F"/>
<path d="M34.3355 40.0193H16.5352V43.8337H34.3355V40.0193Z" fill="#BDC3D8"/>
<path d="M32.4284 40.0193H16.5352V41.9265H31.7926C32.1423 41.9265 32.4284 41.6404 32.4284 41.2907V40.0193Z" fill="white"/>
<path d="M34.3353 44.3104H16.5286C16.2679 44.3104 16.0518 44.0943 16.0518 43.8336V40.0193C16.0518 39.7586 16.2679 39.5425 16.5286 39.5425H34.3289C34.5896 39.5425 34.8057 39.7586 34.8057 40.0193V43.8336C34.8121 44.0943 34.5959 44.3104 34.3353 44.3104ZM17.0053 43.3568H33.8521V40.4961H17.0053V43.3568Z" fill="#21365F"/>
<path d="M43.8712 40.0192H6.99898C5.94367 40.0192 5.0918 39.1673 5.0918 38.112V36.2048H45.7784V38.112C45.7784 39.161 44.9202 40.0192 43.8712 40.0192Z" fill="#BDC3D8"/>
<path d="M42.5997 38.112H5.0918V36.2048H43.2355V37.4763C43.2355 37.8259 42.9494 38.112 42.5997 38.112Z" fill="white"/>
<path d="M43.8714 40.496H6.99921C5.68326 40.496 4.61523 39.428 4.61523 38.112V36.2048C4.61523 35.9442 4.83138 35.728 5.09203 35.728H45.7786C46.0393 35.728 46.2554 35.9442 46.2554 36.2048V38.112C46.2554 39.4216 45.181 40.496 43.8714 40.496ZM5.56883 36.6816V38.112C5.56883 38.9003 6.21091 39.5424 6.99921 39.5424H43.8714C44.6597 39.5424 45.3018 38.9003 45.3018 38.112V36.6816H5.56883Z" fill="#21365F"/>
<path d="M40.6924 44.3103H10.1711C9.91048 44.3103 9.69434 44.0941 9.69434 43.8335C9.69434 43.5728 9.91048 43.3567 10.1711 43.3567H40.6861C40.9467 43.3567 41.1629 43.5728 41.1629 43.8335C41.1629 44.0941 40.9531 44.3103 40.6924 44.3103Z" fill="#21365F"/>
<path d="M25.4355 38.7478C25.7866 38.7478 26.0713 38.4631 26.0713 38.112C26.0713 37.7609 25.7866 37.4763 25.4355 37.4763C25.0844 37.4763 24.7998 37.7609 24.7998 38.112C24.7998 38.4631 25.0844 38.7478 25.4355 38.7478Z" fill="#21365F"/>
<path d="M43.8654 27.7751H41.3225C41.0619 27.7751 40.8457 27.559 40.8457 27.2983C40.8457 27.0377 41.0619 26.8215 41.3225 26.8215H43.8654C44.1261 26.8215 44.3422 27.0377 44.3422 27.2983C44.3422 27.5653 44.1324 27.7751 43.8654 27.7751Z" fill="#21365F"/>
<path d="M42.594 29.0466C42.3333 29.0466 42.1172 28.8304 42.1172 28.5698V26.0268C42.1172 25.7662 42.3333 25.55 42.594 25.55C42.8546 25.55 43.0708 25.7662 43.0708 26.0268V28.5698C43.0708 28.8368 42.861 29.0466 42.594 29.0466Z" fill="#21365F"/>
<path d="M40.051 4.88889H37.508C37.2474 4.88889 37.0312 4.67275 37.0312 4.4121C37.0312 4.15145 37.2474 3.9353 37.508 3.9353H40.051C40.3116 3.9353 40.5277 4.15145 40.5277 4.4121C40.5277 4.67275 40.318 4.88889 40.051 4.88889Z" fill="#21365F"/>
<path d="M38.7795 6.16032C38.5189 6.16032 38.3027 5.94417 38.3027 5.68353V3.14061C38.3027 2.87997 38.5189 2.66382 38.7795 2.66382C39.0402 2.66382 39.2563 2.87997 39.2563 3.14061V5.68353C39.2563 5.94417 39.0465 6.16032 38.7795 6.16032Z" fill="#21365F"/>
<path d="M12.714 6.16038H10.1711C9.91048 6.16038 9.69434 5.94423 9.69434 5.68358C9.69434 5.42293 9.91048 5.20679 10.1711 5.20679H12.714C12.9747 5.20679 13.1908 5.42293 13.1908 5.68358C13.1908 5.94423 12.9747 6.16038 12.714 6.16038Z" fill="#21365F"/>
<path d="M11.4426 7.43181C11.182 7.43181 10.9658 7.21566 10.9658 6.95501V4.4121C10.9658 4.15145 11.182 3.9353 11.4426 3.9353C11.7033 3.9353 11.9194 4.15145 11.9194 4.4121V6.95501C11.9194 7.21566 11.7033 7.43181 11.4426 7.43181Z" fill="#21365F"/>
<path d="M39.4152 32.8672H36.8723C36.6117 32.8672 36.3955 32.651 36.3955 32.3904C36.3955 32.1297 36.6117 31.9136 36.8723 31.9136H39.4152C39.6759 31.9136 39.892 32.1297 39.892 32.3904C39.892 32.651 39.6822 32.8672 39.4152 32.8672Z" fill="#21365F"/>
<path d="M38.1438 34.1386C37.8831 34.1386 37.667 33.9224 37.667 33.6618V31.1189C37.667 30.8582 37.8831 30.6421 38.1438 30.6421C38.4044 30.6421 38.6206 30.8582 38.6206 31.1189V33.6618C38.6206 33.9224 38.4108 34.1386 38.1438 34.1386Z" fill="#21365F"/>
<path d="M12.0783 30.9536H9.53539C9.27474 30.9536 9.05859 30.7374 9.05859 30.4768C9.05859 30.2161 9.27474 30 9.53539 30H12.0783C12.3389 30 12.5551 30.2161 12.5551 30.4768C12.5551 30.7438 12.3389 30.9536 12.0783 30.9536Z" fill="#21365F"/>
<path d="M10.8069 32.2253C10.5462 32.2253 10.3301 32.0091 10.3301 31.7485V29.2056C10.3301 28.9449 10.5462 28.7288 10.8069 28.7288C11.0675 28.7288 11.2837 28.9449 11.2837 29.2056V31.7485C11.2837 32.0155 11.0675 32.2253 10.8069 32.2253Z" fill="#21365F"/>
<path d="M10.1711 22.0534H7.62816C7.36751 22.0534 7.15137 21.8373 7.15137 21.5766C7.15137 21.316 7.36751 21.0999 7.62816 21.0999H10.1711C10.4317 21.0999 10.6479 21.316 10.6479 21.5766C10.6479 21.8437 10.4317 22.0534 10.1711 22.0534Z" fill="#21365F"/>
<path d="M8.89965 23.3249C8.639 23.3249 8.42285 23.1087 8.42285 22.8481V20.3052C8.42285 20.0445 8.639 19.8284 8.89965 19.8284C9.1603 19.8284 9.37644 20.0445 9.37644 20.3052V22.8481C9.37644 23.1151 9.1603 23.3249 8.89965 23.3249Z" fill="#21365F"/>
<path d="M25.4352 3.14697L27.8128 6.42733L31.2712 4.304L32.2121 8.25187L36.2235 7.60978L35.5814 11.6212L39.5293 12.5621L37.406 16.0205L40.6927 18.4044L37.406 20.7821L39.5293 24.2404L35.5814 25.1813L36.2235 29.1927L32.2121 28.5507L31.2712 32.4985L27.8128 30.3752L25.4352 33.6619L23.0512 30.3752L19.5929 32.4985L18.652 28.5507L14.6469 29.1927L15.2826 25.1813L11.3348 24.2404L13.4581 20.7821L10.1777 18.4044L13.4581 16.0205L11.3348 12.5621L15.2826 11.6212L14.6469 7.60978L18.652 8.25187L19.5929 4.304L23.0512 6.42733L25.4352 3.14697Z" fill="white"/>
<path d="M37.406 20.782L40.6927 18.398L37.406 16.0141L39.5293 12.5557L35.5814 11.6148L36.2235 7.60974L32.2184 8.25182L31.2776 4.30396L29.8408 5.18762L30.9661 9.0592C31.0551 9.36435 31.3539 9.55507 31.6654 9.51057L34.2846 9.12913C34.5134 9.09734 34.7041 9.31349 34.6342 9.536L33.8141 12.2823C33.7124 12.632 33.9222 13.0007 34.2782 13.0834L36.3825 13.5856C36.5922 13.6364 36.694 13.878 36.5795 14.0624L35.4034 15.9759C35.2318 16.262 35.3017 16.6307 35.5751 16.8214L37.3933 18.1374C37.5713 18.2645 37.5713 18.5252 37.3933 18.6523L35.5751 19.9683C35.3081 20.1654 35.2318 20.5341 35.4034 20.8138L36.5795 22.7273C36.694 22.9117 36.5922 23.1533 36.3825 23.2041L34.2782 23.7064C33.9222 23.789 33.7124 24.1577 33.8141 24.5074L34.6215 27.2156C34.6914 27.4508 34.488 27.667 34.2464 27.6161L31.8815 27.1012C31.5446 27.0249 31.214 27.2347 31.1313 27.5652L30.057 31.742L31.2712 32.4858L32.2121 28.5379L36.2172 29.18L35.5751 25.1749L39.523 24.234L37.406 20.782Z" fill="#BDC3D8"/>
<path d="M25.435 34.1387C25.2824 34.1387 25.1362 34.0624 25.0472 33.9416L22.9238 31.0109L19.8406 32.9054C19.707 32.988 19.5481 33.0008 19.4083 32.9372C19.2684 32.88 19.1603 32.7528 19.1285 32.6066L18.2894 29.091L14.7166 29.6632C14.5704 29.6886 14.4114 29.6378 14.3034 29.5297C14.1953 29.4216 14.1444 29.269 14.1699 29.1165L14.742 25.5437L11.2264 24.7045C11.0802 24.6664 10.9531 24.5646 10.8959 24.4248C10.8386 24.2849 10.8514 24.126 10.9276 23.9925L12.8221 20.9092L9.89141 18.7859C9.77062 18.6969 9.69434 18.5507 9.69434 18.3981C9.69434 18.2455 9.77062 18.0993 9.89141 18.0103L12.8221 15.8933L10.9276 12.81C10.845 12.6765 10.8323 12.5176 10.8959 12.3777C10.9531 12.2379 11.0802 12.1298 11.2264 12.098L14.742 11.2589L14.1699 7.68607C14.1444 7.53349 14.1953 7.38092 14.3034 7.27285C14.4114 7.16477 14.564 7.11391 14.7166 7.13934L18.2894 7.7115L19.1285 4.19592C19.1667 4.04971 19.2684 3.92256 19.4083 3.86534C19.5481 3.80813 19.707 3.82084 19.8406 3.89713L22.9238 5.7916L25.0472 2.86089C25.1362 2.74011 25.2824 2.66382 25.435 2.66382C25.5875 2.66382 25.7337 2.74011 25.8228 2.86089L27.9461 5.7916L31.0294 3.89713C31.1629 3.81449 31.3218 3.80177 31.4617 3.86534C31.6015 3.92256 31.7096 4.04971 31.7414 4.19592L32.5805 7.7115L36.1533 7.13934C36.3059 7.11391 36.4585 7.16477 36.5666 7.27285C36.6746 7.38092 36.7255 7.53349 36.7001 7.68607L36.1279 11.2589L39.6435 12.098C39.7897 12.1362 39.9168 12.2379 39.9741 12.3777C40.0313 12.5176 40.0186 12.6765 39.9423 12.81L38.0414 15.8933L40.9721 18.0166C41.0929 18.1056 41.1692 18.2519 41.1692 18.4044C41.1692 18.557 41.0929 18.7032 40.9721 18.7922L38.0414 20.9156L39.9359 23.9988C40.0186 24.1323 40.0313 24.2913 39.9677 24.4311C39.9105 24.571 39.7833 24.6791 39.6371 24.7109L36.1215 25.55L36.6937 29.1228C36.7191 29.2754 36.6683 29.428 36.5602 29.536C36.4521 29.6441 36.2995 29.695 36.147 29.6695L32.5742 29.0974L31.735 32.613C31.6969 32.7592 31.5952 32.8863 31.4553 32.9435C31.3154 33.0008 31.1565 32.988 31.023 32.9118L27.9397 31.0173L25.8164 33.948C25.7274 34.0624 25.5875 34.1387 25.435 34.1387ZM23.051 29.8984C23.1972 29.8984 23.3434 29.9683 23.4388 30.0955L25.435 32.8482L27.4311 30.0955C27.5774 29.892 27.8571 29.8412 28.0669 29.9683L30.9658 31.7484L31.7541 28.4426C31.8113 28.201 32.0465 28.0421 32.2945 28.0802L35.6511 28.6142L35.1171 25.2576C35.079 25.0097 35.2315 24.7744 35.4795 24.7172L38.7852 23.9289L37.0052 21.03C36.8717 20.8202 36.9289 20.5405 37.1324 20.3943L39.8851 18.3981L37.1324 16.4019C36.9289 16.2557 36.8781 15.976 37.0052 15.7662L38.7852 12.8673L35.4795 12.0789C35.2379 12.0217 35.079 11.7865 35.1171 11.5386L35.6511 8.18194L32.2945 8.71595C32.0465 8.76045 31.8113 8.60152 31.7541 8.35358L30.9658 5.0478L28.0669 6.82784C27.8571 6.96134 27.5774 6.90412 27.4311 6.70069L25.435 3.94799L23.4388 6.70069C23.2926 6.90412 23.0128 6.95498 22.803 6.82784L19.9041 5.0478L19.1158 8.35358C19.0586 8.59516 18.817 8.75409 18.5755 8.71595L15.2188 8.18194L15.7528 11.5386C15.791 11.7865 15.6384 12.0217 15.3905 12.0789L12.0847 12.8673L13.8647 15.7662C13.9982 15.976 13.941 16.2557 13.7376 16.4019L10.9849 18.3981L13.7376 20.3943C13.941 20.5405 13.9919 20.8202 13.8647 21.03L12.0847 23.9289L15.3905 24.7172C15.632 24.7744 15.791 25.0097 15.7528 25.2576L15.2188 28.6142L18.5755 28.0802C18.817 28.0357 19.0586 28.1947 19.1158 28.4426L19.9041 31.7484L22.803 29.9683C22.8793 29.9175 22.9683 29.8984 23.051 29.8984Z" fill="#21365F"/>
<path d="M33.6995 18.4045C33.6995 13.6874 29.7517 9.89843 24.9837 10.1527C20.7497 10.3816 17.3105 13.8972 17.177 18.1311C17.1007 20.5787 18.0924 22.7973 19.7199 24.3549C20.629 25.2258 21.1121 26.4464 21.1121 27.6988V28.5698H29.7707V27.6098C29.7707 26.3511 30.3175 25.175 31.2202 24.2977C32.7396 22.8037 33.6995 20.7122 33.6995 18.4045Z" fill="white"/>
<path d="M28.195 10.6167C30.1276 12.1297 31.3736 14.4819 31.3736 17.1329C31.3736 19.447 30.42 21.5321 28.8879 23.0325C27.9852 23.9098 27.4384 25.0859 27.4384 26.3446L27.1396 28.576H29.7588V27.6161C29.7588 26.3573 30.3056 25.1812 31.2083 24.3039C32.7404 22.8036 33.694 20.7184 33.694 18.4044C33.7004 14.8061 31.399 11.7547 28.195 10.6167Z" fill="#BDC3D8"/>
<path d="M29.7642 29.053H21.1056C20.8449 29.053 20.6288 28.8368 20.6288 28.5762V27.7052C20.6288 26.5546 20.1774 25.4611 19.3827 24.7046C17.5963 22.9945 16.6173 20.5914 16.6936 18.1184C16.8398 13.6238 20.4635 9.91755 24.9517 9.67597C27.3738 9.54247 29.6879 10.3943 31.4425 12.06C33.2035 13.7256 34.1698 15.9824 34.1698 18.4045C34.1698 20.7694 33.2352 22.9881 31.5378 24.6474C30.6987 25.4675 30.2346 26.5228 30.2346 27.6162V28.5825C30.241 28.8368 30.0248 29.053 29.7642 29.053ZM21.5823 28.0994H29.2874V27.6099C29.2874 26.2558 29.8532 24.9589 30.8767 23.9608C32.3897 22.4859 33.2225 20.5088 33.2225 18.4045C33.2225 16.243 32.3579 14.2405 30.794 12.7529C29.2302 11.2653 27.1768 10.5088 25.0089 10.6296C21.0102 10.8394 17.7807 14.1451 17.6536 18.1502C17.5836 20.3498 18.4546 22.4922 20.0439 24.018C21.0229 24.9525 21.5823 26.3003 21.5823 27.7052V28.0994Z" fill="#21365F"/>
<path d="M27.1074 29.0529H23.7126C23.4965 29.0529 23.3121 28.9067 23.2549 28.7032L20.8455 19.9302C20.7946 19.7395 20.8645 19.536 21.0235 19.4152C21.1824 19.3008 21.3986 19.2945 21.5702 19.4025L23.5346 20.7121L25.143 19.428C25.3146 19.2881 25.5626 19.2881 25.7406 19.428L27.3363 20.7121L29.3006 19.4025C29.4659 19.2945 29.6821 19.2945 29.8474 19.4152C30.0063 19.5297 30.0826 19.7395 30.0254 19.9302L27.5715 28.7032C27.5143 28.9067 27.3235 29.0529 27.1074 29.0529ZM24.075 28.0993H26.745L28.7539 20.9156L27.5715 21.7039C27.3998 21.8183 27.171 21.8119 27.012 21.6784L25.4291 20.4133L23.8461 21.6784C23.6808 21.8056 23.4583 21.8183 23.2867 21.7039L22.0979 20.9092L24.075 28.0993Z" fill="#21365F"/>
<path d="M27.66 33.662H23.2099C22.5106 33.662 21.9385 33.0898 21.9385 32.3905V28.5762H28.9315V32.3905C28.9315 33.0898 28.3593 33.662 27.66 33.662Z" fill="#BDC3D8"/>
<path d="M26.3886 32.3905H21.9385V28.5762H27.0243V31.7548C27.0243 32.1045 26.7382 32.3905 26.3886 32.3905Z" fill="white"/>
<path d="M27.6603 34.1388H23.2102C22.2439 34.1388 21.4619 33.3568 21.4619 32.3905V28.5762C21.4619 28.3155 21.6781 28.0994 21.9387 28.0994H28.9317C29.1924 28.0994 29.4085 28.3155 29.4085 28.5762V32.3905C29.4085 33.3505 28.6202 34.1388 27.6603 34.1388ZM22.4155 29.053V32.3905C22.4155 32.8292 22.7715 33.1852 23.2102 33.1852H27.6603C28.0989 33.1852 28.4549 32.8292 28.4549 32.3905V29.053H22.4155Z" fill="#21365F"/>
<path d="M25.7472 31.5957H21.9329C21.6722 31.5957 21.4561 31.3795 21.4561 31.1189C21.4561 30.8582 21.6722 30.6421 21.9329 30.6421H25.7472C26.0079 30.6421 26.224 30.8582 26.224 31.1189C26.224 31.3795 26.0142 31.5957 25.7472 31.5957Z" fill="#21365F"/>
</g>
<defs>
<clipPath id="clip0">
<rect width="50" height="48.2772" fill="white"/>
</clipPath>
</defs>
</svg>
