<svg width="21" height="36" viewBox="0 0 21 36" fill="none" xmlns="http://www.w3.org/2000/svg">
<path d="M10.0785 25.6761C8.18308 25.6761 6.64104 24.1341 6.64104 22.2386V19.0235C6.64104 16.3302 8.43251 13.9145 10.9977 13.149C12.3762 12.7377 13.3152 11.4424 13.2812 9.99919C13.2416 8.31654 11.8405 6.91543 10.1578 6.8758C9.28877 6.85517 8.46345 7.17787 7.84051 7.7863C7.21789 8.39442 6.875 9.20846 6.875 10.0784C6.875 11.9738 5.33296 13.5159 3.4375 13.5159C1.54204 13.5159 0 11.9738 0 10.0784C0 7.34136 1.07852 4.78064 3.03671 2.8681C4.99232 0.957925 7.57861 -0.058716 10.3188 0.0026219C12.911 0.0636375 15.3542 1.11326 17.199 2.95801C19.0437 4.80277 20.0934 7.24597 20.1544 9.83731C20.2565 14.1758 17.5531 18.0905 13.5161 19.5545V22.2384C13.516 24.1341 11.974 25.6761 10.0785 25.6761ZM10.0748 4.72639C10.1196 4.72639 10.1643 4.72693 10.2093 4.728C13.0208 4.79418 15.3628 7.13608 15.429 9.94871C15.4857 12.3576 13.9162 14.5204 11.6121 15.2079C9.95017 15.7037 8.78947 17.2728 8.78947 19.0235V22.2386C8.78947 22.9494 9.36772 23.5277 10.0785 23.5277C10.7893 23.5277 11.3676 22.9494 11.3676 22.2386V19.0235C11.3676 18.4039 11.7713 17.8508 12.3493 17.6784C15.7642 16.6594 18.0905 13.4558 18.0065 9.88801C17.9585 7.85129 17.1322 5.92973 15.6797 4.47728C14.2273 3.02483 12.3057 2.19854 10.269 2.15052C8.11218 2.10197 6.07653 2.90215 4.53782 4.40509C2.99696 5.91007 2.14844 7.92488 2.14844 10.0785C2.14844 10.7893 2.72669 11.3675 3.4375 11.3675C4.14831 11.3675 4.72656 10.7893 4.72656 10.0785C4.72656 8.62505 5.29934 7.2652 6.33929 6.24942C7.34787 5.26425 8.6698 4.72639 10.0748 4.72639Z" fill="#303030"/>
<path d="M10.0781 35.1292C8.18267 35.1292 6.64062 33.5871 6.64062 31.6917C6.64062 29.7962 8.18267 28.2542 10.0781 28.2542C11.9736 28.2542 13.5156 29.7962 13.5156 31.6917C13.5156 33.5871 11.9736 35.1292 10.0781 35.1292ZM10.0781 30.4026C9.36731 30.4026 8.78906 30.9808 8.78906 31.6917C8.78906 32.4025 9.36731 32.9807 10.0781 32.9807C10.7889 32.9807 11.3672 32.4025 11.3672 31.6917C11.3672 30.9808 10.7889 30.4026 10.0781 30.4026Z" fill="#303030"/>
</svg>
