<svg width="31" height="28" viewBox="0 0 31 28" fill="none" xmlns="http://www.w3.org/2000/svg">
<g opacity="0.1" clip-path="url(#clip0)">
<path d="M15.2656 4.03386C14.739 4.03386 14.3115 3.64179 14.3115 3.15871V0.87515C14.3115 0.392067 14.739 0 15.2656 0C15.7923 0 16.2197 0.392067 16.2197 0.87515V3.15871C16.2197 3.64179 15.7923 4.03386 15.2656 4.03386Z" fill="#303030"/>
<path d="M23.6247 7.20961C23.3804 7.20961 23.1362 7.12443 22.9504 6.95292C22.5777 6.61105 22.5777 6.05683 22.9504 5.71497L24.7111 4.10015C25.0838 3.75828 25.6881 3.75828 26.0608 4.10015C26.4335 4.44201 26.4335 4.99623 26.0608 5.3381L24.3002 6.95292C24.1132 7.12327 23.8689 7.20961 23.6247 7.20961Z" fill="#303030"/>
<path d="M29.5765 14.8753H27.0869C26.5603 14.8753 26.1328 14.4832 26.1328 14.0001C26.1328 13.5171 26.5603 13.125 27.0869 13.125H29.5765C30.1032 13.125 30.5306 13.5171 30.5306 14.0001C30.5306 14.4832 30.1032 14.8753 29.5765 14.8753Z" fill="#303030"/>
<path d="M25.3853 24.1559C25.141 24.1559 24.8968 24.0707 24.7111 23.8992L22.9504 22.2844C22.5777 21.9425 22.5777 21.3883 22.9504 21.0464C23.3232 20.7046 23.9274 20.7046 24.3002 21.0464L26.0608 22.6613C26.4335 23.0031 26.4335 23.5573 26.0608 23.8992C25.8738 24.0707 25.6295 24.1559 25.3853 24.1559Z" fill="#303030"/>
<path d="M5.14518 24.1559C4.90094 24.1559 4.65669 24.0707 4.47096 23.8992C4.09822 23.5573 4.09822 23.0031 4.47096 22.6613L6.23158 21.0464C6.60432 20.7046 7.20858 20.7046 7.58131 21.0464C7.95404 21.3883 7.95404 21.9425 7.58131 22.2844L5.82068 23.8992C5.63368 24.0707 5.38943 24.1559 5.14518 24.1559Z" fill="#303030"/>
<path d="M3.44366 14.8753H0.954098C0.427436 14.8753 0 14.4832 0 14.0001C0 13.5171 0.427436 13.125 0.954098 13.125H3.44366C3.97032 13.125 4.39775 13.5171 4.39775 14.0001C4.39775 14.4832 3.97032 14.8753 3.44366 14.8753Z" fill="#303030"/>
<path d="M6.90581 7.20961C6.66156 7.20961 6.41731 7.12443 6.23158 6.95292L4.47096 5.3381C4.09822 4.99623 4.09822 4.44201 4.47096 4.10015C4.84369 3.75828 5.44795 3.75828 5.82068 4.10015L7.58131 5.71497C7.95404 6.05683 7.95404 6.61105 7.58131 6.95292C7.39303 7.12327 7.15006 7.20961 6.90581 7.20961Z" fill="#303030"/>
<path d="M19.082 24.5V25.9586C19.082 27.0788 18.077 28.0006 16.8558 28.0006H13.6754C12.6069 28.0006 11.4492 27.2538 11.4492 25.6202V24.5H19.082Z" fill="#303030"/>
<path d="M20.875 7.65434C18.7887 6.10267 16.0409 5.496 13.3568 6.021C9.9856 6.66267 7.25052 9.18267 6.55085 12.2743C5.83846 15.4477 7.13603 18.5977 9.90928 20.5227C10.6598 21.036 11.1814 21.8293 11.3595 22.751V22.7627C11.3849 22.751 11.4231 22.751 11.4486 22.751H19.0813C19.1068 22.751 19.1195 22.751 19.1449 22.7627V22.751C19.323 21.8643 19.8955 21.0477 20.7733 20.4177C22.9232 18.8543 24.1699 16.521 24.1699 14.001C24.1699 11.5277 22.9741 9.21767 20.875 7.65434ZM20.0354 14.5843C19.5139 14.5843 19.0813 14.1877 19.0813 13.7093C19.0813 11.936 17.5166 10.501 15.583 10.501C15.0614 10.501 14.6289 10.1043 14.6289 9.626C14.6289 9.14767 15.0614 8.751 15.583 8.751C18.5598 8.751 20.9895 10.9793 20.9895 13.7093C20.9895 14.1877 20.557 14.5843 20.0354 14.5843Z" fill="#303030"/>
<path d="M11.3604 22.75H11.4494C11.424 22.75 11.3858 22.75 11.3604 22.7627V22.75Z" fill="#303030"/>
<path d="M19.1456 22.75V22.7627C19.1202 22.75 19.1075 22.75 19.082 22.75H19.1456Z" fill="#303030"/>
</g>
<defs>
<clipPath id="clip0">
<rect width="30.5311" height="28" fill="white"/>
</clipPath>
</defs>
</svg>
