<svg width="16" height="16" viewBox="0 0 16 16" fill="none" xmlns="http://www.w3.org/2000/svg">
<g clip-path="url(#clip0)">
<path d="M2.90783 7.85491C2.0565 8.71976 1.27726 9.63322 0.590602 10.6449C0.449309 10.8526 0.441953 11.2148 0.590602 11.4214C1.59918 12.8245 2.60804 14.2273 3.61661 15.6301C3.96286 16.1115 4.60363 16.1349 4.94558 15.6301C5.81501 14.3461 6.86421 13.248 7.99988 12.2117C9.13526 13.2479 10.1848 14.3464 11.0542 15.6301C11.3961 16.1349 12.0369 16.1115 12.3831 15.6301C13.3917 14.227 14.4006 12.8242 15.4092 11.4214C15.5578 11.2146 15.5505 10.8523 15.4092 10.6449C14.7225 9.63322 13.9429 8.71976 13.0919 7.85491C13.8715 7.12366 14.6105 6.36038 15.2894 5.52694C15.4944 5.27547 15.6237 4.89233 15.4101 4.5947C14.4012 3.19155 13.3923 1.78875 12.3834 0.385939C12.1212 0.021247 11.5149 -0.185912 11.1751 0.230216C10.217 1.40408 9.13645 2.43942 8.00016 3.43011C6.86387 2.43936 5.78332 1.40402 4.82522 0.230216C4.48542 -0.186195 3.87911 0.021247 3.6169 0.385939C2.60804 1.78903 1.59918 3.19189 0.590319 4.5947C0.37671 4.89233 0.506007 5.27547 0.710959 5.52694C1.38959 6.36004 2.12825 7.12366 2.90783 7.85491ZM4.3374 2.00756C5.29827 3.08228 6.35116 4.0555 7.45604 4.9917C7.79674 5.2804 8.20364 5.2804 8.54401 4.9917C9.64889 4.05578 10.7018 3.08228 11.6626 2.00756C12.3656 2.98535 13.0686 3.96315 13.7718 4.94094C13.0455 5.77501 12.2643 6.54813 11.4374 7.28985C11.217 7.48745 11.1616 7.72194 11.2084 7.93708C11.2253 8.0885 11.2939 8.24117 11.4374 8.3781C12.3044 9.20634 13.0978 10.0711 13.7998 11.0363C13.1043 12.0034 12.4093 12.9703 11.7137 13.9374C10.7757 12.7294 9.70338 11.6546 8.54434 10.6365C8.21377 10.346 7.78689 10.346 7.45638 10.6365C6.29729 11.655 5.22505 12.7294 4.28698 13.9374C3.59143 12.9703 2.89617 12.0034 2.20091 11.0363C2.90296 10.0711 3.69606 9.20662 4.56334 8.3781C4.85447 8.10021 4.87049 7.56559 4.56334 7.29014C3.73669 6.54842 2.95525 5.77557 2.22892 4.94122C2.9312 3.96315 3.63444 2.98507 4.3374 2.00756Z" fill="#F30505"/>
</g>
<defs>
<clipPath id="clip0">
<rect width="16" height="16" fill="white"/>
</clipPath>
</defs>
</svg>
