<svg width="75" height="67" viewBox="0 0 75 67" fill="none" xmlns="http://www.w3.org/2000/svg">
<path d="M12.9999 42.4817C20.1795 42.4817 25.9998 36.6614 25.9998 29.4818C25.9998 22.3022 20.1795 16.4819 12.9999 16.4819C5.82024 16.4819 0 22.3022 0 29.4818C0 36.6614 5.82024 42.4817 12.9999 42.4817Z" fill="#59DBF0"/>
<path d="M63.8576 22.982C70.0116 22.982 75.0003 17.9933 75.0003 11.8393C75.0003 5.68531 70.0116 0.696533 63.8576 0.696533C57.7036 0.696533 52.7148 5.68531 52.7148 11.8393C52.7148 17.9933 57.7036 22.982 63.8576 22.982Z" fill="#59DBF0"/>
<path d="M55.4814 66.8566C65.738 66.8566 74.0527 58.542 74.0527 48.2854C74.0527 38.0287 65.738 29.7141 55.4814 29.7141C45.2248 29.7141 36.9102 38.0287 36.9102 48.2854C36.9102 58.542 45.2248 66.8566 55.4814 66.8566Z" fill="#59DBF0"/>
<path d="M50.375 54.553H26.2324V60.1244H50.375V54.553Z" fill="#59DBF0"/>
<path d="M45.7322 54.553H26.2324V58.2672H42.018C44.0701 58.2672 45.7322 56.6051 45.7322 54.553Z" fill="white"/>
<path d="M50.3742 60.8209H26.2316C25.8509 60.8209 25.5352 60.5052 25.5352 60.1245V54.5531C25.5352 54.1724 25.8509 53.8567 26.2316 53.8567H50.3742C50.7549 53.8567 51.0706 54.1724 51.0706 54.5531V60.1245C51.0706 60.5145 50.7642 60.8209 50.3742 60.8209ZM26.928 59.4281H49.6778V55.2495H26.928V59.4281Z" fill="#303030"/>
<path d="M68.0179 48.9816H8.58984V14.6248C8.58984 13.0834 9.83412 11.8391 11.3755 11.8391H65.2322C66.7736 11.8391 68.0179 13.0834 68.0179 14.6248V48.9816Z" fill="#59DBF0"/>
<path d="M43.8752 46.1959H8.58984V14.6248C8.58984 13.0834 9.83412 11.8391 11.3755 11.8391H60.5893V29.4818C60.5893 38.7117 53.1051 46.1959 43.8752 46.1959Z" fill="white"/>
<path d="M68.017 49.6782H8.589C8.20829 49.6782 7.89258 49.3625 7.89258 48.9817V14.6249C7.89258 12.7028 9.45256 11.1428 11.3747 11.1428H65.2313C67.1534 11.1428 68.7134 12.7028 68.7134 14.6249V48.9817C68.7134 49.3717 68.407 49.6782 68.017 49.6782ZM9.28542 48.2853H67.3206V14.6249C67.3206 13.4735 66.3827 12.5357 65.2313 12.5357H11.3747C10.2233 12.5357 9.28542 13.4735 9.28542 14.6249V48.2853Z" fill="#303030"/>
<path d="M65.2322 54.5531H11.3755C9.83412 54.5531 8.58984 53.3088 8.58984 51.7674V48.9817H68.0179V51.7674C68.0179 53.3088 66.7736 54.5531 65.2322 54.5531Z" fill="#59DBF0"/>
<path d="M58.7322 52.6959H8.58984V48.9817H62.4465C62.4465 51.0338 60.7843 52.6959 58.7322 52.6959Z" fill="white"/>
<path d="M65.2313 55.2494H11.3747C9.45256 55.2494 7.89258 53.6894 7.89258 51.7673V48.9816C7.89258 48.6009 8.20829 48.2852 8.589 48.2852H68.017C68.3977 48.2852 68.7134 48.6009 68.7134 48.9816V51.7673C68.7134 53.6894 67.1534 55.2494 65.2313 55.2494ZM9.28542 49.678V51.7673C9.28542 52.9187 10.2233 53.8565 11.3747 53.8565H65.2313C66.3827 53.8565 67.3206 52.9187 67.3206 51.7673V49.678H9.28542Z" fill="#303030"/>
<path d="M56.8741 60.8208H19.7316C19.3509 60.8208 19.0352 60.5051 19.0352 60.1244C19.0352 59.7437 19.3509 59.428 19.7316 59.428H56.8741C57.2548 59.428 57.5705 59.7437 57.5705 60.1244C57.5705 60.5144 57.2641 60.8208 56.8741 60.8208Z" fill="#303030"/>
<path d="M38.3038 52.4639C38.6885 52.4639 39.0003 52.1521 39.0003 51.7675C39.0003 51.3828 38.6885 51.071 38.3038 51.071C37.9192 51.071 37.6074 51.3828 37.6074 51.7675C37.6074 52.1521 37.9192 52.4639 38.3038 52.4639Z" fill="#303030"/>
<path d="M44.8026 44.339H31.8027L34.5884 38.7676H42.0169L44.8026 44.339Z" fill="#59DBF0"/>
<path d="M40.1598 44.339H31.8027L34.5884 38.7676H39.2312L40.1598 44.339Z" fill="white"/>
<path d="M44.8027 45.0353H31.8028C31.5614 45.0353 31.3385 44.9146 31.2085 44.701C31.0785 44.4967 31.0692 44.2367 31.1807 44.0231L33.9663 38.4518C34.0871 38.2196 34.3285 38.071 34.5885 38.071H42.017C42.277 38.071 42.5184 38.2196 42.6391 38.4518L45.4248 44.0231C45.5362 44.2367 45.5177 44.4967 45.397 44.701C45.267 44.9146 45.0441 45.0353 44.8027 45.0353ZM32.9264 43.6424H43.6698L41.5806 39.4639H35.0156L32.9264 43.6424Z" fill="#303030"/>
<path d="M29.0183 36.9103L15.0898 40.6245L19.3519 31.3389L24.1155 29.0825L29.0183 19.2676V36.9103Z" fill="#59DBF0"/>
<path d="M26.2309 35.0533L16.4531 37.6626L19.3502 31.339L24.1138 29.0826L26.2309 24.8391V35.0533Z" fill="white"/>
<path d="M15.0891 41.3209C14.8848 41.3209 14.6898 41.2281 14.5598 41.0702C14.3834 40.8659 14.3463 40.5781 14.4577 40.3274L18.7198 31.0417C18.7848 30.8932 18.9055 30.7724 19.0541 30.7074L23.5948 28.5439L28.3861 18.9426C28.5347 18.6547 28.8504 18.4968 29.1661 18.5804C29.4911 18.664 29.714 18.9426 29.714 19.2676V36.9102C29.714 37.226 29.5004 37.5045 29.194 37.5788L15.2656 41.2931C15.2098 41.3116 15.1541 41.3209 15.0891 41.3209ZM19.8805 31.8589L16.3427 39.5659L28.3211 36.3717V22.2204L24.7369 29.3889C24.6626 29.5282 24.5512 29.6396 24.4119 29.7046L19.8805 31.8589Z" fill="#303030"/>
<path d="M47.5879 36.9103L61.5163 40.6245L57.2542 31.3389L52.4907 29.0825L47.5879 19.2676V36.9103Z" fill="#59DBF0"/>
<path d="M47.5879 34.431L56.8735 36.9103L53.4936 29.5561L52.4907 29.0825L47.5879 19.2676V34.431Z" fill="white"/>
<path d="M61.5174 41.321C61.4617 41.321 61.3967 41.3117 61.341 41.2931L47.4126 37.5789C47.1061 37.4953 46.8926 37.226 46.8926 36.9103V19.2676C46.8926 18.9426 47.1154 18.6641 47.4311 18.5898C47.7469 18.5155 48.0719 18.6641 48.2111 18.9519L53.0025 28.5533L57.5432 30.7168C57.6918 30.7911 57.8125 30.9025 57.8775 31.0511L62.1396 40.3367C62.251 40.5781 62.2139 40.866 62.0374 41.0796C61.9167 41.2374 61.7217 41.321 61.5174 41.321ZM48.2854 36.3717L60.2639 39.566L56.7261 31.8589L52.1947 29.7047C52.0554 29.6397 51.944 29.5282 51.8697 29.389L48.2854 22.2205V36.3717Z" fill="#303030"/>
<path d="M47.5888 36.9105L42.0175 38.7676H34.589L29.0176 36.9105V17.8657C29.0176 15.1543 29.8626 12.5171 31.4411 10.3072L38.3032 0.696533L45.1653 10.3072C46.7438 12.5171 47.5888 15.1543 47.5888 17.8657V36.9105Z" fill="white"/>
<path d="M47.5895 17.8657C47.5895 15.1543 46.7445 12.5171 45.1659 10.3072L38.3039 0.696533L37.041 2.4608L43.3088 11.2357C44.8874 13.4457 45.7324 16.0828 45.7324 18.7942V37.5326L47.5895 36.9105V17.8657Z" fill="#59DBF0"/>
<path d="M42.0166 39.464H34.5881C34.5138 39.464 34.4395 39.4547 34.3653 39.4269L28.7939 37.5697C28.506 37.4769 28.3203 37.2076 28.3203 36.9105V17.8656C28.3203 14.9964 29.2024 12.2386 30.8739 9.90786L37.7359 0.297239C37.9959 -0.0649001 38.6088 -0.0649001 38.8688 0.297239L45.7309 9.90786C47.4023 12.2478 48.2844 14.9964 48.2844 17.8656V36.9105C48.2844 37.2076 48.0894 37.4769 47.8108 37.5697L42.2395 39.4269C42.1652 39.4547 42.0909 39.464 42.0166 39.464ZM34.6995 38.0712H41.8959L46.8823 36.409V17.8656C46.8823 15.2842 46.093 12.8143 44.5887 10.7157L38.2931 1.89437L31.9974 10.7157C30.5024 12.8143 29.7132 15.2842 29.7132 17.8656V36.409L34.6995 38.0712Z" fill="#303030"/>
<path d="M42.9458 18.1071L38.303 17.1785L33.6602 18.1071V16.9464C33.6602 15.5907 34.0873 14.2721 34.8673 13.1671L38.303 8.35718L41.7386 13.1671C42.5279 14.2721 42.9458 15.5907 42.9458 16.9464V18.1071Z" fill="white"/>
<path d="M42.9461 16.9371C42.9461 15.5814 42.519 14.2628 41.739 13.1578L38.3033 8.35718L36.5762 10.7714L38.944 14.0957C39.6683 15.1078 40.0676 16.3057 40.1326 17.5499L42.9461 18.1164V16.9371Z" fill="#59DBF0"/>
<path d="M42.9454 18.8035C42.899 18.8035 42.8526 18.8035 42.8061 18.7942L38.3026 17.8935L33.7991 18.7942C33.5948 18.8314 33.3812 18.7849 33.2234 18.6456C33.0655 18.5156 32.9727 18.3114 32.9727 18.1071V16.9371C32.9727 15.4328 33.4369 13.9843 34.3098 12.7586L37.7455 7.94861C38.0055 7.58647 38.6183 7.58647 38.8783 7.94861L42.314 12.7586C43.1868 13.9843 43.6511 15.4328 43.6511 16.9371V18.1071C43.6511 18.3114 43.5583 18.5156 43.4004 18.6456C43.2611 18.7478 43.1033 18.8035 42.9454 18.8035ZM38.3026 16.4821C38.349 16.4821 38.3955 16.4821 38.4419 16.4914L42.249 17.2528V16.9371C42.249 15.7207 41.8776 14.5507 41.1719 13.5664L38.3026 9.55502L35.4333 13.5664C34.7276 14.56 34.3562 15.7207 34.3562 16.9371V17.2528L38.1633 16.4914C38.2097 16.4821 38.2562 16.4821 38.3026 16.4821Z" fill="#303030"/>
<path d="M42.9458 26.464L38.303 25.5354L33.6602 26.464V21.8211L38.303 20.8926L42.9458 21.8211V26.464Z" fill="white"/>
<path d="M42.9458 21.8213L40.1602 21.2642V25.907L42.9458 26.4641V21.8213Z" fill="#59DBF0"/>
<path d="M42.9454 27.1605C42.899 27.1605 42.8526 27.1605 42.8061 27.1512L38.3026 26.2505L33.7991 27.1512C33.5948 27.1884 33.3812 27.1419 33.2234 27.0026C33.0655 26.8727 32.9727 26.6684 32.9727 26.4641V21.8213C32.9727 21.487 33.2048 21.1991 33.5298 21.1434L38.1726 20.2149C38.2655 20.1963 38.3583 20.1963 38.4419 20.2149L43.0847 21.1434C43.4097 21.2084 43.6418 21.4963 43.6418 21.8213V26.4641C43.6418 26.6684 43.549 26.8727 43.3911 27.0026C43.2611 27.1048 43.1033 27.1605 42.9454 27.1605ZM38.3026 24.8391C38.349 24.8391 38.3955 24.8391 38.4419 24.8484L42.249 25.6098V22.3877L38.3026 21.5984L34.3562 22.3877V25.6098L38.1633 24.8484C38.2097 24.8391 38.2562 24.8391 38.3026 24.8391Z" fill="#303030"/>
<path d="M18.8038 26.4641C18.4231 26.4641 18.1074 26.1484 18.1074 25.7677V21.1249C18.1074 20.7442 18.4231 20.4285 18.8038 20.4285C19.1846 20.4285 19.5003 20.7442 19.5003 21.1249V25.7677C19.5003 26.1577 19.1846 26.4641 18.8038 26.4641Z" fill="#303030"/>
<path d="M14.1613 24.6069C13.7806 24.6069 13.4648 24.2912 13.4648 23.9105V19.2677C13.4648 18.887 13.7806 18.5713 14.1613 18.5713C14.542 18.5713 14.8577 18.887 14.8577 19.2677V23.9105C14.8577 24.3005 14.542 24.6069 14.1613 24.6069Z" fill="#303030"/>
<path d="M23.4464 22.7498C23.0657 22.7498 22.75 22.4341 22.75 22.0533V17.4105C22.75 17.0298 23.0657 16.7141 23.4464 16.7141C23.8271 16.7141 24.1428 17.0298 24.1428 17.4105V22.0533C24.1428 22.4433 23.8364 22.7498 23.4464 22.7498Z" fill="#303030"/>
<path d="M57.8019 27.3926C57.4212 27.3926 57.1055 27.0769 57.1055 26.6962V22.0534C57.1055 21.6726 57.4212 21.3569 57.8019 21.3569C58.1826 21.3569 58.4983 21.6726 58.4983 22.0534V26.6962C58.4983 27.0862 58.1919 27.3926 57.8019 27.3926Z" fill="#303030"/>
<path d="M53.1593 20.8926C52.7786 20.8926 52.4629 20.5769 52.4629 20.1962V15.5534C52.4629 15.1726 52.7786 14.8569 53.1593 14.8569C53.54 14.8569 53.8557 15.1726 53.8557 15.5534V20.1962C53.8557 20.5862 53.5493 20.8926 53.1593 20.8926Z" fill="#303030"/>
<path d="M62.4464 23.6782C62.0657 23.6782 61.75 23.3625 61.75 22.9818V18.339C61.75 17.9583 62.0657 17.6426 62.4464 17.6426C62.8271 17.6426 63.1428 17.9583 63.1428 18.339V22.9818C63.1428 23.3718 62.8364 23.6782 62.4464 23.6782Z" fill="#303030"/>
<path d="M29.9458 3.25002H26.2316C25.8509 3.25002 25.5352 2.93431 25.5352 2.5536C25.5352 2.17289 25.8509 1.85718 26.2316 1.85718H29.9458C30.3358 1.85718 30.6423 2.17289 30.6423 2.5536C30.6423 2.93431 30.3358 3.25002 29.9458 3.25002Z" fill="#303030"/>
<path d="M28.089 5.10709C27.7083 5.10709 27.3926 4.79138 27.3926 4.41067V0.696422C27.3926 0.315711 27.7083 0 28.089 0C28.479 0 28.7854 0.315711 28.7854 0.696422V4.41067C28.7854 4.79138 28.479 5.10709 28.089 5.10709Z" fill="#303030"/>
<path d="M61.5259 7.89284H57.8117C57.4309 7.89284 57.1152 7.57713 57.1152 7.19642C57.1152 6.81571 57.4309 6.5 57.8117 6.5H61.5259C61.9066 6.5 62.2223 6.81571 62.2223 7.19642C62.2223 7.57713 61.9066 7.89284 61.5259 7.89284Z" fill="#303030"/>
<path d="M59.6691 9.74992C59.2884 9.74992 58.9727 9.4342 58.9727 9.05349V5.33924C58.9727 4.95853 59.2884 4.64282 59.6691 4.64282C60.0498 4.64282 60.3655 4.95853 60.3655 5.33924V9.05349C60.3655 9.4342 60.0498 9.74992 59.6691 9.74992Z" fill="#303030"/>
<path d="M51.313 5.1072H47.5988C47.2181 5.1072 46.9023 4.79149 46.9023 4.41078C46.9023 4.03007 47.2181 3.71436 47.5988 3.71436H51.313C51.6937 3.71436 52.0094 4.03007 52.0094 4.41078C52.0094 4.79149 51.6937 5.1072 51.313 5.1072Z" fill="#303030"/>
<path d="M49.4542 6.96427C49.0735 6.96427 48.7578 6.64856 48.7578 6.26785V2.5536C48.7578 2.17289 49.0735 1.85718 49.4542 1.85718C49.8349 1.85718 50.1507 2.17289 50.1507 2.5536V6.26785C50.1507 6.64856 49.8349 6.96427 49.4542 6.96427Z" fill="#303030"/>
<path d="M18.8033 6.03567H15.089C14.7083 6.03567 14.3926 5.71995 14.3926 5.33924C14.3926 4.95853 14.7083 4.64282 15.089 4.64282H18.8033C19.1932 4.64282 19.4997 4.95853 19.4997 5.33924C19.4997 5.71995 19.1932 6.03567 18.8033 6.03567Z" fill="#303030"/>
<path d="M16.9464 7.89274C16.5657 7.89274 16.25 7.57703 16.25 7.19632V3.48207C16.25 3.10136 16.5657 2.78564 16.9464 2.78564C17.3364 2.78564 17.6428 3.10136 17.6428 3.48207V7.19632C17.6428 7.57703 17.3364 7.89274 16.9464 7.89274Z" fill="#303030"/>
</svg>
