<svg width="75" height="75" viewBox="0 0 75 75" fill="none" xmlns="http://www.w3.org/2000/svg">
<g clip-path="url(#clip0)">
<path d="M61.4507 58.3065C68.9333 58.3065 74.9991 52.2407 74.9991 44.7581C74.9991 37.2755 68.9333 31.2097 61.4507 31.2097C53.9682 31.2097 47.9023 37.2755 47.9023 44.7581C47.9023 52.2407 53.9682 58.3065 61.4507 58.3065Z" fill="#59DBF0"/>
<path d="M28.0074 74.0322C34.4211 74.0322 39.6203 68.8329 39.6203 62.4193C39.6203 56.0057 34.4211 50.8064 28.0074 50.8064C21.5938 50.8064 16.3945 56.0057 16.3945 62.4193C16.3945 68.8329 21.5938 74.0322 28.0074 74.0322Z" fill="#59DBF0"/>
<path d="M19.3548 38.7097C30.0442 38.7097 38.7097 30.0442 38.7097 19.3548C38.7097 8.66546 30.0442 0 19.3548 0C8.66546 0 0 8.66546 0 19.3548C0 30.0442 8.66546 38.7097 19.3548 38.7097Z" fill="#59DBF0"/>
<path d="M53.9512 67.5001H64.5963C66.735 67.5001 68.4673 65.7678 68.4673 63.6291V48.1453H53.9512V67.5001Z" fill="white"/>
<path d="M10.4042 15.2419C8.26546 15.2419 6.5332 16.9742 6.5332 19.1129V34.5968L20.0816 48.1452H53.9526V15.2419H10.4042Z" fill="white"/>
<path d="M6.5332 34.5967V48.1451H20.0816L6.5332 34.5967Z" fill="white"/>
<path d="M68.4673 28.7903H53.9512V38.4677H68.4673V28.7903Z" fill="white"/>
<path d="M68.4673 38.4678H53.9512V48.1452H68.4673V38.4678Z" fill="white"/>
<path d="M64.5963 15.2419H53.9512V28.7903H68.4673V19.1129C68.4673 16.9742 66.735 15.2419 64.5963 15.2419Z" fill="white"/>
<path d="M20.0801 48.1453L39.4349 67.5001V48.1453H20.0801Z" fill="white"/>
<path d="M39.4355 48.1453V67.5001H53.9517V48.1453H39.4355Z" fill="white"/>
<path d="M29.759 57.8227L20.0816 48.1453H6.5332V63.6291C6.5332 65.7678 8.26546 67.5001 10.4042 67.5001H16.2106V57.8227H29.759Z" fill="white"/>
<path d="M29.7574 57.8225H16.209V67.4999H39.4348L29.7574 57.8225Z" fill="white"/>
<path d="M68.4674 63.6291V52.9839H58.79C58.2577 52.9839 57.8223 53.4194 57.8223 53.9516V67.5H64.5965C66.7352 67.5 68.4674 65.7678 68.4674 63.6291Z" fill="#59DBF0"/>
<path d="M53.9518 31.6936H14.2744C13.7421 31.6936 13.3066 32.1291 13.3066 32.6613V41.371L20.0808 48.1452H53.9518V31.6936Z" fill="#59DBF0"/>
<path d="M11.3711 45.6387V48.1451H16.2098L13.0259 44.9612C12.4163 44.3516 11.3711 44.7774 11.3711 45.6387Z" fill="#59DBF0"/>
<path d="M32.3802 54.6387L39.4351 61.6936V52.9839H33.0673C32.206 52.9839 31.7706 54.029 32.3802 54.6387Z" fill="#59DBF0"/>
<path d="M16.2098 57.8226H29.7582L24.9195 52.9839H12.3388C11.8066 52.9839 11.3711 53.4194 11.3711 53.9516V67.5H16.2098V57.8226Z" fill="#59DBF0"/>
<path d="M34.5963 62.6614H24.9189C24.3867 62.6614 23.9512 63.0969 23.9512 63.6291V67.5001H39.435L34.5963 62.6614Z" fill="#59DBF0"/>
<path d="M64.5975 68.2259H53.9524C53.5556 68.2259 53.2266 67.8969 53.2266 67.5001V48.1452C53.2266 47.7485 53.5556 47.4194 53.9524 47.4194H68.4685C68.8653 47.4194 69.1943 47.7485 69.1943 48.1452V63.6291C69.1943 66.1646 67.133 68.2259 64.5975 68.2259ZM54.6782 66.7743H64.5975C66.3298 66.7743 67.7427 65.3614 67.7427 63.6291V48.871H54.6782V66.7743Z" fill="#303030"/>
<path d="M53.9518 48.871H20.0808C19.8873 48.871 19.7034 48.7935 19.5679 48.6581L6.01954 35.1097C5.88406 34.9742 5.80664 34.7903 5.80664 34.5968V19.1129C5.80664 16.5774 7.86793 14.5161 10.4034 14.5161H53.9518C54.3486 14.5161 54.6776 14.8451 54.6776 15.2419V48.1451C54.6776 48.5419 54.3486 48.871 53.9518 48.871ZM20.3808 47.4193H53.226V15.9677H10.4034C8.67116 15.9677 7.25825 17.3806 7.25825 19.1129V34.2968L20.3808 47.4193Z" fill="#303030"/>
<path d="M20.0808 48.8709H6.53245C6.13567 48.8709 5.80664 48.5419 5.80664 48.1451V34.5967C5.80664 34.3064 5.98083 34.0354 6.2518 33.929C6.52277 33.8128 6.83245 33.8806 7.04535 34.0838L20.5937 47.6322C20.797 47.8354 20.8647 48.1548 20.7486 48.4257C20.6421 48.6967 20.3712 48.8709 20.0808 48.8709ZM7.25825 47.4193H18.3292L7.25825 36.3483V47.4193Z" fill="#303030"/>
<path d="M68.4685 39.1935H53.9524C53.5556 39.1935 53.2266 38.8645 53.2266 38.4677V28.7903C53.2266 28.3935 53.5556 28.0645 53.9524 28.0645H68.4685C68.8653 28.0645 69.1943 28.3935 69.1943 28.7903V38.4677C69.1943 38.8645 68.8653 39.1935 68.4685 39.1935ZM54.6782 37.7419H67.7427V29.5161H54.6782V37.7419Z" fill="#303030"/>
<path d="M68.4685 48.871H53.9524C53.5556 48.871 53.2266 48.5419 53.2266 48.1452V38.4678C53.2266 38.071 53.5556 37.7419 53.9524 37.7419H68.4685C68.8653 37.7419 69.1943 38.071 69.1943 38.4678V48.1452C69.1943 48.5419 68.8653 48.871 68.4685 48.871ZM54.6782 47.4194H67.7427V39.1936H54.6782V47.4194Z" fill="#303030"/>
<path d="M68.4685 29.5161H53.9524C53.5556 29.5161 53.2266 29.1871 53.2266 28.7903V15.2419C53.2266 14.8451 53.5556 14.5161 53.9524 14.5161H64.5975C67.133 14.5161 69.1943 16.5774 69.1943 19.1129V28.7903C69.1943 29.1871 68.8653 29.5161 68.4685 29.5161ZM54.6782 28.0645H67.7427V19.1129C67.7427 17.3806 66.3298 15.9677 64.5975 15.9677H54.6782V28.0645Z" fill="#303030"/>
<path d="M39.4347 68.2259C39.2508 68.2259 39.0573 68.1485 38.9218 68.013L19.5669 48.6581C19.3637 48.4549 19.296 48.1356 19.4121 47.8646C19.5282 47.5936 19.7895 47.4194 20.0798 47.4194H39.4347C39.8315 47.4194 40.1605 47.7485 40.1605 48.1452V67.5001C40.1605 67.7904 39.9863 68.0614 39.7153 68.1678C39.6186 68.2065 39.5218 68.2259 39.4347 68.2259ZM21.8315 48.871L38.7089 65.7485V48.871H21.8315Z" fill="#303030"/>
<path d="M53.9509 68.2259H39.4348C39.2412 68.2259 39.0574 68.1485 38.9219 68.013C38.7864 67.8775 38.709 67.6936 38.709 67.5001V48.1452C38.709 47.7485 39.038 47.4194 39.4348 47.4194H53.9509C54.3477 47.4194 54.6767 47.7485 54.6767 48.1452V67.5001C54.6767 67.8969 54.3477 68.2259 53.9509 68.2259ZM40.1606 66.7743H53.2251V48.871H40.1606V66.7743Z" fill="#303030"/>
<path d="M16.2099 68.2259H10.4034C7.86793 68.2259 5.80664 66.1646 5.80664 63.6291V48.1452C5.80664 47.7485 6.13567 47.4194 6.53245 47.4194H20.0808C20.2744 47.4194 20.4583 47.4969 20.5937 47.6323L30.2712 57.3098C30.4744 57.513 30.5421 57.8323 30.426 58.1033C30.3099 58.3743 30.0486 58.5485 29.7583 58.5485H16.9357V67.5001C16.9357 67.8969 16.6163 68.2259 16.2099 68.2259ZM7.25825 48.871V63.6291C7.25825 65.3614 8.67116 66.7743 10.4034 66.7743H15.4841V57.8227C15.4841 57.4259 15.8131 57.0969 16.2099 57.0969H28.0066L19.7808 48.871H7.25825Z" fill="#303030"/>
<path d="M39.436 68.2257H16.2102C15.8134 68.2257 15.4844 67.8967 15.4844 67.4999V57.8225C15.4844 57.4257 15.8134 57.0967 16.2102 57.0967H29.7586C29.9521 57.0967 30.136 57.1741 30.2715 57.3096L39.9489 66.987C40.1521 67.1902 40.2199 67.5096 40.1037 67.7806C39.9973 68.0515 39.736 68.2257 39.436 68.2257ZM16.936 66.7741H37.6844L29.4586 58.5483H16.936V66.7741Z" fill="#303030"/>
<path d="M44.2653 10.9451C44.1395 10.8193 44.0137 10.6935 43.8878 10.5676C37.2201 3.89023 26.4008 3.89023 19.7427 10.5773L19.3749 10.9451C12.562 17.7967 12.5814 28.8773 19.4137 35.7096L31.8491 48.1451L44.2459 35.7483C51.0975 28.8967 51.0975 17.7967 44.2653 10.9451Z" fill="white"/>
<path d="M44.246 35.7483C50.0911 29.9032 50.9331 20.9516 46.8008 14.1967C45.117 13.7225 43.346 13.4419 41.517 13.4419C30.8234 13.4419 22.1621 22.1129 22.1621 32.7967C22.1621 35.2548 22.6363 37.6064 23.4782 39.7645L31.8589 48.1451L44.246 35.7483Z" fill="#59DBF0"/>
<path d="M31.8475 48.8709C31.6637 48.8709 31.4798 48.8031 31.3346 48.658L18.8991 36.2225C11.7959 29.1193 11.7862 17.5548 18.8701 10.4418L19.2378 10.0741C22.5862 6.69669 27.0572 4.83862 31.8088 4.83862H31.8185C36.5701 4.83862 41.0411 6.69669 44.3991 10.0548L44.7766 10.4322C51.8798 17.5548 51.8798 29.1386 44.7572 36.2612L32.3604 48.658C32.2153 48.8031 32.0314 48.8709 31.8475 48.8709ZM31.8185 6.29024C27.4443 6.29024 23.3411 8.00314 20.254 11.0999L19.8862 11.4677C13.3637 18.0193 13.383 28.6644 19.9153 35.1967L31.8378 47.1193L43.7217 35.2354C50.2733 28.6838 50.283 18.0193 43.7314 11.458L43.3637 11.0902C40.2862 7.99346 36.1927 6.29024 31.8185 6.29024Z" fill="#303030"/>
<path d="M31.8298 32.7967C37.1745 32.7967 41.5072 28.464 41.5072 23.1193C41.5072 17.7746 37.1745 13.4419 31.8298 13.4419C26.4851 13.4419 22.1523 17.7746 22.1523 23.1193C22.1523 28.464 26.4851 32.7967 31.8298 32.7967Z" fill="white"/>
<path d="M31.829 33.5225C26.0903 33.5225 21.4258 28.858 21.4258 23.1193C21.4258 17.3806 26.0903 12.7161 31.829 12.7161C37.5677 12.7161 42.2322 17.3806 42.2322 23.1193C42.2322 28.858 37.5677 33.5225 31.829 33.5225ZM31.829 14.1677C26.8935 14.1677 22.8774 18.1838 22.8774 23.1193C22.8774 28.0548 26.8935 32.0709 31.829 32.0709C36.7645 32.0709 40.7806 28.0548 40.7806 23.1193C40.7806 18.1838 36.7645 14.1677 31.829 14.1677Z" fill="#303030"/>
<path d="M34.5876 37.0742C34.2489 37.0742 33.9489 36.8419 33.8812 36.4935C33.8038 36.0967 34.0554 35.7193 34.4425 35.6322C38.0618 34.8774 41.178 32.5935 42.9876 29.3613C43.1812 29.0129 43.6263 28.8871 43.9747 29.0806C44.3231 29.2742 44.4489 29.7193 44.2554 30.0677C42.2328 33.6677 38.7683 36.2129 34.7328 37.0548C34.6844 37.0742 34.636 37.0742 34.5876 37.0742Z" fill="#303030"/>
<path d="M45.0875 26.4677C45.0391 26.4677 44.9908 26.4677 44.9424 26.4581C44.5456 26.3807 44.294 26.0032 44.3714 25.6065C44.5359 24.7936 44.6133 23.9613 44.6133 23.1194C44.6133 22.7226 44.9424 22.3936 45.3391 22.3936C45.7359 22.3936 46.0649 22.7226 46.0649 23.1194C46.0649 24.0484 45.9779 24.9774 45.794 25.8774C45.7359 26.2258 45.4262 26.4677 45.0875 26.4677Z" fill="#303030"/>
<path d="M10.4035 33.3872C10.0068 33.3872 9.67773 33.0581 9.67773 32.6614V26.1001C9.67773 25.7033 10.0068 25.3743 10.4035 25.3743C10.8003 25.3743 11.1293 25.7033 11.1293 26.1001V32.6614C11.1293 33.0581 10.81 33.3872 10.4035 33.3872Z" fill="#303030"/>
<path d="M10.4035 22.9451C10.0068 22.9451 9.67773 22.616 9.67773 22.2193V20.0805C9.67773 19.6838 10.0068 19.3547 10.4035 19.3547C10.8003 19.3547 11.1293 19.6838 11.1293 20.0805V22.2193C11.1293 22.6257 10.81 22.9451 10.4035 22.9451Z" fill="#303030"/>
<path d="M66.5324 12.0968C66.1357 12.0968 65.8066 11.7677 65.8066 11.3709V7.49998C65.8066 7.1032 66.1357 6.77417 66.5324 6.77417C66.9292 6.77417 67.2583 7.1032 67.2583 7.49998V11.3709C67.2583 11.7677 66.9292 12.0968 66.5324 12.0968Z" fill="#303030"/>
<path d="M68.4679 10.1613H64.5969C64.2001 10.1613 63.8711 9.8323 63.8711 9.43552C63.8711 9.03875 64.2001 8.70972 64.5969 8.70972H68.4679C68.8646 8.70972 69.1937 9.03875 69.1937 9.43552C69.1937 9.8323 68.8646 10.1613 68.4679 10.1613Z" fill="#303030"/>
<path d="M60.7258 10.1613C61.1267 10.1613 61.4516 9.83637 61.4516 9.43552C61.4516 9.03467 61.1267 8.70972 60.7258 8.70972C60.325 8.70972 60 9.03467 60 9.43552C60 9.83637 60.325 10.1613 60.7258 10.1613Z" fill="#303030"/>
<path d="M57.8235 10.1613C58.2243 10.1613 58.5493 9.83637 58.5493 9.43552C58.5493 9.03467 58.2243 8.70972 57.8235 8.70972C57.4226 8.70972 57.0977 9.03467 57.0977 9.43552C57.0977 9.83637 57.4226 10.1613 57.8235 10.1613Z" fill="#303030"/>
<path d="M53.9524 10.1613C54.3532 10.1613 54.6782 9.83637 54.6782 9.43552C54.6782 9.03467 54.3532 8.70972 53.9524 8.70972C53.5515 8.70972 53.2266 9.03467 53.2266 9.43552C53.2266 9.83637 53.5515 10.1613 53.9524 10.1613Z" fill="#303030"/>
<path d="M48.1457 10.1613C48.5466 10.1613 48.8715 9.83637 48.8715 9.43552C48.8715 9.03467 48.5466 8.70972 48.1457 8.70972C47.7449 8.70972 47.4199 9.03467 47.4199 9.43552C47.4199 9.83637 47.7449 10.1613 48.1457 10.1613Z" fill="#303030"/>
<path d="M14.2745 10.1613H10.4035C10.0068 10.1613 9.67773 9.8323 9.67773 9.43552C9.67773 9.03875 10.0068 8.70972 10.4035 8.70972H14.2745C14.6713 8.70972 15.0003 9.03875 15.0003 9.43552C15.0003 9.8323 14.681 10.1613 14.2745 10.1613Z" fill="#303030"/>
<path d="M12.3391 12.0968C11.9423 12.0968 11.6133 11.7677 11.6133 11.3709V7.49998C11.6133 7.1032 11.9423 6.77417 12.3391 6.77417C12.7359 6.77417 13.0649 7.1032 13.0649 7.49998V11.3709C13.0649 11.7677 12.7455 12.0968 12.3391 12.0968Z" fill="#303030"/>
</g>
<defs>
<clipPath id="clip0">
<rect width="75" height="74.0323" fill="white"/>
</clipPath>
</defs>
</svg>
