<svg width="75" height="83" viewBox="0 0 75 83" fill="none" xmlns="http://www.w3.org/2000/svg">
<g clip-path="url(#clip0)">
<path d="M26.8077 29.7872C35.0332 29.7872 41.7013 23.1191 41.7013 14.8936C41.7013 6.6681 35.0332 0 26.8077 0C18.5822 0 11.9141 6.6681 11.9141 14.8936C11.9141 23.1191 18.5822 29.7872 26.8077 29.7872Z" fill="#59DBF0"/>
<path d="M12.9788 73.4042C20.0293 73.4042 25.7448 67.6887 25.7448 60.6383C25.7448 53.5878 20.0293 47.8723 12.9788 47.8723C5.9284 47.8723 0.212891 53.5878 0.212891 60.6383C0.212891 67.6887 5.9284 73.4042 12.9788 73.4042Z" fill="#59DBF0"/>
<path d="M53.7239 82.4895C65.4746 82.4895 75.0005 72.9636 75.0005 61.2129C75.0005 49.4621 65.4746 39.9363 53.7239 39.9363C41.9731 39.9363 32.4473 49.4621 32.4473 61.2129C32.4473 72.9636 41.9731 82.4895 53.7239 82.4895Z" fill="#59DBF0"/>
<path d="M44.2259 75.271H23.6152V82.1412H44.2259V75.271Z" fill="#59DBF0"/>
<path d="M37.3557 75.271H23.6152V82.1412H37.3557V75.271Z" fill="white"/>
<path d="M44.2253 82.9999H23.6146C23.1452 82.9999 22.7559 82.6106 22.7559 82.1411V75.2709C22.7559 74.8014 23.1452 74.4121 23.6146 74.4121H44.2253C44.6948 74.4121 45.0841 74.8014 45.0841 75.2709V82.1411C45.0841 82.622 44.6948 82.9999 44.2253 82.9999ZM24.4734 81.2823H43.3665V76.1297H24.4734V81.2823Z" fill="#303030"/>
<path d="M52.2402 83H15.599C15.1295 83 14.7402 82.6107 14.7402 82.1413C14.7402 81.6718 15.1295 81.2825 15.599 81.2825H52.2402C52.7097 81.2825 53.099 81.6718 53.099 82.1413C53.099 82.6222 52.7097 83 52.2402 83Z" fill="#303030"/>
<path d="M63.6914 75.2711H4.14945C2.88991 75.2711 1.85938 74.2406 1.85938 72.981V68.4009H65.9815V72.981C65.9815 74.252 64.951 75.2711 63.6914 75.2711Z" fill="#59DBF0"/>
<path d="M57.9662 75.2711H4.14945C2.88991 75.2711 1.85938 74.2406 1.85938 72.981V68.4009H60.2563V72.981C60.2563 74.252 59.2258 75.2711 57.9662 75.2711Z" fill="white"/>
<path d="M63.6908 76.1298H4.14885C2.4084 76.1298 1 74.7214 1 72.9809V68.4008C1 67.9313 1.38931 67.542 1.85878 67.542H65.9809C66.4504 67.542 66.8397 67.9313 66.8397 68.4008V72.9809C66.8397 74.7214 65.4313 76.1298 63.6908 76.1298ZM2.71756 69.2595V72.9809C2.71756 73.771 3.35878 74.4122 4.14885 74.4122H63.6908C64.4809 74.4122 65.1221 73.771 65.1221 72.9809V69.2595H2.71756Z" fill="#303030"/>
<path d="M65.9815 68.4007H1.85938V24.8892C1.85938 23.6297 2.88991 22.5991 4.14945 22.5991H63.6914C64.951 22.5991 65.9815 23.6297 65.9815 24.8892V68.4007Z" fill="#59DBF0"/>
<path d="M59.1113 62.6755H1.85938V24.8892C1.85938 23.6297 2.88991 22.5991 4.14945 22.5991H60.2563V61.5304C60.2563 62.1716 59.7411 62.6755 59.1113 62.6755Z" fill="white"/>
<path d="M65.9809 69.2596H1.85878C1.38931 69.2596 1 68.8817 1 68.4008V24.8893C1 23.1603 2.4084 21.7405 4.14885 21.7405H63.6908C65.4313 21.7405 66.8397 23.1489 66.8397 24.8893V68.4008C66.8397 68.8817 66.4504 69.2596 65.9809 69.2596ZM2.71756 67.542H65.1221V24.8893C65.1221 24.0993 64.4809 23.458 63.6908 23.458H4.14885C3.35878 23.458 2.71756 24.0993 2.71756 24.8893V67.542Z" fill="#303030"/>
<path d="M34.298 56.378L27.7713 54.6604H20.1797V68.4009H38.5003V61.8283C38.5003 59.2749 36.7713 57.0306 34.298 56.378Z" fill="white"/>
<path d="M34.298 56.378L27.7713 54.6604H20.1797V57.4772H23.5346L32.0652 59.7215C33.3591 60.065 34.2637 61.2329 34.2637 62.5726V68.4009H38.4888V61.8283C38.5003 59.2749 36.7713 57.0306 34.298 56.378Z" fill="#59DBF0"/>
<path d="M38.4997 69.2595H20.1791C19.7096 69.2595 19.3203 68.8702 19.3203 68.4008V54.6603C19.3203 54.1908 19.7096 53.8015 20.1791 53.8015H27.7707C27.8394 53.8015 27.9195 53.813 27.9883 53.8244L34.515 55.542C37.3661 56.2862 39.3585 58.874 39.3585 61.8282V68.4008C39.3585 68.8817 38.9806 69.2595 38.4997 69.2595ZM21.0379 67.542H37.6409V61.8282C37.6409 59.6527 36.1753 57.7633 34.0799 57.2023L27.6562 55.5191H21.0379V67.542Z" fill="#303030"/>
<path d="M12.6001 54.6604L6.07338 56.378C3.6001 57.0306 1.87109 59.2635 1.87109 61.8283V68.4009H20.1917V54.6604H12.6001Z" fill="white"/>
<path d="M12.5998 54.6604L7.93945 55.8856C8.56922 59.1833 12.6341 62.3665 14.7295 63.8093C15.5082 64.3474 15.9662 65.2291 15.9662 66.1795V68.4009H20.1914V54.6604H12.5998Z" fill="#59DBF0"/>
<path d="M20.1794 69.2595H1.85878C1.38931 69.2595 1 68.8817 1 68.4008V61.8282C1 58.874 2.99237 56.2977 5.84351 55.542L12.3702 53.8244C12.4504 53.813 12.5191 53.8015 12.5992 53.8015H20.1794C20.6489 53.8015 21.0382 54.1908 21.0382 54.6603V68.4008C21.0382 68.8817 20.6603 69.2595 20.1794 69.2595ZM2.71756 67.542H19.3206V55.5191H12.7023L6.27863 57.2023C4.18321 57.7519 2.71756 59.6527 2.71756 61.8282V67.542Z" fill="#303030"/>
<path d="M20.1798 61.7938C20.1798 61.7938 27.7141 57.729 27.7714 54.6603C26.1683 53.8473 24.9775 52.3473 24.634 50.5496C24.5882 50.2862 24.5424 48.6145 24.5195 48.3625L15.8401 48.374C15.8057 48.6603 15.7599 50.3778 15.7027 50.687C15.3592 52.4503 14.1798 53.8816 12.5996 54.6603C12.6683 57.7175 20.1798 61.7938 20.1798 61.7938Z" fill="white"/>
<path d="M24.6339 50.561C24.5881 50.2977 24.5423 48.6259 24.5194 48.374H19.5957C19.6186 48.6374 20.1453 50.2175 20.1797 50.4809C20.3858 52.0267 21.6911 53.916 22.7904 54.9351C23.1682 55.2901 23.3743 55.7939 23.3056 56.3091C23.0079 58.7481 20.5804 61.0267 19.9049 61.6221C20.0766 61.7252 20.1797 61.7824 20.1797 61.7824C20.1797 61.7824 27.714 57.7175 27.7713 54.6488C26.1682 53.8473 24.9659 52.3588 24.6339 50.561Z" fill="#59DBF0"/>
<path d="M20.1794 62.6528C20.042 62.6528 19.8931 62.6184 19.7672 62.5497C18.4389 61.8284 11.8091 58.0612 11.729 54.6833C11.7175 54.3513 11.9122 54.0421 12.2099 53.8932C13.6069 53.2062 14.5572 51.981 14.8435 50.5268C14.8664 50.3665 14.9008 49.5994 14.9237 49.1871C14.9466 48.7749 14.958 48.4085 14.9695 48.2826C15.0153 47.8474 15.3817 47.5268 15.8168 47.5268L24.4962 47.5154C24.9313 47.5154 25.2977 47.8474 25.3549 48.2711C25.3664 48.3856 25.3893 48.752 25.4008 49.1757C25.4237 49.6681 25.4351 50.2291 25.4695 50.4123C25.7443 51.878 26.7404 53.1833 28.1488 53.9047C28.4351 54.0536 28.6183 54.3513 28.6183 54.6833C28.5611 58.0841 21.9084 61.8398 20.5801 62.5612C20.4656 62.6299 20.3168 62.6528 20.1794 62.6528ZM13.5496 55.1184C14.1565 56.8245 17.5343 59.3207 20.1794 60.8207C22.8359 59.3207 26.2366 56.8245 26.8206 55.1184C25.2404 54.1108 24.1298 52.5078 23.7862 50.7215C23.7519 50.5268 23.729 50.1032 23.6946 49.2558V49.2444H16.6412C16.6412 49.2558 16.6412 49.2673 16.6412 49.2673C16.5954 50.2177 16.5725 50.6413 16.5382 50.8589C16.1946 52.6337 15.1183 54.1566 13.5496 55.1184Z" fill="#303030"/>
<path d="M28.9857 40.9198C28.9857 35.0801 25.0468 31.7595 20.1803 31.7595C15.3139 31.7595 11.375 35.0801 11.375 40.9198C11.375 46.7595 15.3139 51.4885 20.1803 51.4885C25.0468 51.4885 28.9857 46.7595 28.9857 40.9198Z" fill="white"/>
<path d="M22.2871 31.9885C22.9626 33.2939 23.3405 34.874 23.3405 36.6946C23.3405 42.5343 19.4016 47.2633 14.5352 47.2633C14.0199 47.2633 13.5275 47.1946 13.0352 47.103C14.6382 49.7595 17.226 51.5 20.1687 51.5C25.0352 51.5 28.9741 46.771 28.9741 40.9313C28.9855 35.9618 26.1344 32.8244 22.2871 31.9885Z" fill="#59DBF0"/>
<path d="M20.1797 52.3474C14.8439 52.3474 10.5156 47.2177 10.5156 40.92C10.5156 35.023 14.4889 30.9009 20.1797 30.9009C25.8706 30.9009 29.8439 35.023 29.8439 40.92C29.8439 47.2177 25.5156 52.3474 20.1797 52.3474ZM20.1797 32.6184C15.4278 32.6184 12.2332 35.9505 12.2332 40.92C12.2332 46.2787 15.7943 50.6299 20.1797 50.6299C24.5652 50.6299 28.1263 46.2787 28.1263 40.92C28.1263 35.9619 24.9317 32.6184 20.1797 32.6184Z" fill="#303030"/>
<path d="M20.1801 38.7557C16.6877 37.1641 13.9969 36.9236 11.9931 37.2328C11.5923 38.3205 11.3633 39.5457 11.3633 40.9312C11.3633 46.7709 15.3022 51.4999 20.1686 51.4999C25.035 51.4999 28.974 46.7709 28.974 40.9312C28.974 40.2099 28.9167 39.5343 28.8022 38.8931C26.4663 39.7862 23.4205 40.2328 20.1801 38.7557Z" fill="white"/>
<path d="M28.8133 38.8816C27.9774 39.2022 27.0614 39.4541 26.0766 39.603C25.4698 44.7327 21.8057 48.6717 17.3629 48.6717C15.8858 48.6717 14.4889 48.2251 13.2637 47.4579C14.8782 49.9083 17.3744 51.4885 20.1797 51.4885C25.0461 51.4885 28.985 46.7595 28.985 40.9198C28.985 40.1984 28.9278 39.5228 28.8133 38.8816Z" fill="#59DBF0"/>
<path d="M20.1797 52.3474C14.8439 52.3474 10.5156 47.2176 10.5156 40.9199C10.5156 39.5001 10.7446 38.1489 11.1912 36.9237C11.2943 36.626 11.5576 36.4199 11.8668 36.3741C14.4431 35.9734 17.3515 36.5115 20.5347 37.9657C23.0423 39.1108 25.7217 39.1451 28.5042 38.0688C28.7446 37.9772 29.0194 38.0001 29.237 38.126C29.466 38.252 29.6149 38.4695 29.6607 38.7214C29.7866 39.4314 29.8553 40.1642 29.8553 40.9085C29.8439 47.2176 25.5156 52.3474 20.1797 52.3474ZM12.6454 38.0115C12.3706 38.9161 12.2332 39.8894 12.2332 40.9199C12.2332 46.2787 15.7943 50.6298 20.1797 50.6298C24.5652 50.6298 28.1263 46.2787 28.1263 40.9199C28.1263 40.6222 28.1149 40.3245 28.092 40.0382C25.2294 40.9085 22.4469 40.7367 19.8248 39.5344C17.1683 38.3207 14.7523 37.8054 12.6454 38.0115Z" fill="#303030"/>
<path d="M70.5619 73.7022C70.0924 73.7022 69.7031 73.3129 69.7031 72.8434V58.2099C69.7031 57.7404 70.0924 57.3511 70.5619 57.3511C71.0314 57.3511 71.4207 57.7404 71.4207 58.2099V72.8434C71.4207 73.3244 71.0314 73.7022 70.5619 73.7022Z" fill="#303030"/>
<path d="M70.5619 80.8245C70.0924 80.8245 69.7031 80.4352 69.7031 79.9657V77.4352C69.7031 76.9657 70.0924 76.5764 70.5619 76.5764C71.0314 76.5764 71.4207 76.9657 71.4207 77.4352V79.9657C71.4207 80.4352 71.0314 80.8245 70.5619 80.8245Z" fill="#303030"/>
<path d="M75.142 62.252C74.6725 62.252 74.2832 61.8626 74.2832 61.3932V51.3397C74.2832 50.8703 74.6725 50.481 75.142 50.481C75.6114 50.481 76.0008 50.8703 76.0008 51.3397V61.3932C76.0008 61.8741 75.6114 62.252 75.142 62.252Z" fill="#303030"/>
<path d="M75.142 69.3741C74.6725 69.3741 74.2832 68.9848 74.2832 68.5153V65.9848C74.2832 65.5153 74.6725 65.126 75.142 65.126C75.6114 65.126 76.0008 65.5153 76.0008 65.9848V68.5153C76.0008 68.9848 75.6114 69.3741 75.142 69.3741Z" fill="#303030"/>
<path d="M23.3749 16.5877H8.72987C8.26041 16.5877 7.87109 16.2098 7.87109 15.7289C7.87109 15.2594 8.26041 14.8701 8.72987 14.8701H23.3749C23.8444 14.8701 24.2337 15.2594 24.2337 15.7289C24.2337 16.2098 23.8444 16.5877 23.3749 16.5877Z" fill="#303030"/>
<path d="M30.485 16.5877H27.9545C27.485 16.5877 27.0957 16.1984 27.0957 15.7289C27.0957 15.2594 27.485 14.8701 27.9545 14.8701H30.485C30.9545 14.8701 31.3438 15.2594 31.3438 15.7289C31.3438 16.2098 30.9545 16.5877 30.485 16.5877Z" fill="#303030"/>
<path d="M11.9237 9.71756H1.85878C1.38931 9.71756 1 9.33969 1 8.85878C1 8.38931 1.38931 8 1.85878 8H11.9237C12.3931 8 12.7824 8.38931 12.7824 8.85878C12.7824 9.33969 12.3931 9.71756 11.9237 9.71756Z" fill="#303030"/>
<path d="M19.0338 9.71756H16.5033C16.0338 9.71756 15.6445 9.32824 15.6445 8.85878C15.6445 8.38931 16.0338 8 16.5033 8H19.0338C19.5033 8 19.8926 8.38931 19.8926 8.85878C19.8926 9.33969 19.5033 9.71756 19.0338 9.71756Z" fill="#303030"/>
<path d="M75.1403 45.5001H55.6746L43.0792 52.3703V45.5001H36.209V8.85889H75.1403V45.5001Z" fill="#59DBF0"/>
<path d="M69.4151 39.7749H36.209V8.85889H70.5601V38.6299C70.5601 39.2596 70.0449 39.7749 69.4151 39.7749Z" fill="white"/>
<path d="M43.0806 53.229C42.9317 53.229 42.7829 53.1832 42.6455 53.1145C42.3821 52.9542 42.2218 52.6794 42.2218 52.3702V46.3588H36.2103C35.7409 46.3588 35.3516 45.9695 35.3516 45.5V8.85878C35.3516 8.38931 35.7409 8 36.2103 8H75.1416C75.6111 8 76.0004 8.38931 76.0004 8.85878V45.5C76.0004 45.9695 75.6111 46.3588 75.1416 46.3588H55.8935L43.4928 53.126C43.3668 53.1947 43.218 53.229 43.0806 53.229ZM37.0691 44.6412H43.0806C43.55 44.6412 43.9393 45.0305 43.9393 45.5V50.9275L55.2638 44.7443C55.3897 44.6756 55.5386 44.6412 55.676 44.6412H74.2829V9.71756H37.0691V44.6412Z" fill="#303030"/>
<path d="M68.8437 22.771L63.5536 17.481L53.42 27.5802L47.7979 21.9581L42.5078 27.2481L53.42 38.1604L68.8437 22.771Z" fill="white"/>
<path d="M51.233 31.3244L44.8322 24.9236L42.5078 27.2481L53.42 38.1603L68.8437 22.771L66.5193 20.4465L55.607 31.3244C54.3933 32.5381 52.4353 32.5381 51.233 31.3244Z" fill="#59DBF0"/>
<path d="M53.4205 39.0191C53.2029 39.0191 52.9854 38.9389 52.8136 38.7672L41.9014 27.855C41.5693 27.5229 41.5693 26.9733 41.9014 26.6412L47.1915 21.3511C47.5121 21.0305 48.0846 21.0305 48.4052 21.3511L53.4205 26.3664L62.9472 16.874C63.2792 16.542 63.8289 16.542 64.1609 16.874L69.451 22.1641C69.6113 22.3244 69.7029 22.5534 69.7029 22.771C69.7029 23 69.6113 23.2176 69.451 23.3779L54.0273 38.7672C53.8556 38.9389 53.638 39.0191 53.4205 39.0191ZM43.722 27.2481L53.4205 36.9466L67.6304 22.771L63.5541 18.6947L54.0273 28.187C53.6953 28.5191 53.1457 28.5191 52.8136 28.187L47.7983 23.1718L43.722 27.2481Z" fill="#303030"/>
</g>
<defs>
<clipPath id="clip0">
<rect width="75" height="82.4894" fill="white"/>
</clipPath>
</defs>
</svg>
