<svg width="75" height="70" viewBox="0 0 75 70" fill="none" xmlns="http://www.w3.org/2000/svg">
<g clip-path="url(#clip0)">
<path d="M13.1266 48.8685C20.3763 48.8685 26.2533 42.9915 26.2533 35.7419C26.2533 28.4922 20.3763 22.6152 13.1266 22.6152C5.877 22.6152 0 28.4922 0 35.7419C0 42.9915 5.877 48.8685 13.1266 48.8685Z" fill="#59DBF0"/>
<path d="M44.2827 69.2619C50.4966 69.2619 55.5341 64.2244 55.5341 58.0104C55.5341 51.7965 50.4966 46.759 44.2827 46.759C38.0687 46.759 33.0312 51.7965 33.0312 58.0104C33.0312 64.2244 38.0687 69.2619 44.2827 69.2619Z" fill="#59DBF0"/>
<path d="M56.2484 37.5047C66.6051 37.5047 75.0008 29.109 75.0008 18.7523C75.0008 8.39571 66.6051 0 56.2484 0C45.8918 0 37.4961 8.39571 37.4961 18.7523C37.4961 29.109 45.8918 37.5047 56.2484 37.5047Z" fill="#59DBF0"/>
<path d="M67.5075 51.4471H7.5V20.5057C7.5 18.9493 8.75641 17.6929 10.3129 17.6929H64.6946C66.2511 17.6929 67.5075 18.9493 67.5075 20.5057V51.4471Z" fill="#59DBF0"/>
<path d="M60.0066 44.8838H7.5V20.5057C7.5 18.9493 8.75641 17.6929 10.3129 17.6929H62.8194V42.0709C62.8194 43.618 61.563 44.8838 60.0066 44.8838Z" fill="white"/>
<path d="M67.5076 52.1501H7.50009C7.11566 52.1501 6.79688 51.8314 6.79688 51.4469V20.5056C6.79688 18.5647 8.37207 16.9895 10.3129 16.9895H64.6947C66.6356 16.9895 68.2108 18.5647 68.2108 20.5056V51.4469C68.2108 51.8314 67.892 52.1501 67.5076 52.1501ZM8.2033 50.7437H66.8044V20.5056C66.8044 19.3429 65.8574 18.3959 64.6947 18.3959H10.3129C9.15029 18.3959 8.2033 19.3429 8.2033 20.5056V50.7437Z" fill="#303030"/>
<path d="M50.6302 57.0728H24.377V62.6985H50.6302V57.0728Z" fill="#59DBF0"/>
<path d="M47.8174 57.0728H24.377V59.8856H46.8798C47.3955 59.8856 47.8174 59.4637 47.8174 58.948V57.0728Z" fill="white"/>
<path d="M50.6303 63.4015H24.377C23.9926 63.4015 23.6738 63.0827 23.6738 62.6983V57.0726C23.6738 56.6882 23.9926 56.3694 24.377 56.3694H50.6303C51.0147 56.3694 51.3335 56.6882 51.3335 57.0726V62.6983C51.3335 63.0827 51.0147 63.4015 50.6303 63.4015ZM25.0803 61.9951H49.9271V57.7758H25.0803V61.9951Z" fill="#303030"/>
<path d="M64.6946 57.0727H10.3129C8.75641 57.0727 7.5 55.8163 7.5 54.2599V51.447H67.5075V54.2599C67.5075 55.8069 66.2511 57.0727 64.6946 57.0727Z" fill="#59DBF0"/>
<path d="M63.757 54.2599H7.5V51.447H64.6946V53.3223C64.6946 53.8379 64.2727 54.2599 63.757 54.2599Z" fill="white"/>
<path d="M64.6947 57.776H10.3129C8.37207 57.776 6.79688 56.2008 6.79688 54.26V51.4471C6.79688 51.0627 7.11566 50.7439 7.50009 50.7439H67.5076C67.892 50.7439 68.2108 51.0627 68.2108 51.4471V54.26C68.2108 56.2008 66.6356 57.776 64.6947 57.776ZM8.2033 52.1503V54.26C8.2033 55.4226 9.15029 56.3696 10.3129 56.3696H64.6947C65.8574 56.3696 66.8044 55.4226 66.8044 54.26V52.1503H8.2033Z" fill="#303030"/>
<path d="M60.0057 63.4015H15.0001C14.6157 63.4015 14.2969 63.0828 14.2969 62.6983C14.2969 62.3139 14.6157 61.9951 15.0001 61.9951H60.0057C60.3901 61.9951 60.7089 62.3139 60.7089 62.6983C60.7089 63.0828 60.3995 63.4015 60.0057 63.4015Z" fill="#303030"/>
<path d="M37.504 55.1975C38.0219 55.1975 38.4416 54.7777 38.4416 54.2599C38.4416 53.7421 38.0219 53.3223 37.504 53.3223C36.9862 53.3223 36.5664 53.7421 36.5664 54.2599C36.5664 54.7777 36.9862 55.1975 37.504 55.1975Z" fill="#303030"/>
<path d="M60.0076 51.4469V43.5334C60.0076 39.7736 57.2979 36.5482 53.5849 35.9106L47.5373 34.8604C47.1247 34.7854 46.7215 34.6635 46.3465 34.5042H28.663C28.288 34.6729 27.8942 34.7948 27.4723 34.8604L21.4246 35.9106C17.7117 36.5482 15.002 39.7642 15.002 43.5334V51.4469H60.0076Z" fill="white"/>
<path d="M57.1947 37.5703V46.759C57.1947 47.7903 56.3509 48.6342 55.3195 48.6342H15.002V51.447H60.0076V43.5336C60.0076 41.152 58.9293 38.9955 57.1947 37.5703Z" fill="#59DBF0"/>
<path d="M60.0057 52.1502H15.0001C14.6157 52.1502 14.2969 51.8314 14.2969 51.447V43.5335C14.2969 39.4174 17.241 35.92 21.3009 35.2168L27.3485 34.1761C27.7048 34.1104 28.0423 34.0073 28.3705 33.8667C28.4643 33.8292 28.558 33.801 28.6612 33.801H46.354C46.4571 33.801 46.5509 33.8198 46.6447 33.8573C46.9728 34.0073 47.3104 34.1104 47.6667 34.1667L53.7143 35.2075C57.7742 35.9107 60.7183 39.408 60.7183 43.5241V51.4376C60.7089 51.8314 60.3995 52.1502 60.0057 52.1502ZM15.7033 50.7438H59.3025V43.5335C59.3025 40.1018 56.8459 37.1858 53.4705 36.6045L47.4229 35.5637C47.001 35.4887 46.5978 35.3762 46.2134 35.2075H28.8018C28.4174 35.3668 28.0048 35.4887 27.5923 35.5637L21.5447 36.6045C18.1599 37.1858 15.7127 40.1018 15.7127 43.5335V50.7438H15.7033Z" fill="#303030"/>
<path d="M32.1125 28.6536L31.4843 31.157C31.0999 32.6666 30.0498 33.8948 28.6621 34.5137L37.5132 38.7517L46.3549 34.5137C44.9673 33.8948 43.9171 32.6759 43.5327 31.157L42.9045 28.6536H32.1125Z" fill="white"/>
<path d="M42.5117 36.3419L46.3559 34.5041C44.9683 33.8853 43.9181 32.6664 43.5337 31.1475L42.9055 28.644H39.4082L40.6552 33.1352C40.9647 34.3823 41.621 35.4793 42.5117 36.3419Z" fill="#59DBF0"/>
<path d="M37.5133 39.4361C37.4102 39.4361 37.307 39.4173 37.2133 39.3704L28.3622 35.1324C28.1184 35.0105 27.959 34.7667 27.959 34.4854C27.959 34.2135 28.1278 33.9604 28.3715 33.8479C29.5904 33.304 30.4718 32.2539 30.8 30.96L31.4282 28.4566C31.5032 28.1471 31.7845 27.9221 32.1126 27.9221H42.9046C43.2234 27.9221 43.5047 28.1378 43.5891 28.4566L44.2173 30.96C44.5454 32.2539 45.4268 33.304 46.6457 33.8479C46.8989 33.9604 47.0582 34.2042 47.0582 34.4854C47.0582 34.7573 46.9082 35.0105 46.6551 35.1324L37.8133 39.3704C37.7196 39.4173 37.6164 39.4361 37.5133 39.4361ZM30.1343 34.4292L37.5039 37.9546L44.8642 34.4292C43.8703 33.6603 43.1578 32.5727 42.839 31.3163L42.342 29.3473H32.6564L32.1595 31.3163C31.8407 32.5727 31.1281 33.6603 30.1343 34.4292Z" fill="#303030"/>
<path d="M48.0515 18.3584C48.0515 25.5406 43.3259 31.3725 37.5033 31.3725C31.6807 31.3725 26.9551 25.5499 26.9551 18.3584C26.9551 11.1669 31.6807 7.37891 37.5033 7.37891C43.3259 7.37891 48.0515 11.1669 48.0515 18.3584Z" fill="white"/>
<path d="M37.5041 7.37891C36.8666 7.37891 36.2384 7.43516 35.6289 7.52892C40.5608 8.26964 44.3019 11.9639 44.3019 18.3678C44.3019 24.7623 40.5608 30.0692 35.6289 31.1663C36.2384 31.2975 36.8666 31.3819 37.5041 31.3819C43.3267 31.3819 48.0523 25.5593 48.0523 18.3678C48.0523 11.1669 43.3267 7.37891 37.5041 7.37891Z" fill="#59DBF0"/>
<path d="M37.5034 32.0758C31.2963 32.0758 26.252 25.9251 26.252 18.3585C26.252 11.3732 30.7713 6.67578 37.5034 6.67578C44.2355 6.67578 48.7548 11.3732 48.7548 18.3585C48.7548 25.9157 43.7104 32.0758 37.5034 32.0758ZM37.5034 8.08221C31.5214 8.08221 27.6584 12.114 27.6584 18.3585C27.6584 25.1468 32.0746 30.6694 37.5034 30.6694C42.9322 30.6694 47.3483 25.1468 47.3483 18.3585C47.3483 12.114 43.4854 8.08221 37.5034 8.08221Z" fill="#303030"/>
<path d="M51.2208 52.1502C50.8364 52.1502 50.5176 51.8314 50.5176 51.447V44.096C50.5176 43.7116 50.8364 43.3928 51.2208 43.3928C51.6052 43.3928 51.924 43.7116 51.924 44.096V51.447C51.924 51.8314 51.6052 52.1502 51.2208 52.1502Z" fill="#303030"/>
<path d="M23.795 52.1502C23.4106 52.1502 23.0918 51.8314 23.0918 51.447V44.096C23.0918 43.7116 23.4106 43.3928 23.795 43.3928C24.1794 43.3928 24.4982 43.7116 24.4982 44.096V51.447C24.4982 51.8314 24.1794 52.1502 23.795 52.1502Z" fill="#303030"/>
<path d="M37.5132 38.7328L30.8749 41.7988L28.6621 34.5042L37.5132 38.7328Z" fill="#59DBF0"/>
<path d="M33.1243 38.958L30.3958 40.2237L29.2988 36.6233L33.1243 38.4516C33.34 38.5548 33.34 38.8548 33.1243 38.958Z" fill="white"/>
<path d="M30.8748 42.5114C30.781 42.5114 30.6779 42.4927 30.5841 42.4458C30.3966 42.3614 30.256 42.202 30.1997 42.0051L27.9776 34.7011C27.8932 34.4385 27.9776 34.1479 28.1932 33.9604C28.4089 33.7822 28.6995 33.7353 28.9527 33.8572L37.8038 38.0952C38.0476 38.2171 38.207 38.4609 38.207 38.7328C38.207 39.0047 38.0476 39.2485 37.7944 39.3704L31.1655 42.4364C31.0811 42.4833 30.9779 42.5114 30.8748 42.5114ZM29.7965 35.8262L31.3155 40.8237L35.8536 38.7234L29.7965 35.8262Z" fill="#303030"/>
<path d="M37.5039 38.7328L44.1516 41.8176L46.355 34.5042L37.5039 38.7328Z" fill="#59DBF0"/>
<path d="M39.5293 37.7671L42.7266 39.2391C42.9797 39.361 43.2891 39.2204 43.3735 38.9485L44.4612 35.4043L39.5293 37.7671Z" fill="white"/>
<path d="M44.1513 42.5208C44.0482 42.5208 43.9544 42.502 43.8606 42.4552L37.2036 39.3798C36.9598 39.2673 36.8004 39.0141 36.791 38.7422C36.791 38.4703 36.941 38.2171 37.1942 38.1046L46.0453 33.8666C46.2985 33.7447 46.5985 33.7822 46.8048 33.9697C47.0204 34.1479 47.1048 34.4385 47.0204 34.7104L44.8264 42.0239C44.7701 42.2208 44.6295 42.3801 44.442 42.4645C44.3482 42.4927 44.2544 42.5208 44.1513 42.5208ZM39.1538 38.7234L43.72 40.8331L45.2202 35.8168L39.1538 38.7234Z" fill="#303030"/>
<path d="M39.5014 43.4116H35.5072L34.2227 51.447H40.786L39.5014 43.4116Z" fill="#59DBF0"/>
<path d="M37.8125 43.4116H35.506L34.5215 49.5624H37.925C38.2063 49.5624 38.422 49.3186 38.3938 49.0467L37.8125 43.4116Z" fill="white"/>
<path d="M40.7857 52.1502H34.2224C34.0161 52.1502 33.8192 52.0564 33.688 51.9064C33.5567 51.7564 33.5004 51.5407 33.5286 51.3345L34.8131 43.3085C34.8694 42.9709 35.16 42.7178 35.5069 42.7178H39.5012C39.8481 42.7178 40.1388 42.9709 40.195 43.3085L41.4796 51.3438C41.5077 51.5501 41.4514 51.7564 41.3202 51.9158C41.1795 52.0564 40.992 52.1502 40.7857 52.1502ZM35.0475 50.7438H39.9606L38.9011 44.1148H36.107L35.0475 50.7438Z" fill="#303030"/>
<path d="M39.5007 43.4116L41.3385 40.5144L37.5036 38.7329L33.6875 40.505L35.5065 43.4116H39.5007Z" fill="#59DBF0"/>
<path d="M38.7135 41.1051L39.6043 39.708L37.5134 38.7329L33.6973 40.4956L34.3442 41.5364H37.9259C38.2447 41.5364 38.5354 41.377 38.7135 41.1051Z" fill="white"/>
<path d="M35.5073 44.1148C35.2635 44.1148 35.0385 43.9929 34.9072 43.7866L33.0976 40.8706C32.9945 40.7018 32.9664 40.4956 33.0226 40.2987C33.0789 40.1018 33.2195 39.9424 33.3977 39.858L37.2044 38.0953C37.3919 38.0109 37.6076 38.0109 37.7951 38.0953L41.6393 39.8674C41.8269 39.9518 41.9581 40.1111 42.0238 40.308C42.08 40.5049 42.0519 40.7112 41.9394 40.88L40.0923 43.7772C39.961 43.9835 39.736 44.1054 39.5016 44.1054L35.5073 44.1148ZM34.7103 40.805L35.8917 42.7083H39.1078L40.3173 40.8144L37.5044 39.5111L34.7103 40.805Z" fill="#303030"/>
<path d="M27.2461 6.52588V13.0704C27.2461 14.6363 31.8592 15.9021 37.5599 15.9021C43.2606 15.9021 47.8737 14.6363 47.8737 13.0704V6.52588H27.2461Z" fill="white"/>
<path d="M45.0611 6.52588V12.1328C45.0611 13.6986 40.448 14.9644 34.7473 14.9644C32.3376 14.9644 30.1342 14.7394 28.3809 14.355C30.0873 15.2738 33.5565 15.9021 37.5601 15.9021C43.2608 15.9021 47.8739 14.6363 47.8739 13.0704V6.52588H45.0611Z" fill="#59DBF0"/>
<path d="M37.56 16.6051C32.2531 16.6051 26.543 15.4987 26.543 13.0703V6.52572C26.543 6.1413 26.8618 5.82251 27.2462 5.82251H47.8738C48.2582 5.82251 48.577 6.1413 48.577 6.52572V13.0703C48.577 15.4987 42.8669 16.6051 37.56 16.6051ZM27.9494 7.22894V13.0703C27.9494 13.7079 31.2217 15.1987 37.56 15.1987C43.8983 15.1987 47.1705 13.7079 47.1705 13.0703V7.22894H27.9494Z" fill="#303030"/>
<path d="M37.5609 2.69092L18.8086 6.9102L37.5609 11.1295L56.3133 6.9102L37.5609 2.69092Z" fill="#59DBF0"/>
<path d="M37.56 2.69092L23.2988 5.89757L35.3378 8.60728L49.599 5.40063L37.56 2.69092Z" fill="white"/>
<path d="M37.561 11.8327C37.5048 11.8327 37.4579 11.8233 37.411 11.8139L18.6587 7.59465C18.3399 7.51964 18.1055 7.23835 18.1055 6.91019C18.1055 6.58202 18.3305 6.30073 18.6587 6.22572L37.411 2.00645C37.5141 1.97832 37.6173 1.97832 37.7204 2.00645L56.4728 6.22572C56.7916 6.30073 57.026 6.58202 57.026 6.91019C57.026 7.23835 56.8009 7.52901 56.4728 7.59465L37.7204 11.8139C37.6642 11.8233 37.6173 11.8327 37.561 11.8327ZM22.0153 6.91019L37.561 10.4075L53.1067 6.91019L37.561 3.41287L22.0153 6.91019Z" fill="#303030"/>
<path d="M32.5626 19.615C32.1782 19.615 31.8594 19.2962 31.8594 18.9118V10.0044C31.8594 9.77941 31.9719 9.56376 32.1594 9.43249L37.1007 5.95393C37.4194 5.7289 37.8601 5.80391 38.0758 6.1227C38.3008 6.44149 38.2258 6.88217 37.907 7.1072L33.2658 10.3701V18.9118C33.2658 19.2962 32.947 19.615 32.5626 19.615Z" fill="#303030"/>
<path d="M31.2402 18.9116C31.2402 19.643 31.8309 20.2337 32.5623 20.2337C33.2936 20.2337 33.8843 19.643 33.8843 18.9116C33.8843 18.1803 33.2936 17.5896 32.5623 17.5896C31.8309 17.5896 31.2402 18.1803 31.2402 18.9116Z" fill="#303030"/>
<path d="M55.6749 28.7099H54.3809C53.9965 28.7099 53.6777 28.3911 53.6777 28.0067C53.6777 27.6223 53.9965 27.3035 54.3809 27.3035H55.6749C56.0593 27.3035 56.3781 27.6223 56.3781 28.0067C56.3781 28.3911 56.0687 28.7099 55.6749 28.7099Z" fill="#303030"/>
<path d="M60.0069 28.7099H58.713C58.3286 28.7099 58.0098 28.3911 58.0098 28.0067C58.0098 27.6223 58.3286 27.3035 58.713 27.3035H60.0069C60.3913 27.3035 60.7101 27.6223 60.7101 28.0067C60.7101 28.3911 60.3913 28.7099 60.0069 28.7099Z" fill="#303030"/>
<path d="M57.1934 31.5226C56.809 31.5226 56.4902 31.2038 56.4902 30.8194V29.5255C56.4902 29.1411 56.809 28.8223 57.1934 28.8223C57.5779 28.8223 57.8967 29.1411 57.8967 29.5255V30.8194C57.8967 31.2038 57.5779 31.5226 57.1934 31.5226Z" fill="#303030"/>
<path d="M57.1934 27.1908C56.809 27.1908 56.4902 26.872 56.4902 26.4876V25.1937C56.4902 24.8093 56.809 24.4905 57.1934 24.4905C57.5779 24.4905 57.8967 24.8093 57.8967 25.1937V26.4876C57.8967 26.8814 57.5779 27.1908 57.1934 27.1908Z" fill="#303030"/>
<path d="M20.046 24.9594H18.752C18.3676 24.9594 18.0488 24.6406 18.0488 24.2562C18.0488 23.8718 18.3676 23.553 18.752 23.553H20.046C20.4304 23.553 20.7492 23.8718 20.7492 24.2562C20.7492 24.6406 20.4304 24.9594 20.046 24.9594Z" fill="#303030"/>
<path d="M24.378 24.9594H23.0841C22.6996 24.9594 22.3809 24.6406 22.3809 24.2562C22.3809 23.8718 22.6996 23.553 23.0841 23.553H24.378C24.7624 23.553 25.0812 23.8718 25.0812 24.2562C25.0812 24.6406 24.7624 24.9594 24.378 24.9594Z" fill="#303030"/>
<path d="M21.5645 27.7721C21.1801 27.7721 20.8613 27.4533 20.8613 27.0689V25.775C20.8613 25.3906 21.1801 25.0718 21.5645 25.0718C21.949 25.0718 22.2678 25.3906 22.2678 25.775V27.0689C22.2678 27.4533 21.949 27.7721 21.5645 27.7721Z" fill="#303030"/>
<path d="M21.5645 23.4403C21.1801 23.4403 20.8613 23.1215 20.8613 22.7371V21.4432C20.8613 21.0588 21.1801 20.74 21.5645 20.74C21.949 20.74 22.2678 21.0588 22.2678 21.4432V22.7371C22.2678 23.1309 21.949 23.4403 21.5645 23.4403Z" fill="#303030"/>
<path d="M12.544 32.4601H11.2501C10.8657 32.4601 10.5469 32.1413 10.5469 31.7569C10.5469 31.3725 10.8657 31.0537 11.2501 31.0537H12.544C12.9284 31.0537 13.2472 31.3725 13.2472 31.7569C13.2472 32.1413 12.9284 32.4601 12.544 32.4601Z" fill="#303030"/>
<path d="M16.876 32.4601H15.5821C15.1977 32.4601 14.8789 32.1413 14.8789 31.7569C14.8789 31.3725 15.1977 31.0537 15.5821 31.0537H16.876C17.2605 31.0537 17.5792 31.3725 17.5792 31.7569C17.5792 32.1413 17.2605 32.4601 16.876 32.4601Z" fill="#303030"/>
<path d="M14.0626 35.2731C13.6782 35.2731 13.3594 34.9543 13.3594 34.5699V33.276C13.3594 32.8915 13.6782 32.5728 14.0626 32.5728C14.447 32.5728 14.7658 32.8915 14.7658 33.276V34.5699C14.7658 34.9543 14.447 35.2731 14.0626 35.2731Z" fill="#303030"/>
<path d="M14.0626 30.9413C13.6782 30.9413 13.3594 30.6225 13.3594 30.2381V28.9442C13.3594 28.5598 13.6782 28.241 14.0626 28.241C14.447 28.241 14.7658 28.5598 14.7658 28.9442V30.2381C14.7658 30.6319 14.447 30.9413 14.0626 30.9413Z" fill="#303030"/>
</g>
<defs>
<clipPath id="clip0">
<rect width="75" height="69.2618" fill="white"/>
</clipPath>
</defs>
</svg>
