<svg width="30" height="30" viewBox="0 0 30 30" fill="none" xmlns="http://www.w3.org/2000/svg">
<g opacity="0.25">
<path d="M7.75543 8.88428H2.69806C2.13112 8.88428 1.66992 9.34547 1.66992 9.91241V28.9721C1.66992 29.5388 2.13112 30 2.69806 30H7.75543C8.32214 30 8.78334 29.5388 8.78334 28.9721V9.91241C8.78334 9.34547 8.32214 8.88428 7.75543 8.88428ZM7.02301 28.2396H3.43025V10.6446H7.02301V28.2396Z" fill="#303030"/>
<path d="M5.22675 0C3.24921 0 1.64062 1.60858 1.64062 3.58588C1.64062 5.56342 3.24921 7.172 5.22675 7.172C7.20383 7.172 8.81264 5.56342 8.81264 3.58588C8.81264 1.60858 7.20406 0 5.22675 0ZM5.22675 5.41167C4.21989 5.41167 3.40096 4.59273 3.40096 3.58588C3.40096 2.57926 4.21989 1.76033 5.22675 1.76033C6.23337 1.76033 7.05231 2.57926 7.05231 3.58588C7.05231 4.59251 6.23337 5.41167 5.22675 5.41167Z" fill="#303030"/>
<path d="M25.1394 11.1186C23.9305 10.1095 22.3935 9.56978 20.8133 9.59907C19.8319 9.61716 18.8729 9.85382 18.0038 10.2823V9.86618C18.0038 9.32396 17.5641 8.88428 17.0219 8.88428H11.8725C11.3303 8.88428 10.8906 9.32396 10.8906 9.86618V29.0178C10.8906 29.5603 11.3303 29.9997 11.8725 29.9997H17.1235C17.6097 29.9997 18.0038 29.6056 18.0038 29.1197V17.701C18.0038 16.7235 18.7687 15.8963 19.7456 15.8672C20.7609 15.8372 21.5963 16.6541 21.5963 17.6628V29.138C21.5963 29.6138 21.9822 29.9997 22.4581 29.9997H27.5047C27.9805 29.9997 28.3664 29.6138 28.3664 29.138V18.0118C28.3664 15.3431 27.1902 12.8304 25.1394 11.1186ZM26.6061 28.2394H23.3569V17.6628C23.3569 15.7017 21.7614 14.1062 19.8001 14.1062C17.839 14.1062 16.2435 15.7017 16.2435 17.6628V28.2394H12.651V10.6444H16.2435V11.9236H16.2446C16.2444 12.131 16.3165 12.3392 16.4648 12.507C16.7868 12.8709 17.3433 12.9048 17.7072 12.5825C18.5744 11.8149 19.6891 11.3805 20.8458 11.3589C22.0038 11.337 23.1276 11.732 24.0115 12.4699C25.6606 13.8464 26.6061 15.8663 26.6061 18.0118V28.2394Z" fill="#303030"/>
</g>
</svg>
