<svg width="31" height="28" viewBox="0 0 31 28" fill="none" xmlns="http://www.w3.org/2000/svg">
<g opacity="0.1" clip-path="url(#clip0)">
<path d="M22.3919 14.9844C18.4791 14.9844 15.2959 17.9038 15.2959 21.4922C15.2959 25.0806 18.4791 28 22.3919 28C26.3375 28 29.5475 25.0806 29.5475 21.4922C29.5475 17.9038 26.3375 14.9844 22.3919 14.9844ZM24.5697 20.7049L22.1845 23.3298C22.0135 23.518 21.7611 23.625 21.4975 23.625C21.4632 23.625 21.4288 23.6232 21.3943 23.6195C21.0944 23.5876 20.8324 23.4192 20.6974 23.1715L19.7433 21.4215C19.5224 21.0164 19.7015 20.5236 20.1433 20.321C20.5851 20.1183 21.1224 20.2826 21.3433 20.6878L21.6858 21.316L23.1954 19.6545C23.5117 19.3065 24.0758 19.2596 24.4552 19.5495C24.8347 19.8395 24.886 20.3568 24.5697 20.7049Z" fill="#303030"/>
<path d="M22.006 4.67321L18.3768 1.23123C18.3751 1.22959 18.3733 1.2279 18.3716 1.22626C17.536 0.446961 16.3733 0 15.1817 0H3.66772C2.18813 0 0.984375 1.10398 0.984375 2.46094V23.7344C0.984375 25.0913 2.18813 26.1953 3.66772 26.1953H15.1399C14.1117 24.8657 13.5067 23.2426 13.5067 21.4922C13.5067 16.9991 17.4924 13.3437 22.3915 13.3437C22.6934 13.3437 22.9917 13.3576 23.286 13.3844V7.54578C23.286 6.46466 22.8314 5.44469 22.006 4.67321ZM10.4655 18.3203H5.69514C5.20117 18.3203 4.80069 17.953 4.80069 17.5C4.80069 17.047 5.20117 16.6797 5.69514 16.6797H10.4655C10.9595 16.6797 11.36 17.047 11.36 17.5C11.36 17.953 10.9595 18.3203 10.4655 18.3203ZM10.4655 13.9453H5.69514C5.20117 13.9453 4.80069 13.578 4.80069 13.125C4.80069 12.672 5.20117 12.3047 5.69514 12.3047H10.4655C10.9595 12.3047 11.36 12.672 11.36 13.125C11.36 13.578 10.9595 13.9453 10.4655 13.9453ZM10.4655 9.57031H5.69514C5.20117 9.57031 4.80069 9.20303 4.80069 8.75C4.80069 8.29697 5.20117 7.92969 5.69514 7.92969H10.4655C10.9595 7.92969 11.36 8.29697 11.36 8.75C11.36 9.20303 10.9595 9.57031 10.4655 9.57031ZM16.19 13.9453H15.2359C14.742 13.9453 14.3415 13.578 14.3415 13.125C14.3415 12.672 14.742 12.3047 15.2359 12.3047H16.19C16.684 12.3047 17.0845 12.672 17.0845 13.125C17.0845 13.578 16.684 13.9453 16.19 13.9453ZM16.19 9.57031H15.2359C14.742 9.57031 14.3415 9.20303 14.3415 8.75C14.3415 8.29697 14.742 7.92969 15.2359 7.92969H16.19C16.684 7.92969 17.0845 8.29697 17.0845 8.75C17.0845 9.20303 16.684 9.57031 16.19 9.57031Z" fill="#303030"/>
</g>
<defs>
<clipPath id="clip0">
<rect width="30.5305" height="28" fill="white"/>
</clipPath>
</defs>
</svg>
