<svg width="80" height="82" viewBox="0 0 80 82" fill="none" xmlns="http://www.w3.org/2000/svg">
<rect x="80" y="52" width="30" height="80" transform="rotate(90 80 52)" fill="#59DBF0"/>
<path d="M54.7773 70.3474V73.9543C54.7773 74.1718 54.9147 74.355 55.0865 74.355H67.6247C67.7964 74.355 67.9338 74.1718 67.9338 73.9543V70.3474H54.7773Z" fill="white"/>
<path d="M13.5547 70.3474V73.9543C13.5547 74.1718 13.6921 74.355 13.8638 74.355H26.402C26.5738 74.355 26.7112 74.1718 26.7112 73.9543V70.3474H13.5547Z" fill="white"/>
<path d="M70.5206 70.061H10.9786C8.44806 70.061 6.39844 68.0114 6.39844 65.4809V15.0992C6.39844 12.5687 8.44806 10.519 10.9786 10.519H70.5206C73.0511 10.519 75.1007 12.5687 75.1007 15.0992V65.4809C75.1007 68.0114 73.0511 70.061 70.5206 70.061Z" fill="white"/>
<path d="M70.5209 70.061H18.9941V43.7251H75.101V65.4808C75.101 68.0114 73.0514 70.061 70.5209 70.061Z" fill="white"/>
<path d="M70.5219 70.9199H10.9799C7.97995 70.9199 5.54102 68.481 5.54102 65.481V15.0993C5.54102 12.0993 7.97995 9.6604 10.9799 9.6604H70.5219C73.5219 9.6604 75.9609 12.0993 75.9609 15.0993V65.481C75.9609 68.481 73.5219 70.9199 70.5219 70.9199ZM10.9799 11.378C8.93033 11.378 7.25857 13.0497 7.25857 15.0993V65.481C7.25857 67.5306 8.93033 69.2024 10.9799 69.2024H70.5219C72.5715 69.2024 74.2433 67.5306 74.2433 65.481V15.0993C74.2433 13.0497 72.5715 11.378 70.5219 11.378H10.9799Z" fill="#303030"/>
<path d="M65.9413 63.1909H15.5596C14.3001 63.1909 13.2695 62.1718 13.2695 60.9009V19.6795C13.2695 18.4199 14.3001 17.3894 15.5596 17.3894H65.9413C67.2008 17.3894 68.2314 18.4199 68.2314 19.6795V60.9009C68.2314 62.1718 67.2008 63.1909 65.9413 63.1909Z" fill="white"/>
<path d="M65.9411 63.1909H27.0098V62.0459C27.0098 54.4543 33.1586 48.3054 40.7502 48.3054H68.2311V60.9008C68.2311 62.1718 67.2006 63.1909 65.9411 63.1909Z" fill="white"/>
<path d="M65.9407 64.0496H15.559C13.8186 64.0496 12.4102 62.6412 12.4102 60.9007V19.6794C12.4102 17.9389 13.8186 16.5305 15.559 16.5305H65.9407C67.6811 16.5305 69.0895 17.9389 69.0895 19.6794V60.9007C69.0895 62.6412 67.6811 64.0496 65.9407 64.0496ZM15.559 18.2481C14.7689 18.2481 14.1277 18.8893 14.1277 19.6794V60.9007C14.1277 61.6908 14.7689 62.332 15.559 62.332H65.9407C66.7308 62.332 67.372 61.6908 67.372 60.9007V19.6794C67.372 18.8893 66.7308 18.2481 65.9407 18.2481H15.559Z" fill="#303030"/>
<path d="M65.9414 38H15.5598C9.23915 38 4.10938 32.8702 4.10938 26.5496V15.0992C4.10938 12.5687 6.15899 10.519 8.68953 10.519H72.8117C75.3422 10.519 77.3918 12.5687 77.3918 15.0992V26.5496C77.3918 32.8702 72.262 38 65.9414 38Z" fill="white"/>
<path d="M65.9412 38.0001H17.8496C17.8496 27.8779 26.0481 19.6794 36.1702 19.6794H77.3916V26.5497C77.3916 32.8703 72.2618 38.0001 65.9412 38.0001Z" fill="white"/>
<path d="M65.9408 38.8589H15.5592C8.76908 38.8589 3.25 33.3398 3.25 26.5497V15.0993C3.25 12.0993 5.68893 9.6604 8.68893 9.6604H72.8111C75.8111 9.6604 78.25 12.0993 78.25 15.0993V26.5497C78.25 33.3398 72.7309 38.8589 65.9408 38.8589ZM8.68893 11.378C6.63931 11.378 4.96756 13.0497 4.96756 15.0993V26.5497C4.96756 32.3894 9.71947 37.1413 15.5592 37.1413H65.9408C71.7805 37.1413 76.5324 32.3894 76.5324 26.5497V15.0993C76.5324 13.0497 74.8607 11.378 72.8111 11.378H8.68893Z" fill="#303030"/>
<path d="M25.8644 75.5001H14.414C13.3147 75.5001 12.4102 74.5955 12.4102 73.4963V70.0612C12.4102 69.5917 12.7995 69.2024 13.2689 69.2024H27.0094C27.4789 69.2024 27.8682 69.5917 27.8682 70.0612V73.4963C27.8682 74.607 26.9636 75.5001 25.8644 75.5001ZM14.1277 70.9199V73.4963C14.1277 73.6566 14.2537 73.7825 14.414 73.7825H25.8644C26.0247 73.7825 26.1506 73.6566 26.1506 73.4963V70.9199H14.1277Z" fill="#303030"/>
<path d="M67.0851 75.5001H55.6347C54.5354 75.5001 53.6309 74.5955 53.6309 73.4963V70.0612C53.6309 69.5917 54.0202 69.2024 54.4896 69.2024H68.2301C68.6996 69.2024 69.0889 69.5917 69.0889 70.0612V73.4963C69.0889 74.607 68.1957 75.5001 67.0851 75.5001ZM55.3484 70.9199V73.4963C55.3484 73.6566 55.4744 73.7825 55.6347 73.7825H67.0851C67.2454 73.7825 67.3713 73.6566 67.3713 73.4963V70.9199H55.3484Z" fill="#303030"/>
<path d="M54.4901 11.3779H27.0092C26.5397 11.3779 26.1504 10.9886 26.1504 10.5191V5.93893C26.1504 2.93893 28.5893 0.5 31.5893 0.5H49.9099C52.9099 0.5 55.3489 2.93893 55.3489 5.93893V10.5191C55.3489 10.9886 54.9596 11.3779 54.4901 11.3779ZM27.8679 9.66031H53.6313V5.93893C53.6313 3.88931 51.9596 2.21756 49.9099 2.21756H31.5893C29.5397 2.21756 27.8679 3.88931 27.8679 5.93893V9.66031Z" fill="#303030"/>
<path d="M45.3302 54.0305L40.7501 57.4656L36.1699 54.0305V10.519H45.3302V54.0305Z" fill="white"/>
<path d="M45.3302 54.0306L40.75 57.4658V18.5345C40.75 17.2749 41.7805 16.2444 43.0401 16.2444H45.3302V54.0306Z" fill="white"/>
<path d="M40.7495 58.3245C40.5663 58.3245 40.3831 58.2673 40.2342 58.1528L35.6541 54.7177C35.4365 54.5574 35.3105 54.3054 35.3105 54.0306V10.5192C35.3105 10.0497 35.6999 9.6604 36.1693 9.6604H45.3296C45.7991 9.6604 46.1884 10.0497 46.1884 10.5192V54.0306C46.1884 54.3054 46.0625 54.5574 45.8449 54.7177L41.2647 58.1528C41.1159 58.2673 40.9327 58.3245 40.7495 58.3245ZM37.0281 53.607L40.7495 56.3894L44.4709 53.5955V11.378H37.0281V53.607Z" fill="#303030"/>
<path d="M45.3293 44.8703H36.169C34.9094 44.8703 33.8789 43.8398 33.8789 42.5803V33.42C33.8789 32.1604 34.9094 31.1299 36.169 31.1299H45.3293C46.5888 31.1299 47.6194 32.1604 47.6194 33.42V42.5803C47.6194 43.8513 46.5888 44.8703 45.3293 44.8703Z" fill="white"/>
<path d="M45.3306 45.729H36.1703C34.4299 45.729 33.0215 44.3206 33.0215 42.5802V33.4199C33.0215 31.6794 34.4299 30.271 36.1703 30.271H45.3306C47.0711 30.271 48.4795 31.6794 48.4795 33.4199V42.5802C48.4795 44.3206 47.0711 45.729 45.3306 45.729ZM36.1703 31.9886C35.3803 31.9886 34.739 32.6298 34.739 33.4199V42.5802C34.739 43.3702 35.3803 44.0115 36.1703 44.0115H45.3306C46.1207 44.0115 46.7619 43.3702 46.7619 42.5802V33.4199C46.7619 32.6298 46.1207 31.9886 45.3306 31.9886H36.1703Z" fill="#303030"/>
<path d="M40.7494 38.8588C40.2799 38.8588 39.8906 38.4695 39.8906 38V28.8397C39.8906 28.3703 40.2799 27.981 40.7494 27.981C41.2189 27.981 41.6082 28.3703 41.6082 28.8397V38C41.6082 38.481 41.2189 38.8588 40.7494 38.8588Z" fill="#303030"/>
<path d="M63.6517 58.8969C63.1823 58.8969 62.793 58.5076 62.793 58.0382V50.2748C62.793 49.8053 63.1823 49.416 63.6517 49.416C64.1212 49.416 64.5105 49.8053 64.5105 50.2748V58.0382C64.5105 58.5191 64.1212 58.8969 63.6517 58.8969Z" fill="#303030"/>
<path d="M63.6517 46.5535C63.1823 46.5535 62.793 46.1642 62.793 45.6947V43.1642C62.793 42.6947 63.1823 42.3054 63.6517 42.3054C64.1212 42.3054 64.5105 42.6947 64.5105 43.1642V45.6947C64.5105 46.1642 64.1212 46.5535 63.6517 46.5535Z" fill="#303030"/>
<path d="M67.212 15.958H59.4486C58.9792 15.958 58.5898 15.5687 58.5898 15.0993C58.5898 14.6298 58.9792 14.2405 59.4486 14.2405H67.212C67.6814 14.2405 68.0708 14.6298 68.0708 15.0993C68.0708 15.5687 67.6814 15.958 67.212 15.958Z" fill="#303030"/>
<path d="M54.8561 15.958H52.3256C51.8561 15.958 51.4668 15.5687 51.4668 15.0993C51.4668 14.6298 51.8561 14.2405 52.3256 14.2405H54.8561C55.3256 14.2405 55.7149 14.6298 55.7149 15.0993C55.7149 15.5687 55.337 15.958 54.8561 15.958Z" fill="#303030"/>
<path d="M20.14 6.79771C19.6706 6.79771 19.2812 6.4084 19.2812 5.93893V1.35878C19.2812 0.889313 19.6706 0.5 20.14 0.5C20.6095 0.5 20.9988 0.889313 20.9988 1.35878V5.93893C20.9988 6.4084 20.6095 6.79771 20.14 6.79771Z" fill="#303030"/>
<path d="M22.4292 4.5076H17.849C17.3795 4.5076 16.9902 4.11828 16.9902 3.64882C16.9902 3.17935 17.3795 2.79004 17.849 2.79004H22.4292C22.8986 2.79004 23.2879 3.17935 23.2879 3.64882C23.2879 4.11828 22.8986 4.5076 22.4292 4.5076Z" fill="#303030"/>
<path d="M14.4135 4.5076C14.8878 4.5076 15.2722 4.12311 15.2722 3.64882C15.2722 3.17453 14.8878 2.79004 14.4135 2.79004C13.9392 2.79004 13.5547 3.17453 13.5547 3.64882C13.5547 4.12311 13.9392 4.5076 14.4135 4.5076Z" fill="#303030"/>
<path d="M10.9799 4.5076C11.4542 4.5076 11.8387 4.12311 11.8387 3.64882C11.8387 3.17453 11.4542 2.79004 10.9799 2.79004C10.5056 2.79004 10.1211 3.17453 10.1211 3.64882C10.1211 4.12311 10.5056 4.5076 10.9799 4.5076Z" fill="#303030"/>
<path d="M5.25331 4.5076C5.7276 4.5076 6.11209 4.12311 6.11209 3.64882C6.11209 3.17453 5.7276 2.79004 5.25331 2.79004C4.77902 2.79004 4.39453 3.17453 4.39453 3.64882C4.39453 4.12311 4.77902 4.5076 5.25331 4.5076Z" fill="#303030"/>
<path d="M27.0087 43.439H23.5736C23.1042 43.439 22.7148 43.0497 22.7148 42.5802C22.7148 42.1107 23.1042 41.7214 23.5736 41.7214H27.0087C27.4782 41.7214 27.8675 42.1107 27.8675 42.5802C27.8675 43.0611 27.4782 43.439 27.0087 43.439Z" fill="#303030"/>
<path d="M31.5892 51.4542C31.1198 51.4542 30.7305 51.0649 30.7305 50.5954V47.1603C30.7305 46.6908 31.1198 46.3015 31.5892 46.3015C32.0587 46.3015 32.448 46.6908 32.448 47.1603V50.5954C32.448 51.0763 32.0587 51.4542 31.5892 51.4542Z" fill="#303030"/>
<path d="M25.2915 49.7367C25.0739 49.7367 24.8563 49.6565 24.6846 49.4848C24.3525 49.1527 24.3525 48.6031 24.6846 48.271L26.8716 46.084C27.2037 45.7519 27.7533 45.7519 28.0854 46.084C28.4174 46.4161 28.4174 46.9657 28.0854 47.2977L25.8983 49.4848C25.7266 49.6565 25.509 49.7367 25.2915 49.7367Z" fill="#303030"/>
</svg>
