<svg width="81" height="78" viewBox="0 0 81 78" fill="none" xmlns="http://www.w3.org/2000/svg">
<rect x="80" y="48" width="30" height="80" transform="rotate(90 80 48)" fill="#59DBF0"/>
<path d="M74.5598 37.7224L13.6738 31.0029L9.65393 67.4275L70.5399 74.147L74.5598 37.7224Z" fill="white"/>
<path d="M70.5343 74.1479L34.1074 70.1284C35.6076 56.5585 47.8262 46.7676 61.3961 48.2677L73.2483 49.5732L70.5343 74.1479Z" fill="white"/>
<path d="M70.5323 75.0068C70.4979 75.0068 70.475 75.0068 70.4406 75.0068L9.55363 68.2848C9.32461 68.2619 9.11848 68.1474 8.98107 67.9642C8.8322 67.7809 8.77494 67.5634 8.79784 67.3343L12.8173 30.9075C12.8631 30.438 13.3097 30.1059 13.7677 30.1517L74.6548 36.8736C75.1243 36.9309 75.4678 37.3546 75.4106 37.8241L71.3911 74.251C71.3682 74.48 71.2537 74.6861 71.0705 74.8235C70.9216 74.9495 70.7269 75.0068 70.5323 75.0068ZM10.5957 66.6702L69.7765 73.2089L73.6127 38.4997L14.4319 31.961L10.5957 66.6702Z" fill="#303030"/>
<path d="M73.3889 20.2446L14.6426 29.6262L19.9645 62.9516L78.7108 53.57L73.3889 20.2446Z" fill="white"/>
<path d="M78.6987 53.5582L27.0415 61.8146C24.0985 43.4122 36.6378 26.1092 55.0401 23.1662L73.3853 20.2346L78.6987 53.5582Z" fill="white"/>
<path d="M19.9522 63.7957C19.7689 63.7957 19.5972 63.7385 19.4483 63.6354C19.2651 63.498 19.1391 63.3033 19.1048 63.0743L13.7799 29.7508C13.6997 29.2813 14.0203 28.8461 14.4899 28.7659L73.2355 19.3873C73.453 19.3529 73.6935 19.4102 73.8767 19.5361C74.06 19.6735 74.1859 19.8682 74.2203 20.0972L79.5452 53.4208C79.6253 53.8903 79.3047 54.3254 78.8352 54.4056L20.0896 63.7843C20.0438 63.7957 19.998 63.7957 19.9522 63.7957ZM15.6235 30.3348L20.6736 61.9635L77.7244 52.8482L72.6744 21.2195L15.6235 30.3348Z" fill="#303030"/>
<path d="M74.3992 15.9428L10.6562 8.90796L6.85244 43.3747L70.5954 50.4096L74.3992 15.9428Z" fill="white"/>
<path d="M70.5904 50.3975L40.668 47.0995C42.1452 33.69 54.215 24.0135 67.636 25.5022L73.2701 26.1206L70.5904 50.3975Z" fill="white"/>
<path d="M70.6021 51.2564C70.5678 51.2564 70.5334 51.2564 70.5105 51.2564L6.76067 44.2253C6.53164 44.2024 6.32551 44.0879 6.1881 43.9047C6.03923 43.7329 5.98197 43.5039 6.00487 43.2748L9.80673 8.80615C9.85254 8.33665 10.2991 8.00456 10.7572 8.05036L74.4956 15.0815C74.9651 15.1273 75.3087 15.5625 75.2514 16.032L71.4495 50.4892C71.4266 50.7182 71.3121 50.9244 71.1289 51.0618C70.98 51.1992 70.7854 51.2564 70.6021 51.2564ZM7.80274 42.6106L69.8349 49.4586L73.4535 16.7076L11.4214 9.85968L7.80274 42.6106Z" fill="#303030"/>
<path d="M80.1414 0.858887H16.0137V37.5033H80.1414V0.858887Z" fill="white"/>
<path d="M80.1407 37.5033H32.0449C32.0449 17.2687 48.4548 0.858887 68.6894 0.858887H80.1407V37.5033Z" fill="white"/>
<path d="M80.1409 38.3621H16.0132C15.5436 38.3621 15.1543 37.9728 15.1543 37.5033V0.858854C15.1543 0.389347 15.5436 0 16.0132 0H80.1409C80.6104 0 80.9998 0.389347 80.9998 0.858854V37.5033C80.9998 37.9728 80.6219 38.3621 80.1409 38.3621ZM16.872 36.6444H79.2821V1.71771H16.872V36.6444Z" fill="#303030"/>
<path d="M68.689 31.7775H27.464C27.464 28.6169 24.8989 26.0518 21.7383 26.0518V12.3102C24.8989 12.3102 27.464 9.74506 27.464 6.58447H68.689C68.689 9.74506 71.2541 12.3102 74.4147 12.3102V26.0518C71.2541 26.0518 68.689 28.6169 68.689 31.7775Z" fill="white"/>
<path d="M68.6898 31.7775H42.3516C42.3516 17.8641 53.6312 6.58447 67.5446 6.58447H68.6898C68.6898 9.74506 71.2549 12.3102 74.4154 12.3102V26.0518C71.2549 26.0518 68.6898 28.6169 68.6898 31.7775Z" fill="white"/>
<path d="M68.6904 32.6363H27.4654C26.9959 32.6363 26.6066 32.247 26.6066 31.7775C26.6066 29.0979 24.4193 26.9107 21.7397 26.9107C21.2702 26.9107 20.8809 26.5213 20.8809 26.0518V12.3101C20.8809 11.8406 21.2702 11.4513 21.7397 11.4513C24.4308 11.4513 26.6066 9.26406 26.6066 6.58444C26.6066 6.11493 26.9959 5.72559 27.4654 5.72559H68.6904C69.1599 5.72559 69.5493 6.11493 69.5493 6.58444C69.5493 9.26406 71.7365 11.4513 74.4161 11.4513C74.8856 11.4513 75.2749 11.8406 75.2749 12.3101V26.0518C75.2749 26.5213 74.8856 26.9107 74.4161 26.9107C71.7365 26.9107 69.5493 29.0979 69.5493 31.7775C69.5493 32.247 69.1714 32.6363 68.6904 32.6363ZM28.267 30.9186H67.8888C68.2781 27.9756 70.6142 25.6281 73.5572 25.2502V13.1117C70.6142 12.7224 68.2667 10.3863 67.8888 7.44329H28.267C27.8777 10.3863 25.5416 12.7224 22.5986 13.1117V25.2502C25.5416 25.6281 27.8891 27.9756 28.267 30.9186Z" fill="#303030"/>
<path d="M62.9631 23.1891C65.1766 23.1891 66.971 21.3946 66.971 19.1811C66.971 16.9675 65.1766 15.1731 62.9631 15.1731C60.7495 15.1731 58.9551 16.9675 58.9551 19.1811C58.9551 21.3946 60.7495 23.1891 62.9631 23.1891Z" fill="white"/>
<path d="M34.3361 23.1891C36.5497 23.1891 38.3441 21.3946 38.3441 19.1811C38.3441 16.9675 36.5497 15.1731 34.3361 15.1731C32.1226 15.1731 30.3281 16.9675 30.3281 19.1811C30.3281 21.3946 32.1226 23.1891 34.3361 23.1891Z" fill="white"/>
<path d="M66.9712 19.181C66.9712 18.9977 66.9368 18.8374 66.9139 18.6542C66.7422 18.6313 66.5704 18.6084 66.3986 18.6084C64.1885 18.6084 62.3906 20.4063 62.3906 22.6164C62.3906 22.7882 62.425 22.9599 62.4479 23.1317C62.6197 23.1546 62.7914 23.189 62.9632 23.189C65.1848 23.189 66.9712 21.3911 66.9712 19.181Z" fill="white"/>
<path d="M38.3429 19.1811C38.3429 18.6658 38.2398 18.1848 38.068 17.7382C37.6214 17.5664 37.1405 17.4634 36.6252 17.4634C34.4151 17.4634 32.6172 19.2612 32.6172 21.4714C32.6172 21.9752 32.7202 22.4676 32.892 22.9142C33.3386 23.086 33.8196 23.1891 34.3349 23.1891C36.545 23.1891 38.3429 21.3912 38.3429 19.1811Z" fill="white"/>
<path d="M62.9645 24.0479C60.2849 24.0479 58.0977 21.8607 58.0977 19.181C58.0977 16.5014 60.2849 14.3142 62.9645 14.3142C65.6556 14.3142 67.8313 16.5014 67.8313 19.181C67.8313 21.8607 65.6556 24.0479 62.9645 24.0479ZM62.9645 16.0319C61.2353 16.0319 59.8154 17.4404 59.8154 19.181C59.8154 20.9217 61.2239 22.3302 62.9645 22.3302C64.7051 22.3302 66.1136 20.9217 66.1136 19.181C66.1136 17.4404 64.7051 16.0319 62.9645 16.0319Z" fill="#303030"/>
<path d="M34.3356 24.0479C31.656 24.0479 29.4688 21.8607 29.4688 19.181C29.4688 16.5014 31.656 14.3142 34.3356 14.3142C37.0152 14.3142 39.2024 16.5014 39.2024 19.181C39.2024 21.8607 37.0152 24.0479 34.3356 24.0479ZM34.3356 16.0319C32.595 16.0319 31.1865 17.4404 31.1865 19.181C31.1865 20.9217 32.595 22.3302 34.3356 22.3302C36.0762 22.3302 37.4847 20.9217 37.4847 19.181C37.4847 17.4404 36.0762 16.0319 34.3356 16.0319Z" fill="#303030"/>
<path d="M48.0903 27.2198C46.0863 27.2198 44.3342 26.109 43.6014 24.3798C43.4181 23.9447 43.6243 23.4408 44.0594 23.2576C44.4946 23.0744 44.9984 23.2805 45.1816 23.7157C45.6282 24.7806 46.7963 25.5021 48.0788 25.5021C49.7851 25.5021 51.1707 24.2768 51.1707 22.7652C51.1707 21.517 50.6325 20.0283 48.0674 20.0283C44.5175 20.0283 43.2578 17.7266 43.2578 15.5737C43.2578 13.1231 45.4221 11.1191 48.0674 11.1191C50.0714 11.1191 51.8234 12.2299 52.5563 13.9591C52.7396 14.3942 52.5334 14.8981 52.0983 15.0813C51.6631 15.2645 51.1593 15.0584 50.976 14.6233C50.5294 13.5583 49.3614 12.8368 48.0674 12.8368C46.3611 12.8368 44.9755 14.0621 44.9755 15.5737C44.9755 16.8219 45.5137 18.3106 48.0674 18.3106C51.6288 18.3106 52.8884 20.6123 52.8884 22.7652C52.8999 25.2272 50.747 27.2198 48.0903 27.2198Z" fill="#303030"/>
<path d="M48.0776 12.8485C47.6081 12.8485 47.2188 12.4591 47.2188 11.9896V10.02C47.2188 9.55048 47.6081 9.16113 48.0776 9.16113C48.5471 9.16113 48.9365 9.55048 48.9365 10.02V11.9896C48.9365 12.4706 48.5471 12.8485 48.0776 12.8485Z" fill="#303030"/>
<path d="M48.0776 29.201C47.5966 29.201 47.2188 28.8116 47.2188 28.3421V26.3611C47.2188 25.8915 47.6081 25.5022 48.0776 25.5022C48.5471 25.5022 48.9365 25.8915 48.9365 26.3611V28.3421C48.9365 28.8116 48.5471 29.201 48.0776 29.201Z" fill="#303030"/>
<path d="M56.9738 68.9373C56.9394 68.9373 56.9051 68.9373 56.8822 68.9259L40.5296 67.1165C40.0601 67.0707 39.7166 66.6356 39.7738 66.1661C39.8311 65.6966 40.2548 65.353 40.7243 65.4103L57.0769 67.2196C57.5464 67.2654 57.8899 67.7006 57.8327 68.1701C57.7754 68.6052 57.409 68.9373 56.9738 68.9373Z" fill="#303030"/>
<path d="M65.4132 69.8649C65.3789 69.8649 65.3445 69.8649 65.3216 69.8649L61.348 69.4297C60.8785 69.3839 60.5349 68.9488 60.5922 68.4793C60.6494 68.0097 61.0731 67.6777 61.5426 67.7235L65.5163 68.1586C65.9858 68.2044 66.3293 68.6396 66.2721 69.1091C66.2148 69.5328 65.8369 69.8649 65.4132 69.8649Z" fill="#303030"/>
<path d="M32.0454 58.9405C31.6332 58.9405 31.2667 58.6313 31.198 58.219L30.4995 53.6957C30.4308 53.2262 30.7514 52.7911 31.2209 52.7109C31.6904 52.6422 32.1256 52.9629 32.2058 53.4324L32.9043 57.9557C32.973 58.4252 32.6524 58.8603 32.1829 58.9405C32.1371 58.9405 32.0912 58.9405 32.0454 58.9405Z" fill="#303030"/>
<path d="M29.4348 57.0278C29.0225 57.0278 28.6561 56.7186 28.5874 56.3064C28.5187 55.8369 28.8393 55.4017 29.3088 55.3216L33.8321 54.623C34.3016 54.5543 34.7368 54.875 34.8169 55.3445C34.8857 55.814 34.565 56.2491 34.0955 56.3293L29.5722 57.0278C29.5264 57.0278 29.4806 57.0278 29.4348 57.0278Z" fill="#303030"/>
<path d="M38.6171 55.6196C38.1476 55.6883 37.7125 55.3676 37.6323 54.8981C37.5636 54.4286 37.8842 53.9935 38.3537 53.9133C38.8233 53.8446 39.2584 54.1652 39.3386 54.6348C39.4073 55.1043 39.0866 55.5394 38.6171 55.6196Z" fill="#303030"/>
<path d="M43.1425 54.9094C42.673 54.9781 42.2379 54.6574 42.1577 54.1879C42.089 53.7184 42.4096 53.2833 42.8791 53.2031C43.3486 53.1344 43.7838 53.455 43.864 53.9246C43.9327 54.4055 43.612 54.8407 43.1425 54.9094Z" fill="#303030"/>
<path d="M48.8105 54.039C48.341 54.1077 47.9058 53.7871 47.8257 53.3176C47.757 52.8481 48.0776 52.4129 48.5471 52.3328C49.0166 52.264 49.4518 52.5847 49.5319 53.0542C49.6006 53.5237 49.2685 53.9588 48.8105 54.039Z" fill="#303030"/>
<path d="M56.7226 52.8022C56.2531 52.8709 55.8179 52.5503 55.7378 52.0808C55.6691 51.6112 55.9897 51.1761 56.4592 51.0959C56.9287 51.0272 57.3639 51.3479 57.444 51.8174C57.5127 52.2869 57.1921 52.7335 56.7226 52.8022Z" fill="#303030"/>
<path d="M64.9108 45.3818C64.8765 45.3818 64.8536 45.3818 64.8192 45.3818L60.2616 44.9237C59.7921 44.8779 59.4485 44.4542 59.4943 43.9847C59.5401 43.5152 59.9753 43.1602 60.4333 43.2175L64.991 43.6755C65.4605 43.7214 65.804 44.1451 65.7582 44.6146C65.7124 45.0612 65.346 45.3818 64.9108 45.3818Z" fill="#303030"/>
<path d="M62.402 47.4431C62.3677 47.4431 62.3448 47.4431 62.3104 47.4431C61.8409 47.3973 61.4974 46.9736 61.5432 46.5041L62.0012 41.9464C62.047 41.4769 62.4822 41.1219 62.9402 41.1792C63.4097 41.225 63.7533 41.6487 63.7075 42.1182L63.2494 46.6644C63.2036 47.111 62.8372 47.4431 62.402 47.4431Z" fill="#303030"/>
</svg>
