<svg width="81" height="80" viewBox="0 0 81 80" fill="none" xmlns="http://www.w3.org/2000/svg">
<rect x="80" y="50" width="30" height="80" transform="rotate(90 80 50)" fill="#59DBF0"/>
<path d="M79.1414 26.0545C79.1414 11.6842 67.107 0.119355 52.5651 0.897981C39.6605 1.585 29.1834 12.3026 28.7712 25.2186C28.5307 32.6842 31.5536 39.44 36.5116 44.1919C39.2712 46.8369 40.7483 50.5583 40.7483 54.3942V55.8255H67.1414V54.1194C67.1414 50.2835 68.8132 46.711 71.5498 44.0316C76.233 39.4629 79.1414 33.1079 79.1414 26.0545Z" fill="white"/>
<path d="M66.6472 4.29858C70.838 8.79858 73.4143 14.8329 73.4143 21.4742C73.4143 28.5276 70.5059 34.8826 65.8342 39.4513C63.0975 42.1306 61.4258 45.7146 61.4258 49.539V55.8253H67.151V54.1192C67.151 50.2833 68.8227 46.7108 71.5594 44.0314C76.2311 39.4627 79.1395 33.1077 79.1395 26.0543C79.1395 16.768 74.1243 8.67263 66.6472 4.29858Z" fill="white"/>
<path d="M67.1529 56.6841H40.7598C40.2903 56.6841 39.901 56.2948 39.901 55.8253V54.394C39.901 50.7299 38.4468 47.2375 35.9277 44.8101C30.6033 39.7032 27.6835 32.5582 27.9239 25.1841C28.3476 11.7986 39.1567 0.749002 52.5193 0.0390784C59.756 -0.350235 66.6262 2.1803 71.8705 7.13831C77.1148 12.1078 80.0003 18.8292 80.0003 26.0429C80.0003 33.0963 77.2178 39.7032 72.1567 44.6383C69.4774 47.2604 68.0003 50.6154 68.0003 54.1192V55.8253C68.0117 56.2948 67.6224 56.6841 67.1529 56.6841ZM41.6186 54.9666H66.2941V54.1192C66.2941 50.1574 67.9545 46.3559 70.9659 43.4131C75.6835 38.7986 78.2941 32.6269 78.2941 26.0429C78.2941 19.2986 75.5919 13.0238 70.7025 8.38641C65.8132 3.749 59.3896 1.37877 52.6338 1.75664C40.1529 2.42076 30.0537 12.7376 29.6529 25.2528C29.4354 32.1345 32.1606 38.8101 37.13 43.5849C39.9926 46.333 41.63 50.2719 41.63 54.4055V54.9666H41.6186Z" fill="#303030"/>
<path d="M63.1107 64.9857H44.7901C43.5305 64.9857 42.5 63.9551 42.5 62.6956C42.5 61.4361 43.5305 60.4055 44.7901 60.4055H63.1107C64.3702 60.4055 65.4008 61.4361 65.4008 62.6956C65.4008 63.9551 64.3817 64.9857 63.1107 64.9857Z" fill="white"/>
<path d="M58.5305 64.9857H44.7901C43.5305 64.9857 42.5 63.9551 42.5 62.6956C42.5 61.4361 43.5305 60.4055 44.7901 60.4055H58.5305C59.7901 60.4055 60.8206 61.4361 60.8206 62.6956C60.8206 63.9551 59.8015 64.9857 58.5305 64.9857Z" fill="white"/>
<path d="M63.1101 65.8443H44.7895C43.049 65.8443 41.6406 64.4359 41.6406 62.6955C41.6406 60.955 43.0605 59.5466 44.7895 59.5466H63.1101C64.8505 59.5466 66.2589 60.955 66.2589 62.6955C66.2589 64.4359 64.8505 65.8443 63.1101 65.8443ZM44.7895 61.2642C43.9994 61.2642 43.3582 61.9054 43.3582 62.6955C43.3582 63.4856 43.9994 64.1268 44.7895 64.1268H63.1101C63.9002 64.1268 64.5414 63.4856 64.5414 62.6955C64.5414 61.9054 63.9002 61.2642 63.1101 61.2642H44.7895Z" fill="#303030"/>
<path d="M63.1107 69.5657H44.7901C43.5305 69.5657 42.5 68.5352 42.5 67.2757C42.5 66.0161 43.5305 64.9856 44.7901 64.9856H63.1107C64.3702 64.9856 65.4008 66.0161 65.4008 67.2757C65.4008 68.5352 64.3817 69.5657 63.1107 69.5657Z" fill="white"/>
<path d="M55.0954 69.5657H44.7901C43.5305 69.5657 42.5 68.5352 42.5 67.2757C42.5 66.0161 43.5305 64.9856 44.7901 64.9856H55.0954C56.355 64.9856 57.3855 66.0161 57.3855 67.2757C57.3855 68.5352 56.3664 69.5657 55.0954 69.5657Z" fill="white"/>
<path d="M63.1101 70.4247H44.7895C43.049 70.4247 41.6406 69.0163 41.6406 67.2758C41.6406 65.5354 43.0605 64.127 44.7895 64.127H63.1101C64.8505 64.127 66.2589 65.5354 66.2589 67.2758C66.2589 69.0163 64.8505 70.4247 63.1101 70.4247ZM44.7895 65.8445C43.9994 65.8445 43.3582 66.4857 43.3582 67.2758C43.3582 68.0659 43.9994 68.7071 44.7895 68.7071H63.1101C63.9002 68.7071 64.5414 68.0659 64.5414 67.2758C64.5414 66.4857 63.9002 65.8445 63.1101 65.8445H44.7895Z" fill="#303030"/>
<path d="M63.1107 60.4056H44.7901C43.5305 60.4056 42.5 59.3751 42.5 58.1155V55.8254H65.4008V58.1155C65.4008 59.3751 64.3817 60.4056 63.1107 60.4056Z" fill="white"/>
<path d="M56.2405 60.4056H44.7901C43.5305 60.4056 42.5 59.3751 42.5 58.1155V55.8254H58.5305V58.1155C58.5305 59.3751 57.5115 60.4056 56.2405 60.4056Z" fill="white"/>
<path d="M63.1101 61.2643H44.7895C43.049 61.2643 41.6406 59.8559 41.6406 58.1154V55.8253C41.6406 55.3559 42.0299 54.9666 42.4994 54.9666H65.4002C65.8696 54.9666 66.2589 55.3559 66.2589 55.8253V58.1154C66.2589 59.8444 64.8505 61.2643 63.1101 61.2643ZM43.3582 56.6841V58.1154C43.3582 58.9055 43.9994 59.5467 44.7895 59.5467H63.1101C63.9002 59.5467 64.5414 58.9055 64.5414 58.1154V56.6841H43.3582Z" fill="#303030"/>
<path d="M60.8199 75.0047H47.0795C46.61 75.0047 46.2207 74.6154 46.2207 74.1459C46.2207 73.6764 46.61 73.2871 47.0795 73.2871H60.8199C61.2894 73.2871 61.6787 73.6764 61.6787 74.1459C61.6787 74.6154 61.3009 75.0047 60.8199 75.0047Z" fill="#303030"/>
<path d="M73.2435 23.9705L67.358 18.0964L56.0908 29.3178L49.8503 23.0659L43.9648 28.9514L56.0908 41.0774L73.2435 23.9705Z" fill="white"/>
<path d="M53.6633 33.4742L46.5526 26.3635L43.9648 28.9513L56.0908 41.0772L73.2435 23.9704L70.6557 21.3826L58.5297 33.4856C57.1786 34.8253 55.003 34.8253 53.6633 33.4742Z" fill="white"/>
<path d="M56.0932 41.9361C55.8756 41.9361 55.6581 41.8559 55.4863 41.6842L43.3604 29.5582C43.0283 29.2262 43.0283 28.6765 43.3604 28.3445L49.2459 22.459C49.5779 22.1269 50.1276 22.1269 50.4596 22.459L56.1046 28.104L66.765 17.4895C67.097 17.1575 67.6466 17.1575 67.9787 17.4895L73.8642 23.375C74.0245 23.5353 74.1161 23.7529 74.1161 23.9819C74.1161 24.2109 74.0245 24.4285 73.8642 24.5888L56.7001 41.6842C56.5398 41.8559 56.3108 41.9361 56.0932 41.9361ZM45.181 28.9514L56.0932 39.8636L72.0207 23.9704L67.3489 19.2987L56.6886 29.9132C56.3566 30.2452 55.8069 30.2452 55.4749 29.9132L49.8298 24.2682L45.181 28.9514Z" fill="#303030"/>
<path d="M27.6141 19.1841C38.366 19.1841 47.0797 27.8978 47.0797 38.6497V45.52C47.0797 61.3329 34.2668 74.1459 18.4538 74.1459H8.14844V38.6497C8.14844 27.8978 16.8622 19.1841 27.6141 19.1841Z" fill="white"/>
<path d="M14.9614 24.3482C16.6103 23.7642 18.3507 23.4436 20.1599 23.4436C29.9614 23.4436 37.8965 32.6268 37.8965 43.9627C37.8965 60.623 26.2171 74.1344 11.8126 74.1344H8.14844V41.4436C8.14844 34.5963 10.7935 28.4818 14.9614 24.3482Z" fill="white"/>
<path d="M18.4551 75.0048H8.14979C7.68033 75.0048 7.29102 74.6155 7.29102 74.146V38.6499C7.29102 27.4399 16.4055 18.3254 27.6154 18.3254C38.8254 18.3254 47.9399 27.4399 47.9399 38.6499V45.5201C47.9399 61.7796 34.7147 75.0048 18.4551 75.0048ZM9.00857 73.2873H18.4551C33.7643 73.2873 46.2223 60.8293 46.2223 45.5201V38.6499C46.2223 28.3903 37.875 20.043 27.6154 20.043C17.3559 20.043 9.00857 28.3903 9.00857 38.6499V73.2873Z" fill="#303030"/>
<path d="M8.14844 39.7949H24.179V58.1155C24.179 66.9667 16.9996 74.1461 8.14844 74.1461V39.7949Z" fill="white"/>
<path d="M16.1637 39.7949V56.7758C16.1637 66.3713 12.5797 74.1461 8.14844 74.1461V39.7949H16.1637Z" fill="white"/>
<path d="M8.14979 75.0047C7.68033 75.0047 7.29102 74.6154 7.29102 74.146V39.7948C7.29102 39.3139 7.68033 38.936 8.14979 38.936H24.1803C24.6498 38.936 25.0391 39.3253 25.0391 39.7948V58.1154C25.0391 67.4246 17.459 75.0047 8.14979 75.0047ZM9.00857 40.6536V73.2643C16.978 72.8177 23.3215 66.1879 23.3215 58.1154V40.6536H9.00857Z" fill="#303030"/>
<path d="M22.3477 43.8596L27.6148 48.3825L32.882 43.8596V35.2146H22.3477V43.8596Z" fill="white"/>
<path d="M27.6142 49.2415C27.4196 49.2415 27.2135 49.1728 27.0532 49.0353L21.786 44.5124C21.5913 44.3521 21.4883 44.1117 21.4883 43.8598V35.2147C21.4883 34.7453 21.8776 34.356 22.3471 34.356H32.8814C33.3509 34.356 33.7402 34.7453 33.7402 35.2147V43.8598C33.7402 44.1117 33.6257 44.3521 33.4425 44.5124L28.1753 49.0353C28.015 49.1728 27.8089 49.2415 27.6142 49.2415ZM23.2058 43.4705L27.6142 47.2491L32.0226 43.4705V36.0735H23.2058V43.4705Z" fill="#303030"/>
<path d="M16.7372 46.0926C22.7449 46.0926 27.6151 41.2225 27.6151 35.2148C27.6151 29.2071 22.7449 24.3369 16.7372 24.3369C10.7296 24.3369 5.85938 29.2071 5.85938 35.2148C5.85938 41.2225 10.7296 46.0926 16.7372 46.0926Z" fill="white"/>
<path d="M5.85938 35.2148C5.85938 36.4514 6.07693 37.6308 6.4548 38.7415C8.1151 39.772 10.0617 40.3674 12.1571 40.3674C18.1685 40.3674 23.0349 35.501 23.0349 29.4896C23.0349 28.2529 22.8174 27.0736 22.4395 25.9629C20.7792 24.9438 18.8327 24.3369 16.7372 24.3369C10.7258 24.3369 5.85938 29.2033 5.85938 35.2148Z" fill="white"/>
<path d="M16.7366 46.9513C10.2672 46.9513 5 41.6841 5 35.2147C5 28.7452 10.2672 23.478 16.7366 23.478C23.2061 23.478 28.4733 28.7452 28.4733 35.2147C28.4733 41.6841 23.2061 46.9513 16.7366 46.9513ZM16.7366 25.1956C11.2176 25.1956 6.71756 29.6841 6.71756 35.2147C6.71756 40.7452 11.2176 45.2338 16.7366 45.2338C22.2557 45.2338 26.7557 40.7338 26.7557 35.2147C26.7557 29.6956 22.2557 25.1956 16.7366 25.1956Z" fill="#303030"/>
<path d="M16.7361 39.2223C18.9495 39.2223 20.7438 37.428 20.7438 35.2147C20.7438 33.0013 18.9495 31.207 16.7361 31.207C14.5228 31.207 12.7285 33.0013 12.7285 35.2147C12.7285 37.428 14.5228 39.2223 16.7361 39.2223Z" fill="white"/>
<path d="M12.7285 35.2147C12.7285 35.8215 12.8774 36.3941 13.1178 36.9093C13.1751 36.9093 13.2323 36.9322 13.301 36.9322C15.511 36.9322 17.3087 35.1345 17.3087 32.9246C17.3087 32.3177 17.1598 31.7452 16.9194 31.2299C16.8621 31.2299 16.8049 31.207 16.7361 31.207C14.5262 31.207 12.7285 33.0047 12.7285 35.2147Z" fill="white"/>
<path d="M16.7375 40.081C14.0581 40.081 11.8711 37.8939 11.8711 35.2146C11.8711 32.5352 14.0581 30.3481 16.7375 30.3481C19.4169 30.3481 21.6039 32.5352 21.6039 35.2146C21.6039 37.8939 19.4169 40.081 16.7375 40.081ZM16.7375 32.0657C14.997 32.0657 13.5887 33.4741 13.5887 35.2146C13.5887 36.955 14.997 38.3634 16.7375 38.3634C18.478 38.3634 19.8864 36.955 19.8864 35.2146C19.8864 33.4741 18.478 32.0657 16.7375 32.0657Z" fill="#303030"/>
<path d="M38.4931 46.0926C44.5008 46.0926 49.371 41.2225 49.371 35.2148C49.371 29.2071 44.5008 24.3369 38.4931 24.3369C32.4854 24.3369 27.6152 29.2071 27.6152 35.2148C27.6152 41.2225 32.4854 46.0926 38.4931 46.0926Z" fill="white"/>
<path d="M27.6152 35.2148C27.6152 36.4514 27.8328 37.6308 28.2107 38.7415C29.871 39.772 31.8175 40.3674 33.9129 40.3674C39.9244 40.3674 44.7908 35.501 44.7908 29.4896C44.7908 28.2529 44.5732 27.0736 44.1954 25.9629C42.5351 24.9438 40.5885 24.3369 38.4931 24.3369C32.4816 24.3369 27.6152 29.2033 27.6152 35.2148Z" fill="white"/>
<path d="M38.4925 46.9513C32.023 46.9513 26.7559 41.6841 26.7559 35.2147C26.7559 28.7452 32.023 23.478 38.4925 23.478C44.962 23.478 50.2291 28.7452 50.2291 35.2147C50.2291 41.6841 44.962 46.9513 38.4925 46.9513ZM38.4925 25.1956C32.9734 25.1956 28.4734 29.6841 28.4734 35.2147C28.4734 40.7452 32.9734 45.2338 38.4925 45.2338C44.0116 45.2338 48.5116 40.7338 48.5116 35.2147C48.5116 29.6956 44.023 25.1956 38.4925 25.1956Z" fill="#303030"/>
<path d="M38.492 39.2223C40.7054 39.2223 42.4996 37.428 42.4996 35.2147C42.4996 33.0013 40.7054 31.207 38.492 31.207C36.2787 31.207 34.4844 33.0013 34.4844 35.2147C34.4844 37.428 36.2787 39.2223 38.492 39.2223Z" fill="white"/>
<path d="M34.4844 35.2147C34.4844 35.8215 34.6332 36.3941 34.8737 36.9093C34.9309 36.9093 34.9882 36.9322 35.0569 36.9322C37.2668 36.9322 39.0645 35.1345 39.0645 32.9246C39.0645 32.3177 38.9157 31.7452 38.6752 31.2299C38.618 31.2299 38.5607 31.207 38.492 31.207C36.2821 31.207 34.4844 33.0047 34.4844 35.2147Z" fill="white"/>
<path d="M38.4914 40.081C35.812 40.081 33.625 37.8939 33.625 35.2146C33.625 32.5352 35.812 30.3481 38.4914 30.3481C41.1708 30.3481 43.3578 32.5352 43.3578 35.2146C43.3578 37.8939 41.1708 40.081 38.4914 40.081ZM38.4914 32.0657C36.751 32.0657 35.3426 33.4741 35.3426 35.2146C35.3426 36.955 36.751 38.3634 38.4914 38.3634C40.2319 38.3634 41.6403 36.955 41.6403 35.2146C41.6403 33.4741 40.2319 32.0657 38.4914 32.0657Z" fill="#303030"/>
<path d="M40.7826 25.1957C40.3131 25.1957 39.9238 24.8064 39.9238 24.3369C39.9238 21.0277 42.6147 18.3254 45.9353 18.3254C46.4047 18.3254 46.7941 18.7148 46.7941 19.1842C46.7941 19.6537 46.4047 20.043 45.9353 20.043C43.565 20.043 41.6414 21.9667 41.6414 24.3369C41.6414 24.8064 41.2521 25.1957 40.7826 25.1957Z" fill="#303030"/>
<path d="M13.8747 25.1957C13.3938 25.1957 13.016 24.8064 13.016 24.3369C13.016 21.9667 11.0923 20.043 8.72206 20.043C8.25259 20.043 7.86328 19.6537 7.86328 19.1842C7.86328 18.7148 8.25259 18.3254 8.72206 18.3254C12.0427 18.3254 14.7335 21.0277 14.7335 24.3369C14.7335 24.8064 14.3442 25.1957 13.8747 25.1957Z" fill="#303030"/>
<path d="M39.5797 13.791C39.3736 13.791 39.1675 13.7223 38.9957 13.562C38.6408 13.2414 38.6179 12.7033 38.9385 12.3483C42.7858 8.14601 48.2591 5.72998 53.9499 5.72998C54.9003 5.72998 55.8622 5.79868 56.8011 5.92464C57.2706 5.99334 57.6026 6.42845 57.5339 6.89792C57.4652 7.36739 57.0301 7.69945 56.5606 7.63074C55.7019 7.50479 54.8202 7.44754 53.9499 7.44754C48.74 7.44754 43.7248 9.65746 40.2095 13.5048C40.0377 13.688 39.8087 13.791 39.5797 13.791Z" fill="#303030"/>
<path d="M64.1642 10.3329C64.0154 10.3329 63.8551 10.2871 63.7177 10.207C62.8818 9.69171 62.0115 9.24515 61.107 8.86729C60.6719 8.68408 60.4657 8.18026 60.6489 7.74515C60.8322 7.31003 61.336 7.10393 61.7711 7.28713C62.7558 7.69935 63.7177 8.19171 64.6222 8.75278C65.023 9.00469 65.149 9.53141 64.897 9.93217C64.7253 10.1841 64.4505 10.3329 64.1642 10.3329Z" fill="#303030"/>
<path d="M21.1909 10.8826H19.6107C19.1413 10.8826 18.752 10.4933 18.752 10.0238C18.752 9.55435 19.1413 9.16504 19.6107 9.16504H21.1909C21.6603 9.16504 22.0497 9.55435 22.0497 10.0238C22.0497 10.4933 21.6603 10.8826 21.1909 10.8826Z" fill="#303030"/>
<path d="M26.4682 10.8826H24.8881C24.4186 10.8826 24.0293 10.4933 24.0293 10.0238C24.0293 9.55435 24.4186 9.16504 24.8881 9.16504H26.4682C26.9377 9.16504 27.327 9.55435 27.327 10.0238C27.327 10.4933 26.9491 10.8826 26.4682 10.8826Z" fill="#303030"/>
<path d="M23.0346 14.3175C22.5651 14.3175 22.1758 13.9282 22.1758 13.4587V11.8786C22.1758 11.4091 22.5651 11.0198 23.0346 11.0198C23.504 11.0198 23.8933 11.4091 23.8933 11.8786V13.4587C23.8933 13.9282 23.5155 14.3175 23.0346 14.3175Z" fill="#303030"/>
<path d="M23.0346 9.02769C22.5651 9.02769 22.1758 8.63838 22.1758 8.16891V6.58876C22.1758 6.11929 22.5651 5.72998 23.0346 5.72998C23.504 5.72998 23.8933 6.11929 23.8933 6.58876V8.16891C23.8933 8.64983 23.5155 9.02769 23.0346 9.02769Z" fill="#303030"/>
<path d="M73.8628 61.2642H72.2826C71.8131 61.2642 71.4238 60.8749 71.4238 60.4054C71.4238 59.9359 71.8017 59.5466 72.2826 59.5466H73.8628C74.3322 59.5466 74.7215 59.9359 74.7215 60.4054C74.7215 60.8749 74.3322 61.2642 73.8628 61.2642Z" fill="#303030"/>
<path d="M79.1538 61.2642H77.5736C77.1042 61.2642 76.7148 60.8749 76.7148 60.4054C76.7148 59.9359 77.0927 59.5466 77.5622 59.5466H79.1423C79.6118 59.5466 80.0011 59.9359 80.0011 60.4054C80.0011 60.8749 79.6232 61.2642 79.1538 61.2642Z" fill="#303030"/>
<path d="M75.7182 64.6993C75.2487 64.6993 74.8594 64.31 74.8594 63.8405V62.2604C74.8594 61.7909 75.2487 61.4016 75.7182 61.4016C76.1876 61.4016 76.5769 61.7909 76.5769 62.2604V63.8405C76.5769 64.3215 76.1876 64.6993 75.7182 64.6993Z" fill="#303030"/>
<path d="M75.7182 59.4208C75.2487 59.4208 74.8594 59.0314 74.8594 58.562V56.9818C74.8594 56.5124 75.2487 56.123 75.7182 56.123C76.1876 56.123 76.5769 56.5124 76.5769 56.9818V58.562C76.5769 59.0314 76.1876 59.4208 75.7182 59.4208Z" fill="#303030"/>
<path d="M7.43893 5.1575H5.85878C5.38931 5.1575 5 4.76819 5 4.29872C5 3.82925 5.38931 3.43994 5.85878 3.43994H7.43893C7.9084 3.43994 8.29771 3.82925 8.29771 4.29872C8.29771 4.76819 7.91985 5.1575 7.43893 5.1575Z" fill="#303030"/>
<path d="M12.728 5.1575H11.1478C10.6784 5.1575 10.2891 4.76819 10.2891 4.29872C10.2891 3.82925 10.6669 3.43994 11.1478 3.43994H12.728C13.1975 3.43994 13.5868 3.82925 13.5868 4.29872C13.5868 4.76819 13.1975 5.1575 12.728 5.1575Z" fill="#303030"/>
<path d="M9.29433 8.59239C8.82486 8.59239 8.43555 8.20307 8.43555 7.73361V6.15346C8.43555 5.68399 8.82486 5.29468 9.29433 5.29468C9.76379 5.29468 10.1531 5.68399 10.1531 6.15346V7.73361C10.1531 8.20307 9.76379 8.59239 9.29433 8.59239Z" fill="#303030"/>
<path d="M9.29433 3.30235C8.82486 3.30235 8.43555 2.91304 8.43555 2.44357V0.863417C8.43555 0.382501 8.82486 0.00463867 9.29433 0.00463867C9.76379 0.00463867 10.1531 0.393952 10.1531 0.863417V2.44357C10.1531 2.92449 9.76379 3.30235 9.29433 3.30235Z" fill="#303030"/>
</svg>
