<svg width="81" height="81" viewBox="0 0 81 81" fill="none" xmlns="http://www.w3.org/2000/svg">
<rect x="80" y="51" width="30" height="80" transform="rotate(90 80 51)" fill="#59DBF0"/>
<path d="M80.1418 60.4008H6.85938V10.0191C6.85938 8.75954 7.88991 7.729 9.14945 7.729H77.8517C79.1113 7.729 80.1418 8.75954 80.1418 10.0191V60.4008Z" fill="white"/>
<path d="M75.5617 56.9656H6.85938V10.0191C6.85938 8.75954 7.88991 7.729 9.14945 7.729H76.7067V55.8206C76.7067 56.4504 76.2029 56.9656 75.5617 56.9656Z" fill="white"/>
<path d="M80.1412 61.2594H6.85878C6.38931 61.2594 6 60.8701 6 60.4007V10.019C6 8.27851 7.4084 6.87012 9.14885 6.87012H77.8511C79.5916 6.87012 81 8.27851 81 10.019V60.4007C81 60.8816 80.6221 61.2594 80.1412 61.2594ZM7.71756 59.5419H79.2824V10.019C79.2824 9.2289 78.6412 8.58767 77.8511 8.58767H9.14885C8.35878 8.58767 7.71756 9.2289 7.71756 10.019V59.5419Z" fill="#303030"/>
<path d="M59.5298 67.271H27.4688V74.1412H59.5298V67.271Z" fill="white"/>
<path d="M56.0947 67.271H27.4688V70.7061H54.9497C55.5794 70.7061 56.0947 70.1908 56.0947 69.5611V67.271Z" fill="white"/>
<path d="M59.5312 74.9999H27.4701C27.0006 74.9999 26.6113 74.6106 26.6113 74.1411V67.2709C26.6113 66.8014 27.0006 66.4121 27.4701 66.4121H59.5312C60.0006 66.4121 60.39 66.8014 60.39 67.2709V74.1411C60.39 74.622 60.0121 74.9999 59.5312 74.9999ZM28.3289 73.2823H58.6724V68.1297H28.3289V73.2823Z" fill="#303030"/>
<path d="M76.7067 67.2711H10.2945C8.39373 67.2711 6.85938 65.7368 6.85938 63.836V60.4009H80.1418V63.836C80.1418 65.7368 78.6075 67.2711 76.7067 67.2711Z" fill="white"/>
<path d="M75.5617 63.836H6.85938V60.4009H76.7067V62.691C76.7067 63.3207 76.2029 63.836 75.5617 63.836Z" fill="white"/>
<path d="M76.7061 68.1298H10.2939C7.92366 68.1298 6 66.2061 6 63.8359V60.4008C6 59.9313 6.38931 59.542 6.85878 59.542H80.1412C80.6107 59.542 81 59.9313 81 60.4008V63.8359C81 66.2061 79.0763 68.1298 76.7061 68.1298ZM7.71756 61.2595V63.8359C7.71756 65.2557 8.87405 66.4122 10.2939 66.4122H76.7061C78.126 66.4122 79.2824 65.2557 79.2824 63.8359V61.2595H7.71756Z" fill="#303030"/>
<path d="M70.9808 75H16.0189C15.5495 75 15.1602 74.6107 15.1602 74.1412C15.1602 73.6718 15.5495 73.2825 16.0189 73.2825H70.9808C71.4502 73.2825 71.8395 73.6718 71.8395 74.1412C71.8395 74.6222 71.4617 75 70.9808 75Z" fill="#303030"/>
<path d="M43.5005 64.981C44.1329 64.981 44.6455 64.4683 44.6455 63.836C44.6455 63.2036 44.1329 62.6909 43.5005 62.6909C42.8681 62.6909 42.3555 63.2036 42.3555 63.836C42.3555 64.4683 42.8681 64.981 43.5005 64.981Z" fill="#303030"/>
<path d="M70.981 14.5991H41.21C39.9505 14.5991 38.9199 15.6182 38.9199 16.8892V48.9503C38.9199 50.2098 39.9505 51.2403 41.21 51.2403H61.8207L73.2711 60.4006V16.8892C73.2711 15.6182 72.252 14.5991 70.981 14.5991Z" fill="white"/>
<path d="M69.836 14.5991H41.21C39.9505 14.5991 38.9199 15.6182 38.9199 16.8892V45.5152H61.5344C62.8398 45.5152 64.0993 45.9617 65.1069 46.7747L68.9085 49.8205C69.2863 50.1182 69.836 49.8548 69.836 49.3739V14.5991Z" fill="white"/>
<path d="M73.2705 61.2596C73.0758 61.2596 72.8926 61.1909 72.7323 61.0764L61.5224 52.0993H41.2094C39.4689 52.0993 38.0605 50.6909 38.0605 48.9504V16.8893C38.0605 15.1489 39.4689 13.7405 41.2094 13.7405H70.9804C72.7209 13.7405 74.1292 15.1489 74.1292 16.8893V60.4008C74.1292 60.7328 73.9346 61.0306 73.6483 61.1794C73.5224 61.2252 73.3964 61.2596 73.2705 61.2596ZM41.2094 15.458C40.4193 15.458 39.7781 16.0993 39.7781 16.8893V48.9504C39.7781 49.7405 40.4193 50.3817 41.2094 50.3817H61.8201C62.0147 50.3817 62.2094 50.4504 62.3583 50.5649L72.4117 58.6145V16.8893C72.4117 16.0993 71.7705 15.458 70.9804 15.458H41.2094Z" fill="#303030"/>
<path d="M67.5456 27.481H51.515C51.0456 27.481 50.6562 27.0917 50.6562 26.6222C50.6562 26.1527 51.0456 25.7634 51.515 25.7634H67.5456C68.015 25.7634 68.4043 26.1527 68.4043 26.6222C68.4043 27.0917 68.0265 27.481 67.5456 27.481Z" fill="#303030"/>
<path d="M59.5307 27.4808C59.0612 27.4808 58.6719 27.0915 58.6719 26.622V23.1869C58.6719 22.7174 59.0612 22.3281 59.5307 22.3281C60.0001 22.3281 60.3894 22.7174 60.3894 23.1869V26.622C60.3894 27.0915 60.0116 27.4808 59.5307 27.4808Z" fill="#303030"/>
<path d="M53.5773 44.5993C53.3369 44.5993 53.0964 44.4962 52.9247 44.3015C52.6155 43.9351 52.6613 43.397 53.0163 43.0878C61.4895 35.8741 64.9934 26.416 65.0277 26.3244C65.188 25.8779 65.6804 25.6489 66.1269 25.8092C66.5735 25.9695 66.8025 26.4618 66.6422 26.9084C66.4934 27.3092 62.9666 36.8702 54.1269 44.3931C53.9666 44.5305 53.772 44.5993 53.5773 44.5993Z" fill="#303030"/>
<path d="M66.9722 45.8014C66.7889 45.8014 66.6057 45.7441 66.4454 45.6182C59.6439 40.3853 55.6248 33.6296 53.8386 30.0685C53.621 29.6449 53.7928 29.1296 54.2164 28.9121C54.6401 28.6945 55.1554 28.8663 55.3729 29.2899C57.1019 32.725 60.9607 39.2288 67.4989 44.2441C67.8767 44.5304 67.9454 45.0685 67.6592 45.4464C67.4874 45.6869 67.2355 45.8014 66.9722 45.8014Z" fill="#303030"/>
<path d="M45.7896 0.858887H16.0186C14.7591 0.858887 13.7285 1.88942 13.7285 3.14896V48.9505L25.1789 39.7902H45.7896C47.0491 39.7902 48.0797 38.7596 48.0797 37.5001V3.14896C48.0797 1.87797 47.0491 0.858887 45.7896 0.858887Z" fill="white"/>
<path d="M44.6445 0.858887H16.0186C14.759 0.858887 13.7285 1.88942 13.7285 3.14896V41.3932L21.3201 35.3245C22.3392 34.5116 23.5987 34.065 24.8926 34.065H38.9194C42.0797 34.065 44.6445 31.5001 44.6445 28.3398V0.858887Z" fill="white"/>
<path d="M13.7299 49.8092C13.6039 49.8092 13.478 49.7863 13.352 49.729C13.0543 49.5802 12.8711 49.2824 12.8711 48.9504V3.14886C12.8711 1.4084 14.2909 0 16.0199 0H45.7909C47.5314 0 48.9398 1.4084 48.9398 3.14886V37.5C48.9398 39.2405 47.5314 40.6489 45.7909 40.6489H25.478L14.268 49.626C14.1077 49.7405 13.9245 49.8092 13.7299 49.8092ZM16.0199 1.71756C15.2299 1.71756 14.5887 2.35878 14.5887 3.14886V47.1641L24.6421 39.1145C24.7909 38.9886 24.9856 38.9313 25.1803 38.9313H45.7909C46.581 38.9313 47.2222 38.2901 47.2222 37.5V3.14886C47.2222 2.35878 46.581 1.71756 45.7909 1.71756H16.0199Z" fill="#303030"/>
<path d="M36.6304 20.3244H33.1953V8.87402H36.6304C38.5312 8.87402 40.0655 10.4084 40.0655 12.3091V16.8893C40.0655 18.7901 38.5312 20.3244 36.6304 20.3244Z" fill="white"/>
<path d="M35.4854 18.0343H33.1953V8.87402H34.3404C36.2411 8.87402 37.7755 10.4084 37.7755 12.3091V15.7443C37.7755 17.0038 36.7564 18.0343 35.4854 18.0343Z" fill="white"/>
<path d="M36.6298 21.1833H33.1947C32.7253 21.1833 32.3359 20.794 32.3359 20.3245V8.87416C32.3359 8.40469 32.7253 8.01538 33.1947 8.01538H36.6298C39.0001 8.01538 40.9237 9.93905 40.9237 12.3093V16.8894C40.9237 19.2597 39.0001 21.1833 36.6298 21.1833ZM34.0535 19.4658H36.6298C38.0497 19.4658 39.2062 18.3093 39.2062 16.8894V12.3093C39.2062 10.8894 38.0497 9.73294 36.6298 9.73294H34.0535V19.4658Z" fill="#303030"/>
<path d="M38.9205 31.7748H33.1953V20.3245H38.9205C40.8213 20.3245 42.3556 21.8588 42.3556 23.7596V28.3397C42.3556 30.2405 40.8213 31.7748 38.9205 31.7748Z" fill="white"/>
<path d="M37.7755 29.4848H33.1953V20.3245H36.6304C38.5312 20.3245 40.0655 21.8588 40.0655 23.7596V27.1947C40.0655 28.4542 39.0465 29.4848 37.7755 29.4848Z" fill="white"/>
<path d="M38.9199 32.6335H33.1947C32.7253 32.6335 32.3359 32.2442 32.3359 31.7747V20.3244C32.3359 19.8549 32.7253 19.4656 33.1947 19.4656H38.9199C41.2901 19.4656 43.2138 21.3892 43.2138 23.7595V28.3396C43.2138 30.7099 41.2901 32.6335 38.9199 32.6335ZM34.0535 30.916H38.9199C40.3398 30.916 41.4962 29.7595 41.4962 28.3396V23.7595C41.4962 22.3396 40.3398 21.1831 38.9199 21.1831H34.0535V30.916Z" fill="#303030"/>
<path d="M28.6143 32.6335C28.2135 32.6335 27.8586 32.3472 27.7784 31.9465L24.0456 13.2594L20.3013 31.9465C20.2097 32.4159 19.7517 32.7136 19.2937 32.622C18.8242 32.5304 18.5265 32.0724 18.6181 31.6144L23.1983 8.71363C23.2784 8.31287 23.6334 8.02661 24.0456 8.02661C24.4578 8.02661 24.8128 8.31287 24.8929 8.71363L29.4731 31.6144C29.5647 32.0839 29.267 32.5304 28.7975 32.622C28.7288 32.622 28.6715 32.6335 28.6143 32.6335Z" fill="#303030"/>
<path d="M27.0122 24.6184H21.058C20.5885 24.6184 20.1992 24.2291 20.1992 23.7597C20.1992 23.2902 20.5885 22.9009 21.058 22.9009H27.0122C27.4817 22.9009 27.871 23.2902 27.871 23.7597C27.871 24.2291 27.4817 24.6184 27.0122 24.6184Z" fill="#303030"/>
<path d="M76.7074 4.0076H62.1654C61.696 4.0076 61.3066 3.61828 61.3066 3.14882C61.3066 2.6679 61.696 2.29004 62.1654 2.29004H76.7074C77.1769 2.29004 77.5662 2.6679 77.5662 3.14882C77.5662 3.61828 77.1769 4.0076 76.7074 4.0076Z" fill="#303030"/>
<path d="M57.5842 4.0076H54.9506C54.4811 4.0076 54.0918 3.61828 54.0918 3.14882C54.0918 2.6679 54.4811 2.29004 54.9506 2.29004H57.5842C58.0536 2.29004 58.4429 2.67935 58.4429 3.14882C58.4429 3.61828 58.0536 4.0076 57.5842 4.0076Z" fill="#303030"/>
<path d="M35.4857 55.5345H23.2338C22.7643 55.5345 22.375 55.1451 22.375 54.6757C22.375 54.2062 22.7643 53.8169 23.2338 53.8169H35.4857C35.9552 53.8169 36.3445 54.2062 36.3445 54.6757C36.3445 55.1566 35.9552 55.5345 35.4857 55.5345Z" fill="#303030"/>
<path d="M18.6525 55.5345H16.0189C15.5495 55.5345 15.1602 55.1451 15.1602 54.6757C15.1602 54.2062 15.5495 53.8169 16.0189 53.8169H18.6525C19.122 53.8169 19.5113 54.2062 19.5113 54.6757C19.5113 55.1566 19.122 55.5345 18.6525 55.5345Z" fill="#303030"/>
</svg>
