<svg xmlns="http://www.w3.org/2000/svg" xmlns:xlink="http://www.w3.org/1999/xlink" version="1.1" x="0px" y="0px" viewBox="0 0 100 100" style="enable-background:new 0 0 100 100;max-width:100%" xml:space="preserve" height="100%"><style type="text/css" style="" fill="currentColor">
	.st0{fill-rule:evenodd;clip-rule:evenodd;}
</style><path d="M83.4,52c0.2-0.1,0.3-0.3,0.4-0.4c0.1-0.1,0.3-0.3,0.4-0.5l0.2-0.2l0.1-0.3c0.1-0.2,0.2-0.4,0.2-0.6  c0.1-0.2,0.1-0.4,0.1-0.6c0-0.2,0.1-0.5,0-0.8c0-0.3,0-0.5-0.1-0.7c0-0.2-0.1-0.4-0.2-0.6l-0.1-0.2l-0.2-0.3  c-0.1-0.2-0.3-0.4-0.4-0.5c-0.1-0.2-0.3-0.3-0.4-0.5c-0.1-0.1-0.3-0.2-0.4-0.3L83,45.4l-8.8-4.5l8.7-5.3c0.2-0.1,0.4-0.3,0.5-0.4  c0.2-0.1,0.3-0.3,0.4-0.4c0.1-0.1,0.3-0.3,0.4-0.5l0.2-0.2l0.1-0.3c0.1-0.2,0.2-0.4,0.2-0.6c0.1-0.2,0.1-0.4,0.1-0.6  c0-0.2,0.1-0.5,0-0.8c0-0.3,0-0.5-0.1-0.7c0-0.2-0.1-0.4-0.2-0.6l-0.1-0.2l-0.2-0.3c-0.1-0.2-0.3-0.4-0.4-0.5  c-0.1-0.2-0.3-0.3-0.4-0.5c-0.1-0.1-0.3-0.2-0.4-0.3L83,28.7L51.2,12.3c-0.2-0.1-0.4-0.2-0.5-0.2c-0.2-0.1-0.4-0.1-0.5-0.2  c-0.3-0.1-0.6-0.1-1-0.1c-0.2,0-0.4,0-0.5,0.1c-0.3,0-0.5,0.1-0.8,0.2l-0.2,0.1l-0.3,0.2c-0.6,0.3-28.9,17.7-30.3,18.5  c-0.7,0.4-1.2,0.9-1.5,1.5c-0.4,0.8-0.6,1.7-0.4,2.5l0,0.3c0.1,0.3,0.2,0.6,0.3,0.9l0.3,0.7l0.2,0.2c0.1,0.1,0.2,0.2,0.3,0.3  c0.1,0.1,0.2,0.2,0.4,0.3l0.4,0.3c0.2,0.1,3.8,2,8.6,4.5c-4.6,2.8-8.2,5-8.7,5.3c-0.7,0.4-1.2,0.9-1.5,1.5c-0.4,0.8-0.6,1.6-0.4,2.5  l0,0.3c0.1,0.3,0.2,0.6,0.3,0.9l0.4,0.7l0.2,0.2c0.1,0.1,0.2,0.2,0.3,0.3c0.1,0.1,0.3,0.3,0.5,0.4l0.3,0.2c0.1,0,3.8,1.9,8.6,4.5  c-4.6,2.8-8.2,5-8.7,5.3c-0.7,0.4-1.2,0.9-1.5,1.5c-0.4,0.8-0.6,1.6-0.4,2.5l0,0.3c0.1,0.3,0.2,0.6,0.3,0.9l0.4,0.7l0.2,0.1  c0.1,0.2,0.3,0.3,0.3,0.3c0.1,0.1,0.2,0.2,0.4,0.4l0.4,0.3c0.5,0.3,31.3,16.1,31.7,16.3c0.2,0.1,0.3,0.1,0.5,0.2  c0.3,0.1,0.6,0.2,0.9,0.2c0.1,0,0.2,0,0.4,0c0,0,0,0,0,0c0,0,0,0,0,0c0.4,0,0.8-0.1,1.2-0.2l0.2-0.1c0.2-0.1,0.5-0.2,0.7-0.3  l30.2-18.5c0.2-0.1,0.4-0.2,0.5-0.3c0.2-0.1,0.3-0.2,0.4-0.4c0.1-0.2,0.3-0.3,0.4-0.5l0.2-0.2l0.1-0.3c0.1-0.2,0.2-0.4,0.2-0.5  c0.1-0.2,0.1-0.4,0.1-0.6c0-0.2,0.1-0.5,0-0.8c0-0.3,0-0.5-0.1-0.7c0-0.2-0.1-0.4-0.2-0.6l-0.1-0.2l-0.2-0.3  c-0.1-0.2-0.3-0.4-0.4-0.5c-0.1-0.2-0.3-0.3-0.4-0.5c-0.1-0.1-0.3-0.2-0.4-0.3L83,62.2l-8.8-4.5l8.7-5.3  C83.1,52.2,83.3,52.1,83.4,52z M49.4,17l29.5,15.2L50.6,49.5C47.2,47.8,27,37.4,21.2,34.3C26.8,30.9,46,19.1,49.4,17z M78.9,65.7  L50.6,83c-3.4-1.7-23.5-12.1-29.5-15.2c2-1.2,5.7-3.5,9.9-6c8.4,4.3,17.6,9.1,17.9,9.2c0.2,0.1,0.3,0.1,0.4,0.2  c0.3,0.1,0.6,0.2,0.9,0.2c0.1,0,0.2,0,0.3,0c0,0,0,0,0.1,0c0.4,0,0.8-0.1,1.2-0.2l0.1,0l-0.8-2.4l0.9,2.3c0.2,0,0.5-0.1,0.8-0.3  l16.5-10.1L78.9,65.7z M50.6,66.2C47.2,64.5,27,54.1,21.2,51.1c2-1.2,5.7-3.5,9.8-6c8.4,4.3,17.7,9.1,17.9,9.2  c0.2,0.1,0.3,0.1,0.4,0.2c0.3,0.1,0.6,0.2,0.9,0.2c0.1,0,0.2,0,0.3,0c0,0,0,0,0,0c0.4,0,0.8-0.1,1.3-0.2l0.2-0.1  c0.2,0,0.4-0.1,0.8-0.3L69.2,44l9.6,5L50.6,66.2z" style="" fill="currentColor"></path></svg>