<svg xmlns="http://www.w3.org/2000/svg" xmlns:xlink="http://www.w3.org/1999/xlink" version="1.1" x="0px" y="0px" viewBox="0 0 90 90" enable-background="new 0 0 90 90" xml:space="preserve" style="max-width:100%" height="100%"><g style="" fill="currentColor"><path d="M65.5,72.4h-4c0-2.2,0-6.2,0-10.9c0-7.3-3.3-12.2-11.2-16.2c7.6-3.9,11.1-8.8,11.1-15.3V16.5h4c1.1,0,2-0.9,2-2   c0-1.1-0.9-2-2-2H25.4c-1.1,0-2,0.9-2,2c0,1.1,0.9,2,2,2h4.1V30c0,6.5,3.5,11.5,11.1,15.3c-7.9,4-11.1,8.9-11.1,16.2   c0,4.8,0,8.8,0,10.9h-4.1c-1.1,0-2,0.9-2,2c0,1.1,0.9,2,2,2h40.1c1.1,0,2-0.9,2-2C67.5,73.3,66.6,72.4,65.5,72.4z M33.5,30V16.5h24   V30c0,3.8-1.3,8.8-12,13.2C34.8,38.7,33.5,33.8,33.5,30z M33.4,61.5c0-5.6,2-9.9,12-14c10,4.2,12.1,8.5,12.1,14c0,4.8,0,8.8,0,10.9   h-24C33.5,70.3,33.4,66.3,33.4,61.5z" style="" fill="currentColor"></path></g></svg>