<svg xmlns="http://www.w3.org/2000/svg" data-name="Layer 1" viewBox="0 0 128 128" x="0px" y="0px" style="max-width:100%" height="100%"><title style="" fill="currentColor">miscellaneous 73 final</title><path d="M124,26H4a4,4,0,0,0-4,4V98a4,4,0,0,0,4,4H124a4,4,0,0,0,4-4V30A4,4,0,0,0,124,26ZM4,30H56.375V67H4ZM124,98H4V90.96216A2.00316,2.00316,0,0,0,4.375,91H124Zm0-11H4.375A2.00316,2.00316,0,0,0,4,87.03784V80.96216A2.00316,2.00316,0,0,0,4.375,81H124Zm0-10H4.375A2.00316,2.00316,0,0,0,4,77.03784V71H124Zm0-10H60.375V61H124Zm0-10H60.375V51H124Zm0-10H60.375V41H124Zm0-10H60.375V30H124Z" style="" fill="currentColor"></path><polygon points="9.652 42.747 12.25 41.382 14.848 42.747 14.352 39.855 16.453 37.806 13.549 37.384 12.25 34.753 10.951 37.384 8.047 37.806 10.148 39.855 9.652 42.747" style="" fill="currentColor"></polygon><polygon points="21.652 42.747 24.25 41.382 26.848 42.747 26.352 39.855 28.453 37.806 25.549 37.384 24.25 34.753 22.951 37.384 20.047 37.806 22.148 39.855 21.652 42.747" style="" fill="currentColor"></polygon><polygon points="34.652 42.747 37.25 41.382 39.848 42.747 39.352 39.855 41.453 37.806 38.549 37.384 37.25 34.753 35.951 37.384 33.047 37.806 35.148 39.855 34.652 42.747" style="" fill="currentColor"></polygon><polygon points="46.652 42.747 49.25 41.382 51.848 42.747 51.352 39.855 53.453 37.806 50.549 37.384 49.25 34.753 47.951 37.384 45.047 37.806 47.148 39.855 46.652 42.747" style="" fill="currentColor"></polygon><polygon points="9.652 52.747 12.25 51.382 14.848 52.747 14.352 49.855 16.453 47.806 13.549 47.384 12.25 44.753 10.951 47.384 8.047 47.806 10.148 49.855 9.652 52.747" style="" fill="currentColor"></polygon><polygon points="21.652 52.747 24.25 51.382 26.848 52.747 26.352 49.855 28.453 47.806 25.549 47.384 24.25 44.753 22.951 47.384 20.047 47.806 22.148 49.855 21.652 52.747" style="" fill="currentColor"></polygon><polygon points="34.652 52.747 37.25 51.382 39.848 52.747 39.352 49.855 41.453 47.806 38.549 47.384 37.25 44.753 35.951 47.384 33.047 47.806 35.148 49.855 34.652 52.747" style="" fill="currentColor"></polygon><polygon points="46.652 52.747 49.25 51.382 51.848 52.747 51.352 49.855 53.453 47.806 50.549 47.384 49.25 44.753 47.951 47.384 45.047 47.806 47.148 49.855 46.652 52.747" style="" fill="currentColor"></polygon><polygon points="9.652 62.747 12.25 61.382 14.848 62.747 14.352 59.855 16.453 57.806 13.549 57.384 12.25 54.753 10.951 57.384 8.047 57.806 10.148 59.855 9.652 62.747" style="" fill="currentColor"></polygon><polygon points="21.652 62.747 24.25 61.382 26.848 62.747 26.352 59.855 28.453 57.806 25.549 57.384 24.25 54.753 22.951 57.384 20.047 57.806 22.148 59.855 21.652 62.747" style="" fill="currentColor"></polygon><polygon points="34.652 62.747 37.25 61.382 39.848 62.747 39.352 59.855 41.453 57.806 38.549 57.384 37.25 54.753 35.951 57.384 33.047 57.806 35.148 59.855 34.652 62.747" style="" fill="currentColor"></polygon><polygon points="46.652 62.747 49.25 61.382 51.848 62.747 51.352 59.855 53.453 57.806 50.549 57.384 49.25 54.753 47.951 57.384 45.047 57.806 47.148 59.855 46.652 62.747" style="" fill="currentColor"></polygon></svg>