<svg xmlns="http://www.w3.org/2000/svg" fill="#fff" xmlns:xlink="http://www.w3.org/1999/xlink" version="1.1" x="0px" y="0px" viewBox="0 0 100 100" enable-background="new 0 0 100 100" xml:space="preserve" style="max-width:100%" height="100%"><g style="" fill="#fff"><path d="M60.258,27.237c-7.356,0-13.322,4.899-13.322,10.942c0,6.042,5.966,10.941,13.322,10.941c7.357,0,13.321-4.9,13.321-10.941   C73.579,32.136,67.615,27.237,60.258,27.237z M68.618,39.363c-0.055,1.604-0.438,2.698-0.846,3.549l-2.892-0.729   c0.31-0.609,0.897-1.75,0.897-3.501c0-1.581-0.745-2.091-1.46-2.091c-0.817,0-1.382,0.851-2.175,2.942   c-1.075,2.893-2.481,4.035-4.81,4.035c-2.276,0-4.222-1.507-4.708-4.302h-2.638V36.86h2.432c0.075-1.628,0.563-3.208,1.1-4.132   l2.996,0.729c-0.59,1.021-1.128,2.455-1.128,4.037c0,1.41,0.59,2.357,1.587,2.357c0.971,0,1.588-0.778,2.227-2.603   c0.925-2.601,2.2-4.375,4.683-4.375c2.278,0,4.042,1.507,4.556,4.108h2.429v2.381H68.618z" style="" fill="#fff"></path><path d="M94.99,21.184c-0.675-2.162-2.649-3.614-4.915-3.614c-0.521,0-1.039,0.079-1.537,0.236l-6.971,2.18v10.789l10.046-3.139   c1.312-0.409,2.387-1.306,3.027-2.526C95.276,23.893,95.402,22.499,94.99,21.184z" style="" fill="#fff"></path><path d="M86.058,36.216h-4.49v10.301h4.49c2.841,0,5.151-2.311,5.151-5.15C91.209,38.526,88.898,36.216,86.058,36.216z" style="" fill="#fff"></path><g style="" fill="#fff"><path d="M81.567,50.457v8.079h4.49c2.841,0,5.151-2.311,5.151-5.15s-2.311-5.151-5.151-5.151h-4.49V50.457z" style="" fill="#fff"></path><path d="M85.934,60.253h-4.366v6.93v3.37h4.366c2.841,0,5.151-2.311,5.151-5.149C91.085,62.562,88.774,60.253,85.934,60.253z" style="" fill="#fff"></path></g><polygon points="74.096,0.049 36.051,0.049 36.051,0.053 35.35,0.053 35.35,33.023 37.739,31.927 37.739,2.439 74.096,2.439  " style="" fill="#fff"></polygon><polygon points="48.379,26.894 46.07,26.894 46.07,10.734 57.038,10.734 57.038,13.043 48.379,13.043 48.379,26.894  " style="" fill="#fff"></polygon><polygon points="74.351,26.894 72.042,26.894 72.042,13.043 63.386,13.043 63.386,10.734 74.351,10.734 74.351,26.894  " style="" fill="#fff"></polygon><polygon points="74.351,75.095 63.386,75.095 63.386,72.786 72.042,72.786 72.042,63.363 74.351,63.363 74.351,75.095  " style="" fill="#fff"></polygon><polygon points="66.271,19.807 52.421,19.807 52.421,17.499 66.271,17.499 66.271,19.807  " style="" fill="#fff"></polygon><polygon points="66.271,69.873 51.266,69.873 51.266,67.564 66.271,67.564 66.271,69.873  " style="" fill="#fff"></polygon></g><g style="" fill="#fff"><path d="M79.482,6.595V5.244H41.438v0.004h-0.701v44.273h2.39V7.633h33.971v70.319H49.485c-1.203,7.358-8.255,12.322-8.495,12.478   c-0.246,0.16-0.524,0.236-0.798,0.236c-0.481,0-0.955-0.236-1.236-0.672c-0.442-0.683-0.246-1.592,0.438-2.035   c0.053-0.034,5.594-3.718,7.222-9.926c0.264-1.004,0.461-1.987,0.617-2.938h9.806v-2.309h-9.507   c0.396-4.167-0.05-7.219-0.055-7.261c-0.018-0.126-0.014-0.245-0.002-0.365H64.23c3.434,0,6.867-2.067,6.867-6.131   s-3.023-6.623-6.867-6.623H37.544v-7.253h-0.034l-0.008-9.912c-3.59,1.56-6.094,2.665-6.631,2.939   c-4.332,2.207-7.603,7.276-8.339,9.32C21.633,49.542,1.439,99.822,1.439,99.822h41.858c0,0,10.14-4.251,15.534-10.138   c1.81-1.976,4.263-6.014,5.649-9.352l15.001,0.018l0.004-73.756H79.482z" style="" fill="#fff"></path></g></svg>