<svg xmlns="http://www.w3.org/2000/svg" xmlns:xlink="http://www.w3.org/1999/xlink" version="1.1" x="0px" y="0px" viewBox="0 0 64 64" style="enable-background:new 0 0 64 64;max-width:100%" xml:space="preserve" height="100%"><path d="M61,27h-1V3c0-0.553-0.447-1-1-1h-6c-0.553,0-1,0.447-1,1v1H12V3c0-0.553-0.447-1-1-1H5C4.447,2,4,2.447,4,3v24H3  c-0.553,0-1,0.447-1,1v29c0,2.757,2.243,5,5,5h50c2.757,0,5-2.243,5-5V28C62,27.447,61.553,27,61,27z M54,4h4v23h-4V9V5V4z M49,27  v-4.764l0.895-1.789c0.141-0.281,0.141-0.613,0-0.895l-3-6c-0.34-0.678-1.449-0.678-1.789,0l-3,6c-0.141,0.281-0.141,0.613,0,0.895  L43,22.236V27h-6v-1.586l2.707-2.707C39.895,22.52,40,22.266,40,22v-5c0-0.314-0.148-0.611-0.4-0.8l-4-3  c-0.303-0.229-0.708-0.264-1.047-0.095C34.214,13.275,34,13.621,34,14v5h-4v-5c0-0.379-0.214-0.725-0.553-0.895  c-0.338-0.168-0.745-0.133-1.047,0.095l-4,3C24.148,16.389,24,16.686,24,17v5c0,0.266,0.105,0.52,0.293,0.707L27,25.414V27h-6  v-4.764l0.895-1.789c0.095-0.189,0.127-0.403,0.092-0.611l-1-6C20.906,13.354,20.489,13,20,13h-4c-0.489,0-0.906,0.354-0.986,0.836  l-1,6c-0.035,0.208-0.003,0.422,0.092,0.611L15,22.236V27h-3V10h40v17H49z M49,40c0,0.552-0.448,1-1,1s-1-0.448-1-1s0.448-1,1-1  S49,39.448,49,40z M41,47c0,0.552-0.448,1-1,1s-1-0.448-1-1s0.448-1,1-1S41,46.448,41,47z M40,37.586l-3-3V29h5v6.586L40,37.586z   M33,44c0,0.552-0.448,1-1,1s-1-0.448-1-1s0.448-1,1-1S33,43.448,33,44z M31,36.586l-3-3V29h3V36.586z M29,27v-2  c0-0.266-0.105-0.52-0.293-0.707L26,21.586V17.5l2-1.5v4c0,0.553,0.447,1,1,1h6c0.553,0,1-0.447,1-1v-4l2,1.5v4.086l-2.707,2.707  C35.105,24.48,35,24.734,35,25v2H29z M44.895,21.553L44.118,20L46,16.236L47.882,20l-0.776,1.553C47.036,21.691,47,21.845,47,22v5  h-2v-5C45,21.845,44.964,21.691,44.895,21.553z M17,40c0,0.552-0.448,1-1,1s-1-0.448-1-1s0.448-1,1-1S17,39.448,17,40z   M16.895,21.553l-0.854-1.709L16.847,15h2.307l0.807,4.844l-0.854,1.709C19.036,21.691,19,21.845,19,22v5h-2v-5  C17,21.845,16.964,21.691,16.895,21.553z M52,6v2H12V6H52z M6,4h4v1v4v18H6V4z M60,57c0,1.654-1.346,3-3,3H7c-1.654,0-3-1.346-3-3  V29h1h5v4.586l-1.707,1.707C8.105,35.48,8,35.734,8,36v7.184C6.839,43.598,6,44.698,6,46c0,1.654,1.346,3,3,3s3-1.346,3-3  c0-1.302-0.839-2.402-2-2.816v-6.77l1.707-1.707C11.895,34.52,12,34.266,12,34v-5h3v8.184c-1.161,0.414-2,1.514-2,2.816  c0,1.654,1.346,3,3,3s3-1.346,3-3c0-1.302-0.839-2.402-2-2.816V29h3v7c0,0.266,0.105,0.52,0.293,0.707L23,39.414v5.77  c-1.161,0.414-2,1.514-2,2.816c0,1.654,1.346,3,3,3s3-1.346,3-3c0-1.302-0.839-2.402-2-2.816V39c0-0.266-0.105-0.52-0.293-0.707  L22,35.586V29h4v5c0,0.266,0.105,0.52,0.293,0.707L31,39.414v1.77c-1.161,0.414-2,1.514-2,2.816c0,1.654,1.346,3,3,3s3-1.346,3-3  c0-1.302-0.839-2.402-2-2.816V29h2v6c0,0.266,0.105,0.52,0.293,0.707L39,39.414v4.77c-1.161,0.414-2,1.514-2,2.816  c0,1.654,1.346,3,3,3s3-1.346,3-3c0-1.302-0.839-2.402-2-2.816v-4.77l2.707-2.707C43.895,36.52,44,36.266,44,36v-7h3v8.184  c-1.161,0.414-2,1.514-2,2.816c0,1.654,1.346,3,3,3s3-1.346,3-3c0-1.302-0.839-2.402-2-2.816V29h3v5c0,0.266,0.105,0.52,0.293,0.707  L54,36.414v6.77c-1.161,0.414-2,1.514-2,2.816c0,1.654,1.346,3,3,3s3-1.346,3-3c0-1.302-0.839-2.402-2-2.816V36  c0-0.266-0.105-0.52-0.293-0.707L54,33.586V29h5h1V57z M10,46c0,0.552-0.448,1-1,1s-1-0.448-1-1s0.448-1,1-1S10,45.448,10,46z   M25,48c0,0.552-0.448,1-1,1s-1-0.448-1-1s0.448-1,1-1S25,47.448,25,48z M56,46c0,0.552-0.448,1-1,1s-1-0.448-1-1s0.448-1,1-1  S56,45.448,56,46z" style="" fill="currentColor"></path><polygon points="55,51 53,51 53,56 51,56 51,47 49,47 49,56 47,56 47,45 45,45 45,56 43,56 43,52 41,52 41,56 39,56 39,52 37,52   37,56 35,56 35,49 33,49 33,56 31,56 31,48 29,48 29,56 27,56 27,52 25,52 25,56 23,56 23,52 21,52 21,56 19,56 19,49 17,49 17,56   15,56 15,47 13,47 13,56 11,56 11,52 9,52 9,56 7,56 7,58 57,58 57,56 55,56 " style="" fill="currentColor"></polygon></svg>