<svg xmlns="http://www.w3.org/2000/svg" xmlns:xlink="http://www.w3.org/1999/xlink" version="1.1" x="0px" y="0px" viewBox="0 0 100 100" fill="#fff" xml:space="preserve" style="max-width:100%" height="100%"><path d="M80.7,11.1c-2.8,0-5.1,2.3-5.1,5.1v9l8.3,8.2c0.8,0.7,1.4,1.6,2,2.5V16.3C85.8,13.4,83.5,11.1,80.7,11.1z" style="" fill="#fff"></path><path d="M85.8,42.9c0-3-1.2-5.9-3.4-8L53.6,6.5c-1-1-2.3-1.5-3.6-1.5s-2.7,0.5-3.6,1.5c-2,2-2,5.3,0,7.3L69.1,37  c0.4,0.4,0.4,1,0,1.4c-0.4,0.4-1,0.4-1.4,0L41.4,12.6c-1-1-2.3-1.5-3.6-1.5s-2.7,0.5-3.6,1.5c-1,1-1.5,2.3-1.5,3.6  c0,1.4,0.5,2.7,1.5,3.6l15.2,15.2c0.3,0.3,0.4,0.8,0.2,1.2c-0.2,0.4-0.7,0.6-1.1,0.4c-6.7-2-14.1-1.2-20.2,2.1  c-1.2,0.7-2.1,1.7-2.5,3.1s-0.2,2.7,0.4,3.9c0.2,0.4,0.5,0.8,0.8,1.1l0.2,0.2c1.6,1.5,4,1.9,6,0.8c2.4-1.3,5-2,7.8-2  c9,0,16.3,7.3,16.3,16.3s-7.3,16.3-16.3,16.3c-9,0-16.3-7.3-16.3-16.3c0-2.8,0.7-5.4,2-7.8c1.1-2,0.7-4.4-0.8-6l-0.2-0.2  c-0.3-0.3-0.7-0.6-1.1-0.8c-0.8-0.4-1.6-0.6-2.4-0.6c-1.8,0-3.6,1-4.5,2.7c-2.1,3.9-3.2,8.2-3.2,12.7C14.2,80.3,30.3,95,50,95  s35.8-14.7,35.8-32.7V42.9z" style="" fill="#fff"></path></svg>