<svg xmlns="http://www.w3.org/2000/svg" viewBox="0 0 64 64" x="0px" y="0px" style="max-width:100%" height="100%"><title style="" fill="currentColor">24-Career</title><g data-name="24-Career" style="" fill="currentColor"><rect x="5" y="51" width="2" height="2" style="" fill="currentColor"></rect><path d="M43.89,46.55a1,1,0,0,0-.5-.47l-6.63-2.87-.54-1.67A8.2,8.2,0,0,0,39,35V27a1,1,0,0,0-.29-.71A9.73,9.73,0,0,0,32,24a9.73,9.73,0,0,0-6.71,2.29A1,1,0,0,0,25,27v8a8.2,8.2,0,0,0,2.77,6.54l-.54,1.67L20.6,46.08a1,1,0,0,0-.5.47l-1,2A1,1,0,0,0,19,49V64h2V49.24l.73-1.46,6-2.61L31,48.41V54h2V48.41l3.25-3.25,6,2.61L43,49.24V64h2V49a1,1,0,0,0-.11-.45ZM27,27.47A8.3,8.3,0,0,1,32,26a8.3,8.3,0,0,1,5,1.47v4.39c-.5-.13-1-.38-1-.86a1,1,0,0,0-1-1H29a1,1,0,0,0-1,1c0,.47-.5.72-1,.86Zm5,19.12-2.84-2.84.38-1.19a7,7,0,0,0,4.9,0l.38,1.19ZM32,41c-3.69,0-5-3.23-5-6V33.91A3.55,3.55,0,0,0,29.82,32h4.36A3.55,3.55,0,0,0,37,33.91V35C37,37.77,35.69,41,32,41Z" style="" fill="currentColor"></path><rect x="24" y="58" width="2" height="6" style="" fill="currentColor"></rect><rect x="38" y="58" width="2" height="6" style="" fill="currentColor"></rect><path d="M21,17h4v4h2V16a1,1,0,0,0-1-1H23L32,2.69,41,15H38a1,1,0,0,0-1,1v5h2V17h4a1,1,0,0,0,.81-1.59l-11-15a1,1,0,0,0-1.61,0l-11,15A1,1,0,0,0,21,17Z" style="" fill="currentColor"></path><path d="M63.81,29.41l-11-15a1,1,0,0,0-1.61,0l-11,15A1,1,0,0,0,41,31h4v7h2V30a1,1,0,0,0-1-1H43l9-12.31L61,29H52v2h5V49h2V31h4a1,1,0,0,0,.81-1.59Z" style="" fill="currentColor"></path><path d="M21,29H18a1,1,0,0,0-1,1v8h2V31h4a1,1,0,0,0,.81-1.59l-11-15a1,1,0,0,0-1.61,0l-11,15A1,1,0,0,0,1,31H5V49H7V31h5V29H3l9-12.31Z" style="" fill="currentColor"></path><rect x="17" y="40" width="2" height="2" style="" fill="currentColor"></rect><rect x="45" y="40" width="2" height="2" style="" fill="currentColor"></rect><rect x="57" y="51" width="2" height="2" style="" fill="currentColor"></rect></g></svg>