<svg xmlns="http://www.w3.org/2000/svg" viewBox="0 0 64 64" x="0px" y="0px" style="max-width:100%" height="100%"><title style="" fill="currentColor">Frontend-user-interface-website</title><g style="" fill="currentColor"><rect x="31" y="52" width="2" height="2" style="" fill="currentColor"></rect><path d="M6,62H58a4,4,0,0,0,4-4V55a1,1,0,0,0-1-1H60V12a4,4,0,0,0-4-4H8a4,4,0,0,0-4,4V54H3a1,1,0,0,0-1,1v3A4,4,0,0,0,6,62ZM6,12a2,2,0,0,1,2-2H56a2,2,0,0,1,2,2V54H41a1,1,0,0,0-.707.293L38.586,56H25.414l-1.707-1.707A1,1,0,0,0,23,54H6ZM4,56H22.586l1.707,1.707A1,1,0,0,0,25,58H39a1,1,0,0,0,.707-.293L41.414,56H60v2a2,2,0,0,1-2,2H6a2,2,0,0,1-2-2Z" style="" fill="currentColor"></path><rect x="12" y="16" width="2" height="2" style="" fill="currentColor"></rect><rect x="16" y="16" width="2" height="2" style="" fill="currentColor"></rect><rect x="20" y="16" width="2" height="2" style="" fill="currentColor"></rect><path d="M19.45,36.835A1,1,0,0,0,20,37a.986.986,0,0,0,.394-.081l7-3a1,1,0,0,0,0-1.838l-7-3A1,1,0,0,0,19,30v6A1,1,0,0,0,19.45,36.835ZM21,31.517,24.461,33,21,34.483Z" style="" fill="currentColor"></path><path d="M50,50h2a4,4,0,0,0,4-4V16a4,4,0,0,0-4-4H12a4,4,0,0,0-4,4V46a4,4,0,0,0,4,4H50ZM40.9,36.553l-1.7-3.407L44,27.536l4.809,5.61-1.7,3.407A1,1,0,0,0,47,37v2H45V35H43v4H41V37A1,1,0,0,0,40.9,36.553ZM39.117,48l.778-7h8.21l.222,2H42v2h6.549l.334,3ZM12,14H52a2,2,0,0,1,2,2v4H10V16A2,2,0,0,1,12,14ZM10,46V22H54V46a2,2,0,0,1-2,2H50.9l-.9-8.11A1,1,0,0,0,49,39V37.236l1.9-3.789a1,1,0,0,0-.136-1.1l-6-7a1.031,1.031,0,0,0-1.518,0l-6,7a1,1,0,0,0-.136,1.1L39,37.236V39a1,1,0,0,0-.994.89L37.1,48H12A2,2,0,0,1,10,46Z" style="" fill="currentColor"></path><rect x="43" y="31" width="2" height="2" style="" fill="currentColor"></rect><path d="M33,25H14a1,1,0,0,0-1,1V40a1,1,0,0,0,1,1H33a1,1,0,0,0,1-1V26A1,1,0,0,0,33,25ZM32,39H15V27H32Z" style="" fill="currentColor"></path><rect x="13" y="43" width="2" height="2" style="" fill="currentColor"></rect><rect x="17" y="43" width="17" height="2" style="" fill="currentColor"></rect></g></svg>