<svg xmlns="http://www.w3.org/2000/svg" xmlns:xlink="http://www.w3.org/1999/xlink" version="1.1" x="0px" y="0px" viewBox="0 0 128 128" style="enable-background:new 0 0 128 128;max-width:100%" xml:space="preserve" height="100%"><path d="M78.9193954,57.7440987l3.5410004,3.4639015c0.6196976,0.6064987,1.4366074,0.9043007,2.2841949,0.9043007  c1.0195999,0,2.0830002-0.4297028,2.9033051-1.2685013l2.7167969-2.7753983c1.5039978-1.5381012,1.6133041-3.8623009,0.25-5.1954002  l-3.5429001-3.4658012c1.6797028-2.6836014,2.9043045-5.6758003,3.5663986-8.8740005l4.9512024-0.0585976  c1.9061966-0.0205002,3.4335022-1.7773018,3.4101028-3.9258003l-0.0429993-3.8847008  c-0.0253067-2.1338005-1.5698013-3.8477001-3.459404-3.8477001c-0.0121994,0-0.0243988,0-0.0366974,0l-4.9531021,0.0557003  c-0.732399-3.1836014-2.0214996-6.1485004-3.7616959-8.7959003l3.464798-3.5419998  c1.3378983-1.3623009,1.1718979-3.6836004-0.363205-5.1865005l-2.7773972-2.7167997  c-0.8153992-0.7979002-1.8539963-1.2041006-2.8480988-1.2041006c-0.8778992,0-1.7206955,0.3164001-2.3451996,0.9569998  l-3.4649048,3.5420008c-2.6835938-1.6768007-5.6757965-2.9033003-8.8749924-3.5644999l-0.0547028-4.9502006  c-0.0214996-1.8934999-1.7518921-3.4101-3.8788986-3.4101c-0.0171051,0-0.033699,0-0.0508041,0l-3.883297,0.0429  c-2.1455002,0.0245-3.8701019,1.5889-3.8496017,3.4981l0.0567055,4.9512005  c-3.1846046,0.7313995-6.1494026,2.0243998-8.7959061,3.7616997l-3.5419998-3.4618998  c-0.6186981-0.6075001-1.434597-0.9053001-2.2821999-0.9053001c-1.0195999,0-2.0839996,0.4307003-2.9053001,1.2685995  l-2.7157974,2.7773008c-1.5009995,1.5360994-1.6142998,3.8612995-0.2481003,5.1942987l3.5419998,3.464901  c-1.6786957,2.6844997-2.9053001,5.6758003-3.5663986,8.875l-4.9502029,0.0546989  C30.5028954,29.5438995,28.9765949,31.3027,29,33.4511986l0.0438957,3.8838005  c0.0235004,2.1366997,1.5713005,3.8496017,3.4614983,3.8496017c0.0112,0,0.0223999,0,0.0337029,0l4.9530983-0.0557022  c0.7313995,3.1836014,2.0253983,6.1475029,3.7616997,8.7919998l-3.4628944,3.5449028  c-1.3389053,1.3633003-1.1719055,3.6835976,0.3622932,5.1865005l2.7754021,2.7167969  c0.8173981,0.7979012,1.8564987,1.2032013,2.8511009,1.2032013c0.8768997,0,1.7192039-0.3144989,2.3442039-0.9541016  l3.4648933-3.5439987c2.6836014,1.6796989,5.6757011,2.902401,8.8759003,3.5644989l0.0538025,4.9491997  C58.5400009,68.482399,60.2694931,70,62.3944931,70c0.0171013,0,0.0337029,0,0.0508003,0l3.884304-0.0438995  c2.1483994-0.024498,3.8729935-1.5878983,3.8516006-3.4981003l-0.0567017-4.9511986  C73.3080978,60.7753983,76.2748947,59.482399,78.9193954,57.7440987z M66.0878983,58.330101L66.125,61.5527l0.050293,4.4043007  l-3.6630974,0.0419998l-0.0474014-4.4033012l-0.035099-3.2216988l-3.1543007-0.6523018  c-2.6865005-0.5556984-5.2314987-1.5780983-7.5644989-3.0380974l-2.7304001-1.7089996l-2.2519989,2.3036995l-3.0830002,3.1532974  l-2.6138-2.5585976l3.0834999-3.1571999l2.2481003-2.3008003l-1.7656021-2.6893997  c-1.5165977-2.3096008-2.5952988-4.830101-3.2070999-7.4922028l-0.7216988-3.1405983l-3.2215996,0.0360985l-4.4048004,0.0498009  l-0.0414963-3.6620979l4.4052963-0.0488014l3.2210999-0.0362015l0.6519012-3.1542988  c0.5531998-2.6767006,1.5767021-5.2215996,3.0409966-7.5634003l1.7066002-2.7294998l-2.3013-2.2509995l-3.1523972-3.0840006  l2.5580978-2.6152L46.2841949,15.1152l2.3012009,2.2490997l2.6899986-1.7656994  c2.3091011-1.5156002,4.8310013-2.5947008,7.4961014-3.2070007l3.141098-0.7216997l-0.0370979-3.2226l-0.0503006-4.4042997  l3.6631012-0.0410004l0.0487976,4.4033003l0.035202,3.2216997l3.1548004,0.6513004  c2.6772003,0.5536995,5.2225952,1.5761995,7.5649033,3.0401001l2.7290039,1.704999l2.25-2.3006992l3.0839996-3.1524  l2.6137924,2.5576l-3.0826035,3.1514006l-2.2523956,2.3027l1.7689972,2.6913986  c1.5127029,2.3008003,2.591301,4.8233013,3.2065964,7.4952011l0.7221069,3.1395988l3.2206955-0.0360985L94.9580002,32.8223  l0.0404968,3.6590996l-4.4076996,0.0517998l-3.2173004,0.0381012l-0.6523056,3.1513977  c-0.555191,2.6826019-1.5780945,5.2265015-3.0400009,7.5625l-1.7084961,2.7294006l2.3016968,2.2520027l3.1528015,3.0839996  l-2.5599976,2.6161995L81.7162933,54.8848l-2.3022003-2.2519989l-2.6919022,1.7686005  c-2.3046951,1.5155983-4.8261871,2.5936966-7.4931946,3.2069969L66.0878983,58.330101z" style="" fill="currentColor"></path><path d="M63.9994965,20.8192997c-7.778801,0-14.0853996,6.3486996-14.0853996,14.1807003  c0,7.8330002,6.3065987,14.1815987,14.0853996,14.1815987c7.7792969,0,14.0858994-6.3485985,14.0858994-14.1815987  C78.0853958,27.1679993,71.7787933,20.8192997,63.9994965,20.8192997z M63.9994965,45.1815987  c-5.5610008,0-10.0854034-4.5672989-10.0854034-10.1815987c0-5.6133003,4.5244026-10.1807003,10.0854034-10.1807003  c5.5615005,0,10.0858994,4.5674,10.0858994,10.1807003C74.0853958,40.6142998,69.560997,45.1815987,63.9994965,45.1815987z" style="" fill="currentColor"></path><path d="M120.7123947,15.9307003c-0.1133041-0.4209003-0.2363052-0.9170008-0.3726044-1.4668007  C118.9994965,9.0663996,116.4975967-0.9639,109.4584961,0.0703c-3.4883041,0.5205-4.9849014,4.1708999-4.8999023,7.3399  c0.0058975,0.2255001,1.2832031,22.5389996,2.0438995,35.8192978c0.0635071,1.1044998,1.0210037,1.9511986,2.1109009,1.8828011  c1.1029968-0.0634995,1.9458008-1.0088005,1.8823013-2.1113014c-0.6943054-12.1220989-2.0141983-35.1884995-2.0381012-35.6963005  c-0.0317001-1.1767998,0.3451996-3.1064997,1.4902954-3.2774c3.4604034-0.5107,5.5249023,7.8360004,6.4096069,11.4004002  c0.1436005,0.5771999,0.272995,1.0977001,0.3920975,1.5419998c0.9574966,3.5566998,5.0278015,20.6963005,6.1952972,27.3974991  c1.7041092,9.7509995,1.1016006,17.580101-1.8427963,23.9335976c-1.8348999,3.9629059-4.3803024,7.743103-6.8427048,11.3994064  c-3.0513,4.5311966-6.2065964,9.2177963-8.2192993,14.4785004c-1.2001953,3.1269989-1.4193954,6.1562958-0.6333008,8.7607956  c0.0142136,0.0467987,0.030304,0.0937042,0.047905,0.1406021l0.9174957,2.3837967h-18.755394l-2.1719055-13.8456955  c-0.0184937-0.1075058-1.7583008-10.8526001,4.4649048-19.8077011l0.4487-0.6464005  c2.157196-3.1083984,4.3881989-6.3223038,6.6293945-9.4405022c0.2124023-0.2958984,0.4819031-0.6991997,0.7988052-1.1747971  c1.3593979-2.0381012,4.9701996-7.4521027,7.6231003-7.7558022c0.3548965-0.0401001,0.8442001-0.0098,1.4798965,0.5879021  c0.7099991,0.9081993,0.2753983,4.7167969-5.8291016,17.7010994c-0.8294983,1.7657013-1.4291992,3.0410004-1.7225876,3.8408966  c-0.3799133,1.0371017,0.1522903,2.1865005,1.1893921,2.5664063c1.0362015,0.3788986,2.1860962-0.1524048,2.5663986-1.1895065  c0.2324982-0.6337967,0.8599014-1.969696,1.586998-3.5155945c4.8105011-10.2324028,8.5038986-18.9737015,4.9580002-22.3086014  c-1.3603973-1.2783012-2.9799957-1.8544998-4.6836014-1.6562996c-4.4965973,0.514698-8.3993988,6.3661995-10.4960938,9.5098  c-0.2870941,0.4306984-0.5298004,0.7958984-0.7207031,1.0625c-2.2587967,3.1415977-4.4994965,6.3701019-6.6660004,9.4911957  l-0.4483032,0.6455002c-7.1830902,10.3379059-5.2084961,22.2695999-5.1263962,22.7393036l2.125,13.5507965  c-3.3115997,1.0214005-5.7231979,4.1435013-5.7231979,7.8398056V128h40.851593v-14.3417969  c0-4.5254059-3.6132965-8.1943054-8.0702972-8.1943054h-0.022995l-1.4414063-3.7471008  c-0.6343002-2.1875-0.0487976-4.5233994,0.5591049-6.1063995c1.8500977-4.836998,4.7411957-9.1308975,7.8016968-13.6757965  c2.5499039-3.7862015,5.1861038-7.7012024,7.1542969-11.9522018c3.2984085-7.1180992,4.0029984-15.722599,2.1539001-26.3027  C125.801796,36.8828011,121.6811905,19.5272999,120.7123947,15.9307003z M110.7807922,109.4638977  c2.2445984,0,4.0703049,1.8818054,4.0703049,4.1943054V124H81.9994965v-10.3417969  c0-2.3125,1.8256989-4.1943054,4.0702972-4.1943054H110.7807922z" style="" fill="currentColor"></path><path d="M44.2768936,105.8183975l2.1206017-13.517601c0.0878983-0.5028992,2.0610008-12.4345932-5.1206017-22.7714996  l-0.5551987-0.7997971c-2.1328011-3.0712967-4.3378983-6.2461014-6.5580978-9.3358994  c-0.1924019-0.2686005-0.4361-0.6348-0.7237015-1.0655022c-2.0965996-3.1434975-5.9990005-8.9940987-10.4946003-9.5087967  c-1.7006989-0.1963005-3.3232002,0.3769989-4.6835995,1.6562996c-3.5464001,3.3339996,0.1464996,12.0751991,4.9561005,22.3066025  c0.727499,1.5468979,1.3554001,2.8827972,1.5879002,3.5175934c0.3797989,1.0361023,1.5283031,1.5674057,2.5658989,1.1895065  c1.0370998-0.3799057,1.5697994-1.5293045,1.1898994-2.5664063c-0.2929001-0.7998962-0.8929996-2.0761948-1.7235985-3.8427963  c-6.1035004-12.9834023-6.5381012-16.7910004-5.8358955-17.6905022c0.6439991-0.6054001,1.1341953-0.6366997,1.4881954-0.5965996  c2.6523991,0.3036995,6.2631989,5.7168007,7.6220989,7.7549019c0.3178997,0.4764977,0.5879002,0.8797989,0.8017998,1.1777  c2.2026005,3.0653992,4.3984013,6.2275009,6.5224018,9.2861023l0.5551987,0.7987976  c6.2216988,8.955101,4.4828987,19.7012024,4.4599991,19.8378983l-2.1679993,13.8154984H21.5272961l0.9174995-2.3847961  c0.017601-0.0458984,0.0337009-0.092804,0.0478992-0.1396027c0.7856007-2.6044998,0.5674-5.6328964-0.6318989-8.7587967  c-2.0135994-5.2627029-5.1688995-9.9483032-8.2201996-14.4794998c-2.4624004-3.6563034-5.0088005-7.4375-6.8442001-11.4004059  c-2.9433963-6.3525963-3.5459001-14.1816978-1.8422999-23.934597c1.1693997-6.705101,5.2387996-23.8428001,6.1957994-27.3973999  c0.1191044-0.4433994,0.2490005-0.9667988,0.3931046-1.5458994C12.4286957,11.8593998,14.4965963,3.5146,17.9511967,4.0272999  c1.1454983,0.1709003,1.5223999,2.1006002,1.4921989,3.2452002c-0.0249004,0.5263-1.344799,23.6004982-2.038599,35.7285004  c-0.0635014,1.1025009,0.7792988,2.047802,1.8822994,2.1113014c1.112299,0.0683975,2.0482998-0.7803001,2.1107998-1.8828011  c0.6124001-10.6913986,2.0361996-35.5830002,2.0429993-35.8173981C23.5258961,4.2412,22.0287952,0.5908,18.5410004,0.0703  C11.4926958-0.9619,9.0023956,9.0635004,7.6610961,14.4580002C7.5238962,15.0098,7.4003959,15.5078001,7.287096,15.9296999  c-0.9682999,3.5957003-5.0873995,20.9482002-6.2733998,27.7490005C-0.835,54.2607002-0.1304037,62.8652,3.1670001,69.982399  c1.9691961,4.2519989,4.605896,8.1669998,7.1557961,11.9531021c3.0605001,4.5449982,5.9515991,8.8378983,7.8032036,13.6757965  c0.6063957,1.5820999,1.1913967,3.9179993,0.5570965,6.1054993l-1.4414005,3.7471008h-0.0228996  c-4.4566002,0-8.0698996,3.6688995-8.0698996,8.1943054V128H50v-14.3417969  C50,109.9618988,47.5883942,106.839798,44.2768936,105.8183975z M46,124H13.1488962v-10.3417969  c0-2.3125,1.8256998-4.1943054,4.0698996-4.1943054h24.7113991c2.2440987,0,4.0698051,1.8818054,4.0698051,4.1943054V124z" style="" fill="currentColor"></path></svg>