<svg xmlns="http://www.w3.org/2000/svg" xmlns:xlink="http://www.w3.org/1999/xlink" version="1.1" x="0px" y="0px" viewBox="0 0 64 64" style="enable-background:new 0 0 64 64;max-width:100%" xml:space="preserve" height="100%"><g style="" fill="currentColor"><path d="M61.015,55.234c-0.761-2.534-2.85-4.402-5.453-4.875L49,49.165v-0.518c2.454-1.425,4.251-3.856,4.811-6.73   C55.629,41.541,57,39.928,57,38v-9.877c0-2.791-1.828-5.225-4.48-6.017l-0.5-0.5C49.694,19.28,46.602,18,43.313,18   C36.524,18,31,23.523,31,30.313V38c0,1.928,1.371,3.541,3.189,3.917c0.561,2.874,2.357,5.306,4.811,6.73v0.518l-6.562,1.193   c-2.603,0.474-4.692,2.342-5.453,4.876L24.656,63h38.688L61.015,55.234z M39.75,51.062l2.728,2.046l-2.041,2.04l-1.324-3.971   L39.75,51.062z M44,51.75l-2.915-2.186C42.008,49.846,42.986,50,44,50s1.992-0.154,2.915-0.436L44,51.75z M48.25,51.062   l0.636,0.116l-1.324,3.971l-2.041-2.04L48.25,51.062z M54,39.722v-3.444c0.595,0.347,1,0.985,1,1.722S54.595,39.375,54,39.722z    M33,38c0-0.737,0.405-1.375,1-1.722v3.444C33.405,39.375,33,38.737,33,38z M34,33v1.142c-0.356,0.093-0.69,0.233-1,0.414v-4.243   C33,24.627,37.626,20,43.313,20c2.754,0,5.345,1.073,7.293,3.021l0.882,0.883l0.269,0.066C53.667,24.447,55,26.155,55,28.123v6.433   c-0.31-0.181-0.644-0.322-1-0.414V33h-3.171c-2.71,0-5.3-1.294-6.925-3.461l-0.795-1.062l-1.987,1.988C39.486,32.1,37.312,33,35,33   H34z M36,40v-5.046c2.469-0.229,4.76-1.3,6.536-3.075l0.389-0.389C44.93,33.703,47.818,35,50.829,35H52v5c0,4.411-3.589,8-8,8   S36,44.411,36,40z M27.344,61l1.558-5.191c0.543-1.81,2.035-3.145,3.895-3.482l4.33-0.787l2.437,7.312L44,54.414l4.437,4.437   l2.437-7.312l4.33,0.787c1.859,0.338,3.352,1.673,3.895,3.482L60.656,61H27.344z" style="" fill="currentColor"></path><path d="M3.977,18.519l-1.409,2.434l4.48,4.48l2.434-1.409c0.208,0.095,0.417,0.182,0.625,0.262L10.832,27h6.336l0.725-2.715   c0.209-0.08,0.417-0.167,0.625-0.262l2.434,1.409l4.48-4.48l-1.409-2.434c0.095-0.209,0.183-0.418,0.262-0.627L27,17.169v-6.338   l-2.714-0.723c-0.08-0.209-0.167-0.418-0.262-0.627l1.409-2.434l-4.48-4.48l-2.434,1.409c-0.208-0.095-0.417-0.182-0.625-0.262   L17.168,1h-6.336l-0.725,2.715C9.898,3.795,9.69,3.882,9.482,3.977L7.048,2.567l-4.48,4.48l1.409,2.434   C3.881,9.69,3.794,9.899,3.714,10.108L1,10.831v6.338l2.714,0.723C3.794,18.101,3.881,18.31,3.977,18.519z M3,12.368l2.267-0.604   l0.167-0.52c0.143-0.444,0.332-0.898,0.563-1.348L6.246,9.41L5.068,7.376l2.308-2.309l2.035,1.179l0.486-0.249   c0.446-0.229,0.9-0.419,1.348-0.564l0.519-0.167L12.368,3h3.264l0.604,2.266l0.519,0.167c0.448,0.146,0.902,0.335,1.348,0.564   l0.486,0.249l2.035-1.179l2.308,2.309L21.754,9.41l0.249,0.486c0.231,0.449,0.42,0.903,0.563,1.348l0.167,0.52L25,12.368v3.264   l-2.267,0.604l-0.167,0.52c-0.143,0.444-0.332,0.898-0.563,1.348l-0.249,0.486l1.178,2.034l-2.308,2.309l-2.035-1.179l-0.486,0.249   c-0.446,0.229-0.9,0.419-1.348,0.564l-0.519,0.167L15.632,25h-3.264l-0.604-2.266l-0.519-0.167   c-0.448-0.146-0.902-0.335-1.348-0.564l-0.486-0.249l-2.035,1.179l-2.308-2.309l1.178-2.034l-0.249-0.486   c-0.231-0.449-0.42-0.903-0.563-1.348l-0.167-0.52L3,15.632V12.368z" style="" fill="currentColor"></path><path d="M14,21c1.56,0,3.035-0.501,4.267-1.45l-1.22-1.584C16.167,18.643,15.114,19,14,19c-2.757,0-5-2.243-5-5s2.243-5,5-5   s5,2.243,5,5c0,1.085-0.341,2.116-0.986,2.982l1.604,1.195C20.522,16.963,21,15.519,21,14c0-3.859-3.14-7-7-7s-7,3.141-7,7   S10.14,21,14,21z" style="" fill="currentColor"></path><path d="M58,11v3.586l-1.293-1.293l-1.414,1.414L59,18.414l3.707-3.707l-1.414-1.414L60,14.586V11c0-5.514-4.486-10-10-10h-6v2h6   C54.411,3,58,6.589,58,11z" style="" fill="currentColor"></path><path d="M6,53v-3.586l1.293,1.293l1.414-1.414L5,45.586l-3.707,3.707l1.414,1.414L4,49.414V53c0,5.514,4.486,10,10,10v-2   C9.589,61,6,57.411,6,53z" style="" fill="currentColor"></path><rect x="1" y="31" width="26" height="2" style="" fill="currentColor"></rect><rect x="1" y="39" width="26" height="2" style="" fill="currentColor"></rect><rect x="1" y="35" width="12" height="2" style="" fill="currentColor"></rect><polygon points="15,35 15,37 16,37 20.75,37 27,37 27,35 20.75,35 16,35  " style="" fill="currentColor"></polygon><rect x="40" y="1" width="2" height="2" style="" fill="currentColor"></rect><rect x="36" y="1" width="2" height="2" style="" fill="currentColor"></rect><rect x="16" y="61" width="2" height="2" style="" fill="currentColor"></rect><rect x="20" y="61" width="2" height="2" style="" fill="currentColor"></rect></g></svg>