<svg xmlns="http://www.w3.org/2000/svg" xmlns:xlink="http://www.w3.org/1999/xlink" version="1.1" x="0px" y="0px" viewBox="0 0 100 100" enable-background="new 0 0 100 100" xml:space="preserve" style="max-width:100%" height="100%"><g style="" fill="currentColor"><path d="M54.2,2.5c-5.5,0-10.8,1.2-15.5,3.5c-12.4,5.8-21,18.3-21,32.8v4.8v1.2L10.3,59c-1.9,3.6-0.1,6.5,3.9,6.5h3.5v0.1v6.1v7.2   c0,4.2,3.4,7.6,7.6,7.6l10.5-1.6v10.5v0.1c0,1.3,1.2,2.2,2.6,2l37.7-6.7c1.4-0.3,2.6-1.6,2.6-3.1V86v-1.3V65.5   c7.2-6.6,11.8-16.1,11.8-26.7C90.4,18.8,74.2,2.5,54.2,2.5z M54.2,65.2c-14.7,0-26.6-12-26.6-26.6c0-14.7,12-26.6,26.6-26.6   s26.6,12,26.6,26.6C80.8,53.3,68.9,65.2,54.2,65.2z M65,52.4c0.6,1,0.3,2.4-0.8,3c-1,0.6-2.4,0.3-3-0.8c0,0,0,0,0,0   c-0.6-1-0.3-2.4,0.8-3C63,51.1,64.4,51.4,65,52.4z M47.6,54.8c-0.6,1-1.9,1.4-3,0.8c-0.3-0.2-0.6-0.5-0.8-0.8   c-0.4-0.6-0.4-1.5,0-2.2c0.6-1,1.9-1.4,3-0.8C47.8,52.4,48.2,53.7,47.6,54.8z M41.1,46.3c0.6,1,0.3,2.4-0.8,3c-1,0.6-2.4,0.3-3-0.8   c0,0,0,0,0,0c-0.6-1-0.3-2.4,0.8-3C39.2,44.9,40.5,45.3,41.1,46.3z M56.6,55.9c0,1.2-1,2.2-2.1,2.2c-0.8,0-1.5-0.4-1.9-1.1   c-0.2-0.3-0.3-0.7-0.3-1.1c0-1.2,0.9-2.2,2.1-2.2l0,0C55.6,53.8,56.6,54.7,56.6,55.9z M71.3,48.2c-0.6,1-1.9,1.4-2.9,0.8   c-0.3-0.2-0.6-0.5-0.8-0.8c-0.4-0.6-0.4-1.5,0-2.2c0.6-1,1.9-1.4,3-0.8C71.5,45.8,71.9,47.1,71.3,48.2z M73.8,38.4   c0,1.2-1,2.2-2.1,2.2c-0.8,0-1.5-0.4-1.9-1.1c-0.2-0.3-0.3-0.7-0.3-1.1c0-1.2,1-2.2,2.1-2.2C72.8,36.2,73.8,37.2,73.8,38.4z    M36.8,41.1c-1.4,0-2.5-1.1-2.5-2.5c0-11,9-20,20-20c5,0,9.8,1.9,13.4,5.2c-0.4,0.1-0.8,0.2-1.2,0.4l-3.9,1.9   c-2.4-1.6-5.3-2.5-8.3-2.5c-8.3,0-15,6.7-15,15C39.3,39.9,38.2,41.1,36.8,41.1z M71,28.6c-0.6-1-1.8-1.3-2.8-0.8l-12,5.9   c-1.5-0.6-3.2-0.5-4.7,0.3c-2.5,1.5-3.3,4.7-1.9,7.2c1.5,2.5,4.7,3.3,7.2,1.9c1.5-0.9,2.4-2.4,2.6-4l10.9-7.7   C71.3,30.8,71.6,29.6,71,28.6z M56.5,39.1c-0.3,1.2-1.6,2-2.8,1.7s-2-1.6-1.7-2.8c0.3-1.2,1.6-2,2.8-1.7S56.8,37.9,56.5,39.1z" style="" fill="currentColor"></path></g></svg>