<svg xmlns="http://www.w3.org/2000/svg" xmlns:xlink="http://www.w3.org/1999/xlink" version="1.1" viewBox="0 0 96 96" x="0px" y="0px" style="max-width:100%" height="100%"><path d="M72 96h-48c-8.824 0-16-7.176-16-16v-48c0-8.824 7.176-16 16-16h48c8.824 0 16 7.176 16 16v48c0 8.824-7.176 16-16 16zM24 20c-6.616 0-12 5.384-12 12v48c0 6.616 5.384 12 12 12h48c6.616 0 12-5.384 12-12v-48c0-6.616-5.384-12-12-12h-48z" fill="currentColor" style=""></path><path d="M74 84h-52c-1.104 0-2-0.9-2-2v-18c0-1.1 0.896-2 2-2s2 0.9 2 2v16h48v-16c0-1.1 0.9-2 2-2s2 0.9 2 2v18c0 1.1-0.9 2-2 2z" fill="currentColor" style=""></path><path d="M42 52h-12c-1.104 0-2-0.9-2-2v-12c0-1.104 0.896-2 2-2h12c1.104 0 2 0.896 2 2v12c0 1.1-0.896 2-2 2zM32 48h8v-8h-8v8z" fill="currentColor" style=""></path><path d="M66 52h-12c-1.1 0-2-0.9-2-2v-12c0-1.104 0.9-2 2-2h12c1.1 0 2 0.896 2 2v12c0 1.1-0.9 2-2 2zM56 48h8v-8h-8v8z" fill="currentColor" style=""></path><path d="M38 12h-8c-1.104 0-2-0.896-2-2v-8c0-1.104 0.896-2 2-2h8c1.104 0 2 0.896 2 2v8c0 1.104-0.896 2-2 2zM32 8h4v-4h-4v4z" fill="currentColor" style=""></path><path d="M52 18c-1.1 0-2-0.896-2-2 0-5.512-4.488-10-10-10-1.104 0-2-0.896-2-2s0.896-2 2-2c7.72 0 14 6.28 14 14 0 1.104-0.9 2-2 2z" fill="currentColor" style=""></path></svg>