<svg xmlns="http://www.w3.org/2000/svg" xmlns:xlink="http://www.w3.org/1999/xlink" version="1.1" x="0px" y="0px" viewBox="0 0 100 100" enable-background="new 0 0 100 100" xml:space="preserve" style="max-width:100%" height="100%"><path d="M20.048,95h59.903c0.626,0,1.132-0.507,1.132-1.132v-78.05c0-0.313-0.127-0.596-0.332-0.801l-9.684-9.684  C70.863,5.127,70.58,5,70.266,5H20.048c-0.626,0-1.132,0.507-1.132,1.132v87.735C18.916,94.493,19.423,95,20.048,95z M71.399,8.867  l5.819,5.819h-5.819V8.867z M21.181,7.265h47.953v8.553c0,0.626,0.507,1.132,1.132,1.132h8.553v75.785H21.181V7.265z" style="" fill="currentColor"></path><path d="M34.425,17.364h-6.929c-0.625,0-1.132,0.507-1.132,1.132v6.929c0,0.625,0.507,1.132,1.132,1.132h6.929  c0.626,0,1.132-0.507,1.132-1.132v-6.929C35.558,17.871,35.051,17.364,34.425,17.364z M33.293,24.293h-4.664v-4.664h4.664V24.293z" style="" fill="currentColor"></path><path d="M34.425,36.208h-6.929c-0.625,0-1.132,0.507-1.132,1.132v6.929c0,0.625,0.507,1.132,1.132,1.132h6.929  c0.626,0,1.132-0.507,1.132-1.132V37.34C35.558,36.715,35.051,36.208,34.425,36.208z M33.293,43.137h-4.664v-4.664h4.664V43.137z" style="" fill="currentColor"></path><path d="M34.425,54.599h-6.929c-0.625,0-1.132,0.507-1.132,1.132v6.929c0,0.625,0.507,1.132,1.132,1.132h6.929  c0.626,0,1.132-0.507,1.132-1.132v-6.929C35.558,55.106,35.051,54.599,34.425,54.599z M33.293,61.527h-4.664v-4.664h4.664V61.527z" style="" fill="currentColor"></path><path d="M34.425,73.442h-6.929c-0.625,0-1.132,0.507-1.132,1.132v6.929c0,0.625,0.507,1.132,1.132,1.132h6.929  c0.626,0,1.132-0.507,1.132-1.132v-6.929C35.558,73.949,35.051,73.442,34.425,73.442z M33.293,80.371h-4.664v-4.664h4.664V80.371z" style="" fill="currentColor"></path><path d="M69.396,20.829H42.613c-0.625,0-1.132,0.507-1.132,1.132c0,0.626,0.507,1.132,1.132,1.132h26.783  c0.625,0,1.132-0.507,1.132-1.132C70.529,21.336,70.022,20.829,69.396,20.829z" style="" fill="currentColor"></path><path d="M69.396,39.672H42.613c-0.625,0-1.132,0.507-1.132,1.132c0,0.626,0.507,1.132,1.132,1.132h26.783  c0.625,0,1.132-0.507,1.132-1.132C70.529,40.179,70.022,39.672,69.396,39.672z" style="" fill="currentColor"></path><path d="M69.396,58.063H42.613c-0.625,0-1.132,0.507-1.132,1.132c0,0.626,0.507,1.132,1.132,1.132h26.783  c0.625,0,1.132-0.507,1.132-1.132C70.529,58.57,70.022,58.063,69.396,58.063z" style="" fill="currentColor"></path><path d="M69.396,76.907H42.613c-0.625,0-1.132,0.507-1.132,1.132c0,0.626,0.507,1.132,1.132,1.132h26.783  c0.625,0,1.132-0.507,1.132-1.132C70.529,77.414,70.022,76.907,69.396,76.907z" style="" fill="currentColor"></path></svg>