<svg class="si5fc4cace5488dc00220bb2771289fdf08be34a13954cae6ee96e81531606732505851 svgIcon_1J7 original_2bh messenger_2dM filled_Qbi darkTheme_3jZ" viewBox="0 0 32 32" style="border-radius:4px"><path class="outer_bDW" d="M5 0h22c2.7614237 0 5 2.2385762 5 5v22c0 2.7614237-2.2385763 5-5 5H5c-2.7614238 0-5-2.2385763-5-5V5c0-2.7614238 2.2385762-5 5-5zm11 6c-5.5228571 0-10 4.1712422-10 9.3167702 0 2.9319876 1.4541615 5.5472671 3.726708 7.2550932v3.5523602l3.4049069-1.8803106c.9086957.2530435 1.8713665.3896274 2.8683851.3896274 5.5228571 0 10-4.1712423 10-9.3167702C26 10.1712422 21.5228571 6 16 6zm.9937888 12.5465839l-2.5465838-2.7329193-4.9689441 2.7329193 5.4658385-5.8385094 2.6086956 2.7329193 4.9068323-2.7329193-5.4658385 5.8385094z"></path><path d="M5,1 C2.790861,1 1,2.790861 1,5 L1,27 C1,29.209139 2.790861,31 5,31 L27,31 C29.209139,31 31,29.209139 31,27 L31,5 C31,2.790861 29.209139,1 27,1 L5,1 Z M5,0 L27,0 C29.7614237,-5.07265313e-16 32,2.23857625 32,5 L32,27 C32,29.7614237 29.7614237,32 27,32 L5,32 C2.23857625,32 3.38176876e-16,29.7614237 0,27 L0,5 C-3.38176876e-16,2.23857625 2.23857625,5.07265313e-16 5,0 Z" class="border_2yy"></path><path class="logo_2gS" d="M16 6c-5.5228571 0-10 4.1712422-10 9.3167702 0 2.9319876 1.4541615 5.5472671 3.726708 7.2550932v3.5523602l3.4049069-1.8803106c.9086957.2530435 1.8713665.3896274 2.8683851.3896274 5.5228571 0 10-4.1712423 10-9.3167702C26 10.1712422 21.5228571 6 16 6zm.9937888 12.5465839l-2.5465838-2.7329193-4.9689441 2.7329193 5.4658385-5.8385094 2.6086956 2.7329193 4.9068323-2.7329193-5.4658385 5.8385094z" style="color:#fff;fill:#fff"></path></svg>