<svg class="si5fc4cace5488dc00220bb2771289fdf08be34a13954cae6ee96e81531606732505851 svgIcon_1J7 original_2bh skype_2Te filled_Qbi darkTheme_3jZ" viewBox="0 0 32 32" style="border-radius:4px"><path class="outer_bDW" d="M5,0 L27,0 C29.7614237,-5.07265313e-16 32,2.23857625 32,5 L32,27 C32,29.7614237 29.7614237,32 27,32 L5,32 C2.23857625,32 3.38176876e-16,29.7614237 0,27 L0,5 C-3.38176876e-16,2.23857625 2.23857625,5.07265313e-16 5,0 Z M24,20 C24,19.0972177 23.722225,18.2847258 23.1666667,17.5625 C23.2777783,17.0277751 23.3333333,16.506947 23.3333333,16 C23.3333333,15.0069395 23.1406269,14.0572962 22.7552083,13.1510417 C22.3697897,12.2447871 21.8489616,11.4635449 21.1927083,10.8072917 C20.5364551,10.1510384 19.7552129,9.63021026 18.8489583,9.24479167 C17.9427038,8.85937307 16.9930605,8.66666667 16,8.66666667 C15.493053,8.66666667 14.9722249,8.72222167 14.4375,8.83333333 C13.7152742,8.277775 12.9027823,8 12,8 C10.8958278,8 9.95312891,8.39062109 9.171875,9.171875 C8.39062109,9.95312891 8,10.8958278 8,12 C8,12.9027823 8.277775,13.7152742 8.83333333,14.4375 C8.72222167,14.9722249 8.66666667,15.493053 8.66666667,16 C8.66666667,16.9930605 8.85937307,17.9427038 9.24479167,18.8489583 C9.63021026,19.7552129 10.1510384,20.5364551 10.8072917,21.1927083 C11.4635449,21.8489616 12.2447871,22.3697897 13.1510417,22.7552083 C14.0572962,23.1406269 15.0069395,23.3333333 16,23.3333333 C16.506947,23.3333333 17.0277751,23.2777783 17.5625,23.1666667 C18.2847258,23.722225 19.0972177,24 20,24 C21.1041722,24 22.0468711,23.6093789 22.828125,22.828125 C23.6093789,22.0468711 24,21.1041722 24,20 Z M20.21875,17.7395833 C20.21875,18.2465303 20.1041678,18.703123 19.875,19.109375 C19.6458322,19.515627 19.3385436,19.8402766 18.953125,20.0833333 C18.5677064,20.3263901 18.1423634,20.5121521 17.6770833,20.640625 C17.2118032,20.7690979 16.725697,20.8333333 16.21875,20.8333333 C15.045133,20.8333333 14.0347265,20.6059051 13.1875,20.1510417 C12.3402735,19.6961783 11.9166667,19.1493088 11.9166667,18.5104167 C11.9166667,18.1979151 12.0052074,17.937501 12.1822917,17.7291667 C12.3593759,17.5208323 12.621526,17.4166667 12.96875,17.4166667 C13.1701399,17.4166667 13.357638,17.4722217 13.53125,17.5833333 C13.704862,17.694445 13.8645826,17.8281242 14.0104167,17.984375 C14.1562507,18.1406258 14.3142353,18.2968742 14.484375,18.453125 C14.6545147,18.6093758 14.8802069,18.743055 15.1614583,18.8541667 C15.4427097,18.9652783 15.7604149,19.0208333 16.1145833,19.0208333 C16.5659745,19.0208333 16.9305542,18.9322926 17.2083333,18.7552083 C17.4861125,18.5781241 17.625,18.354168 17.625,18.0833333 C17.625,17.8055542 17.51389,17.5972229 17.2916667,17.4583333 C17.1388881,17.3611106 16.7500031,17.2361119 16.125,17.0833333 L14.6041667,16.7083333 C14.1874979,16.6111106 13.8298626,16.4982645 13.53125,16.3697917 C13.2326374,16.2413188 12.9548624,16.0729177 12.6979167,15.8645833 C12.4409709,15.656249 12.2465284,15.3940988 12.1145833,15.078125 C11.9826382,14.7621512 11.9166667,14.3923632 11.9166667,13.96875 C11.9166667,13.461803 12.0329849,13.0156269 12.265625,12.6302083 C12.4982651,12.2447897 12.8072897,11.9427094 13.1927083,11.7239583 C13.5781269,11.5052072 13.9930533,11.3420144 14.4375,11.234375 C14.8819467,11.1267356 15.3402754,11.0729167 15.8125,11.0729167 C16.47917,11.0729167 17.1111081,11.152777 17.7083333,11.3125 C18.3055585,11.472223 18.7986092,11.7065957 19.1875,12.015625 C19.5763908,12.3246543 19.7708333,12.670137 19.7708333,13.0520833 C19.7708333,13.3645849 19.671876,13.6319433 19.4739583,13.8541667 C19.2760407,14.07639 19.0138905,14.1875 18.6875,14.1875 C18.5069435,14.1875 18.3402785,14.1458338 18.1875,14.0625 C18.0347215,13.9791663 17.895834,13.8784728 17.7708333,13.7604167 C17.6458327,13.6423605 17.5138896,13.5260422 17.375,13.4114583 C17.2361104,13.2968744 17.0486123,13.1979171 16.8125,13.1145833 C16.5763877,13.0312496 16.3090293,12.9895833 16.0104167,12.9895833 C15.0104117,12.9895833 14.5104167,13.2569418 14.5104167,13.7916667 C14.5104167,13.9097228 14.5364581,14.0138884 14.5885417,14.1041667 C14.6406253,14.1944449 14.6979164,14.2673608 14.7604167,14.3229167 C14.822917,14.3784725 14.9270826,14.4340275 15.0729167,14.4895833 C15.2187507,14.5451392 15.3402773,14.5850693 15.4375,14.609375 C15.5347227,14.6336807 15.687499,14.6701386 15.8958333,14.71875 L16.9791667,14.96875 C17.3194461,15.0451393 17.6232626,15.1249996 17.890625,15.2083333 C18.1579874,15.2916671 18.4444429,15.4097215 18.75,15.5625 C19.0555571,15.7152785 19.3090268,15.8854157 19.5104167,16.0729167 C19.7118066,16.2604176 19.8802077,16.4982624 20.015625,16.7864583 C20.1510423,17.0746542 20.21875,17.3923594 20.21875,17.7395833 Z"></path><path d="M5,1 C2.790861,1 1,2.790861 1,5 L1,27 C1,29.209139 2.790861,31 5,31 L27,31 C29.209139,31 31,29.209139 31,27 L31,5 C31,2.790861 29.209139,1 27,1 L5,1 Z M5,0 L27,0 C29.7614237,-5.07265313e-16 32,2.23857625 32,5 L32,27 C32,29.7614237 29.7614237,32 27,32 L5,32 C2.23857625,32 3.38176876e-16,29.7614237 0,27 L0,5 C-3.38176876e-16,2.23857625 2.23857625,5.07265313e-16 5,0 Z" class="border_2yy"></path><path class="logo_2gS" d="M20.21875,17.7395833 C20.21875,17.3923594 20.1510423,17.0746542 20.015625,16.7864583 C19.8802077,16.4982624 19.7118066,16.2604176 19.5104167,16.0729167 C19.3090268,15.8854157 19.0555571,15.7152785 18.75,15.5625 C18.4444429,15.4097215 18.1579874,15.2916671 17.890625,15.2083333 C17.6232626,15.1249996 17.3194461,15.0451393 16.9791667,14.96875 L15.8958333,14.71875 C15.687499,14.6701386 15.5347227,14.6336807 15.4375,14.609375 C15.3402773,14.5850693 15.2187507,14.5451392 15.0729167,14.4895833 C14.9270826,14.4340275 14.822917,14.3784725 14.7604167,14.3229167 C14.6979164,14.2673608 14.6406253,14.1944449 14.5885417,14.1041667 C14.5364581,14.0138884 14.5104167,13.9097228 14.5104167,13.7916667 C14.5104167,13.2569418 15.0104117,12.9895833 16.0104167,12.9895833 C16.3090293,12.9895833 16.5763877,13.0312496 16.8125,13.1145833 C17.0486123,13.1979171 17.2361104,13.2968744 17.375,13.4114583 C17.5138896,13.5260422 17.6458327,13.6423605 17.7708333,13.7604167 C17.895834,13.8784728 18.0347215,13.9791663 18.1875,14.0625 C18.3402785,14.1458338 18.5069435,14.1875 18.6875,14.1875 C19.0138905,14.1875 19.2760407,14.07639 19.4739583,13.8541667 C19.671876,13.6319433 19.7708333,13.3645849 19.7708333,13.0520833 C19.7708333,12.670137 19.5763908,12.3246543 19.1875,12.015625 C18.7986092,11.7065957 18.3055585,11.472223 17.7083333,11.3125 C17.1111081,11.152777 16.47917,11.0729167 15.8125,11.0729167 C15.3402754,11.0729167 14.8819467,11.1267356 14.4375,11.234375 C13.9930533,11.3420144 13.5781269,11.5052072 13.1927083,11.7239583 C12.8072897,11.9427094 12.4982651,12.2447897 12.265625,12.6302083 C12.0329849,13.0156269 11.9166667,13.461803 11.9166667,13.96875 C11.9166667,14.3923632 11.9826382,14.7621512 12.1145833,15.078125 C12.2465284,15.3940988 12.4409709,15.656249 12.6979167,15.8645833 C12.9548624,16.0729177 13.2326374,16.2413188 13.53125,16.3697917 C13.8298626,16.4982645 14.1874979,16.6111106 14.6041667,16.7083333 L16.125,17.0833333 C16.7500031,17.2361119 17.1388881,17.3611106 17.2916667,17.4583333 C17.51389,17.5972229 17.625,17.8055542 17.625,18.0833333 C17.625,18.354168 17.4861125,18.5781241 17.2083333,18.7552083 C16.9305542,18.9322926 16.5659745,19.0208333 16.1145833,19.0208333 C15.7604149,19.0208333 15.4427097,18.9652783 15.1614583,18.8541667 C14.8802069,18.743055 14.6545147,18.6093758 14.484375,18.453125 C14.3142353,18.2968742 14.1562507,18.1406258 14.0104167,17.984375 C13.8645826,17.8281242 13.704862,17.694445 13.53125,17.5833333 C13.357638,17.4722217 13.1701399,17.4166667 12.96875,17.4166667 C12.621526,17.4166667 12.3593759,17.5208323 12.1822917,17.7291667 C12.0052074,17.937501 11.9166667,18.1979151 11.9166667,18.5104167 C11.9166667,19.1493088 12.3402735,19.6961783 13.1875,20.1510417 C14.0347265,20.6059051 15.045133,20.8333333 16.21875,20.8333333 C16.725697,20.8333333 17.2118032,20.7690979 17.6770833,20.640625 C18.1423634,20.5121521 18.5677064,20.3263901 18.953125,20.0833333 C19.3385436,19.8402766 19.6458322,19.515627 19.875,19.109375 C20.1041678,18.703123 20.21875,18.2465303 20.21875,17.7395833 Z M24,20 C24,21.1041722 23.6093789,22.0468711 22.828125,22.828125 C22.0468711,23.6093789 21.1041722,24 20,24 C19.0972177,24 18.2847258,23.722225 17.5625,23.1666667 C17.0277751,23.2777783 16.506947,23.3333333 16,23.3333333 C15.0069395,23.3333333 14.0572962,23.1406269 13.1510417,22.7552083 C12.2447871,22.3697897 11.4635449,21.8489616 10.8072917,21.1927083 C10.1510384,20.5364551 9.63021026,19.7552129 9.24479167,18.8489583 C8.85937307,17.9427038 8.66666667,16.9930605 8.66666667,16 C8.66666667,15.493053 8.72222167,14.9722249 8.83333333,14.4375 C8.277775,13.7152742 8,12.9027823 8,12 C8,10.8958278 8.39062109,9.95312891 9.171875,9.171875 C9.95312891,8.39062109 10.8958278,8 12,8 C12.9027823,8 13.7152742,8.277775 14.4375,8.83333333 C14.9722249,8.72222167 15.493053,8.66666667 16,8.66666667 C16.9930605,8.66666667 17.9427038,8.85937307 18.8489583,9.24479167 C19.7552129,9.63021026 20.5364551,10.1510384 21.1927083,10.8072917 C21.8489616,11.4635449 22.3697897,12.2447871 22.7552083,13.1510417 C23.1406269,14.0572962 23.3333333,15.0069395 23.3333333,16 C23.3333333,16.506947 23.2777783,17.0277751 23.1666667,17.5625 C23.722225,18.2847258 24,19.0972177 24,20 Z" style="color:#fff;fill:#fff"></path></svg>