<svg id="Capa_1" enable-background="new 0 0 512 512" height="512" viewBox="0 0 512 512" width="512" xmlns="http://www.w3.org/2000/svg" xmlns:xlink="http://www.w3.org/1999/xlink"><linearGradient id="SVGID_1_" gradientUnits="userSpaceOnUse" x1="256" x2="256" y1="512" y2="0"><stop offset="0" stop-color="#5558ff"/><stop offset="1" stop-color="#00c0ff"/></linearGradient><g><g><path d="m418.367 187.512c-3.9-5.686-11.176-7.978-17.634-5.557l-110.956 41.608-53.171-53.17c-2.922-2.921-6.942-4.51-11.047-4.387-4.13.122-8.026 1.94-10.771 5.028l-120 135c-4.581 5.154-5.059 12.768-1.156 18.453 3.901 5.686 11.178 7.979 17.634 5.557l110.956-41.608 53.171 53.17c2.818 2.818 6.635 4.394 10.607 4.394.146 0 .294-.002.44-.006 4.13-.122 8.026-1.94 10.771-5.028l120-135c4.581-5.154 5.059-12.768 1.156-18.454zm-133.009 121.633-48.751-48.751c-4.185-4.186-10.402-5.491-15.873-3.438l-63.27 23.726 69.179-77.826 48.751 48.751c4.159 4.159 10.366 5.505 15.873 3.438l63.27-23.726zm-29.358-309.145c-140.951 0-256 115.043-256 256 0 48.088 14.137 95.325 40.956 137.116l-39.855 98.245c-2.266 5.585-.969 11.983 3.293 16.245 4.279 4.279 10.684 5.55 16.245 3.293l98.245-39.856c41.792 26.82 89.028 40.957 137.116 40.957 140.951 0 256-115.041 256-256 0-140.951-115.041-256-256-256zm0 482c-44.634 0-88.532-13.903-126.949-40.208-4.161-2.849-9.463-3.41-14.113-1.523l-72.7 29.494 29.492-72.7c1.892-4.662 1.319-9.962-1.522-14.113-26.304-38.417-40.208-82.316-40.208-126.95 0-124.617 101.383-226 226-226s226 101.383 226 226-101.383 226-226 226z" fill="url(#SVGID_1_)"/></g></g></svg>