<svg width="24" height="24" viewBox="0 0 24 24" fill="none" xmlns="http://www.w3.org/2000/svg">
<g clip-path="url(#clip0)">
<path d="M13.4071 12.0066L23.6949 1.71883C24.092 1.33535 24.103 0.702622 23.7195 0.305556C23.336 -0.0915103 22.7033 -0.10252 22.3062 0.280959C22.2979 0.288982 22.2897 0.297181 22.2816 0.305556L11.9938 10.5934L1.70593 0.305497C1.30887 -0.0779819 0.67614 -0.0669718 0.292661 0.330094C-0.0814483 0.717438 -0.0814483 1.33149 0.292661 1.71883L10.5805 12.0066L0.292661 22.2945C-0.0975535 22.6847 -0.0975535 23.3175 0.292661 23.7077C0.682933 24.0979 1.31566 24.0979 1.70593 23.7077L11.9938 13.4199L22.2816 23.7077C22.6786 24.0912 23.3114 24.0802 23.6948 23.6831C24.0689 23.2958 24.0689 22.6817 23.6948 22.2945L13.4071 12.0066Z" fill="#242424"/>
</g>
<defs>
<clipPath id="clip0">
<rect width="24" height="24" fill="white"/>
</clipPath>
</defs>
</svg>
